<?xml version="1.0" encoding="utf-8"?>
<!-- Generator: Adobe Illustrator 21.0.2, SVG Export Plug-In . SVG Version: 6.00 Build 0)  -->
<svg version="1.1" id="圖層_1" xmlns="http://www.w3.org/2000/svg" xmlns:xlink="http://www.w3.org/1999/xlink" x="0px" y="0px"
	 viewBox="0 0 240 197" style="enable-background:new 0 0 240 197;" xml:space="preserve">
<style type="text/css">
	.st0{opacity:0.25;fill:#FFFFFF;}
</style>
<path class="st0" d="M184.3,33.4c2.6-11.5-2.6-17.2-2.6-17.2s-5.9-3.1-15.2,0.6c-9,3.6-42.6,3.9-44.6,3.9c-2,0-35.6-0.3-44.6-3.9
	c-9.3-3.7-15.2-0.6-15.2-0.6s-5.3,5.7-2.6,17.2c2.6,11.5,11.8,30.4,13,35.3c1.2,5,4.6,20.9,0.5,27.4c0,0-9.8-6.1-11.5,0.5l-0.1,0
	c0,0.1,0.1,0.2,0.1,0.3c-0.1,0.4-0.1,0.8-0.2,1.2c-0.6,8.2,4.9,49.5,46.9,57.1v1.2c0,0-0.3,0.9,1.2,2.4c1.5,1.5,3.3,2.3,3.3,2.3
	l0.5-1.2l-3-2.2c0,0-0.8-0.2-0.9-2.4c3.1,0.5,6.3,0.8,9.7,0.9v15.3l-35.2,4.9c0,0-2.8,1.1-2.8,2.8h-1v2.7h7.3v-1.3h34.8h0.4h34.8
	v1.3h7.3v-2.7h-1c0-1.7-2.8-2.8-2.8-2.8l-35.2-4.9v-15.4c51.1-2.3,57.5-49.4,56.8-58.1c0-0.4-0.1-0.8-0.2-1.2c0-0.1,0.1-0.2,0.1-0.3
	l-0.1,0c-1.7-6.7-11.5-0.5-11.5-0.5c-4.2-6.5-0.8-22.5,0.5-27.4C172.5,63.8,181.6,44.9,184.3,33.4z"/>
</svg>
