<?xml version="1.0" encoding="utf-8"?>
<!-- Generator: Adobe Illustrator 21.0.2, SVG Export Plug-In . SVG Version: 6.00 Build 0)  -->
<svg version="1.1" id="圖層_1" xmlns="http://www.w3.org/2000/svg" xmlns:xlink="http://www.w3.org/1999/xlink" x="0px" y="0px"
	 viewBox="0 0 30 32" style="enable-background:new 0 0 30 32;" xml:space="preserve">
<style type="text/css">
	.st0{fill:#FFFFFF;}
</style>
<g>
	<path class="st0" d="M22.8,1.9c0.9,0,1.8,0.3,2.5,0.9c1.9,1.4,2.2,4.1,0.8,5.9l-6.7-5.1C20.3,2.4,21.5,1.9,22.8,1.9 M6.7,1.9
		c1.3,0,2.5,0.6,3.4,1.6L3.4,8.6C2,6.8,2.3,4.1,4.2,2.7C4.9,2.1,5.8,1.9,6.7,1.9 M14.9,4.2c6.3,0,11.3,5.1,11.3,11.3
		c0,0.9-0.1,1.7-0.3,2.5c-0.5,3.4-2.7,6.2-5.7,7.7l2.7,3.4c0.1,0.1,0.1,0.3,0.1,0.5s-0.1,0.3-0.2,0.4s-0.3,0.1-0.5,0.1
		c-0.1,0-0.3-0.1-0.4-0.3L19,26.2c-0.8,0.3-1.6,0.4-2.5,0.5c-0.5,0.1-1.1,0.1-1.6,0.1c-1.8,0-3.4-0.4-4.9-1.1l-3,3.6
		c-0.1,0.1-0.3,0.2-0.4,0.2c-0.2,0-0.4,0-0.5-0.1S5.9,29.1,5.8,29c0-0.2,0-0.4,0.1-0.5l2.9-3.4c-3.2-2-5.2-5.6-5.2-9.6
		C3.6,9.2,8.6,4.2,14.9,4.2 M22.8,0c-1.9,0-3.7,0.9-4.8,2.4c-0.1,0.1-0.1,0.2-0.2,0.3c-0.9-0.2-1.9-0.3-2.9-0.3
		c-1.1,0-2.1,0.1-3.1,0.4c-0.1-0.1-0.1-0.2-0.2-0.3C10.4,0.9,8.6,0,6.7,0C5.4,0,4.1,0.4,3.1,1.2l0,0C0.4,3.3-0.1,7.1,1.9,9.7
		c0.2,0.3,0.5,0.5,0.9,0.6c-0.7,1.6-1,3.3-1,5.1c0,3.8,1.6,7.4,4.4,9.9l-1.6,1.9c0,0,0,0.1-0.1,0.1c-0.3,0.4-0.5,1-0.5,1.6
		c0,0.2,0,0.3,0.1,0.4c0.1,0.6,0.4,1,0.8,1.4c0.3,0.3,0.9,0.6,1.7,0.6c0.2,0,0.3,0,0.4-0.1c0.4-0.1,0.9-0.3,1.3-0.7l0.1-0.1l2.1-2.6
		c1.4,0.5,2.9,0.7,4.4,0.7c0.6,0,1.2,0,1.8-0.1c0.6,0,1.1-0.1,1.6-0.2l2.1,2.7c0.3,0.5,0.9,0.8,1.5,0.9c0.1,0,0.3,0.1,0.4,0.1
		c0.8,0,1.3-0.3,1.6-0.5c0.1-0.1,0.1-0.1,0.2-0.2c0.5-0.5,0.7-1.1,0.7-1.5c0.1-0.6-0.1-1.3-0.5-1.8l0,0l-1.4-1.8
		c2.5-1.9,4.3-4.7,4.8-7.8c0.2-0.9,0.3-1.9,0.3-2.9c0-1.9-0.4-3.6-1.1-5.2c0.2-0.1,0.5-0.3,0.6-0.5c1-1.3,1.4-2.9,1.2-4.5
		c-0.2-1.6-1-3-2.3-4C25.4,0.4,24.1,0,22.8,0L22.8,0z"/>
</g>
</svg>
