<svg id="圖層_1" data-name="圖層 1" xmlns="http://www.w3.org/2000/svg" viewBox="0 0 30 32">
  <defs>
    <style>
      .cls-1 {
        fill: #fff;
      }

      .cls-2 {
        fill: #f47d21;
      }
    </style>
  </defs>
  <title>clock</title>
  <path class="cls-1" d="M23,.38a5.84,5.84,0,0,0-4.7,2.35c-.1.1-.1.2-.2.29a13.29,13.29,0,0,0-2.84-.29,10.33,10.33,0,0,0-3,.39c-.1-.1-.1-.2-.2-.29A6,6,0,0,0,7.26.38,5.66,5.66,0,0,0,3.73,1.56h0A6,6,0,0,0,2.56,9.88a1.43,1.43,0,0,0,.88.59,12.29,12.29,0,0,0-1,5,13,13,0,0,0,4.31,9.69L5.2,27a.1.1,0,0,1-.1.1,2.71,2.71,0,0,0-.49,1.57c0,.2,0,.29.1.39a2.43,2.43,0,0,0,.78,1.37A2.39,2.39,0,0,0,7.16,31c.2,0,.29,0,.39-.1a2.73,2.73,0,0,0,1.27-.69l.1-.1L11,27.6a12.81,12.81,0,0,0,4.31.69,10.64,10.64,0,0,0,1.76-.1,7.61,7.61,0,0,0,1.57-.2l2.06,2.64a2.1,2.1,0,0,0,1.47.88c.1,0,.29.1.39.1a2.67,2.67,0,0,0,1.57-.49l.2-.2A2.21,2.21,0,0,0,25,29.46a2.33,2.33,0,0,0-.49-1.76h0l-1.37-1.76a12.17,12.17,0,0,0,4.7-7.64,13.29,13.29,0,0,0,.29-2.84A12.48,12.48,0,0,0,27,10.37a1.44,1.44,0,0,0,.59-.49A6,6,0,0,0,28.8,5.47a5.78,5.78,0,0,0-2.25-3.92A5.66,5.66,0,0,0,23,.38Z"/>
  <path class="cls-2" d="M23,2.24a3.76,3.76,0,0,1,2.45.88,4.09,4.09,0,0,1,.78,5.78l-6.56-5A4,4,0,0,1,23,2.24"/>
  <path class="cls-2" d="M7.26,2.24a4.48,4.48,0,0,1,3.33,1.57L4,8.8A4.09,4.09,0,0,1,4.81,3a3.67,3.67,0,0,1,2.45-.78"/>
  <path class="cls-2" d="M15.29,4.49A11.05,11.05,0,0,1,26.35,15.56,9.87,9.87,0,0,1,26.06,18a10.12,10.12,0,0,1-5.58,7.54l2.64,3.33a.73.73,0,0,1,.1.49.51.51,0,0,1-.2.39.73.73,0,0,1-.49.1.52.52,0,0,1-.39-.29L19.3,26a9.87,9.87,0,0,1-2.45.49,8.42,8.42,0,0,1-1.57.1,11.13,11.13,0,0,1-4.8-1.08L7.55,29.07a.74.74,0,0,1-.39.2.73.73,0,0,1-.49-.1c-.1-.1-.2-.29-.29-.39a.73.73,0,0,1,.1-.49L9.31,25a11,11,0,0,1-5.09-9.4A11,11,0,0,1,15.29,4.49"/>
</svg>
