<?xml version="1.0" encoding="utf-8"?>
<!-- Generator: Adobe Illustrator 21.1.0, SVG Export Plug-In . SVG Version: 6.00 Build 0)  -->
<svg version="1.1" id="Capa_1" xmlns="http://www.w3.org/2000/svg" xmlns:xlink="http://www.w3.org/1999/xlink" x="0px" y="0px"
	 viewBox="0 0 455.7 455.7" style="enable-background:new 0 0 455.7 455.7;" xml:space="preserve">
<style type="text/css">
	.st0{fill:#3B5998;}
	.st1{fill:#FFFFFF;}
</style>
<g>
	<g>
		<path class="st0" d="M393.3,219.6c0.8-4,1.1-7.4,1.3-10.1c0.3-4.4,0-10.9-0.2-13C390.4,126.1,317.3,70,227.8,70
			C135.7,70,61,129.4,61,202.7c0,67.3,63.1,123,144.8,131.5c5,0.5,8.6,5,8,10l-3.5,31.3c-0.8,7.1,6.6,12.3,13,9.2
			c69.1-33.3,110.3-67.6,135-97.3c4.5-5.4,19.1-25.9,22.1-31.3C386.9,244.7,391.2,232.5,393.3,219.6z"/>
	</g>
</g>
<path class="st1" d="M245.6,162.3h18.8v-27.7h-22.1v0.1c-26.7,0.9-32.2,16-32.7,31.8h-0.1v13.8h-18.2v27.2h18.2v72.8H237v-72.8h22.5
	l4.3-27.2H237v-8.4C237,166.6,240.6,162.3,245.6,162.3z"/>
</svg>
