<svg id="圖層_1" data-name="圖層 1" xmlns="http://www.w3.org/2000/svg" xmlns:xlink="http://www.w3.org/1999/xlink" viewBox="0 0 39.8 10.4">
  <defs>
    <style>
      .cls-1 {
        fill: #ffc2af;
      }

      .cls-2 {
        fill: none;
      }

      .cls-3, .cls-4 {
        isolation: isolate;
      }

      .cls-4 {
        opacity: 0.6;
      }

      .cls-5 {
        fill: #e44326;
      }

      .cls-6 {
        fill: #fff;
      }
    </style>
  </defs>
  <title>false</title>
  <path class="cls-1" d="M36.3,7.5H7a3,3,0,0,1-3-3H4a3,3,0,0,1,3-3H36.4a3,3,0,0,1,3,3h0A3.17,3.17,0,0,1,36.3,7.5Z"/>
  <rect class="cls-2" x="-9.4" y="2.6" width="65.9" height="5.8"/>
  <g class="cls-3">
    <path d="M13.3,2.84h3.44v.49h-1.3a2.66,2.66,0,0,1-.23.49v2.5h-.55V4.5a7.14,7.14,0,0,1-1.16.91l-.33-.54A4.79,4.79,0,0,0,14.37,4a2.22,2.22,0,0,0,.5-.71H13.3Zm2.44,1a7.42,7.42,0,0,1,1.09,1.18l-.49.38a6.39,6.39,0,0,0-1.06-1.27Z"/>
    <path d="M17.33,2.72h3.42v.42h-1V3.4h.9V4.51H19.07l-.13.19h1.83v.42h-.6a2,2,0,0,1-.36.47q.5.12,1,.27l-.3.41a9.37,9.37,0,0,0-1.1-.38l-.1,0a5.17,5.17,0,0,1-1.83.37l-.19-.46a6.55,6.55,0,0,0,1.43-.13l-1-.21L18,5.11h-.73V4.7h1.07l.14-.19H17.47V3.4h.88V3.14h-1Zm1,1.42V3.77H18v.36Zm1.23,1h-1l-.16.19.78.15A1.63,1.63,0,0,0,19.58,5.11ZM19.23,3.4V3.14h-.41V3.4Zm0,.74V3.77h-.41v.36Zm.88,0V3.77h-.41v.36Z"/>
    <path d="M22,2.59l.54.06-.1.17h2.31v.41H22.2a4.65,4.65,0,0,1-.52.63l-.47-.33A2.38,2.38,0,0,0,22,2.59Zm-.59,1.34h3q0,.88,0,1c0,.49,0,.74.09.74s0-.06,0-.19l0-.36.39.22a1.67,1.67,0,0,1-.21.72.35.35,0,0,1-.28.2.4.4,0,0,1-.35-.21A2.57,2.57,0,0,1,24,5V4.34h-1v.54H23a2.36,2.36,0,0,0,.29-.47l.46.11a2,2,0,0,1-.22.37h.34v.39h-1v.9h-.45V5.33a2.15,2.15,0,0,1-.37.43,2.6,2.6,0,0,1-.67.41l-.21-.44A2,2,0,0,0,22,5.27h-.66V4.88h.5a2.52,2.52,0,0,0-.29-.38L22,4.4a1.86,1.86,0,0,1,.32.47h.14V4.34H21.42Zm.68-.52h2.32v.36H22.1Zm1.21,2a5,5,0,0,1,.66.43l-.32.38A4.51,4.51,0,0,0,23,5.65Z"/>
    <path d="M26.24,2.59h.16a5.19,5.19,0,0,1,.55.56l-.11-.37q1,0,1.91-.14L29,3q-.71.11-1.92.22l0,0-.32.41a4.61,4.61,0,0,0-.5-.64,2.74,2.74,0,0,1-.24.29l.36,0c0,.13.08.27.12.41h.39V5.19H26v.5l.44-.07-.12-.26.36-.12a4.87,4.87,0,0,1,.33.61,2.06,2.06,0,0,0,.62-.26L27,5.33a5.84,5.84,0,0,0,.28-.53H27V4.37h.5L27.58,4l.47.08L28,4.37h1V4.8h-.25a2.14,2.14,0,0,1-.33.69,4.51,4.51,0,0,1,.63.38l-.29.43A4.23,4.23,0,0,0,28,5.82a2.83,2.83,0,0,1-1,.48L26.91,6l-.3.15L26.55,6c-.37.1-.74.18-1.1.25l-.08-.49h.14V3.82l-.16.13-.09-.52A3.46,3.46,0,0,0,26,2.59Zm-.62,1.14H26c0-.11-.07-.22-.11-.31Zm.35.57h.45V4.09H26Zm0,.53h.45V4.59H26Zm1.44-1.5a4.83,4.83,0,0,1,.24.65l-.46.16A3.71,3.71,0,0,0,27,3.44ZM28.2,4.8H27.8c-.05.13-.11.26-.17.38l.31.13A1.45,1.45,0,0,0,28.2,4.8Zm-.06-1.53a2.46,2.46,0,0,1,.11.66l-.49,0a5.43,5.43,0,0,0,0-.68Zm.36,0,.44.06a2.68,2.68,0,0,1-.21.84L28.26,4A2,2,0,0,0,28.5,3.22Z"/>
    <path d="M31.49,3l-.14,2.19H31L30.83,3Zm0,3h-.57V5.39h.57Z"/>
  </g>
  <g>
    <image class="cls-4" width="338" height="56" transform="translate(-1.33 9.02) scale(0.03 0.03)" xlink:href="B867B52C.png"/>
    <g>
      <circle class="cls-5" cx="4.3" cy="4.4" r="4"/>
      <g>
        <g>
          <path class="cls-6" d="M3.4,3.8a.56.56,0,0,1-.5.6c-.3,0-.5-.2-.5-.6a.47.47,0,0,1,.5-.5A.47.47,0,0,1,3.4,3.8Z"/>
          <path class="cls-6" d="M5.2,3.8a.56.56,0,0,0,.5.6c.3,0,.5-.2.5-.6a.5.5,0,0,0-1,0Z"/>
        </g>
        <path class="cls-6" d="M6,6.5H6l-3.3.1a.1.1,0,0,1-.1-.1A1.66,1.66,0,0,1,4.3,5.4,1.66,1.66,0,0,1,6,6.5Z"/>
      </g>
    </g>
  </g>
</svg>
