<?xml version="1.0" encoding="utf-8"?>
<!-- Generator: Adobe Illustrator 21.0.2, SVG Export Plug-In . SVG Version: 6.00 Build 0)  -->
<svg version="1.1" id="圖層_1" xmlns="http://www.w3.org/2000/svg" xmlns:xlink="http://www.w3.org/1999/xlink" x="0px" y="0px"
	 viewBox="0 0 40 30" style="enable-background:new 0 0 40 30;" xml:space="preserve">
<style type="text/css">
	.st0{fill:#3A3A3A;}
</style>
<g>
	<path class="st0" d="M29.4,13.3c0.6,1.9,0.4,3.3-1,4.5c-0.2,0.2-0.2,0.8-0.1,1.2c0.3,1.6-0.2,2.9-1.5,3.9c-0.4,0.3-0.6,0.8-0.8,1.3
		c-0.7,2.1-2.1,3-4.3,3.1c-4.1,0.2-8-0.2-11.6-2.5c-0.6-0.4-1.4-0.3-2-0.4c-0.2,0.2-0.3,0.3-0.3,0.4C7.5,27,7.5,27,5.1,27
		c-0.9,0-1.9,0-2.9,0c0-0.6,0-1,0-1.5c1.3,0,2.5,0,3.8,0c0-1,0-1.8,0-2.6c0-4.4,0.1-8.7,0.1-13.1c0-0.9-0.2-1.3-1.1-1.2
		c-0.9,0.1-1.8,0-2.7,0C2,7.6,2.1,7,3.2,7.1c0.7,0,1.5,0,2.2,0C6.8,7,8.1,7,7.6,9.3c0.7-0.4,1.2-0.7,1.7-0.9
		c2.2-1.4,4.4-2.8,6.6-4.2c2.7-1.7,5.2-1.2,6.9,1.5C23.4,6.6,24,6.9,25,6.8c3.1-0.1,6.3,0,9.4,0c0.6,0,1.3,0,1.9,0.2
		c1.3,0.3,2.4,0.8,2.6,2.4c0.1,1.5-0.7,2.9-2.2,3.4c-0.9,0.3-1.8,0.4-2.7,0.4C32.5,13.3,31,13.3,29.4,13.3z M22.1,13.2
		c-0.5-1.2-0.1-1.6,1-1.6c3.8,0,7.6,0,11.4,0c0.7,0,1.5-0.1,2.1-0.5c0.4-0.3,0.7-1,0.7-1.6c0-0.3-0.7-0.8-1.1-0.9
		c-0.8-0.2-1.6-0.3-2.5-0.3c-4.4,0-8.7,0-13.1,0c-1.1,0-1.6-0.3-1.1-1.4c0.7-0.1,1.3-0.1,1.9-0.2c-0.7-1.9-2.5-2.5-4.1-1.5
		c-3,1.8-5.9,3.7-8.8,5.6c-0.4,0.3-0.7,1-0.7,1.6c-0.1,3,0,6,0,9c0,0.5,0.1,0.9,0.1,1.3c1,0.2,2.1,0.2,2.7,0.6
		c3.5,2.4,7.4,2.7,11.4,2.5c1.5-0.1,2.3-0.8,2.6-2.7c-0.9,0-1.9,0.1-2.8,0c-0.4,0-0.7-0.5-1-0.7c0.3-0.2,0.7-0.7,1-0.7
		c1.1-0.1,2.3,0,3.4,0c1.3,0,1.7-0.8,1.7-1.9c0-1.1-0.3-1.8-1.6-1.7c-0.7,0.1-1.5,0.1-2.2,0c-0.4-0.1-0.7-0.4-1-0.7
		c0.3-0.3,0.6-0.7,1-0.7c1.1-0.1,2.2-0.1,3.2,0c1,0,2,0,2.1-1.4c0-1.3-0.7-1.9-2.2-1.9C24.7,13.2,23.3,13.2,22.1,13.2z"/>
</g>
</svg>
