<?xml version="1.0" encoding="utf-8"?>
<!-- Generator: Adobe Illustrator 22.0.1, SVG Export Plug-In . SVG Version: 6.00 Build 0)  -->
<svg version="1.1" id="圖層_1" xmlns="http://www.w3.org/2000/svg" xmlns:xlink="http://www.w3.org/1999/xlink" x="0px" y="0px"
	 viewBox="0 0 300 80" style="enable-background:new 0 0 300 80;" xml:space="preserve">
<style type="text/css">
	.st0{fill:#FFF625;}
</style>
<g>
	<path class="st0" d="M133.9,22c0.3,0.4,0.4,1,0.3,1.5c0,0.5-0.3,1-0.8,1.3c-0.3,0.3-0.6,0.4-1,0.5l0,0c-0.4,0-0.8-0.2-1-0.5
		l-0.8-1.5l0,0l-1.8,10.4c0,0.5-0.3,1-0.8,1.3c-0.4,0.2-0.8,0.4-1.3,0.5c-0.5,0-0.9-0.2-1.3-0.5c-0.4-0.3-0.5-0.8-0.3-1.3l1.5-9.4
		l0,0c-1,1.8-2,3.3-3,4.8c-0.3,0.3-0.5,0.5-0.8,0.5h-0.3c-0.5,0-0.8-0.3-0.8-0.5v-0.3c-0.3-0.4-0.3-0.9,0-1.3v-0.3l0.8-1.5
		c1.8-2.1,3.4-4.4,4.8-6.9v-0.3h-2.3c-0.5,0-0.9-0.2-1.3-0.5c-0.4-0.3-0.5-0.8-0.3-1.3c0-0.5,0.3-1,0.8-1.3c0.4-0.2,0.8-0.4,1.3-0.5
		h2.5c0.3,0,0.3,0,0.3-0.3l0.3-3.8c0-0.3,0-0.3-0.3-0.3c-0.8,0.3-1.5,0.3-2.3,0.5H126c-0.4,0-0.7-0.1-1-0.3c-0.3-0.3-0.6-0.6-0.8-1
		V9.5c0-0.3,0.1-0.6,0.3-0.8c0.3-0.3,0.6-0.6,1-0.8c2.4-0.4,4.8-1,7.1-1.8c0.3,0,0.8-0.3,1-0.3h0.8c0.5,0.2,0.9,0.5,1.3,0.8V7
		c0.2,0.2,0.3,0.5,0.3,0.8V8c-0.2,0.5-0.6,0.8-1,1c-0.6,0.3-1.3,0.5-2,0.5c-0.1,0-0.2,0.1-0.3,0.2c0,0,0,0,0,0.1l-0.8,4.1
		c0,0.3,0,0.3,0.3,0.3h1.5c0.5,0,0.9,0.2,1.3,0.5c0.3,0.5,0.5,0.8,0.3,1.3c0,0.5-0.3,1-0.8,1.3c-0.3,0.4-0.8,0.5-1.3,0.5h-1.6
		c-0.3,0-0.3,0-0.3,0.3v0.5c0,0.3,0,0.3,0.3,0.5C132.2,20,133,21,133.9,22z M146.8,23.5c0.2-0.5,0.7-0.9,1.3-1
		c0.3-0.2,0.7-0.3,1-0.3h0.8c0.5,0.2,0.8,0.6,1,1c0,0.3,0.3,0.5,0,0.8s0,0.5-0.3,0.5c-1.4,2.8-3.5,5.1-6.1,6.9
		c-2.7,1.9-5.7,3.3-8.9,4.1h-0.5c-0.4,0-0.7-0.1-1-0.3c-0.5-0.2-0.8-0.6-1-1c0-0.3,0-0.3-0.3-0.5c-0.2-0.2-0.2-0.5-0.1-0.7
		c0,0,0.1-0.1,0.1-0.1c0.3-0.3,0-0.3,0.3-0.5s0.5-0.8,1-0.8c2.7-0.6,5.2-1.6,7.6-3C143.8,27.3,145.5,25.6,146.8,23.5z M137.9,13.1
		c0.2-0.5,0.5-1,1-1.3c0.3-0.2,0.7-0.3,1-0.3h0.3c0.5,0,0.9,0.3,1,0.8c0.2,0.3,0.3,0.7,0.3,1v0.5c-0.9,2.5-2.1,4.9-3.6,7.1
		c-0.3,0.5-0.7,0.8-1.3,1h-0.5c-0.4,0-0.7-0.1-1-0.3l0,0c-0.5-0.3-0.8-0.5-0.8-1v-0.5c0-0.3,0.3-0.5,0.3-1
		C135.9,17.3,137,15.2,137.9,13.1z M146.3,5.7c0.5,0,0.9,0.2,1.3,0.5c0.4,0.3,0.5,0.8,0.3,1.3l-2.3,14.7c-0.2,0.8-0.5,1.5-0.8,2.3
		c-0.2,0.6-0.7,1.1-1.3,1.3c-0.9,0.3-1.8,0.6-2.8,0.8h-0.3c-0.5,0-0.8-0.3-1.3-0.5c-0.5-0.3-0.5-0.8-0.8-1.3V24
		c0-0.3,0.3-0.5,0.5-0.8c0.3-0.3,0.6-0.4,1-0.5h1c0.3,0,0.5-0.2,0.5-0.5l2.3-14.7c0-0.5,0.3-1,0.8-1.3
		C145.1,5.9,145.7,5.8,146.3,5.7z M153.1,18.2v0.5c-0.1,0.4-0.2,0.7-0.5,1c-0.3,0.5-0.7,0.8-1.3,1h-0.5c-0.3,0-0.6-0.1-0.8-0.3
		c-0.5-0.3-0.5-0.8-0.8-1c-0.2-2-0.5-3.9-1-5.8v-0.8c0-0.3,0.1-0.6,0.3-0.8c0.2-0.5,0.6-0.8,1-1c0.3,0,0.5-0.3,0.8-0.3
		c0.3,0,0.6,0.1,0.8,0.3c0.5,0.2,0.8,0.6,1,1C152.6,14.4,152.9,16.4,153.1,18.2z"/>
	<rect x="159.5" y="7" class="st0" width="117.8" height="28.4"/>
	<g>
		<path class="st0" d="M64.8,63.4c-0.2,0.4-0.4,0.7-0.8,1c-0.2,0.2-0.5,0.3-0.8,0.3H63c-0.4,0-0.8-0.2-1-0.5
			c-0.2-0.2-0.3-0.5-0.3-0.8v-0.5c0.3-0.8,0.5-1.5,0.8-2.5c0-0.3,0-0.3-0.3-0.3h-1.5c-0.3,0-0.3,0-0.3,0.3v10.9
			c0.1,0.8,0,1.5-0.3,2.3c-0.2,0.6-0.7,1.1-1.3,1.3c-1,0.3-2,0.6-3,0.8l0,0c-0.5,0-0.9-0.2-1.3-0.5c-0.5-0.3-0.8-0.7-1-1.3V73
			c0-0.3,0.1-0.6,0.3-0.8c0.2-0.3,0.6-0.5,1-0.5h2V60.6c0-0.3,0-0.3-0.3-0.3h-3c-0.5,0-0.9-0.2-1.3-0.5c-0.3-0.5-0.5-1-0.5-1.5
			c0-0.9,0.7-1.7,1.6-1.8c0,0,0,0,0.1,0h5.1c-1.3-1-2.6-1.8-4.1-2.5c-0.3-0.3-0.6-0.6-0.8-1v-0.3c0-0.3,0.1-0.6,0.3-0.8
			c0.3-0.3,0.8-0.5,1-0.8h0.5c0.3,0,0.6,0.1,0.8,0.3c0.5,0.2,0.9,0.5,1.3,0.8h0.4c0.7-0.7,1.3-1.5,1.8-2.3v-0.2h-5.3
			c-0.5,0-0.9-0.2-1.3-0.5c-0.3-0.2-0.5-0.6-0.5-1c0-0.9,0.7-1.7,1.6-1.8c0,0,0,0,0.1,0h9.2c0.3,0,0.6,0.1,0.8,0.3l1.5,1.3l0,0
			c0.1-0.4,0.2-0.7,0.5-1c0.2-0.3,0.6-0.5,1-0.5H81c0.4,0,0.8,0.2,1,0.5c0.3,0.3,0.4,0.6,0.5,1c-0.1,0.8-0.7,1.4-1.5,1.5h-4.3
			c-0.3,0-0.3,0-0.3,0.3c-0.2,0.6-0.4,1.2-0.5,1.8v0.3H80c0.9,0,1.7,0.7,1.8,1.6c0,0,0,0,0,0.1v13.6c0,0.9-0.7,1.7-1.6,1.8
			c0,0,0,0-0.1,0H69.3c-0.9,0-1.7-0.7-1.8-1.6c0,0,0,0,0-0.1V53.2c0-0.9,0.7-1.7,1.6-1.8c0,0,0,0,0.1,0h2.9c0.3,0,0.3,0,0.3-0.3
			c0.1-0.6,0.2-1.2,0.3-1.8c0-0.3,0-0.3-0.3-0.3h-4.8c-0.4-0.1-0.7-0.2-1-0.5c-0.3-0.2-0.5-0.6-0.5-1l0,0c-1.2,2.1-2.6,3.9-4.3,5.6
			c-0.3,0,0,0.3,0,0.3c0.3,0.1,0.5,0.3,0.8,0.5c0.3,0.2,0.5,0.6,0.5,1v0.3c0,0.3-0.1,0.6-0.3,0.8h2.5l0.8,0.3c0.3,0,0.5,0.3,0.8,0.5
			c0.3,0.3,0.3,0.5,0.3,1C66.1,59.6,65.4,61.4,64.8,63.4z M68.4,70c0.5-0.3,1-0.5,1.5-0.5h0.3c0.5,0,0.9,0.2,1.3,0.5l0,0
			c0.5,0.2,0.8,0.7,0.8,1.3c0,0.4-0.2,0.8-0.5,1c-1.3,1-2.8,1.8-4.3,2.5c-0.3,0.2-0.7,0.3-1,0.3h-0.5c-0.5,0-1-0.3-1.3-0.8
			c-0.2-0.2-0.3-0.5-0.3-0.8v-0.3c0-0.5,0.3-0.8,0.8-1C66.2,71.6,67.3,70.8,68.4,70L68.4,70z M77.3,56.5
			C77.5,56.5,77.5,56.2,77.3,56.5l0.3-1.8c0-0.3,0-0.3-0.3-0.3h-6.9c-0.3,0-0.3,0-0.3,0.3v1.5c0,0.3,0,0.3,0.3,0.3H77.3z M77.3,61.3
			C77.5,61.3,77.5,61.1,77.3,61.3l0.3-1.8c0-0.3,0-0.3-0.3-0.3h-6.9c-0.3,0-0.3,0-0.3,0.3v1.5c0,0.3,0,0.3,0.3,0.3H77.3z M77.3,65.9
			L77.3,65.9l0.3-1.8c0-0.3,0-0.3-0.3-0.3h-6.9c-0.3,0-0.3,0-0.3,0.3v1.5c0,0.3,0,0.3,0.3,0.3H77.3z M76,72
			c-0.6-0.4-0.7-1.2-0.3-1.8l0,0c0.1-0.1,0.2-0.2,0.3-0.3c0.9-0.7,2.1-0.7,3,0c1,0.6,1.9,1.3,2.8,2c0.6,0.6,0.6,1.6,0,2.2
			c0,0,0,0,0,0l0,0l0,0c-0.5,0.3-0.8,0.5-1.3,0.5h-0.3c-0.5,0-0.9-0.2-1.3-0.5L76,72z"/>
		<path class="st0" d="M107,70.7h3.3c0.5,0,1-0.3,1-0.8c0.1-0.6,0.2-1.2,0.3-1.8c0-0.4,0.2-0.8,0.5-1c0.3,0,0.5-0.3,0.8-0.3
			c0.3,0,0.3,0,0.5,0.3h0.3c0.5,0.2,1,0.5,1.3,1c0.2,0.3,0.3,0.7,0.3,1v0.3c-0.1,1.2-0.4,2.3-1,3.3c-0.8,1-2.1,1.4-3.3,1.3h-4.3
			c-2,0-3.3-0.3-3.8-1c-0.8-1.1-1.2-2.5-1-3.8v-5.1c0-0.3,0-0.3-0.3-0.3h-3.6c-0.3,0-0.3,0-0.3,0.3c-0.2,1.1-0.5,2.2-0.8,3.3
			c-0.4,1-1,2-1.8,2.8c-0.8,1-1.8,1.8-3,2.3c-1,0.5-2,0.8-3,1.3h-0.6c-0.4,0-0.7-0.1-1-0.3c-0.5-0.2-1-0.5-1.3-1l0,0v-0.3
			c-0.2-0.2-0.3-0.5-0.3-0.8V71c0.3-0.5,0.5-0.8,0.8-0.8c1.2-0.2,2.3-0.7,3.3-1.3c1.1-0.5,2-1.3,2.5-2.3c0.5-0.9,0.8-1.8,1-2.8
			c0-0.3,0-0.3-0.3-0.3h-1.8c-0.5,0-0.9-0.2-1.3-0.5c-0.4-0.3-0.6-0.8-0.5-1.3V46.1c0-0.5,0.2-0.9,0.5-1.3c0.3-0.4,0.8-0.6,1.3-0.5
			h17.8c0.5,0,0.9,0.2,1.3,0.5c0.4,0.3,0.6,0.8,0.5,1.3v15.5c0,0.5-0.2,0.9-0.5,1.3c-0.3,0.4-0.8,0.6-1.3,0.5h-3.3
			c-0.3,0-0.3,0-0.3,0.3v5.8c0,0.5,0,1,0.3,1S106.1,70.7,107,70.7z M93.4,48.4C93.2,48.4,93.2,48.6,93.4,48.4l-0.3,1.8
			c0,0.3,0,0.3,0.3,0.3h13.2c0.3,0,0.3,0,0.3-0.3v-1.5c0-0.3,0-0.3-0.3-0.3H93.4z M93.4,53.7L93.4,53.7l-0.3,1.8
			c0,0.3,0,0.3,0.3,0.3h13.2c0.3,0,0.3,0,0.3-0.3V54c0-0.3,0-0.3-0.3-0.3H93.4z M93.4,58.8C93.2,58.8,93.2,59,93.4,58.8l-0.3,1.8
			c0,0.3,0,0.3,0.3,0.3h13.2c0.3,0,0.3,0,0.3-0.3V59c0-0.3,0-0.3-0.3-0.3H93.4z"/>
		<path class="st0" d="M123.5,46.6c0.3-0.5,0.5-1,1-1s0.5-0.3,1-0.3h0.5c0.5,0.2,0.8,0.6,1,1c0.3,0.5,0.3,1.1,0,1.5
			c-0.8,1.8-1.5,3.3-2.3,4.8c0,0.3-0.3,0.3-0.3,0.5v20.3c0,1-0.8,1.8-1.8,1.8c-0.5,0-0.9-0.2-1.2-0.5c-0.5-0.3-0.5-0.8-0.5-1.3V59
			l0,0c-0.3,0.3-0.5,0.8-0.8,1c-0.2,0.3-0.6,0.5-1,0.5h-0.3c-0.5,0-0.8-0.3-1-0.8c-0.1-0.3-0.3-0.6-0.5-0.8
			c-0.2-0.4-0.3-0.8-0.3-1.3v-0.3c0.1-0.5,0.2-1.1,0.5-1.5C120.1,53.3,122.1,50.1,123.5,46.6z M143.8,54.5L143.8,54.5l-4.1-0.3
			c-0.3,0-0.3,0-0.3,0.3V71c0.1,0.8,0,1.5-0.3,2.3c-0.2,0.6-0.7,1.1-1.3,1.3c-0.8,0.5-1.8,0.8-2.8,0.8h-0.3c-0.5,0-0.9-0.2-1.3-0.5
			c-0.5-0.3-0.8-0.7-1-1.3c0-0.3,0-0.3-0.3-0.5v-0.5c0-0.3,0.1-0.6,0.3-0.8c0.2-0.3,0.6-0.5,1-0.5h1.8c0.1-0.1,0.2-0.3,0.3-0.5V54.5
			c0-0.3,0-0.3-0.3-0.3h-3.3c-0.3,0-0.3,0-0.3,0.3c-0.5,1-1.3,2.3-1.8,3.3c-0.2,0.5-0.7,0.8-1.3,0.8h-0.3c-0.4,0-0.8-0.2-1-0.5
			c-0.1,0-0.2-0.1-0.3-0.2c0,0,0,0,0-0.1c-0.5-0.3-0.5-0.8-0.8-1.3v-0.3c0-0.5,0-0.8,0.3-1c1.7-2.7,3-5.6,3.8-8.6
			c0.2-0.5,0.5-1,1-1.3c0.3-0.2,0.7-0.3,1-0.3h0.8c0.5,0.3,1,0.5,1,0.8s0.3,0.5,0.3,1v0.5c-0.2,1-0.6,1.9-1,2.8v0.3c0,0.3,0,0,0.3,0
			H146l0.8,0.3c0.4,0,0.8,0.2,1,0.5c0.2,0.2,0.3,0.5,0.3,0.8v0.3l-0.8,4.6c0,0.5-0.3,0.8-0.8,1c-0.3,0.2-0.7,0.3-1,0.3h-0.3
			c-0.5,0-0.8-0.3-1-0.8c-0.2-0.3-0.3-0.7-0.3-1V56C143.7,55.7,143.7,55.2,143.8,54.5L143.8,54.5z M129.8,61.3c0.2-0.5,0.5-1,1-1.3
			c0.3-0.2,0.7-0.3,1-0.3h0.5c0.5,0.1,1,0.4,1.3,0.8c0.3,0.3,0.3,0.5,0.3,1v0.5c-0.7,2.6-1.7,5.2-3,7.6c-0.2,0.4-0.6,0.7-1,0.8h-0.5
			c-0.4,0-0.7-0.1-1-0.3H128c-0.4-0.2-0.7-0.6-0.8-1v-0.5c0-0.4,0.1-0.7,0.3-1C128.3,65.6,129,63.6,129.8,61.3z M141.5,61.8
			c0-0.3-0.3-0.5-0.3-0.8c0-0.3,0.1-0.6,0.3-0.8c0.2-0.5,0.6-0.8,1-1c0.3,0,0.5-0.3,0.8-0.3c0.3,0,0.6,0.1,0.8,0.3
			c0.5,0.2,0.8,0.6,1,1c1,2.3,1.8,4.8,2.5,7.1v0.5c0,0.4-0.1,0.7-0.3,1c-0.3,0.5-0.7,0.8-1.3,1h-0.8c-0.3,0-0.6-0.1-0.8-0.3
			c-0.4-0.2-0.7-0.6-0.8-1C143.1,66.4,142.4,64.1,141.5,61.8z"/>
		<path class="st0" d="M170.9,49.7L170.9,49.7l7.4,0.3c0.9,0,1.7,0.7,1.8,1.6c0,0,0,0,0,0.1l0,0c0,5.3-0.3,10.4-0.8,16
			c0,1.9-0.5,3.8-1.3,5.6l-1.3,1.3c-0.5,0.3-1.2,0.5-1.8,0.5c-0.8,0-1.5,0.3-2.5,0.3h-0.8c-0.5,0-0.9-0.2-1.3-0.5
			c-0.5-0.3-0.8-0.7-1-1.3v-0.8c0-0.3,0.1-0.6,0.3-0.8c0.2-0.3,0.6-0.5,1-0.5h3c0.5-0.1,1.1-0.2,1.5-0.5c0.7-1.5,1.1-3.2,1-4.8
			c0.3-2.5,0.5-6.9,0.8-12.7c0-0.3,0-0.3-0.3-0.3h-6.6c-0.3,0-0.3,0-0.3,0.3c-0.4,1.2-1,2.3-1.8,3.3c-0.2,0.4-0.6,0.7-1,0.8h-0.3
			c-0.5,0-0.8,0-1-0.3c-0.3-0.3-0.5-0.3-0.8-0.5h-0.3V70c0,0.5-0.2,0.9-0.5,1.3c-0.7,0.4-1.5,0.7-2.3,0.8h-6.6c-0.3,0-0.3,0-0.3,0.3
			v0.5c0,1-0.8,1.8-1.8,1.8s-1.8-0.8-1.8-1.8V52.2c0-0.9,0.7-1.7,1.6-1.8c0,0,0,0,0.1,0h1.6c0.3,0,0.3,0,0.3-0.3l0.8-3
			c0-0.5,0.3-1,0.8-1.3c0.3-0.3,0.6-0.4,1-0.5h0.8c0.5,0,1,0.3,1,0.8c0.2,0.2,0.3,0.5,0.3,0.8v0.5c-0.3,1-0.8,1.8-1,2.8v0.3
			c0,0.3,0,0,0.3,0h2.8c0.5,0,0.9,0.2,1.3,0.5c0.5,0.3,0.5,0.8,0.5,1.3v3l0,0c1.7-2.7,3-5.6,3.8-8.6c0.2-0.5,0.5-1,1-1.3
			c0.3-0.2,0.7-0.3,1-0.3h0.5c0.5,0.2,0.9,0.5,1.3,0.8c0.3,0.3,0.3,0.5,0.3,1v0.5C171.2,48.1,171.2,48.9,170.9,49.7z M160,58.8
			L160,58.8l0.3-5.1c0-0.3,0-0.3-0.3-0.3h-4.8c-0.3,0-0.3,0-0.3,0.3v4.8c0,0.3,0,0.3,0.3,0.3H160z M155.2,68.5L155.2,68.5l4.8,0.3
			c0.3,0,0.3,0,0.3-0.3v-5.8c0-0.3,0-0.3-0.3-0.3h-4.8c-0.3,0-0.3,0-0.3,0.3v5.8H155.2z M173.5,63.1c0.2,0.3,0.3,0.7,0.3,1v0.5
			c-0.2,0.5-0.5,1-1,1.3l0,0c-0.3,0.3-0.5,0.3-1,0.3h-0.5c-0.5-0.2-0.8-0.6-1-1c-0.8-1.5-1.7-3-2.8-4.3c-0.3-0.3-0.3-0.5-0.3-1v-0.5
			c0-0.5,0.3-0.8,0.8-1c0.3-0.2,0.7-0.3,1-0.3h0.5c0.5,0,1,0.3,1,0.8C171.6,60.1,172.6,61.6,173.5,63.1L173.5,63.1z"/>
		<path class="st0" d="M190.5,52.7c0.3-0.5,0.7-0.8,1.3-1h0.7c0.3,0,0.6,0.1,0.8,0.3h0.3c0.5,0.2,0.8,0.6,1,1v0.5
			c0,0.3-0.1,0.6-0.3,0.8c-0.8,1.1-1.6,2.2-2.3,3.3c0,0.3-0.3,0.3-0.3,0.5v15c0,0.5-0.2,0.9-0.5,1.3c-0.3,0.4-0.8,0.6-1.3,0.5h-0.3
			c-0.9,0-1.7-0.7-1.8-1.6c0,0,0,0,0-0.1V62.4l0,0c-0.5,0.3-0.8,0.8-1,1c-0.3,0.3-0.6,0.4-1,0.5h-0.3c-0.5,0-1-0.3-1.3-0.8
			c-0.3-0.3-0.3-0.3-0.3-0.5c-0.3-0.3-0.4-0.6-0.5-1v-0.3c0-0.5,0.3-1,0.8-1.3c1.2-1,2.4-2.1,3.6-3.3
			C188.6,55.3,189.4,54,190.5,52.7z M188.9,45.6c0.3-0.5,0.7-0.8,1.3-1h0.8c0.4,0,0.7,0.1,1,0.3l0.3,0.3c0.5,0.3,0.8,0.5,0.8,1v0.5
			c0,0.4-0.1,0.7-0.3,1l-3,3c-1,1-2.1,1.9-3.3,2.8c-0.3,0.2-0.7,0.3-1,0.3h-0.3c-0.5,0-1-0.3-1-0.8l0,0c-0.2-0.3-0.3-0.7-0.3-1v-0.3
			c0-0.5,0.3-1,0.8-1.3c1-0.6,1.8-1.4,2.5-2.3C187.7,47.2,188.3,46.4,188.9,45.6z M211.3,55c1,0,1.8,0.8,1.8,1.8
			c0,1-0.8,1.8-1.8,1.8h-2.5c-0.3,0-0.3,0-0.3,0.3V70c0,0.9-0.2,1.7-0.5,2.5c-0.3,0.6-0.9,1.1-1.5,1.3c-1.5,0.4-3,0.6-4.6,0.8l0,0
			c-0.5,0-0.9-0.2-1.3-0.5c-0.4-0.3-0.7-0.8-0.8-1.3c0-0.1-0.1-0.2-0.2-0.3c0,0,0,0-0.1,0V72c0-0.3,0.1-0.6,0.3-0.8
			c0.2-0.3,0.6-0.5,1-0.5h3c0.4,0,0.7-0.2,0.8-0.6c0,0,0,0,0,0V58.6c0-0.3,0-0.3-0.3-0.3h-7.6c-1,0-1.8-0.8-1.8-1.8
			c0-1,0.8-1.8,1.8-1.8l0,0L211.3,55L211.3,55z M210.5,46.1c1,0,1.8,0.8,1.8,1.8c0,1-0.8,1.8-1.8,1.8c0,0,0,0,0,0h-12.2
			c-1,0-1.8-0.8-1.8-1.8c0-1,0.8-1.8,1.8-1.8H210.5z"/>
		<path class="st0" d="M224.5,61.8L224.5,61.8l-0.3,7.9c0,0.3,0,0.3,0.3,0.3c0.9-0.1,1.9-0.3,2.8-0.5h0.3c0.4,0,0.7,0.1,1,0.3
			C229,70,229,70.5,229,71c0,0.4-0.2,0.8-0.5,1c-0.3,0.3-0.8,0.5-1,0.8c-2.3,0.5-5.1,1-8.9,1.5h-0.3c-0.4,0-0.7-0.1-1-0.3
			c-0.4-0.2-0.7-0.6-0.8-1v-0.3c0-0.4,0.1-0.7,0.3-1c0.3-0.5,0.8-0.5,1-0.8c0.5-0.1,1-0.2,1.5-0.3c0.4,0,0.9-0.1,1.3-0.3
			c0.3,0,0.3,0,0.3-0.3v-8.4c0-0.3,0-0.3-0.3-0.3h-2.5c-0.4,0-0.8-0.2-1-0.5c-0.6-0.4-0.7-1.2-0.3-1.8l0,0c0.1-0.1,0.2-0.2,0.3-0.3
			c0.3-0.3,0.6-0.4,1-0.5h2.5c0.3,0,0.3,0,0.3-0.3v-2c0-0.3,0-0.3-0.3-0.3h-1.8c-0.5,0.1-0.9-0.3-1-0.7c0-0.1,0-0.2,0-0.3l0,0
			c-0.3,0.3-0.3,0-0.5,0c-0.2-0.5-0.6-0.8-1-1c-0.3-0.3-0.5-0.8-0.5-1.3c0-0.5,0.3-0.8,0.5-1.3c1.5-1.5,2.8-3.3,3.6-5.3
			c0.2-0.5,0.6-0.8,1-1c0.5-0.3,0.8-0.5,1.3-0.5c1-0.1,2,0.3,2.8,1c1.2,1,2.3,2.1,3.3,3.3c0.4,0.4,0.6,1,0.5,1.5
			c-0.1,0.5-0.2,1.1-0.5,1.5l-0.8,1c0,0.3-0.3,0.3-0.3,0.5v0.8c0,0.5-0.2,0.9-0.5,1.3c-0.3,0.5-0.8,0.5-1.3,0.5h-1
			c-0.3,0-0.3,0-0.3,0.3v2c0,0.3,0,0.3,0.3,0.3h2.3c0.8-0.2,1.6,0.4,1.8,1.2s-0.4,1.6-1.2,1.8c-0.2,0-0.4,0-0.6,0
			C226.8,61.8,224.5,61.8,224.5,61.8z M216.9,65.1v-0.2c0-0.3,0.1-0.6,0.3-0.8c0.3-0.3,0.5-0.5,0.8-0.5h0.5c0.3,0,0.6,0.1,0.8,0.3
			l0.8,0.8c0.3,1,0.5,2,0.8,2.8v0.3c0,0.3-0.1,0.6-0.3,0.8c-0.3,0.3-0.6,0.6-1,0.8c-0.4,0-0.7-0.1-1-0.3c-0.3-0.2-0.5-0.6-0.5-1
			C217.4,67.1,217,66.1,216.9,65.1z M220.2,52.7L220.2,52.7l6.3,0.3h0.3v-0.3c-1-1.5-2.3-2.8-3.3-4.1c-0.3-0.3-0.3,0-0.3,0
			C221.9,50.2,221.1,51.4,220.2,52.7z M227.3,67.9c0,0.3-0.3,0.5-0.8,0.8c-0.3,0.3-0.7,0.3-1,0c-0.3,0-0.5-0.3-0.8-0.8
			c0-0.2-0.1-0.4-0.3-0.5v-0.3c0.3-1,0.5-2,0.8-2.8c0.3-0.8,0.3-0.8,0.8-1c0.2-0.2,0.5-0.3,0.8-0.3h0.3c0.5,0,0.8,0.3,1,0.8
			c0.2,0.2,0.3,0.5,0.3,0.8v0.5C227.8,66,227.4,66.9,227.3,67.9z M243,55.2c0.5,0,0.9,0.2,1.3,0.5c0.3,0.5,0.5,0.8,0.5,1.3v14.2
			c0.1,0.8,0,1.5-0.3,2.3c-0.2,0.6-0.7,1.1-1.3,1.3c-1,0.3-2,0.6-3,0.8l0,0c-0.5,0-0.9-0.2-1.3-0.5c-0.5-0.3-0.8-0.7-1-1.3V73
			c0-0.3,0.1-0.6,0.3-0.8c0.2-0.3,0.6-0.5,1-0.5h1.8c0.1-0.1,0.2-0.3,0.3-0.5v-1.8c0-0.3,0-0.3-0.3-0.3h-6.9c-0.3,0-0.3,0-0.3,0.3
			v4.1c0,1-0.8,1.8-1.8,1.8c-0.5,0-0.9-0.2-1.2-0.5c-0.5-0.3-0.5-0.8-0.5-1.3V56.2c-0.1-0.5,0.3-0.9,0.7-1c0.1,0,0.2,0,0.3,0l0,0
			c-0.4-0.3-0.8-0.6-1.3-0.8c-0.4-0.2-0.7-0.6-0.8-1v-0.5c0-0.4,0.1-0.7,0.3-1c0.7-1.1,1.2-2.3,1.5-3.6c0.3-0.5,0.5-1,1-1
			c0.3-0.2,0.6-0.3,0.9-0.2h0.5c0.5,0,0.9,0.3,1,0.8c0.2,0.2,0.3,0.5,0.3,0.8v0.5c-0.7,2.1-1.6,4-2.8,5.8v0.3h3.6
			c0.3,0,0.3,0,0.3-0.3v-8.4c0-0.5,0.2-0.9,0.5-1.3c0.5-0.3,0.8-0.5,1.3-0.5c0.9,0,1.7,0.7,1.8,1.6c0,0,0,0,0,0.1v8.2
			c0,0.3,0,0.3,0.3,0.3h3.3L243,55.2z M241.2,58.8C241.2,58.5,241,58.5,241.2,58.8l-7.1-0.3c-0.3,0-0.3,0-0.3,0.3v1.5
			c0,0.3,0,0.3,0.3,0.3h6.9c0.3,0,0.3,0,0.3-0.3L241.2,58.8z M233.9,65.6L233.9,65.6l7.1,0.3c0.3,0,0.3,0,0.3-0.3v-1.8
			c0-0.3,0-0.3-0.3-0.3h-6.9c-0.3,0-0.3,0-0.3,0.3L233.9,65.6z M245.5,51.7c0.3,0.5,0.3,1.1,0,1.5c-0.3,0.5-0.5,1-1,1
			s-0.5,0.3-0.8,0.3c-0.3,0-0.6-0.1-0.8-0.3c-0.5-0.2-0.8-0.6-1-1c-0.5-1.3-1.3-2.5-2-4.1c-0.2-0.2-0.3-0.5-0.3-0.8v-0.5
			c0.2-0.4,0.4-0.7,0.8-1c0.3-0.3,0.5-0.3,1-0.3h0.5c0.5,0.3,1,0.5,1,0.8C244,48.7,244.9,50.1,245.5,51.7z"/>
		<path class="st0" d="M264.1,50.7L264.1,50.7l11.4,0.3c0.9,0,1.7,0.7,1.8,1.6c0,0,0,0,0,0.1l0,0c0,4.8-0.3,9.5-1,14.2
			c-0.1,2-0.8,3.9-1.8,5.6c-0.8,1.1-2,1.7-3.3,1.8c-0.8,0-1.5,0.3-2.5,0.3h-0.8c-0.5,0-0.9-0.2-1.3-0.5c-0.4-0.3-0.7-0.8-0.8-1.3
			c0-0.3,0-0.3-0.3-0.5c-0.3-0.3,0-0.3,0-0.5c0-0.3,0.1-0.6,0.3-0.8c0.2-0.3,0.6-0.5,1-0.5h2.8c0.5,0,1.1-0.2,1.5-0.5
			c1-1,1.8-5.8,2.3-14.7c0-0.3,0-0.3-0.3-0.3h-8.6c-0.3,0-0.3,0-0.3,0.3c0,1.4-0.2,2.7-0.5,4.1c-0.3,1.5-0.8,2.9-1.3,4.3
			c-0.6,1.5-1.3,3-2.3,4.3c-1,1.3-2.1,2.6-3.3,3.8c-1,0.9-2,1.8-3,2.5c-0.3,0.2-0.7,0.3-1,0.3h-0.5c-0.5,0-1-0.3-1.3-0.8l-0.5-0.5
			c-0.3-0.3-0.4-0.6-0.5-1c0-0.5,0.3-1,0.8-1.3c5.4-3.4,8.8-9.1,9.1-15.5c0-0.3,0-0.3-0.3-0.3h-7.6c-0.5,0-1-0.1-1.3-0.4
			c-0.4-0.3-0.6-0.8-0.5-1.3v-0.3c0-0.9,0.7-1.7,1.6-1.8c0,0,0,0,0.1,0h8c0.3,0,0.3,0,0.3-0.3v-4.6c0-0.5,0.2-0.9,0.5-1.3
			c0.3-0.4,0.8-0.6,1.3-0.5h0.5c0.5,0,0.9,0.2,1.3,0.5c0.4,0.3,0.6,0.8,0.5,1.3L264.1,50.7L264.1,50.7z"/>
	</g>
</g>
<path class="st0" d="M22.2,67.7l15.2-51.5c0-0.4,0-0.5-0.5-0.5l-9.5,0.8c-1.4,0.1-2.6-0.9-2.7-2.3c0-0.4,0-0.9,0.2-1.2
	c0.3-1,0.9-2,1.7-2.7c0.8-0.8,1.9-1.3,3-1.5c2.3-0.6,4.5-1.3,6.8-2.1c2.8-1.2,5.8-1.9,8.9-2.1c1.1-0.1,2.1,0.4,2.7,1.2
	c0.6,0.9,0.8,2,0.5,3L31.6,70c-0.9,2.4-3.2,4-5.8,3.8C19.8,73.8,23.1,65.7,22.2,67.7z"/>
<path class="st0" d="M65.5,35.2c-3.1,0.3-6.1-1.3-7.6-4c-1.5-2.6-1.5-6.4-0.2-11.4c0.9-4.3,3.1-8.2,6.2-11.3
	c2.7-2.5,6.2-3.9,9.8-3.8c3.1-0.3,6,1.2,7.6,3.9c1.5,2.6,1.5,6.3,0.2,11.2c-1,4.3-3.1,8.3-6.3,11.4C72.7,33.8,69.2,35.2,65.5,35.2z
	 M66.7,30.6c3.5,0,6.3-3.6,8.2-10.8c1.9-7.2,1.1-10.7-2.5-10.6c-0.8,0-1.6,0.2-2.3,0.5c-0.8,0.4-1.5,1-2.1,1.7c-0.8,1-1.5,2.1-2,3.3
	c-0.7,1.6-1.3,3.3-1.8,5.1C62.4,27,63.3,30.7,66.7,30.6L66.7,30.6z"/>
<path class="st0" d="M97.4,35.2c-3.1,0.3-6.1-1.3-7.6-4c-1.4-2.6-1.5-6.4-0.2-11.4c1-4.3,3.2-8.2,6.3-11.3c2.6-2.5,6.1-3.8,9.7-3.8
	c3.1-0.3,6,1.2,7.6,3.9c1.4,2.6,1.5,6.3,0.2,11.2c-1,4.3-3.1,8.3-6.3,11.4C104.6,33.8,101.1,35.2,97.4,35.2z M98.6,30.6
	c3.5,0,6.3-3.6,8.2-10.8c1.9-7.2,1.1-10.7-2.5-10.6c-0.8,0-1.6,0.2-2.3,0.5c-0.8,0.4-1.5,1-2.1,1.7c-0.8,1-1.5,2.1-2,3.3
	c-0.7,1.6-1.3,3.3-1.8,5.1C94.2,27,95.1,30.6,98.6,30.6L98.6,30.6z"/>
<g>
	<path d="M179.3,15.1c0.1-0.2,0.4-0.3,0.6-0.3c0.2,0,0.5,0.1,0.7,0.2c0.2,0.2,0.3,0.5,0.3,0.8c0,3.2-0.3,5.6-0.5,7.1
		c0,0.3-0.2,0.5-0.4,0.7c-0.2,0.1-0.4,0.2-0.7,0.2c-0.2-0.1-0.4-0.2-0.6-0.4c-0.2-0.2-0.2-0.5-0.2-0.8c0.3-2.2,0.5-4.5,0.5-6.7
		C179.1,15.6,179.2,15.3,179.3,15.1z M183.4,29.9c0,0.3-0.1,0.6-0.3,0.8c-0.2,0.2-0.4,0.3-0.7,0.3c-0.3,0-0.5-0.1-0.7-0.3
		c-0.2-0.2-0.3-0.5-0.3-0.8V12.6c-0.1-0.5,0.3-1,0.8-1c0,0,0.1,0,0.1,0l0,0c0.3,0,0.5,0.1,0.7,0.3c0.2,0.2,0.3,0.5,0.3,0.8
		L183.4,29.9z M185.9,19.1c0,0.3,0,0.5-0.2,0.8c-0.2,0.2-0.4,0.3-0.7,0.3c-0.2,0-0.5,0-0.7-0.1c-0.2-0.2-0.4-0.5-0.4-0.8l-0.4-3.2
		c-0.1-0.2-0.1-0.5,0-0.8c0.2-0.2,0.4-0.3,0.6-0.4c0.3,0,0.5,0,0.7,0.2c0.2,0.2,0.4,0.5,0.4,0.8L185.9,19.1z M187.9,28.7
		c-1.4,1.5-2.5,2.2-3.2,2.1c-0.3-0.1-0.5-0.3-0.7-0.5c-0.3-0.5-0.2-1.1,0.3-1.4h0.2c2.3-1.4,3.9-3.8,4.4-6.5h-3.6
		c-0.3,0-0.5-0.1-0.8-0.3c-0.2-0.2-0.3-0.5-0.3-0.8c0-0.3,0.1-0.5,0.3-0.7c0.2-0.2,0.5-0.3,0.8-0.3h4v-4.2h-2.5
		c-0.3,0-0.6-0.1-0.9-0.3c-0.2-0.2-0.3-0.5-0.3-0.7c0-0.3,0.1-0.5,0.3-0.7c0.2-0.2,0.5-0.3,0.8-0.2h2.5v-1.4c0-0.3,0.1-0.6,0.3-0.9
		c0.2-0.2,0.5-0.3,0.8-0.3c0.6,0,1,0.4,1.1,1c0,0,0,0,0,0.1v1.6h3.2c0.5,0,1,0.2,1.3,0.5c0.3,0.3,0.5,0.8,0.5,1.2v4.5h0.6
		c0.3,0,0.5,0.1,0.7,0.3c0.2,0.2,0.3,0.5,0.3,0.8c0,0.3-0.1,0.5-0.3,0.7c-0.2,0.2-0.5,0.3-0.7,0.3H192c0.9,2.6,2.7,4.9,5.1,6.4
		c0.3,0.2,0.5,0.5,0.6,0.8c0,0.3,0,0.6-0.2,0.9c-0.2,0.2-0.4,0.4-0.7,0.5c-0.3,0-0.7-0.1-0.9-0.3c-2.3-1.7-4.1-4-5.3-6.6
		C190,25.8,189.1,27.4,187.9,28.7L187.9,28.7z M191.4,20.3h2.8v-3.6c0-0.2,0-0.3-0.2-0.5c-0.1-0.1-0.3-0.2-0.5-0.2h-2.2v3.2l0,0
		c0,0,0,0.1,0,0.2C191.4,19.6,191.4,19.9,191.4,20.3L191.4,20.3z"/>
	<path d="M207.6,12.9c0.3,0.3,0.5,0.7,0.5,1.2v4.3c0,0.9-0.7,1.7-1.6,1.7c0,0,0,0,0,0h-4.6v10c0,0.3-0.1,0.6-0.3,0.8
		c-0.2,0.2-0.4,0.3-0.7,0.3c-0.3,0-0.5-0.1-0.7-0.3c-0.2-0.2-0.3-0.5-0.3-0.8V14.1c0-0.5,0.2-0.9,0.5-1.2c0.3-0.3,0.7-0.4,1.1-0.4
		h5.1C206.9,12.5,207.3,12.7,207.6,12.9z M206.1,15.3v-0.2c0-0.4-0.2-0.7-0.6-0.8h-2.9c-0.3,0-0.6,0.2-0.6,0.4c0,0,0,0,0,0v0.5
		L206.1,15.3z M201.9,17.2v1h3.6c0.3,0,0.6-0.2,0.6-0.5c0,0,0,0,0,0v-0.5L201.9,17.2z M204.8,28.4c-0.4,0-0.7-0.2-0.9-0.5
		c-0.3-0.3-0.4-0.7-0.4-1.1v-4.2c0-0.7,0.6-1.3,1.3-1.3c0,0,0,0,0,0h7.4c0.4,0,0.8,0.1,1.2,0.4c0.3,0.2,0.4,0.6,0.4,0.9v4.2
		c0,0.4-0.2,0.8-0.5,1.1c-0.3,0.3-0.7,0.5-1.1,0.5L204.8,28.4z M205.8,23.3h-0.3c0,0.1,0,0.2,0,0.3v2.5c0,0.1,0,0.2,0,0.3h6.2
		c0-0.1,0-0.2,0-0.3v-2.5c0-0.1,0-0.2,0-0.3L205.8,23.3L205.8,23.3z M210.9,20.1c-0.9,0-1.6-0.8-1.7-1.7v-4.3c0-0.4,0.2-0.8,0.5-1.1
		c0.3-0.3,0.7-0.5,1.1-0.5h5.1c0.4,0,0.8,0.2,1.1,0.5c0.3,0.3,0.4,0.7,0.4,1.1v14.7c0,0.4-0.1,0.8-0.4,1.2c-0.5,0.8-1.4,1.2-2.3,1.1
		c-1.5,0-2.5-0.2-2.8-0.7c-0.1-0.3-0.1-0.6,0-0.8c0.1-0.6,0.7-1,1.3-0.8l0,0c0.5,0.1,1.1,0.1,1.6,0c0.1-0.1,0.2-0.2,0.3-0.3
		c0.1-0.2,0.2-0.4,0.2-0.6V20L210.9,20.1z M215.3,15.3V15c0-0.3-0.2-0.6-0.5-0.7c-0.1,0-0.1,0-0.2,0h-2.7c-0.3,0-0.6,0.2-0.7,0.5
		c0,0.1,0,0.1,0,0.2v0.3L215.3,15.3z M211.1,17.2v0.3c0,0.3,0.1,0.6,0.5,0.7h3.7v-1L211.1,17.2z"/>
	<path d="M219.9,15.1c0.1-0.2,0.4-0.3,0.6-0.3c0.2,0,0.5,0.1,0.7,0.2c0.2,0.2,0.3,0.5,0.3,0.8c0,3.2-0.3,5.6-0.5,7.1
		c0,0.3-0.2,0.5-0.4,0.7c-0.2,0.1-0.4,0.2-0.7,0.2c-0.2-0.1-0.4-0.2-0.6-0.4c-0.2-0.2-0.2-0.5-0.2-0.8c0.3-2.2,0.5-4.5,0.5-6.7
		C219.7,15.6,219.8,15.3,219.9,15.1z M224,29.9c0,0.3-0.1,0.6-0.3,0.8c-0.2,0.2-0.4,0.3-0.7,0.3c-0.3,0-0.5-0.1-0.7-0.3
		c-0.2-0.2-0.3-0.5-0.3-0.8V12.6c-0.1-0.5,0.3-1,0.8-1c0,0,0.1,0,0.1,0l0,0c0.3,0,0.5,0.1,0.7,0.3c0.2,0.2,0.3,0.5,0.3,0.8L224,29.9
		z M226.5,19.1c0,0.3,0,0.5-0.2,0.8c-0.2,0.2-0.4,0.3-0.7,0.3c-0.2,0-0.5,0-0.7-0.1c-0.2-0.2-0.4-0.5-0.4-0.8l-0.4-3.2
		c-0.1-0.2-0.1-0.5,0-0.8c0.2-0.2,0.4-0.3,0.6-0.4c0.3,0,0.5,0,0.7,0.2c0.2,0.2,0.4,0.5,0.4,0.8L226.5,19.1z M228.6,28.7
		c-1.4,1.5-2.5,2.2-3.2,2.1c-0.3-0.1-0.5-0.3-0.7-0.5c-0.3-0.5-0.2-1.1,0.3-1.4h0.2c2.3-1.4,3.9-3.8,4.4-6.5h-3.6
		c-0.3,0-0.5-0.1-0.8-0.3c-0.2-0.2-0.3-0.5-0.3-0.8c0-0.3,0.1-0.5,0.3-0.7c0.2-0.2,0.5-0.3,0.8-0.3h4v-4.2h-2.5
		c-0.3,0-0.6-0.1-0.9-0.3c-0.2-0.2-0.3-0.5-0.3-0.7c0-0.3,0.1-0.5,0.3-0.7c0.2-0.2,0.5-0.3,0.8-0.2h2.5v-1.4c0-0.3,0.1-0.6,0.3-0.9
		c0.2-0.2,0.5-0.3,0.8-0.3c0.6,0,1,0.4,1.1,1c0,0,0,0,0,0.1v1.6h3.2c0.5,0,1,0.2,1.3,0.5c0.3,0.3,0.5,0.8,0.5,1.2v4.5h0.6
		c0.3,0,0.5,0.1,0.7,0.3c0.2,0.2,0.3,0.5,0.3,0.8c0,0.3-0.1,0.5-0.3,0.7c-0.2,0.2-0.5,0.3-0.7,0.3h-4.9c0.9,2.6,2.7,4.9,5.1,6.4
		c0.3,0.2,0.5,0.5,0.6,0.8c0,0.3,0,0.6-0.2,0.9c-0.2,0.2-0.4,0.4-0.7,0.5c-0.3,0-0.7-0.1-0.9-0.3c-2.3-1.7-4.1-4-5.3-6.6
		C230.6,25.8,229.7,27.4,228.6,28.7L228.6,28.7z M232.1,20.3h2.8v-3.6c0-0.2,0-0.3-0.2-0.5c-0.1-0.1-0.3-0.2-0.5-0.2H232v3.2l0,0
		c0,0,0,0.1,0,0.2C232,19.6,232,19.9,232.1,20.3L232.1,20.3z"/>
	<path d="M251,15c-0.3,0.5-0.7,1-1.1,1.4l0.2,0.1c2.4,1.9,5.1,3.3,8,4.1c0.3,0.1,0.5,0.3,0.6,0.5c0.1,0.3,0.1,0.6,0,0.8
		c-0.2,0.6-0.7,0.9-1.3,0.7c0,0,0,0,0,0l0,0c-1.1-0.4-2.2-0.8-3.2-1.4l0,0c0,0.3-0.1,0.5-0.3,0.7c-0.2,0.2-0.4,0.3-0.7,0.3h-7.8
		c-0.3,0-0.5-0.1-0.7-0.3c-0.2-0.2-0.3-0.5-0.3-0.8c-1.2,0.6-2.4,1.1-3.6,1.6c-0.3,0.1-0.6,0.1-0.8,0c-0.5-0.3-0.8-0.9-0.5-1.4
		c0.1-0.2,0.3-0.4,0.5-0.5l0,0c3-0.9,5.8-2.4,8.2-4.3l0,0c-0.1-0.2-0.2-0.4-0.2-0.6c0-0.3,0.1-0.5,0.3-0.7c0.8-0.8,1.4-1.9,1.8-3
		c0-0.4,0.2-0.7,0.6-0.8c0.2-0.1,0.5-0.1,0.7,0c0.2,0.1,0.4,0.2,0.5,0.5c0.1,0.3,0.1,0.7,0,1h5.9c0.2,0,0.5,0.1,0.7,0.2
		c0.2,0.2,0.3,0.4,0.3,0.7c0,0.3-0.1,0.5-0.3,0.7c-0.2,0.2-0.4,0.3-0.7,0.3h-2.8v0.2c0.4,1.1,0.5,1.8,0.3,2.1
		c-0.1,0.2-0.3,0.4-0.6,0.4c-0.2,0.1-0.5,0.1-0.7,0c-0.2-0.2-0.4-0.4-0.4-0.7c-0.1-0.6-0.3-1.3-0.6-1.9L251,15z M243.2,14.9
		c-1.2,1.7-2,2.5-2.5,2.5c-0.2,0-0.5-0.1-0.6-0.3c-0.1-0.2-0.2-0.4-0.2-0.7c0-0.3,0.2-0.7,0.5-0.8l1.5-2c0-0.2,0.1-0.3,0.2-0.4
		c0.2-0.4,0.3-0.8,0.5-1.1c0.1-0.2,0.2-0.4,0.4-0.6c0.2-0.1,0.5-0.1,0.7,0c0.2,0.1,0.4,0.3,0.5,0.5c0.1,0.3,0.1,0.7,0,1h4
		c0.2,0,0.5,0.1,0.7,0.2c0.2,0.2,0.3,0.4,0.3,0.7c0,0.3-0.1,0.5-0.3,0.7c-0.2,0.2-0.4,0.3-0.7,0.3h-2.3v0.2c0.1,0.4,0.2,0.9,0.3,1.3
		c0.1,0.3,0,0.5-0.2,0.8c-0.1,0.2-0.4,0.3-0.6,0.4c-0.2,0-0.5,0-0.7-0.2c-0.1,0-0.1-0.1-0.1-0.1c0,0-0.3-0.8-0.7-2.4L243.2,14.9z
		 M243.7,30.4c-0.4,0-0.7-0.2-1-0.5c-0.3-0.3-0.4-0.7-0.4-1.2v-3.8c0-0.4,0.2-0.7,0.4-1c0.3-0.3,0.6-0.4,1-0.4h11.2
		c0.4,0,0.9,0.1,1.2,0.4c0.3,0.3,0.4,0.6,0.4,1v3.8c0,0.4-0.2,0.8-0.5,1.1c-0.3,0.3-0.7,0.5-1.1,0.5L243.7,30.4z M244.7,25.5
		c-0.1,0-0.2,0-0.3,0c0,0.1,0,0.2,0,0.3v2.1c0,0.1,0,0.2,0,0.3h9.6c0.1,0.1,0.2,0.1,0.3,0c0-0.1,0-0.2,0-0.3v-2.1
		c0.1-0.1,0.1-0.2,0-0.3L244.7,25.5L244.7,25.5z M252.6,20.4c-0.9-0.5-1.7-1.1-2.5-1.8c-0.2-0.1-0.4-0.2-0.6-0.2
		c-0.2,0-0.4,0.1-0.6,0.2c-0.8,0.7-1.6,1.2-2.5,1.8H252.6z"/>
</g>
</svg>
