<?xml version="1.0" encoding="utf-8"?>
<!-- Generator: Adobe Illustrator 21.0.2, SVG Export Plug-In . SVG Version: 6.00 Build 0)  -->
<svg version="1.1" id="Layer_1" xmlns="http://www.w3.org/2000/svg" xmlns:xlink="http://www.w3.org/1999/xlink" x="0px" y="0px"
	 viewBox="0 0 900 900" style="enable-background:new 0 0 900 900;" xml:space="preserve">
<style type="text/css">
	.st0{fill:#00A7AD;}
	.st1{fill:#B4B4B5;}
	.st2{fill:#717071;}
	.st3{fill:none;}
	.st4{fill:#888888;}
	.st5{fill:#CFD1DC;}
	.st6{fill:#3E3A39;}
	.st7{fill:#0E0807;}
	.st8{fill:#1D1917;}
	.st9{fill:#595757;}
	.st10{fill:url(#SVGID_1_);}
	.st11{fill:url(#SVGID_2_);}
	.st12{fill:url(#SVGID_3_);}
	.st13{fill:url(#SVGID_4_);}
	.st14{fill:#E6E8F2;}
	.st15{fill:url(#SVGID_5_);}
	.st16{fill:url(#SVGID_6_);}
	.st17{fill:#3B393A;}
	.st18{fill:url(#SVGID_7_);}
	.st19{fill:url(#SVGID_8_);}
	.st20{fill:url(#SVGID_9_);}
	.st21{fill:url(#SVGID_10_);}
	.st22{fill:#3A393D;}
	.st23{fill:url(#SVGID_11_);}
	.st24{fill:#7F7F80;}
	.st25{fill:url(#SVGID_12_);}
	.st26{fill:url(#SVGID_13_);}
	.st27{fill:#DCE2E7;}
	.st28{fill:url(#SVGID_14_);}
	.st29{fill:#E73828;}
	.st30{fill:#C30D23;}
	.st31{fill:#E95513;}
	.st32{fill:#FA7800;}
	.st33{fill:#FFAB17;}
	.st34{fill:#FED930;}
	.st35{fill:#4A3A2B;}
	.st36{fill:#FFA969;}
	.st37{opacity:0.6;}
	.st38{fill:#FF8A54;}
	.st39{fill:#FFFFFF;}
	.st40{fill:#332316;}
	.st41{fill:#D8D3CF;}
	.st42{fill:#414042;}
	.st43{fill:#231F20;}
	.st44{fill:#ED352B;}
	.st45{fill:#FFD6CA;}
	.st46{fill:#692415;}
	.st47{fill:#58595B;}
	.st48{fill:#C96335;}
	.st49{fill:#AB3321;}
	.st50{font-family:'Arial-Black';}
	.st51{font-size:25.955px;}
</style>
<circle class="st0" cx="456.8" cy="457.1" r="298.2"/>
<circle class="st0" cx="300.9" cy="210.4" r="170.4"/>
<g>
	<polygon class="st1" points="547.5,620.2 548.1,619.9 548.1,619.2 547.6,619.6 	"/>
	<polygon class="st2" points="692.7,620 691.9,619.3 691.9,617.9 692.7,618.8 	"/>
	<path class="st3" d="M699.6,663.2c0-0.3-0.3-6.2-0.3-7.4C699.3,657,699.6,662.9,699.6,663.2z"/>
	<path class="st3" d="M680.1,511.9c1-1.1,2.5-6,4.8-12.6c-4.6,6.7-8,11.3-10,13.3C674.9,512.6,676.6,515.7,680.1,511.9z"/>
	<polygon points="692.7,618.8 692.7,620 695.1,619.2 695.2,618.2 	"/>
	<path class="st4" d="M607.5,624.5C607.5,624.5,607.5,624.5,607.5,624.5C607.5,624.5,607.5,624.5,607.5,624.5L607.5,624.5
		L607.5,624.5l-61.6-9.7c0,0,0,0,0,0c0,0.9,0,2.2,0,4.4c2.8,0.7,27,7.4,43.9,12.1C599.5,627.6,606.6,624.8,607.5,624.5
		C607.4,624.5,607.5,624.5,607.5,624.5z"/>
	<path class="st5" d="M560.1,616c19.4,2.8,44.6,6.5,47.4,6.9v0C604.9,622.6,579.6,618.9,560.1,616z"/>
	<path class="st1" d="M607.5,624.5V623c-4-0.6-60.7-8.4-61-8.5c-0.1,0-0.3,0.2-0.5,0.3l0,0L607.5,624.5L607.5,624.5z"/>
	<path class="st6" d="M612.9,626.1c0.2,0,0.4,0,0.6,0.1l-84.2,29.8c0,0,0.5,7.6,0.6,8.5c0,0,0,0,0,0l0,0l85.5-23.4l0-0.2l-0.5-14.7
		C614.1,626.2,613.5,626.2,612.9,626.1z"/>
	<path class="st7" d="M607.5,624.5C607.5,624.5,607.5,624.5,607.5,624.5C607.5,624.5,607.4,624.5,607.5,624.5
		C607.4,624.5,607.5,624.5,607.5,624.5c0,0,0.1,0,0.1,0.1C607.5,624.5,607.5,624.5,607.5,624.5z"/>
	<path class="st2" d="M529.3,655.9l84.2-29.8c-0.2,0-0.4,0-0.6-0.1c-2.8-0.3-4.8-1.2-5.3-1.5c0,0-0.1,0-0.1-0.1c0,0,0,0-0.1,0
		c-0.8,0.3-7.9,3.1-17.6,6.8c-21.3,8.2-55,21.3-62,24c0,0,0.6,8.2,0.8,9.8c0.4,0.1,1,0.3,1.4,0.4c0,0-0.1-1-0.1-1
		C529.8,663.6,529.3,655.9,529.3,655.9z"/>
	<path class="st6" d="M621.4,624.5C621.4,624.5,621.4,624.5,621.4,624.5c0.7,0.3,9.3,3.5,20.6,7.8l50.6-13.5l2.5-0.7
		c0,0,0-0.4,0-0.9c0-1.6,0-5,0-5.3l0,0L621.4,624.5z"/>
	<polygon class="st8" points="695.2,612 695.1,612 695.2,612 	"/>
	<path class="st2" d="M621.4,624.5l73.7-12.5l0,0l0,0c0,0,0,0,0,0c0,0,0,0,0,0c-0.5-0.2-1-0.4-1-0.4c-1.7,0.4-69,10.3-72.7,10.8
		L621.4,624.5C621.4,624.5,621.4,624.5,621.4,624.5z"/>
	<path class="st9" d="M699.3,655.8c0-0.1,0-0.2,0-0.2l-84.5-29.4h0l0.5,14.7l0,0.2l84.3,22.1C699.6,662.9,699.3,657,699.3,655.8z"/>
	<path class="st1" d="M614.8,626.2C614.8,626.2,614.8,626.2,614.8,626.2l84.5,29.4c0,0,0,0.1,0,0.2c0,1.2,0.3,7.1,0.3,7.4
		c0,0,0,0,0,0c0,0,1.3-1.4,1.4-1.4c0-2.2-0.1-6.7-0.2-7.3c-1.4-0.5-35.7-13.4-58.8-22.2c-11.3-4.3-19.9-7.5-20.6-7.8
		C621,624.8,618.8,626.2,614.8,626.2z"/>
	
		<linearGradient id="SVGID_1_" gradientUnits="userSpaceOnUse" x1="-980.255" y1="622.9907" x2="-966.2731" y2="622.9907" gradientTransform="matrix(1 0 0 1 1587.7148 0)">
		<stop  offset="0" style="stop-color:#DBDCDC"/>
		<stop  offset="0.2242" style="stop-color:#6E6E6E"/>
		<stop  offset="0.4303" style="stop-color:#FFFFFF"/>
		<stop  offset="0.6727" style="stop-color:#5E5E5E"/>
		<stop  offset="1" style="stop-color:#000000"/>
	</linearGradient>
	<path class="st10" d="M607.5,623L607.5,623c0.1,0,0.2,0,0.2,0C607.6,623,607.6,623,607.5,623z"/>
	
		<linearGradient id="SVGID_2_" gradientUnits="userSpaceOnUse" x1="-980.255" y1="595.307" x2="-966.2731" y2="595.307" gradientTransform="matrix(1 0 0 1 1587.7148 0)">
		<stop  offset="0" style="stop-color:#DBDCDC"/>
		<stop  offset="0.2242" style="stop-color:#6E6E6E"/>
		<stop  offset="0.4303" style="stop-color:#FFFFFF"/>
		<stop  offset="0.6727" style="stop-color:#5E5E5E"/>
		<stop  offset="1" style="stop-color:#000000"/>
	</linearGradient>
	<path class="st11" d="M615.4,564.7c-2.6,0.1-5.3,0.1-7.9,0.1v58.2c0.1,0,0.2,0,0.2,0l0,0c0,0,0.1,0,0.1,0l-0.2,1.1l0,0.4
		c3.3,1.7,7,1.7,7.3,1.7l0-0.1c0.8-0.1,1.6-0.1,2.2-0.2c1.2-0.3,2.4-0.6,3.2-0.9c0.1-0.1,0.2-0.1,0.3-0.2l-0.4,0.1
		c0,0,0.5-0.2,0.9-0.7c0.2-0.4,0.3-0.9,0.3-1.5c0,0,0,0,0,0c0,0,0,0,0,0c0,0,0.1,0,0.2,0v-58C619.4,564.6,617.4,564.6,615.4,564.7z"
		/>
	<path class="st5" d="M607.5,624.5C607.5,624.5,607.5,624.5,607.5,624.5C607.5,624.5,607.5,624.5,607.5,624.5l0.1-0.4L607.5,624.5
		L607.5,624.5z"/>
	
		<linearGradient id="SVGID_3_" gradientUnits="userSpaceOnUse" x1="-980.255" y1="624.3137" x2="-966.2731" y2="624.3137" gradientTransform="matrix(1 0 0 1 1587.7148 0)">
		<stop  offset="0" style="stop-color:#DBDCDC"/>
		<stop  offset="0.2242" style="stop-color:#6E6E6E"/>
		<stop  offset="0.4303" style="stop-color:#FFFFFF"/>
		<stop  offset="0.6727" style="stop-color:#5E5E5E"/>
		<stop  offset="1" style="stop-color:#000000"/>
	</linearGradient>
	<path class="st12" d="M607.5,624.5C607.5,624.5,607.5,624.5,607.5,624.5C607.5,624.5,607.5,624.5,607.5,624.5l0.1-0.4L607.5,624.5
		L607.5,624.5z"/>
	<path class="st5" d="M607.7,623c0,0-0.1,0-0.2,0v0C607.6,623,607.6,623,607.7,623L607.7,623z"/>
	
		<linearGradient id="SVGID_4_" gradientUnits="userSpaceOnUse" x1="-980.255" y1="622.9771" x2="-966.2731" y2="622.9771" gradientTransform="matrix(1 0 0 1 1587.7148 0)">
		<stop  offset="0" style="stop-color:#DBDCDC"/>
		<stop  offset="0.2242" style="stop-color:#6E6E6E"/>
		<stop  offset="0.4303" style="stop-color:#FFFFFF"/>
		<stop  offset="0.6727" style="stop-color:#5E5E5E"/>
		<stop  offset="1" style="stop-color:#000000"/>
	</linearGradient>
	<path class="st13" d="M607.7,623c0,0-0.1,0-0.2,0v0C607.6,623,607.6,623,607.7,623L607.7,623z"/>
	<path class="st14" d="M607.5,624.1l0.2-1.1c0,0,0,0-0.1,0c0,0-0.1,0-0.2,0v1.5L607.5,624.1z"/>
	
		<linearGradient id="SVGID_5_" gradientUnits="userSpaceOnUse" x1="-980.255" y1="623.7286" x2="-966.2731" y2="623.7286" gradientTransform="matrix(1 0 0 1 1587.7148 0)">
		<stop  offset="0" style="stop-color:#DBDCDC"/>
		<stop  offset="0.2242" style="stop-color:#6E6E6E"/>
		<stop  offset="0.4303" style="stop-color:#FFFFFF"/>
		<stop  offset="0.6727" style="stop-color:#5E5E5E"/>
		<stop  offset="1" style="stop-color:#000000"/>
	</linearGradient>
	<path class="st15" d="M607.5,624.1l0.2-1.1c0,0,0,0-0.1,0c0,0-0.1,0-0.2,0v1.5L607.5,624.1z"/>
	<path class="st7" d="M607.6,624.6c2.1,1.1,4.2,1.4,5.3,1.5c0.6,0.1,1.2,0.1,1.9,0.1v0l0,0c0,0,0,0,0,0l0,0c-0.3,0-4,0-7.3-1.7
		c0,0,0,0,0,0C607.5,624.5,607.5,624.5,607.6,624.6z"/>
	
		<linearGradient id="SVGID_6_" gradientUnits="userSpaceOnUse" x1="-980.255" y1="625.3406" x2="-966.2731" y2="625.3406" gradientTransform="matrix(1 0 0 1 1587.7148 0)">
		<stop  offset="0" style="stop-color:#DBDCDC"/>
		<stop  offset="0.2242" style="stop-color:#6E6E6E"/>
		<stop  offset="0.4303" style="stop-color:#FFFFFF"/>
		<stop  offset="0.6727" style="stop-color:#5E5E5E"/>
		<stop  offset="1" style="stop-color:#000000"/>
	</linearGradient>
	<path class="st16" d="M607.6,624.6c2.1,1.1,4.2,1.4,5.3,1.5c0.6,0.1,1.2,0.1,1.9,0.1v0l0,0c0,0,0,0,0,0l0,0c-0.3,0-4,0-7.3-1.7
		c0,0,0,0,0,0C607.5,624.5,607.5,624.5,607.6,624.6z"/>
	<path class="st17" d="M612.9,626.1c-1.1-0.1-3.2-0.5-5.3-1.5C608.1,624.8,610.1,625.8,612.9,626.1z"/>
	
		<linearGradient id="SVGID_7_" gradientUnits="userSpaceOnUse" x1="-980.255" y1="625.325" x2="-966.2731" y2="625.325" gradientTransform="matrix(1 0 0 1 1587.7148 0)">
		<stop  offset="0" style="stop-color:#DBDCDC"/>
		<stop  offset="0.2242" style="stop-color:#6E6E6E"/>
		<stop  offset="0.4303" style="stop-color:#FFFFFF"/>
		<stop  offset="0.6727" style="stop-color:#5E5E5E"/>
		<stop  offset="1" style="stop-color:#000000"/>
	</linearGradient>
	<path class="st18" d="M612.9,626.1c-1.1-0.1-3.2-0.5-5.3-1.5C608.1,624.8,610.1,625.8,612.9,626.1z"/>
	<path class="st8" d="M621.3,622.5C621.3,622.5,621.3,622.5,621.3,622.5c0,0.6-0.1,1.1-0.3,1.5C621.2,623.6,621.3,623.2,621.3,622.5
		z"/>
	
		<linearGradient id="SVGID_8_" gradientUnits="userSpaceOnUse" x1="-980.255" y1="623.231" x2="-966.2731" y2="623.231" gradientTransform="matrix(1 0 0 1 1587.7148 0)">
		<stop  offset="0" style="stop-color:#DBDCDC"/>
		<stop  offset="0.2242" style="stop-color:#6E6E6E"/>
		<stop  offset="0.4303" style="stop-color:#FFFFFF"/>
		<stop  offset="0.6727" style="stop-color:#5E5E5E"/>
		<stop  offset="1" style="stop-color:#000000"/>
	</linearGradient>
	<path class="st19" d="M621.3,622.5C621.3,622.5,621.3,622.5,621.3,622.5c0,0.6-0.1,1.1-0.3,1.5
		C621.2,623.6,621.3,623.2,621.3,622.5z"/>
	<path class="st8" d="M621.4,624.5L621.4,624.5C621.4,624.5,621.4,624.5,621.4,624.5C621.4,624.5,621.4,624.5,621.4,624.5z"/>
	
		<linearGradient id="SVGID_9_" gradientUnits="userSpaceOnUse" x1="-980.255" y1="624.5234" x2="-966.2731" y2="624.5234" gradientTransform="matrix(1 0 0 1 1587.7148 0)">
		<stop  offset="0" style="stop-color:#DBDCDC"/>
		<stop  offset="0.2242" style="stop-color:#6E6E6E"/>
		<stop  offset="0.4303" style="stop-color:#FFFFFF"/>
		<stop  offset="0.6727" style="stop-color:#5E5E5E"/>
		<stop  offset="1" style="stop-color:#000000"/>
	</linearGradient>
	<path class="st20" d="M621.4,624.5L621.4,624.5C621.4,624.5,621.4,624.5,621.4,624.5C621.4,624.5,621.4,624.5,621.4,624.5z"/>
	<path class="st8" d="M620.5,624.7L620.5,624.7c-0.1,0.1-0.2,0.2-0.3,0.2c0.5-0.2,0.9-0.3,1.1-0.4L620.5,624.7z"/>
	
		<linearGradient id="SVGID_10_" gradientUnits="userSpaceOnUse" x1="-980.255" y1="624.7268" x2="-966.2731" y2="624.7268" gradientTransform="matrix(1 0 0 1 1587.7148 0)">
		<stop  offset="0" style="stop-color:#DBDCDC"/>
		<stop  offset="0.2242" style="stop-color:#6E6E6E"/>
		<stop  offset="0.4303" style="stop-color:#FFFFFF"/>
		<stop  offset="0.6727" style="stop-color:#5E5E5E"/>
		<stop  offset="1" style="stop-color:#000000"/>
	</linearGradient>
	<path class="st21" d="M620.5,624.7L620.5,624.7c-0.1,0.1-0.2,0.2-0.3,0.2c0.5-0.2,0.9-0.3,1.1-0.4L620.5,624.7z"/>
	<path class="st22" d="M621.3,622.5c0.1,0.7-0.1,1.2-0.3,1.5c-0.4,0.6-0.9,0.7-0.9,0.7l0.4-0.1l0,0l0.8-0.1c0,0,0.1,0,0.1,0s0,0,0,0
		l0,0c0,0,0,0,0,0v-2.1C621.3,622.4,621.3,622.4,621.3,622.5C621.3,622.4,621.3,622.5,621.3,622.5z"/>
	
		<linearGradient id="SVGID_11_" gradientUnits="userSpaceOnUse" x1="-980.255" y1="623.5701" x2="-966.2731" y2="623.5701" gradientTransform="matrix(1 0 0 1 1587.7148 0)">
		<stop  offset="0" style="stop-color:#DBDCDC"/>
		<stop  offset="0.2242" style="stop-color:#6E6E6E"/>
		<stop  offset="0.4303" style="stop-color:#FFFFFF"/>
		<stop  offset="0.6727" style="stop-color:#5E5E5E"/>
		<stop  offset="1" style="stop-color:#000000"/>
	</linearGradient>
	<path class="st23" d="M621.3,622.5c0.1,0.7-0.1,1.2-0.3,1.5c-0.4,0.6-0.9,0.7-0.9,0.7l0.4-0.1l0,0l0.8-0.1c0,0,0.1,0,0.1,0s0,0,0,0
		l0,0c0,0,0,0,0,0v-2.1C621.3,622.4,621.3,622.4,621.3,622.5C621.3,622.4,621.3,622.5,621.3,622.5z"/>
	<path class="st24" d="M617,625.8c-0.6,0.1-1.4,0.2-2.2,0.2l0,0.1l0,0C615.5,626.1,616.2,626,617,625.8z"/>
	
		<linearGradient id="SVGID_12_" gradientUnits="userSpaceOnUse" x1="-980.255" y1="626.0074" x2="-966.2731" y2="626.0074" gradientTransform="matrix(1 0 0 1 1587.7148 0)">
		<stop  offset="0" style="stop-color:#DBDCDC"/>
		<stop  offset="0.2242" style="stop-color:#6E6E6E"/>
		<stop  offset="0.4303" style="stop-color:#FFFFFF"/>
		<stop  offset="0.6727" style="stop-color:#5E5E5E"/>
		<stop  offset="1" style="stop-color:#000000"/>
	</linearGradient>
	<path class="st25" d="M617,625.8c-0.6,0.1-1.4,0.2-2.2,0.2l0,0.1l0,0C615.5,626.1,616.2,626,617,625.8z"/>
	<polygon class="st24" points="614.8,626.2 614.8,626.2 614.8,626.2 	"/>
	
		<linearGradient id="SVGID_13_" gradientUnits="userSpaceOnUse" x1="-972.9539" y1="626.1906" x2="-972.9523" y2="626.1906" gradientTransform="matrix(1 0 0 1 1587.7148 0)">
		<stop  offset="0" style="stop-color:#DBDCDC"/>
		<stop  offset="0.2242" style="stop-color:#6E6E6E"/>
		<stop  offset="0.4303" style="stop-color:#FFFFFF"/>
		<stop  offset="0.6727" style="stop-color:#5E5E5E"/>
		<stop  offset="1" style="stop-color:#000000"/>
	</linearGradient>
	<polygon class="st26" points="614.8,626.2 614.8,626.2 614.8,626.2 	"/>
	<path class="st27" d="M614.8,626.2C614.8,626.2,614.8,626.2,614.8,626.2L614.8,626.2L614.8,626.2
		C614.8,626.2,614.8,626.2,614.8,626.2c4,0,6.2-1.4,6.6-1.7c0,0,0,0,0,0c0,0,0,0,0,0s0,0-0.1,0c-0.2,0.1-0.5,0.2-1.1,0.4
		c-0.8,0.3-2,0.6-3.2,0.9C616.2,626,615.5,626.1,614.8,626.2z"/>
	
		<linearGradient id="SVGID_14_" gradientUnits="userSpaceOnUse" x1="-980.255" y1="625.352" x2="-966.2731" y2="625.352" gradientTransform="matrix(1 0 0 1 1587.7148 0)">
		<stop  offset="0" style="stop-color:#DBDCDC"/>
		<stop  offset="0.2242" style="stop-color:#6E6E6E"/>
		<stop  offset="0.4303" style="stop-color:#FFFFFF"/>
		<stop  offset="0.6727" style="stop-color:#5E5E5E"/>
		<stop  offset="1" style="stop-color:#000000"/>
	</linearGradient>
	<path class="st28" d="M614.8,626.2C614.8,626.2,614.8,626.2,614.8,626.2L614.8,626.2L614.8,626.2
		C614.8,626.2,614.8,626.2,614.8,626.2c4,0,6.2-1.4,6.6-1.7c0,0,0,0,0,0c0,0,0,0,0,0s0,0-0.1,0c-0.2,0.1-0.5,0.2-1.1,0.4
		c-0.8,0.3-2,0.6-3.2,0.9C616.2,626,615.5,626.1,614.8,626.2z"/>
	<path class="st29" d="M674.9,512.6c2-2,5.4-6.6,10-13.3c5.4-15.3,15-39.8,31.2-47.3c2.3-3.6,4.8-7.3,7.2-11
		c24.2-36.8,3.1-55.6,3.1-55.6c-27.8-30.4-91.1-30.7-132.9-24.5c-18.2,2.7-29.3,7.3-36.6,10.2c-23.9,9.5-25.2,47.1-14,70.9
		c11.3,23.9,37.2,60,44.3,67.2C587.3,509.2,666.1,512.9,674.9,512.6z"/>
	<path class="st30" d="M615.4,564.7c2-0.1,4.1-0.1,6.1-0.3c33.5-2,62.7-12.1,72.6-22.5c21.1-22.2,17.1-39.2,33.1-62.1
		c16-22.8,7.3-29,7.3-29v0c5.7,4.9-6.8,20.3-15.5,30c-11.6,13-20.8,54.6-64.5,62.4c0,0-137.9,14.9-166-16.7
		c7.7,10.1,27.6,22.2,42.6,27.6c7,2.6,42.2,10.3,76.4,10.6C610.1,564.8,612.7,564.8,615.4,564.7z"/>
	<path class="st31" d="M654.5,543.3c43.7-7.8,52.9-49.5,64.5-62.4c8.7-9.7,21.2-25.1,15.5-30c-1.9-1.6-5.9-2.1-12.7-0.7
		c-1.9,0.4-3.8,1-5.5,1.8c-16.2,7.5-25.8,32-31.2,47.3c-2.3,6.6-3.9,11.5-4.8,12.6c-3.4,3.8-5.1,0.7-5.1,0.7
		c-8.9,0.3-87.6-3.4-87.6-3.4c-22.8,16-43-41.3-69.2-61.7c-26.3-20.5-39.9-4.4-44.3,16c-4.4,20.5,10.9,57,10.9,57
		c0.8,2.2,2.1,4.3,3.8,6.1C516.6,558.2,654.5,543.3,654.5,543.3z"/>
	<polygon points="695.8,662.1 699.6,663.2 699.6,664.6 696,663.7 	"/>
	<polygon class="st1" points="699.6,664.6 701,663.2 700.9,661.7 699.6,663.2 	"/>
	<polygon class="st7" points="529.8,664.4 530,665.4 533.2,664.5 533.1,663.5 	"/>
	<polygon class="st7" points="545.9,619.2 545.9,619.8 547.5,620.2 547.6,619.6 	"/>
</g>
<g>
	<g>
		<polygon class="st32" points="176.9,246.3 208.9,218.5 209.2,218.8 262.3,152.2 273.5,161 220.3,227.6 200.6,265.2 		"/>
		
			<rect x="199.7" y="191.3" transform="matrix(0.6237 -0.7817 0.7817 0.6237 -61.8462 257.5028)" class="st33" width="73.7" height="3.4"/>
		<path class="st33" d="M245.8,70.7c6,2.9,9.2,9.7,7.6,16.5c-1.4,6.4-5.7,9.7-12.8,9.9c-0.2,0-0.5,0-0.7-0.1
			c0.1,0.3,0.1,0.5,0.2,0.8c1,2.6,3.1,4.6,6.5,6.1c1.7,0.7,2.4,2.7,1.7,4.3c-0.7,1.7-2.7,2.4-4.3,1.7c-1.9-0.8-3.5-1.8-4.9-2.9
			c-2.4-1.9-4-4.2-5-6.9c-2.6-6.9,0.6-13.8,0.7-14c0.8-1.6,2.7-2.3,4.4-1.6c1.6,0.8,2.3,2.7,1.6,4.4c0,0-0.3,0.7-0.6,1.7
			c0.1,0,0.2-0.1,0.3,0c3.4,0.9,5.8-0.9,6.6-4.8c1-4.4-1.4-7.8-4.1-9.1c-3.1-1.5-6.4-0.4-9.1,3c-5.7,7.2-7.6,24.4,0.2,37.7
			c7.3,12.6,20.5,12.6,20.5,12.6c-0.1,0-0.2,0.1-0.2,0.1l2.6,6c-1.1,0.5-6.4,2.1-17.1-3.9c8.3,13.2,18.2,22.6,18.4,22.7
			c1.3,1.2,1.4,3.3,0.2,4.6c-1.2,1.3-3.1,1.4-4.4,0.3c-0.1-0.1-0.1-0.1-0.2-0.2c-0.8-0.7-18.6-17.5-27.1-38.8
			c-7.4-18.7-6.7-34.3,2-45.3C234.3,68.6,241.2,68.5,245.8,70.7z"/>
		<path class="st33" d="M356.7,159.1c-4.2-5.2-11.5-6.8-17.8-3.8c-5.9,2.8-8.2,7.8-6.8,14.7c0,0.2,0.1,0.5,0.2,0.7
			c-0.3,0-0.5,0-0.8-0.1c-2.7-0.4-5.2-2-7.3-5c-1.1-1.5-3.1-1.8-4.6-0.7c-1.5,1.1-1.8,3.1-0.7,4.6c1.2,1.6,2.5,3,3.9,4.1
			c2.4,1.9,5,3,7.8,3.4c7.3,1,13.3-3.6,13.5-3.8c1.4-1.1,1.7-3.2,0.6-4.6c-1.1-1.4-3.2-1.7-4.6-0.6c0,0-0.6,0.5-1.6,1
			c0-0.1,0-0.2,0-0.3c-1.6-3.1-0.4-5.8,3.2-7.5c4.1-2,8-0.4,9.8,1.9c2.1,2.7,1.8,6.2-0.9,9.6c-5.7,7.2-22.1,12.8-36.8,8.2
			c-13.9-4.4-16.8-17.2-16.8-17.2c0,0.1,0,0.2,0,0.2l-6.4-1.2c-0.2,1.2-0.6,6.7,7.6,15.8c-14.7-5.1-26-12.8-26.2-12.9
			c-1.5-1-3.5-0.6-4.5,0.9c-1,1.4-0.7,3.3,0.7,4.4c0.1,0.1,0.1,0.1,0.2,0.2c0.9,0.6,21.2,14.3,43.8,17.8c19.8,3.1,34.9-1.1,43.7-12
			C361.3,169.9,359.9,163.2,356.7,159.1z"/>
		<path class="st33" d="M252.6,154.4c-2.1,2.7-1.7,6.6,1,8.7l11.1,8.9c2.7,2.1,6.6,1.7,8.7-1l0,0c2.1-2.7,1.7-6.6-1-8.7l-11.1-8.9
			C258.6,151.3,254.7,151.8,252.6,154.4L252.6,154.4z"/>
		<path class="st32" d="M326.9,149.2c-3.2,3.2-6,5.9-8.4,7.6c-20,14.6-38.2,13.4-51.2,3l-1.3-1.1l-1.3-1.1
			c-12.9-10.3-18.2-27.8-8.4-50.6c1.2-2.7,3.1-6.1,5.5-9.9L326.9,149.2z"/>
		<path class="st33" d="M323.4,147.1c-20.8,17.2-37.3,18.8-47.5,10.6l-1.1-0.9l-1.1-0.9c-10.3-8.2-12.4-24.6-0.2-48.7L323.4,147.1z"
			/>
		<path class="st34" d="M258.2,88.8c-2.3,2.8-1.8,7,1,9.2l67.5,53.9c2.8,2.3,7,1.8,9.2-1l0,0c2.3-2.8,1.8-7-1-9.2l-67.5-53.9
			C264.6,85.5,260.4,86,258.2,88.8L258.2,88.8z"/>
		
			<ellipse transform="matrix(0.9832 -0.1823 0.1823 0.9832 -22.0193 56.0396)" class="st34" cx="293.7" cy="147.8" rx="14.2" ry="8.8"/>
		<polygon class="st34" points="187.4,251.8 192.9,256.2 213.8,226.1 212.1,224.7 		"/>
		<polygon class="st34" points="180.2,246.1 185.2,250.1 209.9,223 208.6,221.9 		"/>
		<polygon class="st34" points="199.8,261.7 194.8,257.7 215.7,227.6 217,228.7 		"/>
		<path class="st34" d="M204.5,214.6c-2.1,2.7-1.7,6.6,1,8.7l11.1,8.9c2.7,2.1,6.6,1.7,8.7-1l0,0c2.1-2.7,1.7-6.6-1-8.7l-11.1-8.9
			C210.6,211.5,206.7,212,204.5,214.6L204.5,214.6z"/>
		<path class="st32" d="M168,247.3l33.6,26.8c4.9,3.9,5.7,11,1.8,15.9l-51.3-40.9C156,244.2,163.1,243.4,168,247.3z"/>
		
			<rect x="156.4" y="241.8" transform="matrix(0.6237 -0.7816 0.7816 0.6237 -155.1283 238.0477)" class="st35" width="26.7" height="76.7"/>
		<path class="st33" d="M183.2,245.6l16.7,13.4c4.9,3.9,5.7,11,1.8,15.9l-34.4-27.5C171.2,242.5,178.3,241.7,183.2,245.6z"/>
		<g>
			<path class="st32" d="M264.7,172l-11.1-8.9c-2.7-2.1-3.1-6-1-8.7l20.8,16.6C271.3,173.7,267.4,174.2,264.7,172z"/>
		</g>
		<g>
			<path class="st33" d="M216.6,232.3l-11.1-8.9c-2.7-2.1-3.1-6-1-8.7l20.8,16.6C223.1,234,219.2,234.4,216.6,232.3z"/>
		</g>
	</g>
	<path class="st36" d="M262.1,243.7l-6.1-33.6l7.1-18.2c0,0-1.8-14.7-6-16.5c-2.1-0.9-9.4,2.7-9.4,2.7l-7,1.5c0,0-1.2,3.2,1.2,5.1
		c1.6,1.2,8.4,0.8,8.4,0.8l-1.4,4.3l-11.1,14.4l-10.8,14.9l4.5,8.3l1.4,27.3L262.1,243.7z"/>
	<g class="st37">
		<path class="st32" d="M228,220.9l-1-1.8l-10.1-9.9l23.4-25l6.4,3c0,0,6.7-4.7,5.5-2.8c-7.2,11.7-7.6,22.3-7.6,22.3
			C237.8,207.3,228,220.9,228,220.9z"/>
	</g>
	<g>
		<path class="st36" d="M247.7,187.4c1.5,1.5,1.2,4.3-0.7,6.2l0,0c-1.9,2-4.7,2.3-6.2,0.9l-9.5-9.4c-1.5-1.5-1.2-4.3,0.7-6.2l0,0
			c1.9-2,4.7-2.3,6.2-0.9L247.7,187.4z"/>
		<path class="st36" d="M229.9,207.3c1.5,1.5,1.2,4.3-0.7,6.2l0,0c-1.9,2-4.7,2.3-6.2,0.9l-9.5-9.4c-1.5-1.5-1.2-4.3,0.7-6.2l0,0
			c1.9-2,4.7-2.3,6.2-0.9L229.9,207.3z"/>
		<path class="st36" d="M242.9,194c1.5,1.5,1.2,4.3-0.7,6.2l0,0c-1.9,2-4.7,2.3-6.2,0.9l-12-12.2c-1.5-1.5-1.2-4.3,0.7-6.2l0,0
			c1.9-2,4.7-2.3,6.2-0.9L242.9,194z"/>
		<path class="st36" d="M237,201.8c1.5,1.5,1.2,4.3-0.7,6.2l0,0c-1.9,2-4.7,2.3-6.2,0.9l-12-12.2c-1.5-1.5-1.2-4.3,0.7-6.2l0,0
			c1.9-2,4.7-2.3,6.2-0.9L237,201.8z"/>
	</g>
	<path class="st38" d="M240.6,179.6c0,0-0.6,1.5-0.5,3.2c0.2,1.8,1.2,3.9,4,4.6c0.6,0.2,3.1,0,3.7-0.2c0.8-0.2,1.6-0.4,2.2-0.7
		c0,0-3.2,8.9-2.8,8.5c0.4-0.5,5.4-10.7,5.2-11c-1-1.8-4.4,1.4-8.1,1C240.8,184.4,240.6,179.6,240.6,179.6z"/>
	<polygon class="st38" points="238.2,189.7 235.4,185.9 230.5,181.4 234.5,186.8 	"/>
	<polygon class="st38" points="233.2,197.8 229.8,193.7 224.9,189.7 228.9,194.8 	"/>
	<polygon class="st38" points="226.9,205.6 223.9,201.8 219,197.3 223,202.7 	"/>
	<polygon class="st39" points="265.6,248.4 263.7,230.7 228.5,244.6 230.2,260.2 	"/>
	<path class="st40" d="M511.5,829.8c-2.3,5.4-14.8,12.9-20.4,14.4c-3.9,1-10.9,1-14.2-1.4c-4.3-3-8.5-12.4-8.7-17.6
		c-0.2-4.6,2.8-14.3,3.1-18.8c0.5-6.9-4-24.7-4-24.7l33.1-2c0,0,7.5,17.9,8.9,24.2C510.6,810.7,514.3,823.4,511.5,829.8z"/>
	<path class="st35" d="M510.3,824.9c-2.3,5.4-14.8,12.9-20.4,14.4c-3.9,1-10.9,1-14.2-1.4c-4.3-3-8.5-12.4-8.7-17.6
		c-0.2-4.6,2.8-14.3,3.1-18.8c0.5-6.9-4-24.7-4-24.7l33.1-2c0,0,7.5,17.9,8.9,24.2C509.4,805.8,513.1,818.5,510.3,824.9z"/>
	<path class="st40" d="M385.1,762.1c0,0,3,6.4,3.3,8.6c0.7,5.2-1.6,21-1.6,21l-21.9,5.1l-0.3-3.9c0,0-10.1,3-13.8,5.5
		c-1.9,1.3-7.3,5.8-9.3,6.9c-8,4.5-26.6,7.9-35.8,7.7c-3.3-0.1-12.8-2.7-12.8-2.7s-1-6.3,0-8.5c0.8-1.9,5.5-5.1,7.1-6.3
		c7.1-5.3,22.6-16.6,28.7-22.8c4.2-4.2,12.8-16.7,12.8-16.7L385.1,762.1z"/>
	<g>
		<path class="st35" d="M348.7,795.7c-1.9,1.3-5.2,4.1-7.2,5.3c-8,4.5-26.6,7.9-35.8,7.7c-2.3-0.1-9.2-1.7-13.2-2.7
			c-0.1-1.6,0-3.3,0.4-4.2c0.8-1.9,5.5-5.1,7.1-6.3c7.1-5.3,22.6-16.6,28.7-22.8c4.2-4.2,12.8-16.7,12.8-16.7l43.6,6.2
			c0,0,3,6.4,3.3,8.6c0.4,3-0.2,9.3-0.7,14.2l-23.7,4.3C363.9,789.3,352.3,793.2,348.7,795.7z"/>
	</g>
	<path d="M496.1,500.4l5.2,106.3c0,0,11.6,92.2,10.1,128.6c-0.5,12.6-7.7,50-7.7,50s-13-0.6-17.3,0c-5.5,0.7-21.4,5.6-21.4,5.6
		s-4.1-10.5-4.8-14.1c-6.1-28.8-10.5-106.1-10.5-106.1l-27.6-145.4l-17.9,0.4L394.1,637v21.4l-6.9,74.6c0,0,4.3,10.4,4.4,14.1
		c0.2,4.7-4.4,18.1-4.4,18.1s-17.8,5.2-23.8,4.4c-6.3-0.8-25.8-11.5-25.8-11.5l2.8-49.8l3.2-104l-3.2-113.2l9.7-27.4h130.6
		L496.1,500.4z"/>
	<rect x="382.9" y="402.2" class="st41" width="55.3" height="63.8"/>
	
		<rect x="383.8" y="460.7" transform="matrix(0.9999 -1.708839e-02 1.708839e-02 0.9999 -7.9776 7.0272)" class="st42" width="46.7" height="19.2"/>
	<path class="st36" d="M582.1,263.8l13.6-82.3l-23.2-7.8c0,0-8.5-15.7-5.8-20.3c2-3.6,15.6-4.9,15.6-4.9s1.5,3.1,0.6,6
		c-0.6,1.8-5.6,4.2-5.6,4.2l2.4,3.2l39.9-11.9c0,0,4.4,7.6,4.8,10.5c0.7,4.3,0.1,16.7,0.1,16.7l-7.5,113.8L582.1,263.8z"/>
	<polygon class="st41" points="628.5,208.5 630.1,187.1 591.2,185.9 589.6,202.6 	"/>
	<path class="st38" d="M619.3,150l-6.1-8.5l-31.1,6.9l0.3,6.9l-6.6,2.8c0,0,0.1,5.8,2.3,5.2c13.6-4,26.9-1.7,26.9-1.7
		C608.3,155.7,619.3,150,619.3,150z"/>
	<g>
		<path class="st36" d="M582.8,158c0.8,1.9,3.4,2.7,5.9,1.6l0,0c2.5-1,3.9-3.4,3.1-5.3l-4.9-12.2c-0.8-1.9-3.4-2.7-5.9-1.6l0,0
			c-2.5,1-3.9,3.4-3.1,5.3L582.8,158z"/>
		<path class="st36" d="M607.5,149.2c0.8,1.9,3.4,2.7,5.9,1.6l0,0c2.5-1,3.9-3.4,3.1-5.3l-4.9-12.2c-0.8-1.9-3.4-2.7-5.9-1.6l0,0
			c-2.5,1-3.9,3.4-3.1,5.3L607.5,149.2z"/>
		<path class="st36" d="M590.5,156.1c0.8,1.9,3.4,2.7,5.9,1.6l0,0c2.5-1,3.9-3.4,3.1-5.3l-6.6-15.4c-0.8-1.9-3.4-2.7-5.9-1.6l0,0
			c-2.5,1-3.9,3.4-3.1,5.3L590.5,156.1z"/>
		<path class="st36" d="M599.8,153.6c0.8,1.9,3.4,2.7,5.9,1.6l0,0c2.5-1,3.9-3.4,3.1-5.3l-6.6-15.4c-0.8-1.9-3.4-2.7-5.9-1.6l0,0
			c-2.5,1-3.9,3.4-3.1,5.3L599.8,153.6z"/>
	</g>
	<polygon class="st38" points="588.9,151.1 586.4,147.2 584.1,141.1 587.6,146.7 	"/>
	<polygon class="st38" points="597.8,148.9 595.3,144.4 593.3,138.4 596.5,144 	"/>
	<polygon class="st38" points="607.1,146.5 604.8,142.3 602.6,136.1 606,141.8 	"/>
	<path class="st38" d="M582.6,148.1c0,0,4.2,5.3,2.2,8.2c-2,2.8-8.9,1.9-8.9,1.9s4.6-0.9,6.8-3.7
		C584.2,152.5,582.6,148.1,582.6,148.1z"/>
	<path class="st43" d="M267.6,241.4l8.5,50.4c0,0,19-6.5,33.9-19c17.1-14.4,16.5-14.6,34.3-31.5l74.2-1.6l29.2,4.2l14.5,6
		c9.6,0.3,39.3,1.3,41.4,1.3c4.8-0.1,13.9,5.8,20.3,8.1c30.7,10.8,52.8,3.3,52.8,3.3l12.2-64.9l53.2,7.7L617.9,297
		c0,0-29.5,13.1-50.8,19.1c-20,5.7-58,8.2-67.3,8.7c-4.3,20.4-7.9,42.2-7.9,56.9C491.9,428.6,503,503,503,503s-50.8,14.1-65.3,6.1
		c-27.5-15.1-34.7-95.6-34.7-95.6s-3.7,76.1-22.6,89.9c-12.1,8.9-43.3-2.9-43.3-2.9s2.2-159.9,2-183.7c-3.8,1.6-52.8,21.7-71.5,21.9
		c-4.9,0.1-15.6,0-18-4.3c-8.5-15.3-24.3-75.4-24.3-75.4L267.6,241.4z"/>
	<path d="M495.8,414.7l-46.8,6c0,0,0.4,15.7,4.5,16.5c9.2,1.9,33.1,0.7,42.8-5.9C499.9,429,495.8,414.7,495.8,414.7z"/>
	<polygon class="st41" points="459.1,244.6 452.1,319.5 402.2,383.9 378.2,299.3 402.7,234.1 	"/>
	<polygon class="st44" points="431.8,268.2 424.8,260.2 411.7,264 407.6,269.8 414.1,282.8 406,294.5 396.4,363.6 402.2,383.9 
		425.8,353.4 428.7,298.8 424.9,284.2 434.3,275.7 	"/>
	<path d="M334.4,412.8l38.8,5c0,0-0.4,15.7-4.5,16.5c-7.4,1.5-23,1-34.4-2.6L334.4,412.8z"/>
	<circle cx="403.7" cy="398.7" r="3.5"/>
	<g>
		<g>
			<path class="st36" d="M371.5,177.5c3.3,11.3,8.9,16,13.6,13.9c4.7-2,6.7-10,3.4-21.3c-3.3-11.3-7.9-22.8-15.3-19.6
				C366.4,153.4,368.2,166.2,371.5,177.5z"/>
		</g>
		<g>
			<path class="st38" d="M377.1,176.5c1.7,5.9,4.7,8.3,7.1,7.3c2.5-1.1-2.4-23.1-6.2-21.4C374.4,163.9,375.3,170.6,377.1,176.5z"/>
		</g>
		<g>
			<path class="st36" d="M487.6,177.5c-3.3,11.3-8.9,16-13.6,13.9c-4.7-2-6.7-10-3.4-21.3c3.3-11.3,7.9-22.8,15.3-19.6
				C492.7,153.4,490.9,166.2,487.6,177.5z"/>
		</g>
		<g>
			<path class="st38" d="M482.1,176.5c-1.7,5.9-4.7,8.3-7.1,7.3c-2.5-1.1,2.4-23.1,6.2-21.4C484.8,163.9,483.8,170.6,482.1,176.5z"
				/>
		</g>
		<g>
			<path class="st36" d="M403.8,246.3c0,0-6.2,13.3,21,13.9c28.9,0.7,34.1-13.6,34.1-13.6l2.4-41.2l-56.5-1.8L403.8,246.3z"/>
		</g>
		<g>
			<path class="st38" d="M457.3,213.6c0.2,9.9-11.7,28.1-25.1,34.6c-13.7,6.6-32,5.4-32,5.4s5-38.1,4.9-42.3
				c-0.2-9.9,9.5-14.6,24.5-14.9C444.7,196,457.1,203.7,457.3,213.6z"/>
		</g>
		<g>
			<path class="st36" d="M380.5,166.2c-0.2,6.5,4.6,41.9,13.5,50.9c5,5,17.5,18.8,23.6,20.9c5.8,2,18.9,2,24.7,0
				c6.1-2,19.1-16.2,23.6-20.9c8.5-9,12.1-42.9,12.2-48.7c0.6-23.9,3.4-49.7-3.8-62c-6.9-11.7-23.2-10.5-43.9-10.5
				C383.5,95.9,381.6,119.5,380.5,166.2z"/>
		</g>
		<g>
			<path class="st45" d="M452.3,198.4c0,0-3.1,12.8-22.8,12.8c-19.3,0-22.8-12.8-22.8-12.8H452.3z"/>
		</g>
		<g>
			<path class="st38" d="M427.4,220.5c-3.8-0.5-5.5-2.1-4.9-4c0.2-0.8,3.9,0.7,6.8,0.8c4.3,0.3,7.4-1.3,6.9,0.4
				C435.4,220.5,431.7,221.1,427.4,220.5z"/>
		</g>
		<g>
			<path class="st38" d="M418.8,187.4L418.8,187.4c0,0,1.8-6,2.8-5.3c0.8,0.5,0.3,2.3,2.1,5.1c2.6,2.7,9.1,1.6,10.3-0.2
				c0.1-0.1,2.2-27.5,2.8-30.6c0.7-3.4,1.7-7.8,3-9.9c1.5-2.5,1.9-0.4,5.4-0.8c2.8-0.3-2.4-0.5-5.2,14.8c-0.5,2.6,0.5,26.6,0.5,27.6
				c0.3,5-18.9,5.7-21.9,0.6C418.3,188.2,418.4,187.7,418.8,187.4z"/>
		</g>
		<g>
			<path class="st46" d="M455.3,137.6c5.6-0.5,9.5,0.4,12,2.2c3.8,2.9,2.9,7.6,2.9,7.6c-4.8-2.3-7.7-1.8-17-1.3
				c-7.2,0.4-11,5.1-13.1,4.8c0,0-2.2-4.2,1.5-7.2C444,141.8,448,138.2,455.3,137.6z"/>
		</g>
		<g>
			<path class="st46" d="M403.9,137.6c-5.6-0.5-9.5,0.3-12,2.2c-3.8,2.9-2.9,7.6-2.9,7.6c4.8-2.3,7.7-1.8,17-1.2
				c7.2,0.4,10.9,5.1,13.1,4.9c0,0,2.2-4.2-1.5-7.2C415.2,141.8,411.2,138.3,403.9,137.6z"/>
		</g>
		<path class="st46" d="M468.4,109.7c-7.8-4.9-24.2,2.2-37.5,2.4c-10.9,0.2-27.2-7.4-38.3-2.4c-10.8,4.8-2.3,24.3-10.8,44.7
			c-0.4,1-1.7-0.3-3-3.9c-2.5-7.1-17.9-61.3,6.3-72.5c12.8-5.9,24.3-1,24.3-1s42.5-17,62.9,0.4c29.7,25.4,10.7,68.1,7.8,74.9
			c-1.7,4-2.9,3.5-4.8-0.7C469.7,139.8,477.5,115.5,468.4,109.7z"/>
		<g>
			<path class="st47" d="M409.3,162.1c0.1,2.6-2,4.8-4.7,4.8c-2.7,0-4.9-2-5-4.6c-0.1-2.6,2-4.8,4.7-4.8
				C407,157.4,409.2,159.5,409.3,162.1z"/>
		</g>
		<g>
			<path class="st36" d="M412.6,159.3c2.3,1,3.1,2.2,3.5,3.4c1.7-1.8,0-5.9-3.2-8c-7.1-4.6-19.7,0.5-21.6,3.3
				c-1.1,1.5,0.1,3.4,1,4.6C394.1,158.2,403.4,155.3,412.6,159.3z"/>
		</g>
		<g>
			<path class="st48" d="M416.2,163.8c0.2,0,0.4-0.1,0.6-0.2c0.5-0.3,0.6-0.9,0.3-1.4c-5.7-7.9-14.3-6.7-17.7-5.8
				c-4.5,1.2-8.1,3.7-8.3,5.9c0,0.5,0.4,1,0.9,1.1c0.6,0,1.1-0.4,1.1-0.9c0.1-0.9,2.5-3.1,6.8-4.2c3-0.8,10.5-1.8,15.5,5.1
				C415.5,163.6,415.8,163.8,416.2,163.8z"/>
		</g>
		<circle class="st39" cx="402.3" cy="161.6" r="0.8"/>
		<g>
			<path class="st47" d="M449.3,162.1c-0.1,2.6,2,4.8,4.7,4.8c2.7,0,4.9-2,5-4.6c0.1-2.6-2-4.8-4.7-4.8
				C451.6,157.4,449.3,159.5,449.3,162.1z"/>
		</g>
		<g>
			<path class="st36" d="M445.9,159.3c-2.3,1-3.1,2.2-3.5,3.4c-1.7-1.8,0-5.9,3.2-8c7.1-4.6,19.7,0.5,21.6,3.3
				c1.1,1.5-0.1,3.4-1,4.6C464.5,158.2,455.2,155.3,445.9,159.3z"/>
		</g>
		<g>
			<path class="st48" d="M442.4,163.8c-0.2,0-0.4-0.1-0.6-0.2c-0.5-0.3-0.6-0.9-0.3-1.4c5.7-7.9,14.3-6.7,17.7-5.8
				c4.5,1.2,8.1,3.7,8.3,5.9c0,0.5-0.4,1-0.9,1.1c-0.6,0-1.1-0.4-1.1-0.9c-0.1-0.9-2.5-3.1-6.8-4.2c-3-0.8-10.5-1.8-15.5,5.1
				C443,163.6,442.7,163.8,442.4,163.8z"/>
		</g>
		<circle class="st39" cx="452.3" cy="161.6" r="0.8"/>
	</g>
	<polygon class="st39" points="424.8,260.2 404.6,273.6 392.4,257.4 402.7,233 	"/>
	<polygon class="st39" points="459.9,242.4 424.8,260.2 436.3,285.2 459,269.3 	"/>
	<path d="M386.7,286.9c-3.7,21.7,16.1,92.5,15.5,97c0,0-26.8-31-37.6-79.3c-2.4-10.8,0-32,0-32l18.2-10.9l-10.6-10.6l8.8-12.9
		l20.7-3C401.7,235.2,389.8,268.7,386.7,286.9z"/>
	<polygon points="267.6,241.4 276.1,291.8 268.2,294.7 	"/>
	<polygon points="339.4,316.8 342.5,260.2 329.9,320.6 	"/>
	<path d="M450.3,299.5c-4.5,21.5-47,80.1-48.1,84.5c0,0,36.9-19.2,64.5-60.3c6.2-9.2,11.7-29.8,11.7-29.8l-13-16.8l13.7-6l-5.7-22.7
		l-13.7-3.9C459.7,244.3,454.1,281.4,450.3,299.5z"/>
	<polygon points="499.8,324.9 503.1,288 515.4,323.8 	"/>
	<polygon points="576.6,262.7 589.6,260.2 588.8,197.8 	"/>
</g>
<text transform="matrix(0.6015 0.4479 -0.5972 0.8021 260.5529 128.8943)" class="st49 st50 st51">CMO</text>
</svg>
