<?xml version="1.0" encoding="utf-8"?>
<!-- Generator: Adobe Illustrator 21.0.2, SVG Export Plug-In . SVG Version: 6.00 Build 0)  -->
<svg version="1.1" id="Layer_1" xmlns="http://www.w3.org/2000/svg" xmlns:xlink="http://www.w3.org/1999/xlink" x="0px" y="0px"
	 viewBox="0 0 900 900" style="enable-background:new 0 0 900 900;" xml:space="preserve">
<style type="text/css">
	.st0{fill:#4BBF85;}
	.st1{fill:#FFB288;}
	.st2{fill:none;stroke:#A0372B;stroke-width:7;stroke-linecap:round;stroke-miterlimit:10;}
	.st3{fill:#9E2121;}
	.st4{fill:#EF3325;}
	.st5{fill:#FF4A2C;}
	.st6{fill:#8E3925;}
	.st7{fill:#F58D6C;}
	.st8{fill:none;stroke:#1E1E1E;stroke-width:12.8953;stroke-miterlimit:10;}
	.st9{fill:#FFB287;}
	.st10{fill:#FFFFFF;}
	.st11{fill:#691F20;}
	.st12{fill:none;stroke:#8E3925;stroke-width:1.7446;stroke-linecap:round;stroke-miterlimit:10;}
	.st13{fill:#A0372B;}
	.st14{fill:#153EAF;}
	.st15{fill:#1E1E1E;}
	.st16{fill:#3F363D;}
	.st17{fill:#26556D;}
	.st18{fill:#468CB7;}
	.st19{fill:#68655F;}
	.st20{fill:#44423D;}
	.st21{fill:#9B93AA;}
	.st22{fill:#22AA5C;}
	.st23{fill:none;stroke:#2D2D2D;stroke-width:0.5946;stroke-miterlimit:10;}
	.st24{fill:#FF501A;}
	.st25{fill:none;stroke:#000000;stroke-width:0.5946;stroke-miterlimit:10;}
	.st26{fill:#F7653E;}
	.st27{fill:#FC827A;}
	.st28{fill:#543E45;}
	.st29{fill:none;stroke:#422B27;stroke-width:1.0916;stroke-linecap:round;stroke-miterlimit:10;}
</style>
<circle class="st0" cx="471.2" cy="416.3" r="280.9"/>
<g>
	<path class="st1" d="M309.7,363.8l-14.4-3.7l-8.6-12.8l-20.2-6.7c-2.2,6.3,6.4,10.7,10.9,11.2l0.8,0.1l-6.4-2.6l-6.5,26.9l15.5,4.5
		l13-1.7l17.6,5l3.3-19.8L309.7,363.8z"/>
	<line class="st2" x1="271.8" y1="458.9" x2="271.8" y2="52.2"/>
	<g>
		<path class="st3" d="M526.9,240.6c-10.8,24.5-54.2,25.4-54.2,25.4V146.9l59.3,1.8L526.9,240.6z"/>
		<g>
			<path class="st4" d="M654.5,114.7c-22.7,2.2-153.1,0-153.1,0l-224.7,83.9c0,0,216.4-23.4,224.7,0c0,0,10.8,11.6-7.8,34.7
				c-18.6,23-28.3,32.9-14.5,43.9c13.8,11,175.4,0,175.4,0l-44.8-88.9L654.5,114.7z"/>
		</g>
		<g>
			<path class="st5" d="M504.5,58c-8.3-23.4-239.1,0-239.1,0l0.2,146c0,0,91.4-23.4,219-12.4c13.7,1.2,19.9,14.3,19.9,14.3V58z"/>
		</g>
	</g>
	<g>
		<path class="st6" d="M435.1,157.4c13.8-8.4,19.3-24.8,31.4-34.5c15.5-12.5,32.5-10.3,47.5-3.5c19.8,9,63.2,48.2,85.7,19.3
			c-7.7,37-38.2,50.6-68.1,45c-32.7-6.1-63.4-50.3-93.9-15.8C416.2,192.3,435.1,157.4,435.1,157.4z"/>
	</g>
	<g>
		<g>
			<g>
				<g>
					<path class="st7" d="M272.2,369.5c2.2,0.2,4-1.5,4.1-3.7c0.1-1.9-1.2-3.7-3-4.2l2.1,0.2c2.2,0.2,3.9,2.1,3.8,4.3
						c-0.1,2.2-1.9,3.9-4.1,3.7l-11.5-1c-0.3,0-0.5-0.1-0.8-0.1L272.2,369.5z"/>
					<path class="st7" d="M273.3,362.8c2.3,0.2,4.2-1.6,4.3-3.9l0-0.1c0.1-2.1-1.3-3.9-3.2-4.4l2.1,0.2c2.3,0.2,4.1,2.3,4,4.6l0,0.1
						c-0.1,2.3-2,4.1-4.3,3.9l-12.9-1.1c-0.3,0-0.5-0.1-0.8-0.1L273.3,362.8z"/>
					<path class="st7" d="M274.4,355.9c2.3,0.2,4.2-1.6,4.3-3.9l0-0.1c0.1-2.1-1.3-3.9-3.2-4.4l2.1,0.2c2.3,0.2,4.1,2.3,4,4.6l0,0.1
						c-0.1,2.3-2,4.1-4.3,3.9l-12.9-1.1c-0.3,0-0.5-0.1-0.8-0.1L274.4,355.9z"/>
					<path class="st7" d="M270.4,375.2c2.1,0,3.7-1.7,3.7-3.8c0-1.6-1.1-3-2.5-3.6l1.5,0c2.1,0,3.8,1.8,3.9,3.9
						c0.1,2.1-1.6,3.8-3.7,3.8l-9.2-0.2c-0.5,0-1-0.1-1.4-0.3L270.4,375.2z"/>
				</g>
				<path class="st1" d="M261.3,368.5l11.5,1c2.2,0.2,4-1.5,4.1-3.7l0,0c0.1-2.2-1.6-4.2-3.8-4.3l-11.5-1c-2.2-0.2-4,1.5-4.1,3.7
					l0,0C257.4,366.4,259.1,368.3,261.3,368.5z"/>
				<path class="st1" d="M260.9,361.8l12.9,1.1c2.3,0.2,4.2-1.5,4.3-3.7l0-0.1c0.1-2.2-1.7-4.2-4-4.4l-12.9-1.1
					c-2.3-0.2-4.2,1.5-4.3,3.7l0,0.1C256.8,359.6,258.6,361.6,260.9,361.8z"/>
				<path class="st1" d="M262.1,354.8l12.9,1.1c2.3,0.2,4.2-1.6,4.3-3.9l0-0.1c0.1-2.3-1.7-4.4-4-4.6l-12.9-1.1
					c-2.3-0.2-4.2,1.6-4.3,3.9l0,0.1C258,352.6,259.8,354.6,262.1,354.8z"/>
				<path class="st1" d="M261.5,367.4l9.2,0.2c2.1,0,3.8,1.8,3.9,3.9l0,0c0.1,2.1-1.6,3.8-3.7,3.8l-9.2-0.2c-2.1,0-3.8-1.8-3.9-3.9
					l0,0C257.8,369.1,259.5,367.4,261.5,367.4z"/>
			</g>
			<path class="st8" d="M397.5,288.8c0,0-7.6,95.9-19.8,96.6c-12.2,0.7-82-15.3-82-15.3"/>
			<path class="st9" d="M434.5,265.7l25.6,20.4l33.2,141.3h-89.1c0,0-22-132.5-18.6-139.5c3.4-7,19.1-20.4,19.1-20.4L434.5,265.7z"
				/>
			<path class="st10" d="M437.8,269.5c0,0-22.9,20.1-32.2,29.2c-9.3,9.1-11.6-23.3-6.7-26.9c4.9-3.6-10.7,12.4-10.7,12.4
				c-8.7,35,3,93.7,15.4,145c0,0,76-1.8,77.5-3.1c1.6-1.3-21-139.9-21-139.9L437.8,269.5z"/>
			<path class="st9" d="M380.7,498.2c-25.8,65.6-34.1,121.1-34.1,121.1c2.7,25.1-7.6,171.5-7.6,171.5l16.8-3.2
				c13.2-60.6,39.7-109.6,30.9-144c-0.7-2.7,44.8-82.4,53.3-58.1c8.1,23.1,40.7-59,31.1-97.4c-7.2-28.8-9.1-41.2-19.2-52.8
				c-2.2-2.5,4.8,3.2,4.8,3.2C436.9,458,380.7,498.2,380.7,498.2z"/>
			<path class="st11" d="M362.4,175.4c9.8,19.6,20,30.9,31.3,29.8l8-75.4C365.2,124.7,351.8,154,362.4,175.4z"/>
			<path class="st6" d="M367.1,210.1c9.4-0.1,22,25.4,40.3,37.1c2.2,1.4-2.1,9.8,0.4,10.3c1.4,0.3,2.8,0.4,4.3,0.4
				c-0.1-0.6-0.1,4.4-0.2,3.8c3.6-1.2,7.4-8.2,10.5-10.2c9-14.1,2-8.2,7.9-16.2c27.9-15,37.2-50.7,36.6-67.9
				c-2.2-28.7-29.8-47.8-58.7-46.2l-2.6,0.1h-0.1l-1.9,0.1c-0.1,0-0.2,0-0.2,0l-1.7,0.1l0,0.1l-9.2,23.5l-10,25.6v0L367.1,210.1z"/>
			<polygon class="st9" points="405,271.8 434.9,269.4 431.5,237.5 401.6,239.8 			"/>
			<path class="st7" d="M403.9,261.9c7.9,0.6,15-3.9,21.3-7.6c4.6-2.6,7.9,2.6,7.9,2.6l1,5.9l-4.1-40.9l-29.8,2.4L403.9,261.9z"/>
			<path class="st7" d="M361.3,186.6l11.3,28.1c1.3,19.1-9.8,21.1-0.1,38.2c1.8,3.2,32.1,3.6,32.8,1.9c1.3-3.1,6.3,0.8,9-1.1
				c0,0,0,0,0,0c13.7-9.7,22-28.4,21.7-43.9c0-0.7,0-1.4-0.1-2.1l-0.2-0.9l-0.2-0.9l-3.2-13.1l-1.3-5.4l0-0.1l-0.8-3.1l-0.1-0.5
				l-0.3-1.3l-0.4-1.7c-0.5-6.7-2.4-12.9-5.5-18.3c-6.6-11.7-18.5-19-31.3-17.9c-1.4,0.1-2.7,0.3-4,0.6c-8.2,1.8-15.3,7.1-20.2,14.4
				C363.3,166.9,360.5,176.5,361.3,186.6z"/>
			<path class="st9" d="M363.5,217.6c0.6,1.1,1,5.1,1.3,8.2c0.4,5.3,2,6.7,3.4,11c1.7,5.2-3.5,14,3,17.1c10.8,5.2,20.6-1.2,26.2-2.7
				c23.9-6.2,28.9-25.7,26.6-47l-2.6-18.4c-2.3-21.3-10.8-42.5-29.6-45.3c-19.7-2.9-32.5,26.3-30.2,47.6l3.1,12.4L363.5,217.6z"/>
			<path class="st6" d="M450.8,188.6c20.2-5.4-29-48.8-34.6-50.1c-3.8-0.9,0.4-17.9-11.5-17.1c-11.5,0.8-23.5,4.2-31,10.1
				c-10.3,8.1-10.5,16.5-6.2,25.5C379,180.6,432.5,193.5,450.8,188.6z"/>
			<path class="st6" d="M428,182.6c1.2,10.5,2.2,13.8,3.2,15.8c1.7,3.5,4.1,1.8,4.3-0.6c0.3-3.2,1.4-7.9,8.5-10.6
				c0.8-0.3-16.4-8.6-16.4-8.6L428,182.6z"/>
			<path class="st6" d="M401.3,156.9c7.8,10.5,3.7,16.5,17.4,17.3c10.9,0.6,8.6,10.3,11.1,19.8c1.8,6.6,13.2-13.2,13.2-13.2
				s2-15.3-0.5-16.3c-2.5-1-21.1-2.8-23-3.6C417.6,160.2,401.3,156.9,401.3,156.9z"/>
			<path class="st12" d="M381.3,188.4c-5.4-2.8-11-4-17-3.5"/>
			<path class="st9" d="M488.7,467.2c0,3.2,2.6,5.8,5.9,5.7c3.2-0.1,5.9-2.8,5.9-6.1s-2.6-5.8-5.9-5.7S488.7,464,488.7,467.2z"/>
			<path class="st9" d="M493.3,476.4c0,3.2,2.6,5.8,5.9,5.7c3.2-0.1,5.9-2.8,5.9-6.1s-2.6-5.8-5.9-5.7S493.3,473.2,493.3,476.4z"/>
			<path class="st13" d="M295.6,818.6c0.2,3.4,0.4,5.7,8,6.9c5.9,1,26.3-16.9,39.2-17.7c1.9-0.1-0.2,18.9,0.7,20.6
				c0.8,1.5,5.4,2.3,6.2,0.7c13.7-26,12.1-32.6,12.1-32.6s-28.1,18.7-32,20.6C326,819,295.6,818.6,295.6,818.6z"/>
			<path class="st5" d="M327.4,824.8c-15.6,8.1-32.7,3.4-34.5,0.9c0,0-2.8-13.3,20.2-26.7c5.3-3.6,13-9.2,18.5-11.9
				c11.6-5.5,12.6-4.6,18.7-2.2c5.7-0.2,8.5,3.2,9.6,5.1c3.1,5.3,2.6,11.3-3.4,17.8C354.8,809.6,348.6,813.8,327.4,824.8z"/>
			<path class="st9" d="M308,810.2c11.4,4.5,38.7-9.8,44.3-16c7.2-6.8,0.8-11.9,1.9-18.4c0.6-3.5-5.3,1-5.3,1
				C332.1,792.8,312,799.6,308,810.2z"/>
			<path class="st13" d="M720,633.9c3.3-0.9,5.5-1.5,5.2-9.2c-0.2-6-21.8-22.4-25.2-34.9c-0.5-1.8,18.6-3.6,20-4.8
				c1.3-1.1,1.2-5.7-0.5-6.2c-28.3-8.3-34.3-5.3-34.3-5.3s23.9,23.8,26.6,27.2C714.3,604,720,633.9,720,633.9z"/>
			<path class="st5" d="M719.7,601.5c11,13.7,9.9,31.4,7.7,33.6c0,0-12.5,5.4-30.2-14.5c-4.6-4.5-11.6-10.9-15.3-15.8
				c-7.7-10.3-7-11.4-5.9-17.9c-1.4-5.6,1.4-9,3-10.4c4.6-4.1,10.5-4.8,18.1-0.1C699.5,577.7,704.8,582.9,719.7,601.5z"/>
			<path class="st9" d="M709.3,623.5c2.2-12.1-17.3-36-24.5-40.2c-8.1-5.7-11.8,1.5-18.5,1.8c-3.5,0.1,2,5,2,5
				C687.4,603.3,698.1,621.6,709.3,623.5z"/>
			<path class="st9" d="M455.9,505.1c12.6,69.4,64.7,149.7,64.7,149.7c25.4,20.4,155.9-61.1,155.9-61.1l1.7-12.7
				c-111.2,23.5-118,30.7-124.8,34.5C533,626.8,528,504.2,508.7,473.1c-15.7-25.2-29.4-30.3-44.2-34.8c-3.2-1,5.8,0.2,5.8,0.2
				C463.8,465.5,455.9,505.1,455.9,505.1z"/>
			<path class="st14" d="M347.6,606.8c-0.5,2.8,14.5-4.1,65.5,12.7c87.8,29,154.4-9.4,144.3-14.2c-25.4-12.1-28.6-100.4-64.1-178
				l-35.9-3.1l-50.5-4.3C388.4,472.2,355.9,555.1,347.6,606.8z"/>
			<path class="st10" d="M404.9,415.1c0.7,10.3-13.5,35.5,44.1,31c57.6-4.5,25.5-36.2,22.8-37.6C469,407.1,404.9,415.1,404.9,415.1z
				"/>
			<path class="st15" d="M437.8,269.5c48.7,10,54.6,161.5,111.6,175.9c-18.1,20.4-63.1,44.5-102.4,39.3l-25.7-109.5
				C402.9,322.2,417.1,294.2,437.8,269.5z"/>
			<path class="st16" d="M400.2,271.4c0,0-11.1,5.1-14.9,14.1c-14.1,14.7-5.9,127.5,31.5,143.6c1.4,0.6,1.8-5-3.3-12.9
				C388.3,377.7,373.7,289,400.2,271.4z"/>
			<g>
				<g>
					<path class="st17" d="M473.4,459.5c-1.7,2.8-5.4,3.6-8.3,1.8l-83.3-49.8c-2.6-1.6-3.7-4.7-2.7-7.3l-1.2,1.9
						c-1.7,2.8-0.6,6.4,2.3,8.2l83.3,49.8c2.9,1.8,6.7,0.9,8.3-1.8l37.5-62.9c0.2-0.3,0.3-0.6,0.4-0.9L473.4,459.5z"/>
					<g>
						<path class="st18" d="M416.2,342l-6.9,11.5l76.2,85.9l24.6-41.2c1.7-2.8,0.8-6.4-2-8L424.2,340
							C421.4,338.3,417.8,339.3,416.2,342z"/>
						<path class="st18" d="M378.6,404.9c-1.7,2.8-0.8,6.4,2,8l83.9,50.1c2.8,1.7,6.4,0.8,8-2l12.9-21.6l-76.2-85.9L378.6,404.9z"/>
					</g>
				</g>
				
					<rect x="405.8" y="355.1" transform="matrix(-0.5128 0.8585 -0.8585 -0.5128 1008.4067 228.4032)" class="st10" width="67.1" height="90.4"/>
				<g>
					<path class="st19" d="M388.3,377.7c1.9,1.1,4.7,0,6.2-2.6c1.5-2.6,1.2-5.6-0.7-6.7c-1.9-1.1-4.7,0-6.2,2.6
						C386.1,373.5,386.4,376.5,388.3,377.7z M389.3,376.6c-1.4-0.8-1.6-3-0.5-4.9c1.1-1.9,3.2-2.7,4.5-1.9c1.4,0.8,1.6,3,0.5,4.9
						C392.7,376.5,390.7,377.4,389.3,376.6z"/>
					<path class="st20" d="M395.3,394.4l17.2-28.7c1.9-3.3,0.9-7.5-2.4-9.4l0,0c-3.3-1.9-7.5-0.9-9.4,2.4l-17.2,28.7
						c-1.9,3.3-0.9,7.5,2.4,9.4l0,0C389.1,398.7,393.4,397.6,395.3,394.4z"/>
					<path class="st19" d="M390.7,398.1l22.9-38.4c0.4-0.6,0.2-1.4-0.4-1.7l-3.2-1.9c-0.6-0.4-1.4-0.2-1.7,0.4L385.4,395
						c-0.4,0.6-0.2,1.4,0.4,1.7l3.2,1.9C389.6,398.9,390.3,398.8,390.7,398.1z"/>
				</g>
				<g>
					<path class="st21" d="M418.1,398.9c-1.6,2.6-3.2,5.3-4.7,7.9c-1,1.7-3.7,0.2-2.7-1.6c1.6-2.6,3.2-5.3,4.7-7.9
						C416.4,395.6,419.1,397.2,418.1,398.9L418.1,398.9z"/>
				</g>
				<g>
					<path class="st21" d="M424.3,388.5c-1.1,1.9-2.3,3.8-3.4,5.7c-1,1.7-3.7,0.2-2.7-1.6c1.1-1.9,2.3-3.8,3.4-5.7
						C422.7,385.2,425.3,386.8,424.3,388.5L424.3,388.5z"/>
				</g>
				<g>
					<path class="st21" d="M438.2,396c-3,5.1-6.1,10.1-9.1,15.2c-1,1.7-3.7,0.2-2.7-1.6c3-5.1,6.1-10.1,9.1-15.2
						C436.6,392.8,439.3,394.3,438.2,396L438.2,396z"/>
				</g>
				<g>
					<path class="st22" d="M424.8,404.7c-1.9,3.2-3.8,6.4-5.7,9.6L424.8,404.7z"/>
					<g>
						<path class="st22" d="M426.1,405.5c-1.9,3.2-3.8,6.4-5.7,9.6c-1,1.7-3.7,0.2-2.7-1.6c1.9-3.2,3.8-6.4,5.7-9.6
							C424.5,402.2,427.1,403.8,426.1,405.5L426.1,405.5z"/>
					</g>
				</g>
				<g>
					<path class="st22" d="M432.2,392.4c-1.3,2.2-2.6,4.3-3.9,6.5L432.2,392.4z"/>
					<g>
						<path class="st22" d="M433.5,393.2c-1.3,2.2-2.6,4.3-3.9,6.5c-1,1.7-3.7,0.2-2.7-1.6c1.3-2.2,2.6-4.3,3.9-6.5
							C431.8,389.9,434.5,391.5,433.5,393.2L433.5,393.2z"/>
					</g>
				</g>
				<g>
					<path class="st22" d="M418.7,384.4c-4.4,7.3-8.7,14.6-13.1,21.9L418.7,384.4z"/>
					<g>
						<path class="st22" d="M420,385.1c-4.4,7.3-8.7,14.6-13.1,21.9c-1,1.7-3.7,0.2-2.7-1.6c4.4-7.3,8.7-14.6,13.1-21.9
							C418.4,381.9,421,383.4,420,385.1L420,385.1z"/>
					</g>
				</g>
				<g>
					<path class="st22" d="M460.9,409.6c-3.2,5.3-6.4,10.7-9.6,16L460.9,409.6z"/>
					<g>
						<path class="st22" d="M462.3,410.4c-3.2,5.3-6.4,10.7-9.6,16c-1,1.7-3.7,0.2-2.7-1.6c3.2-5.3,6.4-10.7,9.6-16
							C460.6,407.1,463.3,408.7,462.3,410.4L462.3,410.4z"/>
					</g>
				</g>
				<g>
					<path class="st21" d="M449.1,402.6c-4.4,7.3-8.7,14.6-13.1,21.9c-1,1.7-3.7,0.2-2.7-1.6c4.4-7.3,8.7-14.6,13.1-21.9
						C447.5,399.3,450.1,400.9,449.1,402.6L449.1,402.6z"/>
				</g>
				<g>
					<path class="st21" d="M466.7,413.2c-2.2,3.7-4.4,7.4-6.6,11.1c-1,1.7-3.7,0.2-2.7-1.6c2.2-3.7,4.4-7.4,6.6-11.1
						C465,410,467.7,411.5,466.7,413.2L466.7,413.2z"/>
				</g>
				<g>
					<path class="st23" d="M432.5,372.7L432.5,372.7c1.5-2.4,0.7-5.6-1.8-7.1l0,0c-2.4-1.5-5.6-0.7-7.1,1.8l0,0
						c-1.5,2.4-0.7,5.6,1.8,7.1l0,0C427.9,376,431,375.2,432.5,372.7z"/>
					<path class="st24" d="M428.5,365.9c-0.9-1.7-2.9-0.3-2.3,1.1l1.4,3.3c-4.3,0.3-6.4-0.1-11.1,2.1c-1.1,0.8-0.3,2.8,1.1,2.3
						c4.3-2.1,6.6-1.9,11.6-1.9c1.1,0.1,1.6-0.8,1.5-1.6L428.5,365.9z"/>
				</g>
				<g>
					<path class="st23" d="M445.7,380.9L445.7,380.9c1.5-2.4,0.7-5.6-1.8-7.1h0c-2.4-1.5-5.6-0.7-7.1,1.8v0
						c-1.5,2.4-0.7,5.6,1.8,7.1l0,0C441.1,384.1,444.3,383.3,445.7,380.9z"/>
					<path class="st24" d="M441.8,374c-0.9-1.7-2.9-0.3-2.3,1.1l1.4,3.3c-4.3,0.3-6.4-0.1-11.1,2.1c-1.1,0.8-0.3,2.8,1.1,2.3
						c4.3-2.1,6.6-1.9,11.6-1.9c1.1,0.1,1.6-0.8,1.5-1.6L441.8,374z"/>
				</g>
				<g>
					<path class="st25" d="M460,390.2L460,390.2c1.5-2.4,0.7-5.6-1.8-7.1v0c-2.4-1.5-5.6-0.7-7.1,1.8l0,0c-1.5,2.4-0.7,5.6,1.8,7.1
						l0,0C455.4,393.4,458.5,392.6,460,390.2z"/>
					<path class="st24" d="M456.1,383.3c-0.9-1.7-2.9-0.3-2.3,1.1l1.4,3.3c-4.3,0.3-6.4-0.1-11.1,2.1c-1.1,0.8-0.3,2.8,1.1,2.3
						c4.3-2.1,6.6-1.9,11.6-1.9c1.1,0.1,1.6-0.8,1.5-1.6L456.1,383.3z"/>
				</g>
				<g>
					<path class="st23" d="M474.5,399.3L474.5,399.3c1.5-2.4,0.7-5.6-1.8-7.1l0,0c-2.4-1.5-5.6-0.7-7.1,1.8l0,0
						c-1.5,2.4-0.7,5.6,1.8,7.1l0,0C469.9,402.6,473,401.8,474.5,399.3z"/>
					<path class="st24" d="M470.5,392.5c-0.9-1.7-2.9-0.3-2.3,1.1l1.4,3.3c-4.3,0.3-6.4-0.1-11.1,2.1c-1.1,0.8-0.3,2.8,1.1,2.3
						c4.3-2.1,6.6-1.9,11.6-1.9c1.1,0.1,1.6-0.8,1.5-1.6L470.5,392.5z"/>
				</g>
			</g>
			<g>
				<g>
					<path class="st1" d="M431.2,396.2l-14.9,1.1l-12.3-9.4l-21.3,0.1c0,6.7,9.5,8.1,13.9,7.2l0.7-0.2l-6.9-0.4l2.4,27.6l16.1-0.7
						l11.8-5.7l18.3-0.9l-3.2-19.9L431.2,396.2z"/>
					<path class="st1" d="M383.8,417.1l11.5-0.9c2.2-0.2,3.7-2.1,3.4-4.3l0,0c-0.3-2.2-2.3-3.8-4.4-3.6l-11.5,0.9
						c-2.2,0.2-3.7,2.1-3.4,4.3l0,0C379.6,415.7,381.6,417.3,383.8,417.1z"/>
					<path class="st1" d="M382.3,410.5l12.9-1.1c2.3-0.2,3.9-2.2,3.7-4.4l0-0.1c-0.3-2.2-2.4-3.9-4.7-3.7l-12.9,1.1
						c-2.3,0.2-3.9,2.2-3.7,4.4l0,0.1C377.9,409.1,380,410.7,382.3,410.5z"/>
					<path class="st1" d="M382.3,403.5l12.9-1.1c2.3-0.2,3.9-2.2,3.6-4.5l0-0.1c-0.3-2.3-2.4-4-4.7-3.9l-12.9,1.1
						c-2.3,0.2-3.9,2.2-3.6,4.5l0,0.1C377.9,402,380,403.7,382.3,403.5z"/>
					<path class="st1" d="M383.8,416l9.1-1.4c2-0.3,4.1,1.1,4.5,3.2l0,0c0.4,2.1-0.9,4-3,4.3l-9.1,1.4c-2,0.3-4.1-1.1-4.5-3.2l0,0
						C380.4,418.2,381.8,416.3,383.8,416z"/>
				</g>
				<path class="st15" d="M420,421.6l107.9-10.9c5.2-0.5,9.7-3.9,11.8-8.7c2-4.8,1.2-10.4-2-14.5l-76.9-95.9
					c-10.4-9.7-27.1,0.1-22.3,17.9l60.5,75.3l-81.7,8.3L420,421.6z"/>
			</g>
			<path class="st9" d="M363.1,191.4c-0.6,2.2,0.1,1.7,0.3,4c0.4,5.6-4.4,13.8-7.1,18.2c-1,1.7-0.8,5.8,4.8,7c3.3,0.7,7,0.3,9.8-1.6
				c0.2-0.1,0.4-0.3,0.2-0.3c-0.2-0.1-0.3-0.4-0.3-0.6c-0.2-7.6-4.6-14.8-6.2-22.2c-0.4-1.8-0.8-8.7-2.2-9.8
				C362.1,186.6,363.3,190.7,363.1,191.4z"/>
			<path class="st9" d="M369.9,219c-0.9,0.1-1.9-0.2-2.7,0.3c-1.4,0.9-2.9-0.1-2.8,1.5c0.2,4.2-0.9,5.5-1.3,7.1
				c-0.2,0.9,0.1,1.9,0.9,2.5c0.8,0.5,1.8,0.6,2.6,0.1c-0.8,0.7-1.5,1.5-2,2.4c-0.5,0.9-0.6,2.1-0.1,3c0.6,1,1.8,1.4,2.9,1.5
				c4,0.6,8.4-1.1,10.8-4.4s2.9-7.9,1.1-11.6c-1.2-2.4-3.7-4.5-6.3-3.7C371.9,218.1,371,218.9,369.9,219z"/>
			<path class="st26" d="M366.2,232.2c5.5,1.6,11.6-4.7,13-7.5c0,0-10,5.7-16.4,3.1C362.8,229,363.6,230.4,366.2,232.2z"/>
			
				<ellipse transform="matrix(0.9985 -5.531929e-02 5.531929e-02 0.9985 -11.0523 21.0969)" class="st27" cx="375.5" cy="210.2" rx="7.9" ry="4.8"/>
			<path class="st9" d="M417.7,194.3c-0.8,6.8,3.1,12.8,8.5,13.4s10.5-4.4,11.3-11.2c0.8-6.8-2.1-12.2-7.6-13.2
				C424.5,182.2,418.4,187.5,417.7,194.3z"/>
		</g>
		<path class="st6" d="M439.7,197.6l-15.6,8.2c-6.7-2,4.9,0.7,7.4,31.2l21.4-27.2L439.7,197.6z"/>
		<path class="st9" d="M417.7,195.3c-0.8,6.8,3.1,12.8,8.5,13.4c5.5,0.6,10.5-4.4,11.3-11.2c0.8-6.8-2.1-12.2-7.6-13.2
			C424.5,183.2,418.4,188.5,417.7,195.3z"/>
	</g>
	<path class="st28" d="M375.6,197.9c-0.2-1.6-0.7-3.7-2.7-3.7c-2.3,0-2.5,1.8-2.4,3.5c0.1,1.7,0.3,4,2.3,3.9
		C374.6,201.6,375.7,199.5,375.6,197.9z"/>
	<path class="st29" d="M369.2,194.7c0,0,0.2-1.5,2.5-1.2c3.2,0.4,6,2.1,6,2.1"/>
</g>
</svg>
