<?xml version="1.0" encoding="utf-8"?>
<!-- Generator: Adobe Illustrator 21.0.2, SVG Export Plug-In . SVG Version: 6.00 Build 0)  -->
<svg version="1.1" id="Layer_1" xmlns="http://www.w3.org/2000/svg" xmlns:xlink="http://www.w3.org/1999/xlink" x="0px" y="0px"
	 viewBox="0 0 900 900" style="enable-background:new 0 0 900 900;" xml:space="preserve">
<style type="text/css">
	.st0{fill-rule:evenodd;clip-rule:evenodd;fill:#10B8C8;}
	.st1{fill-rule:evenodd;clip-rule:evenodd;fill:#120F12;}
	.st2{fill-rule:evenodd;clip-rule:evenodd;fill:#191014;}
	.st3{fill-rule:evenodd;clip-rule:evenodd;fill:#150E11;}
	.st4{fill-rule:evenodd;clip-rule:evenodd;fill:#DAD8DA;}
	.st5{fill-rule:evenodd;clip-rule:evenodd;fill:#FFF5FF;}
	.st6{fill-rule:evenodd;clip-rule:evenodd;fill:#F8C997;}
	.st7{fill-rule:evenodd;clip-rule:evenodd;fill:#F6C085;}
	.st8{fill-rule:evenodd;clip-rule:evenodd;fill:#94989C;}
	.st9{fill-rule:evenodd;clip-rule:evenodd;fill:#EDC2B4;}
	.st10{fill-rule:evenodd;clip-rule:evenodd;fill:#E5B17D;}
	.st11{fill-rule:evenodd;clip-rule:evenodd;fill:#964534;}
	.st12{fill-rule:evenodd;clip-rule:evenodd;fill:#8F3F2E;}
	.st13{fill-rule:evenodd;clip-rule:evenodd;fill:#8D3D2F;}
	.st14{fill-rule:evenodd;clip-rule:evenodd;fill:#934133;}
	.st15{fill-rule:evenodd;clip-rule:evenodd;fill:#AAA9AC;}
	.st16{fill-rule:evenodd;clip-rule:evenodd;fill:#D3D3D3;}
	.st17{fill-rule:evenodd;clip-rule:evenodd;fill:#E5A76E;}
	.st18{fill-rule:evenodd;clip-rule:evenodd;fill:#362F34;}
	.st19{fill-rule:evenodd;clip-rule:evenodd;fill:#2C272D;}
	.st20{fill-rule:evenodd;clip-rule:evenodd;fill:#864235;}
	.st21{fill-rule:evenodd;clip-rule:evenodd;fill:#6F2B20;}
	.st22{clip-path:url(#SVGID_10_);}
	.st23{fill:#68281D;}
	.st24{fill-rule:evenodd;clip-rule:evenodd;fill:#E4E3E4;}
	.st25{fill-rule:evenodd;clip-rule:evenodd;fill:#89858B;}
	.st26{fill-rule:evenodd;clip-rule:evenodd;fill:#CECCCF;}
	.st27{fill-rule:evenodd;clip-rule:evenodd;fill:#913E22;}
	.st28{fill-rule:evenodd;clip-rule:evenodd;fill:#614647;}
	.st29{fill-rule:evenodd;clip-rule:evenodd;fill:#D86132;}
	.st30{fill-rule:evenodd;clip-rule:evenodd;fill:#3E3B3A;}
</style>
<ellipse class="st0" cx="471.8" cy="414.7" rx="278.3" ry="347.5"/>
<g>
	<path class="st1" d="M608.7,780.8c0,0-7,19.1-16.6,25.3c-2,11.5,4.4,25.9-2.8,33.9c-4.1,1.7-11.5,12-3.8,11.7l16.7-0.3l15.6-37.9
		l-1.8-6.5l4.7,1.6l4.6-15.5C625.1,792.9,617,779.3,608.7,780.8z"/>
	<path class="st2" d="M443.5,477.2c0,0,5.7,173.4,9.3,180.6c3.6,7.2,135.3,153.5,135.3,153.5c22.9-13.7,14.1-9.9,25.6-31
		c-19.6-30.8-68.3-97-117.1-144c-1.3-8.1,7.7-119.6,7.7-119.6l1.8-42.3l-23.5-6.5L443.5,477.2z"/>
	<path class="st3" d="M610.8,786.3c0.8-1.7,1.8-3.7,3-5.9c-19.6-30.8-71.8-101-124.3-149.1c-1.3-8.1,14.9-114.5,14.9-114.5l0.2-3.7
		c0,0-3.5,0.3-7.5-1.7c-4-1.9-6.4-3.7-6.4-3.7l7.9,9.1l-15,116.6c0,0,66.9,82.5,94.4,112.8C597.3,767.6,606.8,780.5,610.8,786.3z"/>
	<path class="st1" d="M508.6,821.5l-6.5,15.8c-5.4,6.6-4.6,5.7-4.2,14.4l43.6,0c0,0,0.3-10.3-3.7-13.5c-4.2-1.7-9.7-17.1-9.7-17.1
		L508.6,821.5z"/>
	<path class="st2" d="M539.2,834.8l-38.1-2.8l3.3-315.3l-5.8,0.1l3.7-43.5l4.6,2.5l14-6.7l50.6,22
		C566.2,601.9,551.1,724.3,539.2,834.8z"/>
	<path class="st4" d="M536.4,483.7c-1.5,1.8-33,19.2-43.1,15.9l-34.4-11.4c-11.4-3.8-21.3-12.8-21.3-12.8s43.5-12.7,45.3-12.4
		C484.6,463.3,536.4,483.7,536.4,483.7z"/>
	<path class="st5" d="M575.3,263.3c3.1,4.5,52.9,19.8,53.1,19.9c-1.1-0.3-21.4,49.2-23.6,54c-17.5,37.8-26.2,76.6-20.7,118.7
		c0.7,5.2,1.6,10.3,2.7,15.4l-42.1,14.8L530,502.5l-92.5-27c7-27.6,13.3-56.6,14.5-85.2c1.7-39.5-15.8-75.4-29.2-111.7l63-21.8
		l83.5,4L575.3,263.3z"/>
	<path class="st6" d="M579,469.1c-2.9,0.9-33.1,15.6-34.3,17.1c-1.2,1.5-10.8,12.6-8.4,15c2.4,2.4,23.1,24.6,25.2,21.9
		c2.1-2.7,26.1-29.3,26.1-29.3L579,469.1z"/>
	<path class="st7" d="M536.3,501.1c-0.4-0.4-0.5-1.2-0.2-2.1l7.3-7.1c0,0-4.2,7.7-3.7,10.5c0.4,2.8,20.3,13.7,22.1,13.5
		c1.3-0.2,15.8-17.7,24-27.6l1.8,5.2c0,0-24,26.7-26.1,29.3C559.4,525.7,538.7,503.5,536.3,501.1z"/>
	<path class="st5" d="M587.8,303l40.6-19.8c6.2,16.1,12.4,32.3,18.6,48.4c5,13.1,10.1,26.2,15.1,39.3c4.5,11.8,14.5,26.9,14.4,39.2
		c-0.2,13.7-11,21.4-19.5,30.5c-8.9,9.5-17.7,19-26.6,28.5c-11.6,12.4-23.1,24.8-34.7,37.2l-34.8-33.1l68.9-72.1L587.8,303z"/>
	<path class="st6" d="M597.1,136.8c4.8-2.1,30.5-15.3,33.2-8.1c2.7,7.2-6.9,38.9-9.6,42.5c-2.7,3.6-20.7,8.4-21.6,6.3
		C598.3,175.4,597.1,136.8,597.1,136.8z"/>
	<path class="st7" d="M607,135.7c1.9-0.6,11.1-3.7,13-0.3c1.9,3.4-0.3,11.8-0.3,13.6c0,1.8-3.4,14.8-5.8,17.1
		c-2.4,2.2-11.8,5.2-12.4,3.4C600.9,167.8,607,135.7,607,135.7z"/>
	<path class="st6" d="M471.4,131.2c-4.8-2.1-30.5-15.3-33.2-8.1c-2.7,7.2,6.9,38.9,9.6,42.5c2.7,3.6,20.7,8.4,21.6,6.3
		C470.2,169.8,471.4,131.2,471.4,131.2z"/>
	<path class="st7" d="M461.5,130.1c-1.9-0.6-11.1-3.7-13-0.3c-1.9,3.4,0.3,11.8,0.3,13.6c0,1.8,3.4,14.8,5.8,17.1
		c2.4,2.2,11.8,5.2,12.4,3.4C467.7,162.2,461.5,130.1,461.5,130.1z"/>
	<path class="st8" d="M491.1,268.2c-0.3-0.7-10-11-9.8-11.4c0.1-0.4-0.1-12.3-0.1-12.3l87,2.5l-1.8,18.8L491.1,268.2z"/>
	<path class="st7" d="M560.4,207.1c-1.8,11.4-6.3,44.7-2.7,47.7c3.6,3,23.7,11.1,23.7,11.1s-45.5,31.7-54.5,32.9
		c-9,1.2-55.1-35.9-55.1-35.9s23.4-9,27-14.4c3.6-5.4,7.2-50.3,7.2-50.3L560.4,207.1z"/>
	<path class="st9" d="M466.3,80.8c-0.6,29.6,0.5,59.7-1.8,89.2c-2.4,30.8,26.4,53.8,50,68.3c5.3,3.3,13.4,2,19.7,2.5
		c9.4,0.7,13.2-3,20.5-7.8c4.3-2.9,8.6-5.8,12.7-8.9c8.2-6.1,16-13,22.3-21.1c6.2-8.2,10.7-16.9,11.6-27.1
		c0.7-7.9,2.1-15.8,3.2-23.7l4.5-66.2L466.3,80.8z"/>
	<path class="st10" d="M466.3,80.8c-0.6,29.6,0.5,59.7-1.8,89.2c-2.4,30.8,26.4,53.8,50,68.3c5.3,3.3,13.4,2,19.7,2.5
		c9.4,0.7,13.2-3,20.5-7.8c4.3-2.9,8.6-5.8,12.7-8.9c8.2-6.1,16-13,22.3-21.1c6.2-8.2,10.7-16.9,11.6-27.1
		c0.7-7.9,2.1-15.8,3.2-23.7l4.5-66.2L466.3,80.8z"/>
	<path class="st6" d="M467.6,71.9c-0.6,30.5,0.5,61.4-1.8,91.8c-2.4,31.7,26.4,55.4,50,70.3c5.3,3.4,13.4,2.1,19.7,2.5
		c9.4,0.7,13.2-3,20.5-8c4.3-2.9,8.6-5.9,12.7-9.1c8.2-6.3,16-13.3,22.3-21.8c6.2-8.4,10.7-17.4,11.6-27.8
		c0.7-8.1,2.1-16.2,3.2-24.3l4.5-68.1L467.6,71.9z"/>
	<path class="st11" d="M470.7,62.2c-11.1,1.2-25.5,0.6-27.3,11.4c-1.8,10.8,21.2,78.3,21.4,74.7C465,144.7,470.7,62.2,470.7,62.2z"
		/>
	<path class="st12" d="M465.5,138.3c0.8-11.6,2.1-30.9,3.2-47.2l-0.5-1.3c0,0-4.6-4.6-8.5-9.2c-3.8-4.6-7-9.9-7-9.9
		s3.4,13.8,5.5,20.1c2.1,6.3,4.6,9.9,3.3,8.7c-1.3-1.2-10.5-10.6-10.5-10.6s4.2,19.1,6.7,23.6c2.5,4.5,4.2,7.7,3.9,7.3
		c-0.3-0.4-5.8-4.2-5.8-4.2S461.2,129.7,465.5,138.3z"/>
	<path class="st11" d="M604.1,156.9l-4.2-58.2c0,0-62,15.9-65.3,13.8c-3.3-2.1-41.6-9-61.1-19.5c-19.5-10.5-21.6-31.4-20.4-46.4
		c1.2-15,16.5-29.1,16.5-29.1s1.2,12,18.6,18s62.9-3,83.9,0.6c21,3.6,35.6,24,35.6,24s14.7,0,20.7,16.2
		C634.6,93.3,611.8,137.1,604.1,156.9z"/>
	<path class="st12" d="M604.1,156.9l-3.5-48.6c4.8-4.4,9.7-10.1,11.7-16.5c4.7-14.8,2.2-23.1,2.2-24s4.9,11.4,3.4,24.7
		c-1.5,13.3-6.1,21.7-7.2,23.8c-1,2.1,7.3-9.3,7.8-10.5c0.4-1.2-0.6,3.7-3.7,15C611.6,132,604.1,156.9,604.1,156.9z"/>
	<path class="st12" d="M469.5,17.6c0,0,1.2,12,18.6,18s62.9-3,83.9,0.6c7.3,1.2,13.8,4.5,19.2,8.3c0.7,1.2,1.3,2.6,1.9,4.1
		c5.8,13.6,3.4,26.1,3.3,25c-0.2-1-12.9-15.6-27.3-22.3c-14.4-6.7-30.8-7.6-29.5-7.6c1.3,0,15.6,11.8,14.8,11.1
		c-0.7-0.7-20.5-7.6-28.4-9.5c-7.9-1.9-13.9,0-12.7,0.2c1.2,0.1,18,15.6,18,15.6S508.7,50,499.6,45
		C494.5,42.3,469.8,29.2,469.5,17.6z"/>
	<path class="st13" d="M604.1,156.9l-4.2-58.2c0,0-62,15.9-65.3,13.8c-3.3-2.1-50.7-13.9-61.1-19.5c-10.4-5.6-4.1-2.6-5.2-3.3
		l-5.5-19.3c0,0,14.7,10.8,16.2,10.9c1.5,0.1-20.4-17.9-20.4-31.2c0.1-13.3,5.8-26.9,7.5-25.5c1.7,1.4-0.3,14.4,8.4,26.7
		c8.7,12.3,22.2,12.6,23.7,13.5c1.5,0.9-13.5-23.4-14.1-25.5c-0.6-2.1,15.9,16.5,33.5,23.4c17.7,6.9,27.3,4.2,27.3,4.2
		s-9.6-15-11.4-16.2c-1.8-1.2,27.6,6.3,38.3,17.7s10.2,22.8,10.2,22.8s5.1-0.3,14.4-9c9.3-8.7,9-19.5,9-19.5s1.5,2.7,3,12.3
		C611.3,94,602.5,136,604.1,156.9z"/>
	<path class="st14" d="M564.9,107.3c-12,2.8-23.6,5.2-28.3,5.4c-1.1-0.1-1.8-0.1-2-0.2c-1.1-0.7-5.9-1.9-12.5-3.5l0,0l0,0l-0.1,0
		l0,0c-1.4-0.4-14.3-3.7-18.3-4.8l0,0c-4.3-1.2-25.4-19-27.6-20.9c-2.2-1.9,4.9,2.7,15,6.3c10,3.6,19.9,3.9,19.9,3.9
		s-3.9-1.8-11.7-7.8c-7.8-6-27.3-27.9-29.6-31.1c-2.4-3.3,19.2,17.4,35.6,23.4c16.5,6,22.5,7.2,22.5,7.2S509,68,505.4,67.1
		s13.5,1.8,29.6,7.5c16.2,5.7,22.2,12.9,22.2,12.9l-3.3-20.4C553.9,67.1,572,99.8,564.9,107.3z"/>
	<path class="st15" d="M494.2,275.7c2.4-0.6,17.2-2.8,17.2-2.8l13.5,25.7l-30.4-7.9L494.2,275.7z"/>
	<path class="st15" d="M554.8,283.6c-2.8-2.5-16.9-8.2-16.9-8.2l-11.1,23.4l30.2-6.9L554.8,283.6z"/>
	<path class="st16" d="M568.2,247L538,275.4l24.9,34.7c1.4,1.9,18.6-44.3,18.6-44.3L568.2,247z"/>
	<path class="st16" d="M481.2,244.5l30.2,28.5l-24.9,34.7c-1.4,1.9-18.6-44.3-18.6-44.3L481.2,244.5z"/>
	<path class="st6" d="M347.1,204.9c0-0.4-1-12.9-0.6-26.7c0.4-11,2.5-22.8,0.8-29.4c-1.9-7.4-10-8.5-13.1,4
		c-2.5,10-3.7,48.2-3.7,48.2s-4.8-3.3-8.2-4.1c-3.3-0.8-9.1,4.4-9.1,4.4s-6.3-0.2-9.2,1.7c-2.9,1.8-4.5,5.1-4.5,5.1
		s-4.8,0.2-5.8,3.3c-1,3.1,0.6,16.6,2.5,19.1c1.9,2.5,5,6.4,5,6.4c0.4,7.9,12.6,13.4,12.6,13.4l4.9,21.9c0,0,35.8,6,34.6,3.5
		c-1.2-2.5-3.9-27.2-2.3-30.8c1.7-3.5,7.7-14.5,7.7-18.9c0-4.4-0.6-17.9-2.9-18.5C353.6,207,347.1,204.9,347.1,204.9z"/>
	<path class="st17" d="M342.5,144.7c-2.4-3-5.9-1.4-8.3,8c-2.5,10-3.7,48.2-3.7,48.2s-0.2-0.1-0.5-0.3c0,0,1.7,3.3,2.6,5.2
		c0.9,2-4.2,12.7-4.6,13.9c-0.4,1.2,1.4,7.8,2.2,9.4c0.8,1.6-4.5,6.9-8.7,2.1c-1.6-1.8-4.1-7.5-5.3-12.1c-1.9-7.2-2.1-13.7-2.1-13.7
		s-0.5,6.1,0.3,10.7c0.4,2.2,2.1,7.7,3.7,10.7c2,3.8,1.8,4.4,1.7,5c-0.2,1.2-3.1,3-5.7,3.2c-2.6,0.2-3.9-3.1-5.6-5.1
		c-1.8-2.1-7.4-17.2-7.6-18.2c-0.2-0.9,0.2,0.5,0.6,2.9c0.4,2.4,5.2,15.1,5.7,16.1c0.3,0.5,2.5,3.3,2.9,5.5c0.3,2-2.5,3.9-3.2,4.4
		c-1.5,1.1-5.8-3.9-5.8-3.9c0.4,7.9,9.5,12.8,9.5,12.8l5.8,21.6c0,0,3.8,4.3,7.4,4.6l3.1-3.7c0.6-0.7-2.2-13.6-2.2-13.6
		c2.4-3.7,12.7,0.4,20.7-3.9c0.6-0.3-18.6,2.4-14.8-14.8c0.7-3.3,5.8-6.5,6.6-6.8c0.8-0.2,4.9-2,6-3.4c1.1-1.5,2.5-11.2,2.5-11.2
		s-4,6.3-4.2,7.3c-0.1,0.9-3.6,5.3-4.2,5.5c-0.5,0.2-3.7-0.5-4.7-1c-0.9-0.5-3.3-7.7-3.3-7.7s3.9-15.9,5.8-16.6
		c1.9-0.7,11.8-0.9,11.8-0.9s-10.7-1.6-12-3.3c-1.2-1.8-1.6-26.9-0.7-35.8C335.4,156.8,335.6,144,342.5,144.7z"/>
	<path class="st7" d="M343.7,255.5c-1.8,0.3-18.5,2.4-26.3-3.5c-7.8-6-13-10.1-16.1-14.3c-0.1,2.2,3.8,12.3,10.4,15.8
		c1.9,9.9,4.3,18.8,3.7,20c-1.1,2.2,30.2-4.5,30.3-6.8C345.8,264.4,343.7,255.5,343.7,255.5z"/>
	<path class="st5" d="M452.7,338.4c-26.5,18.2-52.8,36.7-79.6,54.5c-47,31.2-62.5-118.9-64.8-118.9l51.5-9.1l5.5,85l57.6-71.3
		L452.7,338.4z"/>
	<polygon class="st18" points="532.4,287.1 534.2,300.4 537.9,468.7 511.8,497.1 488.1,463.9 514.9,299.9 	"/>
	<path class="st18" d="M511.4,276c2.8,0,27.9-0.4,28.2,1.5c0.3,1.9,2.8,12.9,1.8,13.8c-1,0.9-4.8,8.8-7.2,9.1
		c-2.4,0.3-17.4-0.1-19.3-0.6c-1.8-0.5-5.7-9-5.7-10.1C509.2,288.8,511.4,276,511.4,276z"/>
	<path class="st10" d="M530.2,143.1c0,1.8-7.5,31.3-7.5,31.3c-8,4.5-7.8,2.1-13.9,7.5c1.4-5.4,11.5-11.2,11.5-11.2L530.2,143.1z"/>
	<path class="st10" d="M541.6,188.9c-1,0.6-8.2,3.1-12.7,3.9c-4.5,0.7-7.9-0.3-9.3-0.7c-1.3-0.4-10.3-6-9.1-6
		c1.2,0,13.9,0.8,13.9,0.8C519.6,186.6,543.3,188,541.6,188.9z"/>
	<path class="st19" d="M488.1,463.9l26.8-164c-0.9-0.2-2.3-2.5-3.5-4.8c-0.9-1.8-1.7-3.6-2-4.6c-0.1-0.3-0.2-0.6-0.2-0.7
		c0-1,2.2-13.8,2.2-13.8c0.3,0,0.9,0,1.6,0c0.4,0,0.9,0,1.4,0c-0.2,0.5-0.4,1-0.6,1.6c-1.1,3.2-2.1,7.3-1.8,9.5
		c0.4,2.1,1.8,5,3.2,7.1c0.9,1.4,1.9,2.4,2.5,2.6c0,0,0.1,0,0.1,0c0.2,0.1,0.5,0.1,0.9,0.2c0.8,0.2,1.9,0.4,3.1,0.6
		c0.9,0.2,1.8,0.3,2.7,0.5c0.8,0.1,1.6,0.3,2.3,0.4c0.2,0,0.4,0.1,0.6,0.1c0,0,0,0,0.1,0c2.1,0.4,3.8,0.7,3.8,0.7s-3.1,0.5-6.3,1.1
		c-3.1,0.6-6.3,1.4-6.7,2.1c-0.9,1.3-26.8,155.9-25.2,160.4c0.3,0.8,1.1,2.5,2.3,4.7c0.7,1.3,1.5,2.8,2.3,4.3c1.2,2.3,2.6,4.8,4,7.3
		c1.3,2.4,2.7,4.8,3.9,7c2.6,4.6,4.8,8.4,5.7,10c0.3,0.5,0.4,0.8,0.4,0.8l-0.5-0.7l-5.7-8l-4.1-5.8l-8.5-11.9l-3.9-5.4L488.1,463.9z
		"/>
	<path class="st20" d="M453.4,688.4l-196.8-0.3c-2.9,0-5.1,2.4-5.3,5.3l-6.8,144.8c-0.1,2.9,2.4,5.3,5.3,5.3h210.9
		c2.9,0,5.4-2.4,5.3-5.3l-7.3-144.4C458.6,690.8,456.3,688.4,453.4,688.4z"/>
	<polygon class="st11" points="453.1,694 460.4,837.8 250.2,837.8 256.9,693.7 	"/>
	<path class="st18" d="M382.3,666.5c3.4,0,6.3,2.8,6.3,6.3v16.6c0,3.4-2.8,6.3-6.3,6.3h-54c-3.4,0-6.3-2.8-6.3-6.3v-16.6
		c0-3.4,2.8-6.3,6.3-6.3H382.3L382.3,666.5z M328.3,676.1c-0.3,0-0.5,0.2-0.5,0.5v12.7c0,0.3,0.2,0.5,0.5,0.5h54
		c0.3,0,0.5-0.2,0.5-0.5v-12.7c0-0.3-0.2-0.5-0.5-0.5H328.3z"/>
	<path class="st21" d="M463.1,686.6H247.5c-3,0-5.4,2.4-5.4,5.4v66c26.1,17.2,67.1,28.2,113.2,28.2c46.1,0,87.1-11.1,113.2-28.2v-66
		C468.4,689.1,466,686.6,463.1,686.6z"/>
	<g>
		<g>
			<defs>
				<path id="SVGID_1_" d="M552.9,163.9c-4.6-6.9-11.8-26.8-1-31.6c9.3-4.1,35.1-3.4,44.1,0.3c0,0,2.5,0.4,3.9,2.9
					c0.2,0.4,0.4,0.8,0.6,1.4c1.2,3.8,0,12.1-1,16.2c-0.4,1.5-0.9,3.2-1.6,5.1c-1.2,3.2-2.7,6.4-4.5,8.3
					C584.9,175.7,558.9,172.8,552.9,163.9z"/>
			</defs>
			<clipPath id="SVGID_2_">
				<use xlink:href="#SVGID_1_"  style="overflow:visible;"/>
			</clipPath>
		</g>
		<g>
			<defs>
				<path id="SVGID_3_" d="M552.9,163.9c-4.6-6.9-11.8-26.8-1-31.6c9.3-4.1,35.1-3.4,44.1,0.3c0,0,2.5,0.4,3.9,2.9
					c0.2,0.4,0.4,0.8,0.6,1.4c1.2,3.8,0,12.1-1,16.2c-0.4,1.5-0.9,3.2-1.6,5.1c-1.2,3.2-2.7,6.4-4.5,8.3
					C584.9,175.7,558.9,172.8,552.9,163.9z"/>
			</defs>
			<clipPath id="SVGID_4_">
				<use xlink:href="#SVGID_3_"  style="overflow:visible;"/>
			</clipPath>
		</g>
		<g>
			<defs>
				<path id="SVGID_5_" d="M552.9,163.9c-4.6-6.9-11.8-26.8-1-31.6c9.3-4.1,35.1-3.4,44.1,0.3c0,0,2.5,0.4,3.9,2.9
					c0.2,0.4,0.4,0.8,0.6,1.4c1.2,3.8,0,12.1-1,16.2c-0.4,1.5-0.9,3.2-1.6,5.1c-1.2,3.2-2.7,6.4-4.5,8.3
					C584.9,175.7,558.9,172.8,552.9,163.9z"/>
			</defs>
			<clipPath id="SVGID_6_">
				<use xlink:href="#SVGID_5_"  style="overflow:visible;"/>
			</clipPath>
		</g>
	</g>
	<g>
		<g>
			<defs>
				<path id="SVGID_7_" d="M463.1,686.6H247.5c-3,0-5.4,2.4-5.4,5.4v66c26.1,17.2,67.1,28.2,113.2,28.2c46.1,0,87.1-11.1,113.2-28.2
					v-66C468.4,689.1,466,686.6,463.1,686.6z"/>
			</defs>
			<clipPath id="SVGID_8_">
				<use xlink:href="#SVGID_7_"  style="overflow:visible;"/>
			</clipPath>
		</g>
		<g>
			<defs>
				<path id="SVGID_9_" d="M463.1,686.6H247.5c-3,0-5.4,2.4-5.4,5.4v66c26.1,17.2,67.1,28.2,113.2,28.2c46.1,0,87.1-11.1,113.2-28.2
					v-66C468.4,689.1,466,686.6,463.1,686.6z"/>
			</defs>
			<clipPath id="SVGID_10_">
				<use xlink:href="#SVGID_9_"  style="overflow:visible;"/>
			</clipPath>
			<g class="st22">
				<path class="st23" d="M245.3,754.8l-0.4-0.3V685c0-1.5,1.2-2.7,2.6-2.7h215.6c1.4,0,2.6,1.3,2.6,2.7v69.5l-0.4,0.3
					c-26.8,18.3-66.9,28.8-110,28.8C312.2,783.5,272.1,773,245.3,754.8z M463.8,685c0-0.5-0.4-0.9-0.8-0.9H247.5
					c-0.4,0-0.8,0.4-0.8,0.9v68.5c26.5,17.9,66,28.2,108.6,28.2c42.5,0,82.1-10.3,108.6-28.2V685z"/>
			</g>
		</g>
		<g>
			<defs>
				<path id="SVGID_11_" d="M463.1,686.6H247.5c-3,0-5.4,2.4-5.4,5.4v66c26.1,17.2,67.1,28.2,113.2,28.2
					c46.1,0,87.1-11.1,113.2-28.2v-66C468.4,689.1,466,686.6,463.1,686.6z"/>
			</defs>
			<clipPath id="SVGID_12_">
				<use xlink:href="#SVGID_11_"  style="overflow:visible;"/>
			</clipPath>
		</g>
	</g>
	<path class="st24" d="M367.8,774.3h-19.5c-1.2,0-2.2,1-2.2,2.3v20.9c0,1.2,1,2.2,2.2,2.2h19.5c1.2,0,2.3-1,2.3-2.2v-20.9
		C370.1,775.3,369.1,774.3,367.8,774.3z"/>
	<path class="st25" d="M365.5,778.6h-14.8c-0.7,0-1.3,0.6-1.3,1.3v14c0,0.7,0.6,1.3,1.3,1.3h14.8c0.7,0,1.3-0.6,1.3-1.3v-14
		C366.8,779.2,366.2,778.6,365.5,778.6z"/>
	<g>
		<polygon class="st26" points="511.8,497.1 511.8,497.1 511.8,497.1 		"/>
		<path class="st16" d="M313.5,273.1c2,3,3.9,7.8,4.7,15.2c1.6,16.9,20,81.1,32.9,94.6c12.9,13.5,20.6,1.9,37.4-12.2
			c14.4-12.2,56.4-30.2,55.2-50.6c-0.5-7.5,12.5,21,14.9,41.6c2.5,20.6-3.7,75.4-5.8,86.3c-2,11,0.1,16.7,8.5,15.1
			c8.4-1.7,5.8,14.6,16.6,24.1v7.3c-31.7-7.1-40.2-19-40.2-19c7-27.6,12.7-117.1,8.5-132.4c-24.3,16.7-48.4,33.6-72.9,49.9
			c-47,31.2-62.5-118.9-64.8-118.9C308.3,274,310.3,273.7,313.5,273.1z"/>
	</g>
	<path class="st16" d="M560.9,473.3l68.9-72.1l-36.7-85.8c2.5,0,10.6,7.1,10.6,7.1c2.8,5.7,24.5,61.6,30.6,69.7
		c6.1,8.1,12.1,9.4,12.1,9.4s-6.9,0.1-14.9,8.1c-6.8,6.8-47.8,57.9-61.6,72.2L560.9,473.3z"/>
	<path class="st16" d="M571.6,440.7c1.5-17.9,3.8-14.5,5.7-45.9c2-32.6,13.3-79.4,15.8-79.4c2.5,0,10.6,7.1,10.6,7.1
		c0.6,1.1,1.9,4.3,3.7,8.8c-1.3,3-2.4,5.2-2.6,6.1c-7.7,42.3-17.3,76.6-20.7,118.7c-0.2,2.8,0.8,5.6,1.3,8.3
		c-3.4,4-6.6,7.7-9.3,10.8l-15.6,5.5c-3.7-3.4-8-7.4-7.7-8.3C553.3,470.9,570.1,458.6,571.6,440.7z"/>
	<path class="st27" d="M516.1,130.9c3.5,0.3-0.1-12.4-16.9-15.1c-18.4-2.9-25.3,5.3-17.7,2.8c3.6-1.2,13.6,1.7,16.7,2.8
		C511.1,125.9,508.5,130.2,516.1,130.9z"/>
	<path class="st27" d="M553,134.3c-3.5-0.1,1.7-12.3,18.6-12.9c18.7-0.6,24.4,8.4,17.2,5c-3.4-1.6-13.7,0-17,0.7
		C558.6,130,560.6,134.5,553,134.3z"/>
	<path class="st28" d="M544.4,130.9c-1.1,0.4-2.9,0.4-8.6-0.1c-5.7-0.3-7.5-0.6-8.6-1.1c-0.6-0.8-2.3-3.1-5-4.3
		c-12.9-5.6-49.6-6.1-59.5-4.3c-1.3,0.2-1.4,0.2-1.6,1c-0.2,0.8-0.6,5.9-0.2,6.6c0.4,0.8,2.3,1.2,3.8,3.8c2.7,4.7,1.4,21,8.2,29.2
		c7,8.5,35.6,10.7,44,0.6c5.6-6.7,8.6-14.4,11.9-21.7c1.8-1.6,3.2-1.6,4.5-1.7c0.8-0.1,1.5,0,1.9,0c0.4,0,1.1,0.1,1.9,0.3
		c1.3,0.3,2.7,0.5,4.2,2.3c2.2,7.7,4.2,15.7,8.9,23.1c7,11.2,35.6,12.8,43.7,5.3c7.8-7.2,8.7-23.6,12-27.9c1.9-2.4,3.8-2.6,4.3-3.3
		c0.5-0.7,0.7-5.8,0.7-6.6c-0.1-0.9-0.2-0.8-1.4-1.2c-9.6-3.1-46-7.5-59.5-3.6C547,128.1,545,130.2,544.4,130.9L544.4,130.9z
		 M475.8,124.6c9.4-2.4,35.1,0.3,43.7,5.6c10.1,6.2,0.2,25-5.2,31.2c-7.1,8-33.3,7.5-40.5-2.9c-2.3-3.3-3.7-9.9-4.2-14.1
		c-0.5-4.2-0.6-12.6,1.1-16.2C472.4,124.6,475.8,124.6,475.8,124.6L475.8,124.6z M600.5,136.9c1.2,3.8,0,12.1-1,16.2
		c-1,4.1-3.3,10.4-6,13.4c-8.5,9.3-34.6,6.4-40.5-2.5c-4.6-6.9-11.8-26.8-1-31.6c9.3-4.1,35.1-3.4,44.1,0.3
		C596,132.6,599.3,133.1,600.5,136.9z"/>
	<path class="st29" d="M548.5,202.5c-3.6,20.1-36,20.1-39.6,0C518.5,204.7,536.6,204.8,548.5,202.5z"/>
	<path class="st30" d="M494.4,152.1c3.5,0.3,6.6-2.4,6.9-5.9c0.3-3.5-2.4-6.6-5.9-6.9c-3.5-0.3-6.6,2.4-6.9,5.9
		C488.2,148.7,490.9,151.8,494.4,152.1z"/>
	<path class="st30" d="M570,157.9c3.5,0.3,6.6-2.4,6.9-5.9c0.3-3.5-2.4-6.6-5.9-6.9s-6.6,2.4-6.9,5.9
		C563.8,154.6,566.5,157.6,570,157.9z"/>
</g>
</svg>
