<?xml version="1.0" encoding="utf-8"?>
<!-- Generator: Adobe Illustrator 21.0.2, SVG Export Plug-In . SVG Version: 6.00 Build 0)  -->
<svg version="1.1" id="Layer_1" xmlns="http://www.w3.org/2000/svg" xmlns:xlink="http://www.w3.org/1999/xlink" x="0px" y="0px"
	 viewBox="0 0 900 900" style="enable-background:new 0 0 900 900;" xml:space="preserve">
<style type="text/css">
	.st0{fill:#BEEAE9;}
	.st1{fill:#FFA969;}
	.st2{fill:#83838C;}
	.st3{fill:#656470;}
	.st4{fill:#C7CCD3;}
	.st5{fill:#A7A9AC;}
	.st6{opacity:0.6;fill:#656470;}
	.st7{opacity:0.5;fill:#656470;}
	.st8{fill:#B5A18D;}
	.st9{opacity:0.4;fill:#9B8572;}
	.st10{fill:#E8794D;}
	.st11{fill:#FF8A54;}
	.st12{fill:url(#SVGID_1_);}
	.st13{fill:#9B352A;}
	.st14{fill:#B47353;}
	.st15{fill:#933E38;}
	.st16{fill:#C2573A;}
	.st17{fill:#7C3432;}
	.st18{fill:#9AA8B4;}
	.st19{fill:#D6D6EA;}
	.st20{fill:#BFBDD6;}
	.st21{opacity:0.5;fill:#FF8A54;}
	.st22{fill:#563037;}
	.st23{fill:#422B27;}
	.st24{fill:#EAC5B2;}
	.st25{fill:none;stroke:#E8794D;stroke-width:3.1832;stroke-linecap:round;stroke-miterlimit:10;}
	.st26{fill:#6F6F77;}
	.st27{fill:#E6E7E8;}
	.st28{fill:#FFC21C;stroke:#FFFFFF;stroke-width:12.9165;stroke-miterlimit:10;}
	.st29{fill:none;stroke:#FFFFFF;stroke-width:3.8727;stroke-linecap:round;stroke-linejoin:round;stroke-miterlimit:10;}
</style>
<circle class="st0" cx="437" cy="447.3" r="308.6"/>
<path class="st1" d="M463,426.8c10-1.3,5.5-2.2,13.5-3.3c10.5-1.5,22.7-5.1,28.8-5.8c4.8-0.5,13.3,1.2,25.8,4.8
	c4.2,1.2,8.9,1.6,12.8,3.2c10.9,4.6,18.6,12.6,23.2,14.8c2,0.9,2.6,5.6-0.2,6.8c-6.1,2.4-14.5,11.9-20.4,12.9c-8,1.3-70,2-72,0.7
	C472.3,459.5,463,426.8,463,426.8z"/>
<path class="st2" d="M740.6,543.1l-25.3-29.7l-13-2.5l-9.9-21l-77.3-42l-26-0.6l-111.3,32.1l-18.8-8.3L424,545.6l0.9,66.5
	l-15.5,41.9l14.6,59.2l35.1,43.5l57.4,30.7l95.6,26.5l49.6-6.9l55.4-37.5l37.7-64.3l4.3-97L740.6,543.1z M649.2,671.7l-18.8,11.9
	l-16.3,6.9l-12.6-20l-22.7,13.4l-28.7-5.1l-25-17.6l4.6-37.1l18.1-26.9l49.6-8.5L625,608l19.3,15.8l9.9,29.7L649.2,671.7z"/>
<polygon class="st3" points="634,681.6 632.4,682.6 616.1,689.5 603.5,669.5 580.8,682.9 552,677.8 527,660.2 531.6,623.1 
	549.7,596.2 599.3,587.7 627,607 634,612.7 634,583.5 466,583.5 466,713.5 634,713.5 "/>
<path class="st4" d="M703.5,540.7l-39.9-38l-18.5-2.8l-0.9-15.8L589.4,447l-88,1.3l-32.6,14.5L417,499.9l-40.8,58.4l-11.1,71.4
	l22.3,80.7l36.5,41.9l58,24l120.5,37.1l9.6,0.6l73.8-52.2l36.2-64l3.7-85.7L703.5,540.7z M599.5,678.7l-18.8,11.9l-16.3,6.9h-16.8
	l-24-7.5l-21.4-10.8l-10.9-14.8l11.9-55l44.4-13.7l40.4,9l6.5,26.1l9.9,29.7L599.5,678.7z"/>
<path class="st5" d="M692.1,709.9l-0.6-92.8l-34.8-73.7l-36.2,13.9v-40.3L578.8,478l-112.6,36.2l-14.5,46l-34.7-60.7l-22.6,32.8
	l7.4,70.1l-23.3,11.4l-2.9-1.8l0.1,7.1l-2.3,6.2l12.5,39.2l38.6,88l46.4,52.2l51.5,3l82.7,5.8l-29.3-42.3l37.8,0.7L692.1,709.9z
	 M599.9,678.7l-18.8,11.9l-16.3,6.9H548l-20.3-11.9l-39.7,0.7l-4.6-21.3l8-33.4l15.9-19.5l40.6-16.4l35.9,11.8l11.1,23.3l9.9,29.7
	L599.9,678.7z"/>
<path class="st5" d="M435.4,698.4c0,2.6-4.2,2.8-6.7,2.8c-2.5,0-4.6-2.1-4.6-4.7c0-2.6,3.1-2.5,5.7-2.5
	C432.3,694.1,435.4,695.8,435.4,698.4z"/>
<path class="st3" d="M685.7,597.7c0,2.6-4.2,2.8-6.7,2.8c-2.5,0-4.6-2.1-4.6-4.7c0-2.6,3.1-2.5,5.7-2.5
	C682.6,593.3,685.7,595.1,685.7,597.7z"/>
<path class="st5" d="M500.9,559.4c0,1.4-3.1,1.1-4.4,1.1c-1.3,0-1.9-1.1-1.9-2.5c0-1.4,2.7-2.5,4-2.5
	C499.9,555.4,500.9,558,500.9,559.4z"/>
<path class="st6" d="M663,756.4c0,2-4.5,1.6-6.3,1.6s-2.7-1.6-2.7-3.6c0-2,3.9-3.6,5.7-3.6C661.5,750.8,663,754.4,663,756.4z"/>
<path class="st6" d="M608.4,750.2c0,1.4-3.1,1.1-4.4,1.1c-1.3,0-1.9-1.1-1.9-2.5c0-1.4,2.7-2.5,4-2.5
	C607.4,746.3,608.4,748.9,608.4,750.2z"/>
<path class="st3" d="M568.9,726.1c0,1.4-1.5,5.4-3.3,5.4c-1.8,0-5.8-2.1-5.8-3.5c0-1.4,0.8-3.5,2.5-3.5
	C564.2,724.5,568.9,724.7,568.9,726.1z"/>
<path class="st3" d="M525.6,539c0,1.2-1.3,4.8-2.9,4.8c-1.6,0-5.1-1.8-5.1-3.1c0-1.2,0.7-3.1,2.3-3.1
	C521.4,537.6,525.6,537.7,525.6,539z"/>
<path class="st3" d="M476.4,598.1c0,1.8-1.8,6.7-4.1,6.7c-2.2,0-7.2-2.6-7.2-4.3c0-1.8,0.9-4.3,3.2-4.3
	C470.6,596.2,476.4,596.4,476.4,598.1z"/>
<path class="st6" d="M516.5,749.5c0,2.6-4.2,2.8-6.7,2.8c-2.5,0-4.6-2.1-4.6-4.7c0-2.6,3.1-2.5,5.7-2.5
	C513.4,745.2,516.5,746.9,516.5,749.5z"/>
<path class="st5" d="M541.3,728.4c0,1.7-3.9,4.5-6.5,4.5c-2.6,0-4.8-4.4-4.8-6c0-1.7,2.1-3,4.8-3
	C537.4,723.9,541.3,726.8,541.3,728.4z"/>
<path class="st3" d="M558.3,776.9c0,2.7-2.8,10.5-6.3,10.5c-3.5,0-11.3-4-11.3-6.8c0-2.7,1.5-6.8,5-6.8
	C549.1,773.8,558.3,774.1,558.3,776.9z"/>
<path class="st6" d="M587.5,559c0,5.3-8.6,5.8-13.8,5.8c-5.2,0-9.5-4.3-9.5-9.6c0-5.3,6.4-5.1,11.6-5.1
	C581.1,550.1,587.5,553.7,587.5,559z"/>
<path class="st6" d="M603.4,581c0,1.7-3.9,4.5-6.5,4.5c-2.6,0-4.8-4.4-4.8-6c0-1.7,2.1-3,4.8-3C599.5,576.5,603.4,579.3,603.4,581z"
	/>
<path class="st3" d="M387.6,710.7c13,3.1,22.3,7.4,22.3,7.4l20.1,37.2l38,32l24.7,9.3l106.3,6.2l37.7-6.2l-22.9,17.3l-143.1-9.4
	l-25.5-18.1l-30.6-30.6L387.6,710.7z"/>
<polygon class="st7" points="501.3,448.3 468.9,462.8 417,499.9 376.2,558.3 365.1,629.7 387.3,710.3 387.7,710.8 414.3,754.8 
	413.6,726.1 423.8,580.8 435.6,533.5 459,486.5 505.6,452.8 534,460.7 536.5,447.2 "/>
<polygon class="st8" points="365.1,629.7 373.3,625.2 381.3,584.7 376.2,558.3 "/>
<polygon class="st3" points="441.4,769.4 448.2,770.6 471.7,760.7 461.8,781.7 458.1,787.3 "/>
<polygon class="st3" points="645.1,499.9 702.3,511 692.4,490 644.2,484.1 "/>
<polygon class="st9" points="725.7,612.1 759.1,608 754.8,705.1 722,697.7 "/>
<polygon class="st3" points="470.8,804.5 612.1,813.9 661.7,806.9 717.1,769.4 685.9,761.7 636.7,796.6 616.3,787.3 612.6,800.9 
	599,802.8 492.7,796.6 "/>
<polygon class="st3" points="699.6,738.5 688.7,721.5 710,720.5 713.6,734.8 "/>
<polygon class="st3" points="707.2,553.7 696.7,567.9 714,571 733.2,561.7 "/>
<path class="st1" d="M330.1,299.3c0,0,66.3,9.7,71.4,26.6c6,20,12.9,100.4,16,116.4c1.1,5.7-28.2,30.4-45.1,27.7l-25.7-82.9
	L330.1,299.3z"/>
<g>
	<path class="st10" d="M514.2,432.5c1.8-1.2-3.7-5,0-3c3.8,2,17.2,9.2,21.8,10.8s8.8,0.8,10.8,1s11.5,3.8,13.5,4.8s-16.8,0-19.8,0.2
		s-8.8-1-12.8-1.5S514.2,432.5,514.2,432.5z"/>
	<path class="st1" d="M359.8,471.6c11,8.4,14.9,16.4,25.6,18.3c25.6,4.6,44.8-4.8,60.1-11.6c17.1-7.6,29-13.2,35.8-17.7
		c14.2-9.3,22.8-12,26.2-19.5c1.4-3-14.3,3.8-14.3,3.8s2.2-13.6,1.9-15.3c-0.2-1.8,7.2-8.2-15.7-6.5c-17.9,1.4-20.6,5-51.6,5.6
		c-7.7,0.2-13.8-6-15.5-25c-0.8-9.5-26.2,20-34.9,16.2C377.4,420,342.2,458.1,359.8,471.6z"/>
	<path class="st10" d="M374.5,423.3c8-5.7,1.1-11.8,3.1,17.8c1.7,25.8,11,34.9,21.4,37.2c10.4,2.2,33.9-2.5,40.3-4.5
		c12.7-4.1,51.3-16.3,62.2-26.6c2.7-0.6,65.4-6,62.1-0.1c-0.6,0.9-60.2,0-63,1.9c-19.3,13.7-67.8,50.6-115.3,42.1
		c-10.7-1.9-14.5-11.1-25.5-19.6C345.4,460.6,366.5,432.9,374.5,423.3z"/>
	<path class="st10" d="M503.2,444.2c6.8,0,7.2-2.2,13.5-4c6.2-1.8,12,1.8,28.5,3s12.2,3,7,3s-32.8,0-37,0.5
		c-4.2,0.5-13.2,1.7-13.7,1.2S503.2,444.2,503.2,444.2z"/>
	<path class="st1" d="M510.7,427.7c9.5,3,20,11.5,22.2,13s8.8,17.2,9,18.2s-10.5,4.8-17.2-3.8c-3-3.8-5.8-6.8-5.8-6.8
		s-11,0.2-16.2-5.5c-6.9-7.6-3.8-16.2-2.8-16.5S510.7,427.7,510.7,427.7z"/>
</g>
<path class="st1" d="M193,618.4l1.2,171c0,0-3,15.5,0.1,19.1c5.4,6.3,36,4.1,36,4.1s51.2,14.6,62.6,4.8c2.8-2.4,4.3-10,0.5-12.9
	c-2.3-1.7-11.4-1.2-14.3-2.4c-9.7-4-31.7-26.8-31.7-26.8s48.9-421.6,17.2-462.9"/>
<path class="st1" d="M274.1,606.1h40.5l8.2,171c0,0-3,15.5,0.1,19.1c5.4,6.3,33,5.1,33,5.1s55.2,14.6,66.6,4.8
	c2.8-2.4,4.3-10,0.5-12.9c-2.3-1.7-11.4-1.2-14.3-2.4c-9.7-4-31.7-26.8-31.7-26.8s0-169,13.5-302.5c9.2-91.3,29.8-83.2,3.8-157.3
	c-5.5-15.8-22-25.4-41.5-37.9c-24.2-15.5-41-30.3-60.3-30.3c-14.8,0-34.4,18.1-54.6,24.6c-29.4,9.6-45.3,15-59,30.8
	c-9,10.4,4.6,48.6,6.2,109.4c0.8,29.8,5,82.6,7,116.7"/>
<path class="st10" d="M323.2,303.4c-9.3,19.1-27.2,53.8-32.7,60.3l-2.7,17.1l-11.6,8.9l-24.6,33.5l22.8,4.7l60.8-87.2l-8.9-35.4
	L323.2,303.4z"/>
<path class="st10" d="M217.3,343.9c0.5,14.4,1.5,56.4,0,69.8c-1.5,13.3,1.1,40.1,1.1,40.1l22.6-20.9l13.4-4.2l8.7-13.6l15.9-2.6
	c0,0-62.1,73.9-63.6,73.9s-20.5,7.2-22.6,3.1c-2.1-4.1-3.9-104.4-3.9-104.4L217.3,343.9z"/>
<path class="st10" d="M201.7,364.9c1,18.8,18.4,31.6,27.2,35.8c12.4,5.9,59.4,3.7,59.4,3.7l-4.9,20.8c0,0-46.4-1.5-61.3-5.4
	C195.3,412.6,201.4,358.7,201.7,364.9z"/>
<ellipse class="st11" cx="243" cy="391.2" rx="8.1" ry="4.4"/>
<path class="st10" d="M165.6,458.5c0,0,12.7-37.4,18.4-63c5.1-22.5-0.6-45,8.2-47.3c1.5-0.4-2.4,3.7,0.7,31.5
	c3.1,27.7,7,110.4,2.7,144.3c-2.6,20-3.1-25.2-6-21.3c-1.7,2.3-5.1-77.7-5.1-77.7C174.6,442.1,165.6,458.5,165.6,458.5z"/>
<path class="st10" d="M262.1,308.6c-16.7-5.8-33.2-14.3-33.9-7.4c-0.4,3.9,0.1,6.6,17.8,16.8c3.4,2,50,17.2,54.9,10.8
	C302.2,327.1,280.7,315,262.1,308.6z"/>
<linearGradient id="SVGID_1_" gradientUnits="userSpaceOnUse" x1="3652.4006" y1="782.5148" x2="3251.2939" y2="241.9374" gradientTransform="matrix(-1 0 0 1 3780.6067 0)">
	<stop  offset="0" style="stop-color:#E2682B"/>
	<stop  offset="0.2271" style="stop-color:#F27620"/>
	<stop  offset="0.4841" style="stop-color:#FC7E19"/>
	<stop  offset="0.8124" style="stop-color:#FF8117"/>
</linearGradient>
<path class="st12" d="M350.7,262.7c-7.1-4-11.2-11.7-11.6-7.2c-5.6,60-30.1,87.7-44.7,114.6l-1.2,13.8l-11.3,8.3
	c-1.8,3.1-3.7,6.2-5.5,9.2c-2,3.2-4.3,6.6-6.7,10l-11,24.9l-15.1,5.4c-9.5,9.8-19.4,19.3-28.5,27.5l-0.5,6c0,0-0.8,1.5-4.3-1.7
	c-15.9,14.3-28.1,24-28.1,24s1.8,117.5,11.5,183.6l16.8-23.7l26,23.4l23.9-34.2l23.9,35.6l25.7-26.3l21.5,38l26.7-36.4l26.1,23.7
	c0,0,2.6-28.8,4.7-71.4c0.3-5.4-24-7.8-23.8-13.6c0.3-7.1,25.1-17.7,25.3-25.3c1-31.9,1.4-67.9,0.3-103.8
	C387.9,372.7,374.6,276.3,350.7,262.7z"/>
<path class="st13" d="M284.2,594.9c-8.3-6.7-22.2-15.1-18-21.9c3.8-6.2,16.4-28.1,25.6-44.2c5.8-10.2,14.9-12.6,21.1-5.1
	c4.8,5.8,10.5,12.7,15.7,19.3c11.9,15,3.4,29.8,3.4,29.8l-6.1,6l-20.3,12.5C305.5,591.3,292.8,601.8,284.2,594.9z"/>
<path class="st13" d="M284.8,668.8c0,0,7.8-2.5,6.3-15.3c-0.5-3.7-0.7-7.5-0.9-9.8c-0.5-6-2.5-10.3-7.2-13.6
	c-4.7-3.3-17.1-9.6-17.1-9.6s-12.6-8.5-18.7-1.4c-1.4,1.6-3.8,4.6-4.9,6.3c-7.7,11.3,1.3,30.1,1.3,30.1l8.6,3.4l8.2-12.3l18.1,26.3
	L284.8,668.8z"/>
<path class="st13" d="M279.2,399.7l-2.9,1.6c0,0,0,0,0,0c-2,3.2-4.3,6.6-6.7,10l-11,24.9l-15.1,5.4c-1.6,1.6-3.1,3.2-4.7,4.8
	l6.2,16.6c0,0,49.3,18.3,55.1,16.6c5.8-1.8,0.2-46.5,0-51.6C299.8,423,279.2,399.7,279.2,399.7z"/>
<path class="st13" d="M387.8,630c-11.1-1.4-26.6-4.4-31.7-10.1c-5.7-6.4-10.8-17.6-10.2-24.9c0.9-12.2,4.1-28.5,14.2-28.5
	c5.9,0,15.1-0.3,24.5-0.3l6.1,0C389.9,590.1,388.8,611.9,387.8,630z"/>
<path class="st13" d="M351.9,501.8c-1.7-7.6-4.6-19.5,2.7-28.2c10.1-12.1,27.4-28.5,35.2-30.6c0.4,8,0.7,16,1,24
	c0.5,17.9,0.7,35.8,0.6,53.2C386.6,518.8,353.5,508.9,351.9,501.8z"/>
<path class="st13" d="M349,386.3l-0.1-0.1c-2.7-7-0.3-16.8,5.3-21.7l18.7-16.3c1.9-1.6,4.3-3.4,7-5c2.5,15.5,4.5,32.4,6.2,49.9
	c-4.9,3.5-11.3,5.9-16.6,5.9h-2C360.1,399,351.7,393.3,349,386.3z"/>
<path class="st13" d="M216.5,612.2c4.8-0.4,7.5-6.3,8.6-9.5c0.7-1.9,2.6-10.5,4.1-17.3c1.1-4.7-1.2-11.5-3.2-14.3
	c-2.1-2.9-9.6-10.9-9.6-10.9l-32.8-6.5c0.7,17.8,1.7,38.2,3.1,58.6C195.3,612.3,212.9,612.4,216.5,612.2z"/>
<path class="st14" d="M347.5,268.8c1.7,7.1,2.2,16.3-1.9,15.5c-4.2-0.8-11.3-7-13.8,4.5c-2.5,11.4,1,13.6-4.2,17.7
	c-5.3,4-12.6,0.6-18.8-5.2c0,0-3.8,12.5-11.3,13.6c-7.5,1.1-14-12-14-12s-9.7,11.8-18.3,4c-8.6-7.8-9.5-11.5-9.5-11.5
	s-10,5.7-14-6.1c-3.8-11.1-2.5-27.7-18.4-23.7c-0.9,0.2,22-4.4,15.3-35.1c-3.4-15.7,27.7,6.5,40.4,7.2
	C291.9,238.5,347.5,268.8,347.5,268.8z"/>
<path class="st13" d="M227.4,500.7V490c0-7.2-5.7-21.8-11.8-21.8c-14.3,12.7-33.5,29.3-33.5,29.3s0.1,4.5,0.3,12.3
	c0.7,1,1.5,1.9,2.3,2.6l0.2,0.2c5.1,5,15.1,7.8,22.1,6.1l7.8-1.9C221.6,515.1,227.4,507.9,227.4,500.7z"/>
<g>
	<path class="st1" d="M170.2,307.7c1.4,11.1,5.5,26.9,8.8,46.4C176.2,335.4,172.5,319.7,170.2,307.7z"/>
</g>
<path class="st1" d="M171.5,565.9c3.2-0.4,4.5,2,5.2,4.9c1,4.3,1,23,5.4,25.9c4.4,2.9,8-7.8,8-17c0-9.3-0.4-19.3-2.5-25.9"/>
<path class="st10" d="M174,571.1c-0.6-2.2-1.7-5.1,0.2-4.8c1.9,0.3,6-0.2,8-1.8s4.4,0,4.8,1.9c0.3,1.9,2.4,19.2,0.8,26.2
	s-7.2,5.8-8.6,2.2c-1.3-3.6-6.6-19.2-6.4-19.8S174,571.1,174,571.1z"/>
<polygon class="st15" points="89,560.2 140.8,577.2 262.1,617.3 264,611.1 265.3,606.7 143.2,552.4 95.1,536.5 86.7,544.5 "/>
<polygon class="st16" points="263.6,612.4 158,571.7 136.1,561.9 86.7,544.5 97.5,530.5 143.2,552.4 265.3,606.7 "/>
<polygon class="st17" points="210.6,600.3 221.4,596.3 226,589 228.9,590.1 225.7,604.6 224.3,604.8 "/>
<polygon class="st18" points="258.3,583.9 238.8,578.9 229.9,579.4 223.6,607 221,623.9 225.7,647.8 229,650.8 244.1,636.5 
	250.1,620.8 251.8,603.1 "/>
<polygon class="st19" points="258.3,583.9 269.1,591 255.2,617 243.7,636.9 229,650.8 239.5,631.7 245,616.5 "/>
<polygon class="st20" points="228.2,636 225.1,621.3 227.5,622.4 229.8,630.3 231.9,638.5 236.1,620.6 248.9,596.3 242.7,597.7 
	256.7,583.8 238.8,578.9 224.9,608.2 220.1,624 225.7,647.8 "/>
<polygon class="st18" points="249.9,601.8 259.1,592.9 245.5,614.3 "/>
<path class="st1" d="M187.6,553.7c-2.1-6.6-11.1-17.7-12.1-25.4c-2.4-19.4,11.3-39.4-2.5-90.3l35.7-87.7l14.2-59.5l7.8-18.7
	c0,0-31.5-9.1-57.4,15.6c-8.8,8.3-22.7,35.6-29.7,64.5c-4.5,18.7-16.1,32.8-17.5,49c-0.5,5.7-4.3,32-4.5,37
	c-2.3,46,9.6,91.8,9.6,91.8L120.6,572c0,0,4.7,17.6,11.8,25.8c4.3,5,27.6,8.4,27.6,8.4l5.3,2.1c0,0,8.2,1.3,10.5,0.3
	c2.9-0.7,6-13,4.8-18.2c-5.8-2.5-12.1-4.9-12.2-13.6c-0.1-6.9,2.3-11.5,5.3-10.7"/>
<path class="st21" d="M121.5,438.3c0.2-5,4.1-31.3,4.5-37c1.4-16.2,12.9-30.3,17.5-49c7-29,21-56.2,29.7-64.5
	c4.4-4.2,9.3-7.4,14.3-9.9c12.4-7.1,27.4-10.8,50-15.4c11-2.2,22-7.3,32.3-11.7c5.3,4.4,9.1,7.8,9.1,7.8c-5,5.1-19.8,17.3-25.7,12.2
	c-5.9-5.1-30.5,2.9-44.8,6.2c-14.3,3.3-35.2,12.5-45.9,47.2c-10.6,34.7-21.4,48.4-25.3,71.6c-3.9,23.2-2.7,59.7-0.5,99.9
	c1.1,20,3.7,26.4,2.5,39.2c-1.2,12.9-2.5,20.4-4.9,34.4c-0.2,1.2-0.4,2.4-0.6,3.6c0,0.3,0,0.5-0.1,0.8c-2.6,22.2,3.1,20.9,14.3,23.3
	c5.7,1.2,7.3-3.4,7.6-8.1c1.1,8.1,3,13.3,4.5,17.5c0,0-19.4-2.8-26.1-7.1c0,0,0,0,0,0c-0.2-0.1-0.4-0.3-0.6-0.4
	c-0.1,0-0.1-0.1-0.1-0.1c-0.1-0.1-0.3-0.2-0.4-0.3c-0.2-0.1-0.3-0.3-0.4-0.4c-7.1-8.2-11.8-25.8-11.8-25.8l10.5-41.8
	C131.1,530.2,119.2,484.3,121.5,438.3z"/>
<path class="st10" d="M181.1,590.5c-4.1-1.8-8.9-3.5-11.1-7.4c1.6,6.7,4,13.9,4.3,15.3c0.5,2.2,5.5,6.1,6.5-2.4
	c0.1-0.5,0.2-1.9,0.2-2.3C181.1,592.2,181.3,591.4,181.1,590.5z"/>
<path class="st22" d="M351.5,140.7c4.3,2.9,9.5-1.2,9.5-1.2s-1.9-26.9-24.4-31.4c4.6-2.4,8.3-10.6,7.3-13.1c-0.4-1.1-2.3,1.6-8,1.6
	c-8.2,0-14,0.4-22.8,5.8c4.1-4.9,5.3-14,4-13.4c-5.7,2.6-14.1,0.3-19.7,7.3c-5.8-17.3-18.7-5-32.5-17.2c0,3.1,1.5,13.4,2.8,16.6
	c-5.7-5.5-14.7-6.1-22.1-13.7c-1,2.6,0.3,12.4,2,16.3c-2.3-1.3-11.6-2.7-20.9-6.7c1.7,0.7-4.3,12.5,4.6,18.3
	c0.9,0.6-0.7-0.6-0.1,0.3c-4.8-0.2-11.7-2.5-17.2-2.8c-1.1-0.1,1.8,12.8,4.6,12.5c-20.2,1.8-30.1,25.5-30.3,27.1
	c2.9,0.7,13.6,1.8,18.1-0.5c-14.4,7.5-13.1,27.3-13.1,27.3s13.8-4.2,13.3-3.7c-8.3,8.7-3.5,20.6-5.3,25.7c7.2-0.1,9.7-3,16-4.7
	c-5.3,1.4-9.8,19.6-9.7,23.7c6-0.1,9.2-0.9,14.7-1.3c-1.6,6.4-7.1,11.8-7.7,19.3c3.7-0.6,13.4-2.3,14.3-6
	c-2.7,10.3,1.7,26.1,1.7,30.3c0,1.8,9-2,18.1-11.9c14.9-16.1,52.5-2.3,70.9-5.5c5.9-1,32.8,8,32.8,6.9c-0.2-3.1-5.2-11.6-5.2-20.8
	c0.1-16.4,1.5-36.5,1.5-36.5s-1.3,6.4,5.7,9.4c-1.9-0.8,4.8-21.4-3.6-32.2c-0.4-0.5,9.3,0.9,12.1,0
	C364.2,159.6,360.4,146.6,351.5,140.7z"/>
<g>
	<path class="st11" d="M337.3,214.9c-1.3,5.7-4,8.1-6.4,7.2c-2.4-0.9,1.1-22,4.9-20.6C339.2,202.9,338.6,209.2,337.3,214.9z"/>
</g>
<g>
	<path class="st1" d="M233.7,215c3.7,10.5,9.2,14.7,13.6,12.5c4.3-2.2,5.8-9.8,2.1-20.4c-3.7-10.5-8.6-21.2-15.4-17.8
		C227.7,192.5,230,204.5,233.7,215z"/>
</g>
<g>
	<path class="st11" d="M239.7,210.7c1.9,5.5,4.8,7.7,7.1,6.5c2.3-1.1-3.4-21.7-6.9-20C236.6,198.9,237.8,205.2,239.7,210.7z"/>
</g>
<g>
	<path class="st1" d="M339,205.1c0.5,6.1-2.3,39.9-10.3,48.9c-4.5,5-15.7,18.7-21.4,20.9c-5.4,2.1-17.8,2.8-23.4,1.2
		c-5.9-1.6-18.9-14.4-23.3-18.6c-8.5-8.2-13.5-40.1-13.9-45.5c-1.7-22.6,1.4-45.2,7.6-57.1c5.9-11.4,14.5-12.8,34.1-13.9
		C332.7,138.7,335.7,160.9,339,205.1z"/>
	<path class="st10" d="M312.8,201.5c4.5,4.2,11.4,16.1,5.9,19c-5.5,2.9-9,0.5-8-0.4C311.7,219.3,312.8,201.5,312.8,201.5z"/>
	<path class="st10" d="M294.1,213.2c-2,1.4-10.9,7.2-14.6,12.2c-3.7,5,15.2-3.9,16.1-4.7c0.9-0.7,0.1-2.8-0.3-3.3
		C295,217,294.1,213.2,294.1,213.2z"/>
</g>
<path class="st22" d="M340,190c2.2-7.4,13.8-58.8-9.5-68.2c-12.4-5-23.1,0.2-23.1,0.2s-41-14.1-59.5,3.5c-6.2,5.9-3.9,56.9-4.6,61.4
	c0.3,0.5-3.9-1.1,1,8.9c8,16.5,1.9,34.4,2.2,42.7c0.1,2.4-1,2.2-3.7,7c-5.3,9.3-0.7,28.5-0.3,30.1c1.5,5.7,6.8,8.5,12.2-0.4
	c0,0,4.3,22.5,11.9,24.3c6,1.4,11.8-5.4,13.3-12.8c0.1-0.5,7.1,20.2,15.6,20.4c8.9,0.1,11.8-20.7,13.5-17.8
	c1.7,2.9,11.6,12.2,16.8,8.5c7.7-5.5,5.2-34.3,10-29.3c5.5,5.7,11.4,7.5,12.6-1.4c2.1-15.6-6.5-32.7-7.8-43.7
	C339.8,218.4,340.4,203,340,190z M331.1,232.9c-2.6,0.3-4.1-1.9-4.9-6.4c-2.8-17-36.5-12.8-46-1.9c-8,9.2-9.5,9.3-13.8,8.9
	c-5.8-0.5-5.5-22.1-8.6-47.4c0-10.4-1.9-16.7,4.4-21.2c7.1-5,32.1,7.5,44.6,6.8c19-1,20.3-6.6,21.4-11.3c0.1-0.6,1-0.5,1.7-0.4
	c2.9,0.3,5.1,12.1,7.5,23.1C339.2,207.1,337,232.3,331.1,232.9z"/>
<g>
	<g>
		<g>
			<path class="st23" d="M285.1,201.1c-2.1,0-3.9-1.7-4-3.8c-0.1-2.2,1.6-4.1,3.8-4.2c0.1,0,0.1,0,0.2,0c2.1,0,3.9,1.7,4,3.8
				c0.1,2.2-1.6,4.1-3.8,4.2C285.2,201.1,285.2,201.1,285.1,201.1z"/>
			<path class="st23" d="M285.1,193.4c1.9,0,3.5,1.5,3.6,3.4c0.1,2-1.4,3.7-3.4,3.8c-0.1,0-0.1,0-0.2,0c-1.9,0-3.5-1.5-3.6-3.4
				c-0.1-2,1.4-3.7,3.4-3.8C285,193.4,285,193.4,285.1,193.4 M285.1,192.7c-0.1,0-0.2,0-0.2,0c-2.4,0.1-4.2,2.2-4.1,4.6
				c0.1,2.3,2,4.1,4.3,4.1c0.1,0,0.2,0,0.2,0c2.4-0.1,4.2-2.2,4.1-4.6C289.3,194.5,287.4,192.7,285.1,192.7L285.1,192.7z"/>
		</g>
	</g>
</g>
<g>
	<g>
		<g>
			<path class="st23" d="M322.2,199.1c-2.1,0-3.9-1.7-4-3.8c-0.1-1.1,0.3-2.1,1-2.9c0.7-0.8,1.7-1.3,2.8-1.3c0.1,0,0.1,0,0.2,0
				c2.1,0,3.9,1.7,4,3.8c0.1,2.2-1.6,4.1-3.8,4.2C322.4,199.1,322.3,199.1,322.2,199.1z"/>
			<path class="st23" d="M322.2,191.5c1.9,0,3.5,1.5,3.6,3.4c0.1,2-1.4,3.7-3.4,3.8c-0.1,0-0.1,0-0.2,0c-1.9,0-3.5-1.5-3.6-3.4
				c-0.1-2,1.4-3.7,3.4-3.8C322.1,191.5,322.2,191.5,322.2,191.5 M322.2,190.8c-0.1,0-0.2,0-0.2,0c-2.4,0.1-4.2,2.2-4.1,4.6
				c0.1,2.3,2,4.1,4.3,4.1c0.1,0,0.2,0,0.2,0c2.4-0.1,4.2-2.2,4.1-4.6C326.5,192.6,324.6,190.8,322.2,190.8L322.2,190.8z"/>
		</g>
	</g>
</g>
<path class="st1" d="M301.5,174.7c0,0-1.8-7.8-0.9-11.3c0,0-4.9,5.4-4.7,7.8C296,173.6,301.5,174.7,301.5,174.7z"/>
<g>
	<path class="st24" d="M291.1,231c-0.2-2.7,2.3-3,3.7-2.8c2.9,0.5,6.3,2.5,12.1,2c5.6-0.5,6.8-1.3,7.2-1.4c0.9-0.2,4.6-0.1,4.1,3.1
		C316.8,241.3,291.8,241.5,291.1,231z"/>
</g>
<g>
	<path class="st22" d="M281.8,178.7c-4.9,0.7-7.9,2.5-9.8,4.5c-2.9,3.1-0.9,9.4-0.9,9.4c3.8-2.7,5-4.3,13.2-5.2
		c6.3-0.7,11.3,1.9,13.1,1.4c1.4-0.4,2-6.9-2.6-9C292.3,178.5,285.5,178.1,281.8,178.7z"/>
</g>
<g>
	<path class="st22" d="M327.9,176.3c4.5,0.2,7.3,1.7,9.2,3.5c2.9,2.8,1.7,9.2,1.7,9.2c-3.7-2.3-4.8-3.8-12.3-3.9
		c-5.7-0.1-9.9,3-11.6,2.7c-1.3-0.2-2.5-6.6,1.4-9.2C318.5,177.2,324.5,176.1,327.9,176.3z"/>
</g>
<path class="st25" d="M293.8,192.8c0,0-2.1-1.9-7.2-1.2c-4.5,0.6-9.2,2.6-9.2,2.6"/>
<path class="st25" d="M331,191.4c0,0-2.1-1.9-7.2-1.2c-4.5,0.6-9.2,2.6-9.2,2.6"/>
<path class="st1" d="M311.3,194.9c2.6,10.7,15.6,28.2-6.1,26.8c-23.7-1.6-2.5-18.5-2.5-18.5"/>
<path class="st10" d="M295.5,213.3c-0.6,4,9,8.2,13.4,8.4c-1.1,0.1-2.3,0-3.7-0.1c-6.1-0.4-9.6-1.9-11.5-3.9
	C291.7,214.2,296,209.9,295.5,213.3z"/>
<g>
	<g>
		<polygon class="st5" points="669.1,831.9 651,810.1 700.1,773 751,802.2 727.9,841.9 		"/>
		<polygon class="st26" points="751,802.2 735.5,812.3 700.1,773 		"/>
		<polygon class="st26" points="751,802.2 738.9,807.5 719.9,821.4 694.2,804.3 667.4,811.8 700.1,837.2 727.9,841.9 		"/>
		<polygon class="st4" points="668.1,812 676.6,800 703.7,782.8 694.2,804.3 		"/>
		<polygon class="st4" points="660,817 651,810.1 700,773.1 708.3,781.8 690.1,793.6 688.5,793.7 659.6,809 		"/>
	</g>
	<polygon class="st26" points="651,810.1 669.1,831.9 700.1,837.2 690.3,826.6 664.9,820.1 	"/>
</g>
<g>
	<polygon class="st27" points="477.6,821.4 480.3,809.4 462.2,792.8 449.2,805.5 450.7,821.5 	"/>
	<polygon class="st26" points="449.2,805.5 455.1,808.1 452.7,816.3 465.3,807.9 480.2,809.6 477.5,821.5 450.7,821.5 	"/>
	<polygon class="st5" points="477.9,811.8 480.3,809.6 462.5,793 465.3,807.9 	"/>
</g>
<g>
	<polygon class="st27" points="652,851.6 647.7,823.6 611.4,822 608.8,848.7 625.7,865.3 	"/>
	<polygon class="st26" points="608.8,848.7 617.9,846 623,857.5 629.2,836.1 647.6,824 652.2,852.5 625.7,865.3 	"/>
	<polygon class="st5" points="647.5,828 647.8,823.8 611.9,822 629.2,836.1 	"/>
</g>
<path class="st21" d="M427.8,428.8c-7.3,0.1-13.2-5.3-15.2-22c0,0.2,0,0.5,0,0.7c1,19-13.7,28-13.7,28s18.6-5.5,31.9-6.8
	C429.9,428.7,428.9,428.7,427.8,428.8z"/>
<path class="st1" d="M175,559.5c-0.5,4-4.5,13.8-5.3,15.2c0,0,1.3,13.2,3.5,19.5c2.2,6.3-9.3-6.3-9.7-10.8s-4-17.5-2.5-19.7
	c1.5-2.2,4-8.3,8.7-9.2C174.3,553.6,175,559.5,175,559.5z"/>
<path class="st1" d="M167,564.7c3.8,0.8,17.2,4.2,21,2.8l-5.8-9.8c0,0-10.5,0.8-11.5,1.8S167,564.7,167,564.7z"/>
<path class="st1" d="M231.7,386c-0.8,7.8-5,16.2-13.8,7.8s-14.8-50.5-14.8-50.5s17-6.2,18-6s12.5,39.8,12.5,39.8L231.7,386z"/>
<path class="st28" d="M561,130.3c0,40.7-33,73.7-73.7,73.7c-16,0-30.7-5.1-42.8-13.7c-2.8-2-27.7,8.3-27.7,8.3s10.2-25.3,6.7-31.4
	c-6.3-10.9-9.9-23.5-9.9-36.9c0-40.7,33-73.7,73.7-73.7S561,89.6,561,130.3z"/>
<g>
	<polygon class="st29" points="495.3,152.9 498.9,142.9 510.8,134.7 520.2,117.1 510.5,92.8 487.1,84.3 462.6,92.8 453.5,115.5 
		460.3,134.7 474.9,142.4 478.2,153 	"/>
	<path class="st29" d="M498.8,156.9c0,2.2-1.8,4-4,4l-16.8,0c-2.2,0-4-1.8-4-4l0,0c0-2.2,1.8-4,4-4l16.8-0.1
		C497,152.9,498.8,154.7,498.8,156.9L498.8,156.9z"/>
	<path class="st29" d="M498.8,164.9c0,2.2-1.8,4-4,4l-16.8,0c-2.2,0-4-1.8-4-4l0,0c0-2.2,1.8-4,4-4l16.8,0
		C497,160.9,498.8,162.7,498.8,164.9L498.8,164.9z"/>
	<path class="st29" d="M486.5,181.3c0,0,8-8.9,8-12.4l-16,0C478.5,172.5,486.5,181.3,486.5,181.3z"/>
	<polyline class="st29" points="485,152.2 474.2,110.6 483.1,115.9 486.9,106.8 490.1,115.3 499.5,109.3 489,152.7 	"/>
</g>
</svg>
