<?xml version="1.0" encoding="utf-8"?>
<!-- Generator: Adobe Illustrator 21.0.2, SVG Export Plug-In . SVG Version: 6.00 Build 0)  -->
<svg version="1.1" id="圖層_1" xmlns="http://www.w3.org/2000/svg" xmlns:xlink="http://www.w3.org/1999/xlink" x="0px" y="0px"
	 viewBox="0 0 82.7 41" style="enable-background:new 0 0 82.7 41;" xml:space="preserve">
<style type="text/css">
	.st0{clip-path:url(#SVGID_2_);}
	.st1{opacity:0.1;}
	.st2{clip-path:url(#SVGID_4_);}
	.st3{clip-path:url(#SVGID_6_);fill:#FFFFFF;}
	.st4{clip-path:url(#SVGID_8_);}
	.st5{opacity:0.3;}
	.st6{clip-path:url(#SVGID_10_);}
	.st7{clip-path:url(#SVGID_12_);fill:#FFFFFF;}
	.st8{clip-path:url(#SVGID_14_);}
	.st9{opacity:0.5;}
	.st10{clip-path:url(#SVGID_16_);}
	.st11{clip-path:url(#SVGID_18_);fill:#FFFFFF;}
	.st12{clip-path:url(#SVGID_20_);}
	.st13{opacity:0.7;}
	.st14{clip-path:url(#SVGID_22_);}
	.st15{clip-path:url(#SVGID_24_);fill:#FFFFFF;}
	.st16{clip-path:url(#SVGID_26_);}
	.st17{opacity:0.5;enable-background:new    ;}
	.st18{opacity:0.9;}
	.st19{clip-path:url(#SVGID_28_);}
	.st20{clip-path:url(#SVGID_30_);fill:#FFFFFF;}
	.st21{clip-path:url(#SVGID_32_);fill:#FFFFFF;}
	.st22{clip-path:url(#SVGID_34_);fill:#FFFFFF;}
	.st23{clip-path:url(#SVGID_36_);fill:#FFFFFF;}
	.st24{clip-path:url(#SVGID_38_);fill:#FFFFFF;}
</style>
<g>
	<g>
		<defs>
			<rect id="SVGID_1_" x="1" y="2" width="80.8" height="38.9"/>
		</defs>
		<clipPath id="SVGID_2_">
			<use xlink:href="#SVGID_1_"  style="overflow:visible;"/>
		</clipPath>
		<g class="st0">
			<g>
				<g class="st1">
					<defs>
						<rect id="SVGID_3_" x="1" y="2" class="st1" width="80.8" height="80.5"/>
					</defs>
					<clipPath id="SVGID_4_">
						<use xlink:href="#SVGID_3_"  style="overflow:visible;"/>
					</clipPath>
					<g class="st2">
						<g>
							<defs>
								<rect id="SVGID_5_" x="1" y="2" width="80.8" height="80.5"/>
							</defs>
							<clipPath id="SVGID_6_">
								<use xlink:href="#SVGID_5_"  style="overflow:visible;"/>
							</clipPath>
							<path class="st3" d="M44.6,2L44.6,2c0.7,0.1,1.2,0.7,1.1,1.3C45.6,4,45,4.5,44.4,4.4c-0.7-0.1-1.2-0.7-1.1-1.3
								C43.3,2.5,43.9,2,44.6,2C44.6,2,44.6,2,44.6,2 M39.3,3.2c0.1,0.7-0.5,1.3-1.1,1.3c-0.7,0.1-1.3-0.5-1.4-1.1
								c0-0.7,0.5-1.3,1.2-1.4h0.1C38.7,2,39.3,2.5,39.3,3.2 M51.2,3.1L51.2,3.1c0.7,0.2,1.1,0.8,0.9,1.5c-0.2,0.7-0.8,1.1-1.5,0.9
								S49.5,4.7,49.7,4c0.1-0.6,0.6-1,1.2-1C51,3,51.1,3.1,51.2,3.1 M32.9,4c0.2,0.7-0.2,1.3-0.9,1.5s-1.3-0.2-1.5-0.9
								s0.2-1.3,0.9-1.5c0.1,0,0.2,0,0.3,0C32.3,3.1,32.8,3.5,32.9,4 M57.5,5.2c0.6,0.3,0.9,1,0.6,1.6c-0.3,0.6-1,0.9-1.6,0.6
								s-0.9-1-0.6-1.6C56.1,5.3,56.6,5,57,5C57.2,5.1,57.4,5.2,57.5,5.2 M26.7,5.9c0.3,0.6,0,1.4-0.6,1.6c-0.6,0.3-1.4,0-1.6-0.6
								c-0.3-0.6,0-1.4,0.6-1.7c0.2-0.1,0.3-0.1,0.5-0.1C26.1,5.2,26.5,5.5,26.7,5.9 M63.4,8.4c0.6,0.4,0.7,1.2,0.4,1.7
								c-0.4,0.6-1.2,0.7-1.7,0.4c-0.6-0.4-0.7-1.2-0.4-1.7c0.2-0.4,0.6-0.6,1-0.6C62.9,8.2,63.2,8.3,63.4,8.4 M21,8.8
								c0.4,0.6,0.2,1.4-0.4,1.7c-0.6,0.5-1.3,0.3-1.7-0.3s-0.2-1.4,0.4-1.7c0.2-0.1,0.4-0.2,0.7-0.2C20.3,8.3,20.7,8.5,21,8.8
								 M68.7,12.5c0.5,0.5,0.5,1.3,0.1,1.8c-0.5,0.5-1.3,0.5-1.8,0.1l0,0c-0.5-0.5-0.5-1.3-0.1-1.8c0.2-0.3,0.6-0.4,0.9-0.4
								C68.1,12.2,68.4,12.3,68.7,12.5 M15.7,12.7c0.5,0.5,0.4,1.3-0.1,1.8l0,0c-0.5,0.5-1.3,0.4-1.8-0.1s-0.4-1.3,0.1-1.8
								c0.2-0.2,0.5-0.3,0.8-0.3C15.2,12.3,15.5,12.4,15.7,12.7 M73.2,17.4c0.4,0.5,0.3,1.3-0.2,1.8c-0.5,0.4-1.3,0.3-1.8-0.2
								c-0.4-0.5-0.3-1.3,0.2-1.8c0.2-0.2,0.5-0.3,0.8-0.3C72.6,16.9,72.9,17.1,73.2,17.4 M11.2,17.3c0.5,0.4,0.6,1.2,0.2,1.8l0,0
								c-0.4,0.5-1.2,0.6-1.8,0.2C9.1,18.8,9,18,9.5,17.5c0.2-0.3,0.6-0.5,1-0.5C10.7,17,11,17.1,11.2,17.3 M76.9,22.9L76.9,22.9
								c0.3,0.6,0.1,1.4-0.5,1.7c-0.6,0.3-1.4,0.1-1.7-0.5c-0.3-0.6-0.1-1.4,0.5-1.7c0.2-0.1,0.4-0.2,0.6-0.2
								C76.2,22.3,76.6,22.5,76.9,22.9 M7.5,22.6c0.6,0.3,0.8,1.1,0.5,1.7s-1.1,0.8-1.7,0.5s-0.8-1.1-0.5-1.7
								c0.2-0.4,0.7-0.7,1.1-0.7C7.1,22.4,7.3,22.5,7.5,22.6 M79.6,29c0.2,0.7-0.1,1.4-0.8,1.6c-0.7,0.2-1.4-0.1-1.6-0.8
								c-0.2-0.7,0.1-1.4,0.8-1.6c0.1,0,0.3-0.1,0.4-0.1C78.9,28.2,79.4,28.5,79.6,29 M4.7,28.4c0.7,0.2,1,0.9,0.8,1.6
								s-0.9,1-1.6,0.8s-1-0.9-0.8-1.6l0,0c0.2-0.5,0.7-0.8,1.2-0.8C4.5,28.4,4.6,28.4,4.7,28.4 M81.2,35.5L81.2,35.5
								c0.1,0.7-0.3,1.3-1,1.4c-0.7,0.1-1.3-0.3-1.4-1s0.3-1.3,1-1.4c0.1,0,0.1,0,0.2,0C80.6,34.5,81.1,34.9,81.2,35.5 M3,34.6
								c0.7,0.1,1.1,0.8,1,1.4c-0.1,0.7-0.8,1.1-1.4,1c-0.7-0.1-1.1-0.8-1-1.4c0.1-0.6,0.6-1,1.2-1C2.8,34.6,2.9,34.6,3,34.6
								 M81.8,42.1L81.8,42.1L81.8,42.1c0,0.8-0.6,1.4-1.2,1.4s-1.2-0.6-1.2-1.3v-0.1V42c0-0.7,0.6-1.3,1.2-1.3l0,0
								C81.2,40.9,81.8,41.5,81.8,42.1 M3.5,42.3L3.5,42.3c0,0.7-0.6,1.3-1.2,1.3C1.6,43.6,1,43,1,42.3S1.6,41,2.2,41
								C2.9,41.1,3.5,41.6,3.5,42.3 M80.2,47.5c0.7,0.1,1.1,0.8,1,1.4c-0.1,0.7-0.8,1.1-1.4,1c-0.7-0.1-1.1-0.8-1-1.4
								c0.1-0.6,0.6-1,1.2-1C80.1,47.4,80.1,47.5,80.2,47.5 M4,48.5c0.1,0.7-0.3,1.3-1,1.4c-0.7,0.1-1.3-0.3-1.4-1s0.3-1.3,1-1.4
								c0.1,0,0.1,0,0.2,0C3.4,47.5,3.9,47.9,4,48.5 M78.8,53.8c0.7,0.2,1,0.9,0.8,1.6c-0.2,0.7-0.9,1-1.6,0.8s-1-0.9-0.8-1.6
								c0.2-0.5,0.7-0.8,1.2-0.8C78.5,53.7,78.7,53.7,78.8,53.8 M5.6,54.6L5.6,54.6c0.2,0.7-0.1,1.4-0.8,1.6
								c-0.7,0.2-1.4-0.1-1.6-0.8C3,54.8,3.3,54.1,4,53.8c0.1,0,0.3-0.1,0.4-0.1C4.9,53.8,5.4,54.1,5.6,54.6 M76.4,59.8
								c0.6,0.3,0.8,1.1,0.5,1.7c-0.3,0.6-1.1,0.8-1.7,0.5s-0.8-1.1-0.5-1.7c0.2-0.4,0.7-0.7,1.1-0.7C76,59.6,76.2,59.7,76.4,59.8
								 M8.1,60.3c0.3,0.6,0.1,1.4-0.5,1.7s-1.4,0.1-1.7-0.5c-0.3-0.6-0.1-1.4,0.5-1.7c0.2-0.1,0.4-0.2,0.6-0.2
								C7.4,59.7,7.9,59.9,8.1,60.3 M73,65.3c0.5,0.4,0.6,1.2,0.2,1.8c-0.4,0.5-1.2,0.6-1.8,0.2c-0.5-0.4-0.6-1.2-0.2-1.8
								c0.2-0.3,0.6-0.5,1-0.5C72.5,65,72.8,65.1,73,65.3 M11.5,65.6c0.4,0.5,0.3,1.3-0.2,1.8c-0.5,0.4-1.3,0.3-1.8-0.2
								c-0.4-0.5-0.3-1.3,0.2-1.8c0.2-0.2,0.5-0.3,0.8-0.3C10.9,65.1,11.3,65.2,11.5,65.6 M68.8,70.2c0.5,0.5,0.4,1.3-0.1,1.8
								s-1.3,0.4-1.8-0.1s-0.4-1.3,0.1-1.8c0.2-0.2,0.5-0.3,0.8-0.3C68.2,69.8,68.6,69.9,68.8,70.2 M15.7,70.2
								c0.5,0.5,0.5,1.3,0.1,1.8c-0.5,0.5-1.3,0.5-1.8,0.1c-0.5-0.5-0.5-1.3-0.1-1.8c0.2-0.3,0.6-0.4,0.9-0.4
								C15.2,69.8,15.5,69.9,15.7,70.2 M63.8,74.3c0.4,0.6,0.2,1.4-0.4,1.7c-0.6,0.4-1.4,0.2-1.7-0.4c-0.4-0.6-0.2-1.4,0.4-1.7
								c0.2-0.1,0.4-0.2,0.7-0.2C63.2,73.8,63.6,74,63.8,74.3 M20.7,74c0.6,0.4,0.7,1.2,0.4,1.7c-0.4,0.6-1.2,0.7-1.7,0.4
								c-0.6-0.4-0.7-1.2-0.4-1.7c0.2-0.4,0.6-0.6,1-0.6C20.2,73.8,20.5,73.9,20.7,74 M58.3,77.6c0.3,0.6,0,1.4-0.6,1.6
								c-0.6,0.3-1.4,0-1.6-0.6c-0.3-0.6,0-1.4,0.6-1.6c0.2-0.1,0.3-0.1,0.5-0.1C57.6,76.8,58.1,77.1,58.3,77.6 M26.2,77L26.2,77
								c0.6,0.3,0.9,1,0.6,1.6s-1,0.9-1.6,0.6s-0.9-1-0.6-1.6c0.2-0.5,0.7-0.7,1.1-0.7C25.9,76.9,26,76.9,26.2,77 M52.2,79.9
								c0.2,0.7-0.2,1.3-0.9,1.5s-1.3-0.2-1.5-0.9c-0.2-0.7,0.2-1.3,0.9-1.5c0.1,0,0.2,0,0.3,0C51.6,78.9,52.1,79.3,52.2,79.9
								 M32.1,79L32.1,79c0.7,0.2,1.1,0.8,0.9,1.5c-0.2,0.7-0.8,1.1-1.5,0.9l0,0c-0.7-0.2-1.1-0.8-0.9-1.5c0.1-0.6,0.7-0.9,1.2-0.9
								C31.9,79,32,79,32.1,79 M45.9,81.2c0.1,0.7-0.5,1.3-1.1,1.3c-0.7,0.1-1.3-0.5-1.3-1.1c-0.1-0.7,0.5-1.3,1.1-1.3h0.1
								C45.3,80,45.8,80.5,45.9,81.2 M38.3,80c0.7,0.1,1.2,0.7,1.1,1.3c-0.1,0.7-0.7,1.2-1.3,1.1c-0.7-0.1-1.2-0.7-1.1-1.3
								C37.1,80.4,37.6,79.9,38.3,80C38.2,80,38.2,80,38.3,80"/>
						</g>
					</g>
				</g>
				<g>
					<defs>
						<rect id="SVGID_7_" x="1" y="2" width="80.8" height="38.9"/>
					</defs>
					<clipPath id="SVGID_8_">
						<use xlink:href="#SVGID_7_"  style="overflow:visible;"/>
					</clipPath>
					<g class="st4">
						<g>
							<g class="st5">
								<defs>
									<rect id="SVGID_9_" x="5.3" y="6.1" class="st5" width="72.2" height="72.3"/>
								</defs>
								<clipPath id="SVGID_10_">
									<use xlink:href="#SVGID_9_"  style="overflow:visible;"/>
								</clipPath>
								<g class="st6">
									<g>
										<defs>
											<rect id="SVGID_11_" x="5.3" y="6.1" width="72.2" height="72.3"/>
										</defs>
										<clipPath id="SVGID_12_">
											<use xlink:href="#SVGID_11_"  style="overflow:visible;"/>
										</clipPath>
										<path class="st7" d="M43.1,7.4c0,0.7-0.6,1.2-1.3,1.2l0,0c-0.7,0-1.2-0.6-1.2-1.3s0.6-1.2,1.3-1.2
											C42.6,6.1,43.2,6.7,43.1,7.4 M37.4,7.6C37.5,8.2,37,8.9,36.3,9l0,0c-0.7,0.1-1.3-0.4-1.4-1.1c-0.1-0.7,0.4-1.3,1.1-1.4
											c0.1,0,0.1,0,0.2,0C36.8,6.5,37.3,6.9,37.4,7.6 M47.9,6.7c0.7,0.1,1.1,0.8,1,1.5s-0.8,1.1-1.5,1s-1.1-0.8-1-1.5
											c0.1-0.6,0.6-1,1.2-1C47.7,6.7,47.8,6.7,47.9,6.7 M31.7,8.7c0.2,0.7-0.1,1.4-0.8,1.6c-0.7,0.2-1.4-0.1-1.6-0.8
											s0.1-1.4,0.8-1.6c0.1,0,0.3-0.1,0.4-0.1C31.1,7.8,31.6,8.2,31.7,8.7 M53.6,8.2L53.6,8.2c0.7,0.2,1,1,0.8,1.6
											c-0.2,0.7-1,1-1.6,0.8c-0.7-0.2-1-1-0.8-1.6c0.2-0.5,0.7-0.8,1.2-0.8C53.3,8.1,53.5,8.2,53.6,8.2 M26.3,10.7
											c0.3,0.6,0.1,1.4-0.5,1.7s-1.4,0.1-1.7-0.5c-0.3-0.6-0.1-1.4,0.5-1.7c0.2-0.1,0.4-0.1,0.6-0.1
											C25.7,10.1,26.1,10.3,26.3,10.7 M59.1,10.7c0.6,0.3,0.8,1.1,0.5,1.7c-0.3,0.6-1.1,0.8-1.7,0.5c-0.6-0.3-0.8-1.1-0.5-1.7
											c0.2-0.4,0.7-0.6,1.1-0.6C58.7,10.5,58.9,10.6,59.1,10.7 M21.4,13.6c0.4,0.6,0.3,1.3-0.2,1.8l0,0
											c-0.6,0.4-1.3,0.3-1.8-0.2c-0.4-0.6-0.3-1.3,0.2-1.8l0,0c0.2-0.2,0.5-0.3,0.8-0.3C20.7,13.1,21.1,13.3,21.4,13.6 M64,14
											c0.5,0.4,0.6,1.2,0.2,1.8c-0.4,0.5-1.2,0.6-1.8,0.2c-0.5-0.4-0.6-1.2-0.2-1.8c0.2-0.3,0.6-0.5,1-0.5
											C63.5,13.8,63.8,13.9,64,14 M16.9,17.3c0.5,0.5,0.5,1.3,0,1.8s-1.3,0.5-1.8,0s-0.5-1.3,0-1.8c0.2-0.3,0.6-0.4,0.9-0.4
											C16.4,17,16.7,17.1,16.9,17.3 M68.3,18.2L68.3,18.2c0.5,0.5,0.4,1.3-0.1,1.8s-1.3,0.4-1.8-0.1s-0.4-1.3,0.1-1.8
											c0.2-0.2,0.5-0.3,0.8-0.3C67.7,17.7,68.1,17.9,68.3,18.2 M13.1,21.7c0.6,0.4,0.7,1.2,0.3,1.7c-0.4,0.6-1.2,0.7-1.7,0.3
											c-0.6-0.4-0.7-1.2-0.3-1.7c0.2-0.4,0.6-0.6,1-0.6C12.7,21.5,12.9,21.5,13.1,21.7 M71.9,22.9c0.4,0.6,0.2,1.4-0.4,1.7
											c-0.6,0.4-1.4,0.2-1.7-0.4c-0.4-0.6-0.2-1.4,0.4-1.7c0.2-0.1,0.4-0.2,0.7-0.2C71.3,22.3,71.7,22.5,71.9,22.9 M10.1,26.6
											c0.6,0.3,0.9,1,0.6,1.7l0,0c-0.3,0.6-1,0.9-1.7,0.6c-0.6-0.3-0.9-1-0.6-1.7c0.2-0.5,0.7-0.7,1.1-0.7
											C9.8,26.5,10,26.5,10.1,26.6 M74.7,28.2c0.3,0.6,0,1.4-0.7,1.6c-0.6,0.3-1.4,0-1.6-0.7c-0.3-0.6,0-1.4,0.7-1.6
											c0.2-0.1,0.3-0.1,0.5-0.1C74,27.4,74.5,27.7,74.7,28.2 M8,32c0.7,0.2,1.1,0.9,0.9,1.5c-0.2,0.7-0.9,1.1-1.5,0.9
											c-0.7-0.2-1.1-0.9-0.9-1.5S7.2,32,7.7,32C7.8,31.9,7.9,31.9,8,32 M76.6,33.9L76.6,33.9c0.2,0.7-0.3,1.3-0.9,1.5
											c-0.7,0.2-1.3-0.3-1.5-0.9c-0.2-0.7,0.3-1.3,0.9-1.5c0.1,0,0.2,0,0.3,0C75.9,32.9,76.4,33.3,76.6,33.9 M6.8,37.6
											C7.5,37.7,8,38.3,7.9,39s-0.7,1.2-1.4,1.1c-0.7-0.1-1.2-0.7-1.1-1.4c0.1-0.6,0.6-1.1,1.2-1.1C6.7,37.6,6.7,37.6,6.8,37.6
											 M77.5,39.8L77.5,39.8L77.5,39.8C77.5,39.8,77.5,39.9,77.5,39.8c0.1,0.8-0.5,1.4-1.2,1.4S75,40.7,75,40l0,0l0,0
											c0-0.7,0.5-1.3,1.2-1.3h0.1C76.9,38.6,77.4,39.1,77.5,39.8 M7.8,44.5c0,0.7-0.5,1.3-1.2,1.3s-1.3-0.5-1.3-1.2
											s0.5-1.3,1.2-1.3h0.1C7.2,43.4,7.8,43.9,7.8,44.5 M76.2,44.5c0.7,0.1,1.2,0.7,1.1,1.4c0,0.6-0.6,1.1-1.3,1.1
											c-0.7-0.1-1.2-0.7-1.1-1.4C75,45,75.5,44.5,76.2,44.5C76.2,44.5,76.2,44.5,76.2,44.5 M8.6,50c0.2,0.7-0.3,1.3-0.9,1.5
											c-0.7,0.2-1.3-0.3-1.5-0.9c-0.2-0.7,0.3-1.3,0.9-1.5c0.1,0,0.2,0,0.3,0C8,49.1,8.5,49.4,8.6,50 M75.4,50.2
											c0.7,0.2,1.1,0.9,0.9,1.5l0,0c-0.2,0.7-0.9,1.1-1.5,0.9c-0.7-0.2-1.1-0.9-0.9-1.5s0.7-0.9,1.2-0.9
											C75.2,50.1,75.3,50.1,75.4,50.2 M10.3,55.3c0.3,0.6,0,1.4-0.7,1.6c-0.6,0.3-1.4,0-1.6-0.7c-0.3-0.6,0-1.4,0.7-1.6
											c0.2-0.1,0.3-0.1,0.5-0.1C9.7,54.5,10.1,54.8,10.3,55.3 M73.6,55.7c0.6,0.3,0.9,1,0.6,1.7c-0.3,0.6-1,0.9-1.7,0.6
											c-0.6-0.3-0.9-1-0.6-1.7c0.2-0.5,0.7-0.7,1.1-0.7C73.3,55.6,73.5,55.6,73.6,55.7 M12.9,60.2L12.9,60.2
											c0.4,0.6,0.2,1.4-0.4,1.7c-0.6,0.4-1.4,0.2-1.7-0.4c-0.4-0.6-0.2-1.4,0.4-1.7c0.2-0.1,0.4-0.2,0.7-0.2
											C12.3,59.6,12.7,59.9,12.9,60.2 M71,60.8c0.6,0.4,0.7,1.2,0.3,1.7c-0.4,0.6-1.2,0.7-1.7,0.3c-0.6-0.4-0.7-1.2-0.3-1.7
											c0.2-0.4,0.6-0.5,1-0.5C70.5,60.6,70.8,60.6,71,60.8 M16.3,64.7c0.5,0.5,0.4,1.3-0.1,1.8s-1.3,0.4-1.8-0.1
											s-0.4-1.3,0.1-1.8c0.2-0.2,0.5-0.3,0.8-0.3C15.7,64.2,16,64.4,16.3,64.7 M67.5,65.4c0.5,0.5,0.5,1.3,0,1.8s-1.3,0.5-1.8,0
											s-0.5-1.3,0-1.8l0,0c0.2-0.3,0.6-0.4,0.9-0.4C67,65.1,67.3,65.2,67.5,65.4 M20.3,68.5c0.5,0.4,0.6,1.2,0.2,1.8
											c-0.4,0.5-1.2,0.6-1.8,0.2c-0.5-0.4-0.6-1.2-0.2-1.8c0.2-0.3,0.6-0.5,1-0.5C19.8,68.2,20.1,68.3,20.3,68.5 M63.4,69.4
											c0.4,0.6,0.3,1.3-0.2,1.8c-0.6,0.4-1.3,0.3-1.8-0.2c-0.4-0.6-0.3-1.3,0.2-1.8c0.2-0.2,0.5-0.3,0.8-0.3
											C62.8,68.9,63.1,69.1,63.4,69.4 M24.9,71.6L24.9,71.6c0.6,0.3,0.8,1.1,0.5,1.7s-1.1,0.8-1.7,0.5s-0.8-1.1-0.5-1.7
											c0.2-0.4,0.7-0.6,1.1-0.6C24.5,71.4,24.7,71.5,24.9,71.6 M58.6,72.7c0.3,0.6,0.1,1.4-0.5,1.7c-0.6,0.3-1.4,0.1-1.7-0.5
											s-0.1-1.4,0.5-1.7c0.2-0.1,0.4-0.1,0.6-0.1C58,72,58.4,72.2,58.6,72.7 M29.9,73.9L29.9,73.9c0.7,0.2,1,1,0.8,1.6
											s-1,1-1.6,0.7l0,0c-0.7-0.2-1-1-0.8-1.6c0.2-0.5,0.7-0.8,1.2-0.8C29.7,73.8,29.8,73.9,29.9,73.9 M53.4,75.1
											c0.2,0.7-0.1,1.4-0.8,1.6s-1.4-0.1-1.6-0.8c-0.2-0.7,0.1-1.4,0.8-1.6c0.1,0,0.3-0.1,0.4-0.1
											C52.7,74.2,53.2,74.5,53.4,75.1 M35.3,75.4c0.7,0.1,1.1,0.8,1,1.5s-0.8,1.1-1.5,1s-1.1-0.8-1-1.5c0.1-0.6,0.6-1,1.2-1
											C35.2,75.4,35.2,75.4,35.3,75.4 M47.8,76.6c0.1,0.7-0.4,1.3-1.1,1.4c-0.7,0.1-1.3-0.4-1.4-1.1c-0.1-0.7,0.4-1.3,1.1-1.4
											c0.1,0,0.1,0,0.2,0C47.2,75.5,47.7,76,47.8,76.6 M40.8,75.9L40.8,75.9c0.7,0,1.2,0.6,1.2,1.3c0,0.7-0.6,1.2-1.3,1.2
											s-1.2-0.6-1.2-1.3C39.6,76.5,40.1,75.9,40.8,75.9L40.8,75.9z"/>
									</g>
								</g>
							</g>
							<g>
								<defs>
									<rect id="SVGID_13_" x="1" y="2" width="80.8" height="38.9"/>
								</defs>
								<clipPath id="SVGID_14_">
									<use xlink:href="#SVGID_13_"  style="overflow:visible;"/>
								</clipPath>
								<g class="st8">
									<g>
										<g class="st9">
											<defs>
												<rect id="SVGID_15_" x="9.2" y="10.1" class="st9" width="64.3" height="64.2"/>
											</defs>
											<clipPath id="SVGID_16_">
												<use xlink:href="#SVGID_15_"  style="overflow:visible;"/>
											</clipPath>
											<g class="st10">
												<g>
													<defs>
														<rect id="SVGID_17_" x="9.2" y="10.1" width="64.3" height="64.2"/>
													</defs>
													<clipPath id="SVGID_18_">
														<use xlink:href="#SVGID_17_"  style="overflow:visible;"/>
													</clipPath>
													<path class="st11" d="M40.8,11.3c0,0.7-0.5,1.3-1.2,1.3s-1.3-0.5-1.3-1.2s0.5-1.3,1.2-1.3h0.1
														C40.2,10.1,40.8,10.6,40.8,11.3 M44.8,10.3c0.7,0.1,1.2,0.7,1.1,1.4c-0.1,0.7-0.7,1.2-1.4,1.1
														c-0.7-0.1-1.2-0.7-1.1-1.4c0.1-0.6,0.6-1.1,1.2-1.1C44.7,10.3,44.8,10.3,44.8,10.3 M35.8,11.8c0.2,0.7-0.3,1.3-0.9,1.5
														c-0.7,0.2-1.3-0.3-1.5-0.9c-0.2-0.7,0.3-1.3,0.9-1.5c0.1,0,0.2,0,0.3,0C35.1,10.8,35.6,11.2,35.8,11.8 M50.1,11.3
														L50.1,11.3c0.7,0.2,1,0.9,0.9,1.5c-0.2,0.7-0.9,1-1.5,0.9c-0.7-0.2-1.1-0.9-0.9-1.5c0.2-0.6,0.7-0.9,1.2-0.9
														C49.8,11.2,49.9,11.2,50.1,11.3 M30.8,13.2c0.3,0.6,0,1.4-0.7,1.6l0,0c-0.6,0.3-1.4,0-1.6-0.7c-0.3-0.6,0-1.4,0.7-1.6
														c0.2-0.1,0.3-0.1,0.5-0.1C30.2,12.4,30.6,12.7,30.8,13.2 M55,13.1L55,13.1c0.6,0.3,0.9,1,0.6,1.7
														c-0.3,0.6-1,0.9-1.7,0.6c-0.6-0.3-0.9-1-0.6-1.7c0.2-0.5,0.7-0.7,1.1-0.7C54.7,13,54.9,13,55,13.1 M26.2,15.3
														c0.4,0.6,0.2,1.4-0.4,1.7c-0.6,0.4-1.4,0.2-1.7-0.4c-0.4-0.6-0.2-1.4,0.4-1.7c0.2-0.1,0.4-0.2,0.7-0.2
														C25.5,14.7,25.9,14.9,26.2,15.3 M59.6,15.8L59.6,15.8c0.6,0.4,0.7,1.2,0.3,1.7c-0.4,0.6-1.2,0.7-1.7,0.3
														c-0.6-0.4-0.7-1.2-0.3-1.7c0.2-0.4,0.6-0.5,1-0.5C59.2,15.5,59.4,15.6,59.6,15.8 M21.9,18.2c0.5,0.5,0.4,1.3-0.1,1.8
														s-1.3,0.4-1.8-0.1s-0.4-1.3,0.1-1.8c0.2-0.2,0.5-0.3,0.8-0.3C21.4,17.7,21.7,17.9,21.9,18.2 M63.8,19.1
														c0.5,0.5,0.5,1.3,0,1.8c-0.5,0.5-1.3,0.5-1.8,0s-0.5-1.3,0-1.8c0.2-0.3,0.6-0.4,0.9-0.4C63.2,18.8,63.5,18.9,63.8,19.1
														 M18.2,21.7c0.5,0.4,0.6,1.2,0.2,1.8c-0.4,0.5-1.2,0.6-1.8,0.2c-0.5-0.4-0.6-1.2-0.2-1.8c0.2-0.3,0.6-0.5,1-0.5
														C17.7,21.4,18,21.5,18.2,21.7 M67.3,23.1c0.4,0.6,0.3,1.3-0.3,1.7c-0.6,0.4-1.3,0.3-1.7-0.3c-0.4-0.6-0.3-1.3,0.3-1.7
														c0.2-0.2,0.5-0.2,0.7-0.2C66.6,22.6,67,22.8,67.3,23.1 M15.2,25.8c0.6,0.3,0.8,1.1,0.5,1.7l0,0
														c-0.3,0.6-1.1,0.8-1.7,0.5c-0.6-0.3-0.8-1.1-0.5-1.7c0.2-0.4,0.7-0.6,1.1-0.6C14.8,25.6,15,25.7,15.2,25.8 M70.1,27.6
														L70.1,27.6c0.3,0.6,0.1,1.4-0.5,1.7c-0.6,0.3-1.4,0.1-1.7-0.5c-0.3-0.6-0.1-1.4,0.5-1.7C68.6,27,68.8,27,69,27
														C69.4,27,69.8,27.2,70.1,27.6 M12.8,30.3c0.6,0.2,1,1,0.7,1.6c-0.2,0.6-1,1-1.6,0.7c-0.6-0.2-1-1-0.7-1.6
														c0.2-0.5,0.7-0.8,1.2-0.8C12.5,30.2,12.7,30.3,12.8,30.3 M72.1,32.6c0.2,0.7-0.2,1.4-0.8,1.6c-0.7,0.2-1.4-0.2-1.6-0.8
														c-0.2-0.7,0.2-1.4,0.8-1.6c0.1,0,0.2-0.1,0.4-0.1C71.4,31.7,71.9,32,72.1,32.6 M11.2,35.2c0.7,0.1,1.1,0.8,1,1.5
														s-0.8,1.1-1.5,1s-1.1-0.8-1-1.5c0.1-0.6,0.6-1,1.2-1C11.1,35.2,11.2,35.2,11.2,35.2 M73.2,37.7L73.2,37.7L73.2,37.7
														c0.1,0.7-0.4,1.3-1.1,1.4c-0.7,0.1-1.3-0.4-1.4-1.1l0,0l0,0l0,0l0,0c-0.1-0.7,0.4-1.3,1.1-1.4c0.1,0,0.1,0,0.2,0
														C72.6,36.7,73.1,37.1,73.2,37.7 M10.5,40.2c0.7,0,1.2,0.6,1.2,1.3l0,0c0,0.7-0.6,1.2-1.3,1.2s-1.2-0.6-1.2-1.3l0,0
														C9.2,40.8,9.8,40.2,10.5,40.2L10.5,40.2z M72.3,41.8c0.7,0,1.2,0.6,1.2,1.3l0,0c0,0.7-0.6,1.2-1.3,1.2
														c-0.7,0-1.2-0.6-1.2-1.3C71.1,42.3,71.6,41.8,72.3,41.8L72.3,41.8z M12,46.4c0.1,0.7-0.4,1.3-1.1,1.4
														c-0.7,0.1-1.3-0.4-1.4-1.1c-0.1-0.7,0.4-1.3,1.1-1.4c0.1,0,0.1,0,0.2,0C11.4,45.3,11.9,45.8,12,46.4 M72,46.9
														c0.7,0.1,1.1,0.8,1,1.5s-0.8,1.1-1.5,1s-1.1-0.8-1-1.5c0.1-0.6,0.6-1,1.2-1C71.8,46.9,71.9,46.9,72,46.9 M13.1,51.2
														c0.2,0.7-0.2,1.4-0.8,1.6c-0.7,0.2-1.4-0.2-1.6-0.8c-0.2-0.7,0.2-1.4,0.8-1.6c0.1,0,0.2-0.1,0.4-0.1
														C12.4,50.3,12.9,50.7,13.1,51.2 M70.8,51.9c0.6,0.2,1,1,0.7,1.6c-0.2,0.6-1,1-1.6,0.7c-0.6-0.2-1-1-0.7-1.6
														c0.2-0.5,0.7-0.8,1.2-0.8C70.5,51.8,70.7,51.8,70.8,51.9 M14.9,55.7c0.3,0.6,0.1,1.4-0.5,1.7s-1.4,0.1-1.7-0.5
														s-0.1-1.4,0.5-1.7c0.2-0.1,0.4-0.1,0.6-0.1C14.3,55.1,14.7,55.3,14.9,55.7 M68.8,56.6c0.6,0.3,0.8,1.1,0.5,1.7
														c-0.3,0.6-1.1,0.8-1.7,0.5s-0.8-1.1-0.5-1.7c0.2-0.4,0.7-0.6,1.1-0.6C68.4,56.4,68.6,56.5,68.8,56.6 M17.5,59.9
														c0.4,0.6,0.3,1.3-0.3,1.7c-0.6,0.4-1.3,0.3-1.7-0.3s-0.3-1.3,0.3-1.7c0.2-0.2,0.5-0.2,0.7-0.2
														C16.9,59.4,17.3,59.6,17.5,59.9 M66.1,60.9c0.5,0.4,0.6,1.2,0.2,1.8c-0.4,0.5-1.2,0.6-1.8,0.2
														c-0.5-0.4-0.6-1.2-0.2-1.8c0.2-0.3,0.6-0.5,1-0.5C65.6,60.6,65.9,60.7,66.1,60.9 M20.7,63.6L20.7,63.6
														c0.5,0.5,0.5,1.3,0,1.8c-0.5,0.5-1.3,0.5-1.8,0s-0.5-1.3,0-1.8c0.2-0.3,0.6-0.4,0.9-0.4C20.2,63.2,20.5,63.4,20.7,63.6
														 M62.7,64.7c0.5,0.5,0.4,1.3-0.1,1.8s-1.3,0.4-1.8-0.1s-0.4-1.3,0.1-1.8c0.2-0.2,0.5-0.3,0.8-0.3
														C62.1,64.3,62.4,64.4,62.7,64.7 M24.5,66.7c0.6,0.4,0.7,1.2,0.3,1.7c-0.4,0.6-1.2,0.7-1.7,0.3
														c-0.6-0.4-0.7-1.2-0.3-1.7c0.2-0.4,0.6-0.5,1-0.5C24.1,66.5,24.3,66.5,24.5,66.7 M58.7,67.9c0.4,0.6,0.2,1.4-0.4,1.7
														c-0.6,0.4-1.4,0.2-1.7-0.4c-0.4-0.6-0.2-1.4,0.4-1.7c0.2-0.1,0.4-0.2,0.7-0.2C58.1,67.3,58.5,67.5,58.7,67.9
														 M28.8,69.1c0.6,0.3,0.9,1,0.6,1.7c-0.3,0.6-1,0.9-1.7,0.6c-0.6-0.3-0.9-1-0.6-1.7c0.2-0.5,0.7-0.7,1.1-0.7
														C28.4,69,28.6,69.1,28.8,69.1 M54.3,70.4c0.3,0.6,0,1.4-0.7,1.6c-0.6,0.3-1.4,0-1.6-0.7c-0.3-0.6,0-1.4,0.7-1.6
														c0.2-0.1,0.3-0.1,0.5-0.1C53.6,69.6,54.1,69.9,54.3,70.4 M33.4,70.8c0.7,0.2,1.1,0.9,0.9,1.5c-0.2,0.7-0.9,1-1.5,0.9
														c-0.7-0.2-1-0.9-0.9-1.5c0.2-0.6,0.7-0.9,1.2-0.9C33.2,70.8,33.3,70.8,33.4,70.8 M49.4,72.1c0.2,0.7-0.3,1.3-0.9,1.5
														c-0.7,0.2-1.3-0.3-1.5-0.9c-0.2-0.7,0.3-1.3,0.9-1.5c0.1,0,0.2,0,0.3,0C48.8,71.2,49.3,71.6,49.4,72.1 M38.2,71.8
														c0.7,0.1,1.2,0.7,1.1,1.4c-0.1,0.7-0.7,1.2-1.4,1.1s-1.2-0.7-1.1-1.4c0.1-0.6,0.6-1.1,1.2-1.1
														C38.1,71.8,38.1,71.8,38.2,71.8 M44.4,73.1c0,0.7-0.5,1.3-1.2,1.3s-1.3-0.5-1.3-1.2s0.5-1.3,1.2-1.3h0.1
														C43.8,71.9,44.4,72.4,44.4,73.1"/>
												</g>
											</g>
										</g>
										<g>
											<defs>
												<rect id="SVGID_19_" x="1" y="2" width="80.8" height="38.9"/>
											</defs>
											<clipPath id="SVGID_20_">
												<use xlink:href="#SVGID_19_"  style="overflow:visible;"/>
											</clipPath>
											<g class="st12">
												<g>
													<g class="st13">
														<defs>
															<rect id="SVGID_21_" x="13" y="13.8" class="st13" width="56.8" height="56.8"/>
														</defs>
														<clipPath id="SVGID_22_">
															<use xlink:href="#SVGID_21_"  style="overflow:visible;"/>
														</clipPath>
														<g class="st14">
															<g>
																<defs>
																	<rect id="SVGID_23_" x="13" y="13.8" width="56.8" height="56.8"/>
																</defs>
																<clipPath id="SVGID_24_">
																	<use xlink:href="#SVGID_23_"  style="overflow:visible;"/>
																</clipPath>
																<path class="st15" d="M42.1,13.8c0.7,0,1.2,0.6,1.2,1.3s-0.6,1.2-1.3,1.2l0,0c-0.7,0-1.2-0.6-1.2-1.3
																	C40.9,14.4,41.4,13.8,42.1,13.8L42.1,13.8z M38.8,15.2c0.1,0.7-0.4,1.3-1.1,1.4c-0.7,0.1-1.3-0.4-1.4-1.1
																	c-0.1-0.7,0.4-1.3,1.1-1.4c0.1,0,0.1,0,0.2,0C38.2,14.1,38.8,14.5,38.8,15.2 M46.8,14.4c0.7,0.1,1.1,0.8,1,1.5
																	c-0.1,0.7-0.8,1.1-1.5,1s-1.1-0.8-1-1.5c0.1-0.6,0.6-1,1.2-1C46.6,14.3,46.7,14.3,46.8,14.4 M34.4,16
																	c0.2,0.7-0.2,1.4-0.8,1.6c-0.7,0.2-1.4-0.2-1.6-0.8c-0.2-0.7,0.2-1.4,0.8-1.6c0.1,0,0.2-0.1,0.4-0.1
																	C33.8,15.1,34.3,15.4,34.4,16 M51.3,15.6L51.3,15.6c0.6,0.2,1,1,0.7,1.6c-0.2,0.6-1,1-1.6,0.7c-0.6-0.2-1-1-0.7-1.6
																	c0.2-0.5,0.7-0.8,1.2-0.8C51,15.5,51.2,15.6,51.3,15.6 M30.2,17.5c0.3,0.6,0.1,1.4-0.5,1.7
																	c-0.6,0.3-1.4,0.1-1.7-0.5c-0.3-0.6-0.1-1.4,0.5-1.7c0.2-0.1,0.4-0.1,0.6-0.1C29.5,16.8,30,17,30.2,17.5 M55.6,17.6
																	L55.6,17.6c0.6,0.3,0.8,1.1,0.5,1.7s-1.1,0.8-1.7,0.5c-0.6-0.3-0.8-1.1-0.5-1.7c0.2-0.4,0.7-0.6,1.1-0.6
																	C55.2,17.5,55.4,17.5,55.6,17.6 M26.3,19.6c0.4,0.6,0.3,1.3-0.3,1.7c-0.6,0.4-1.3,0.3-1.7-0.3
																	c-0.4-0.6-0.3-1.3,0.3-1.7l0,0c0.2-0.2,0.5-0.2,0.7-0.2C25.6,19.1,26,19.3,26.3,19.6 M59.4,20.3
																	c0.5,0.4,0.6,1.2,0.2,1.7c-0.4,0.5-1.2,0.6-1.8,0.2c-0.5-0.4-0.6-1.2-0.2-1.7c0.2-0.3,0.6-0.5,1-0.5
																	C58.9,20,59.2,20.1,59.4,20.3 M22.7,22.4c0.5,0.5,0.5,1.3,0,1.8s-1.3,0.5-1.8,0s-0.5-1.3,0-1.8
																	c0.2-0.3,0.6-0.4,0.9-0.4C22.2,22.1,22.5,22.2,22.7,22.4 M62.8,23.6c0.5,0.5,0.4,1.3-0.1,1.8s-1.3,0.4-1.8-0.1
																	S60.5,24,61,23.5c0.2-0.2,0.5-0.3,0.8-0.3C62.2,23.1,62.5,23.3,62.8,23.6 M19.7,25.8c0.6,0.4,0.7,1.2,0.3,1.7
																	c-0.4,0.6-1.2,0.7-1.7,0.3c-0.6-0.4-0.7-1.2-0.3-1.7c0.2-0.3,0.6-0.5,1-0.5C19.3,25.6,19.5,25.6,19.7,25.8
																	 M65.6,27.3L65.6,27.3c0.4,0.6,0.2,1.4-0.4,1.7c-0.6,0.4-1.4,0.2-1.7-0.4c-0.4-0.6-0.2-1.4,0.4-1.7
																	c0.2-0.1,0.4-0.2,0.7-0.2C64.9,26.7,65.3,27,65.6,27.3 M17.3,29.6c0.6,0.3,0.9,1,0.6,1.7c-0.3,0.6-1,0.9-1.7,0.6
																	c-0.6-0.3-0.9-1-0.6-1.7c0.2-0.4,0.7-0.7,1.1-0.7C17,29.4,17.2,29.5,17.3,29.6 M67.7,31.5c0.3,0.6,0,1.4-0.7,1.6
																	c-0.6,0.3-1.4,0-1.6-0.7c-0.3-0.6,0-1.4,0.7-1.6c0.2-0.1,0.3-0.1,0.5-0.1C67,30.7,67.5,31,67.7,31.5 M15.6,33.7
																	c0.7,0.2,1,0.9,0.9,1.5c-0.2,0.7-0.9,1-1.5,0.9c-0.7-0.2-1-0.9-0.9-1.5l0,0c0.2-0.5,0.7-0.9,1.2-0.9
																	C15.3,33.6,15.4,33.7,15.6,33.7 M69.1,36L69.1,36L69.1,36L69.1,36L69.1,36c0.2,0.7-0.3,1.4-0.9,1.5
																	c-0.7,0.2-1.3-0.3-1.5-0.9l0,0l0,0c-0.2-0.7,0.3-1.3,0.9-1.5c0.1,0,0.2,0,0.3,0C68.5,35,69,35.4,69.1,36 M14.5,38.1
																	c0.7,0.1,1.2,0.7,1.1,1.4c-0.1,0.7-0.7,1.2-1.4,1.1c-0.7-0.1-1.2-0.7-1.1-1.4c0.1-0.6,0.6-1.1,1.2-1.1
																	C14.4,38,14.5,38.1,14.5,38.1 M69.8,40.7L69.8,40.7c0,0.7-0.5,1.3-1.2,1.3s-1.3-0.5-1.3-1.2s0.5-1.3,1.2-1.3
																	c0,0,0,0,0.1,0C69.2,39.5,69.7,40,69.8,40.7 M15.5,43.7L15.5,43.7c0,0.7-0.5,1.3-1.2,1.3S13,44.5,13,43.8
																	s0.5-1.3,1.2-1.3c0,0,0,0,0.1,0C14.9,42.5,15.4,43,15.5,43.7 M68.5,44c0.7,0.1,1.2,0.7,1.1,1.4s-0.7,1.2-1.4,1.1
																	c-0.7-0.1-1.2-0.7-1.1-1.4c0.1-0.6,0.6-1.1,1.2-1.1C68.4,44,68.5,44,68.5,44 M16.1,48L16.1,48
																	c0.2,0.7-0.3,1.3-0.9,1.5c-0.7,0.2-1.3-0.3-1.5-0.9c-0.2-0.7,0.3-1.3,0.9-1.5c0.1,0,0.2,0,0.3,0
																	C15.4,47,16,47.4,16.1,48 M67.9,48.4c0.7,0.2,1,0.9,0.9,1.5c-0.2,0.7-0.9,1-1.5,0.9c-0.7-0.2-1-0.9-0.9-1.5
																	c0.2-0.5,0.7-0.9,1.2-0.9C67.7,48.4,67.8,48.4,67.9,48.4 M17.4,52c0.3,0.6,0,1.4-0.7,1.6c-0.6,0.3-1.4,0-1.6-0.7
																	c-0.3-0.6,0-1.4,0.7-1.6c0.2-0.1,0.3-0.1,0.5-0.1C16.7,51.3,17.2,51.6,17.4,52 M66.5,52.7c0.6,0.3,0.9,1,0.6,1.7
																	c-0.3,0.6-1,0.9-1.7,0.6c-0.6-0.3-0.9-1-0.6-1.7c0.2-0.4,0.7-0.7,1.1-0.7C66.1,52.6,66.3,52.6,66.5,52.7 M19.3,55.9
																	L19.3,55.9c0.4,0.6,0.2,1.4-0.4,1.7c-0.6,0.4-1.4,0.2-1.7-0.4c-0.4-0.6-0.2-1.4,0.4-1.7c0.2-0.1,0.4-0.2,0.7-0.2
																	C18.7,55.3,19.1,55.5,19.3,55.9 M64.4,56.7c0.6,0.4,0.7,1.2,0.3,1.7c-0.4,0.6-1.2,0.7-1.7,0.3
																	c-0.6-0.4-0.7-1.2-0.3-1.7c0.2-0.3,0.6-0.5,1-0.5C64,56.5,64.2,56.6,64.4,56.7 M21.8,59.3c0.5,0.5,0.4,1.3-0.1,1.8
																	s-1.3,0.4-1.8-0.1s-0.4-1.3,0.1-1.8c0.2-0.2,0.5-0.3,0.8-0.3C21.2,58.9,21.6,59,21.8,59.3 M61.7,60.3
																	c0.5,0.5,0.5,1.3,0,1.8s-1.3,0.5-1.8,0s-0.5-1.3,0-1.8c0.2-0.3,0.6-0.4,0.9-0.4C61.2,60,61.5,60.1,61.7,60.3
																	 M24.9,62.3L24.9,62.3c0.5,0.4,0.6,1.2,0.2,1.7s-1.2,0.6-1.8,0.2c-0.5-0.4-0.6-1.2-0.2-1.8c0.2-0.3,0.6-0.5,1-0.5
																	C24.4,62,24.7,62.1,24.9,62.3 M58.5,63.4c0.4,0.6,0.3,1.3-0.3,1.7s-1.3,0.3-1.7-0.3c-0.4-0.6-0.3-1.3,0.3-1.7
																	c0.2-0.2,0.5-0.2,0.7-0.2C57.9,62.9,58.3,63.1,58.5,63.4 M28.4,64.7c0.6,0.3,0.8,1.1,0.5,1.7s-1.1,0.8-1.7,0.5
																	s-0.8-1.1-0.5-1.7c0.2-0.4,0.7-0.6,1.1-0.6C28,64.6,28.2,64.6,28.4,64.7 M54.8,65.9c0.3,0.6,0.1,1.4-0.5,1.7
																	c-0.6,0.3-1.4,0.1-1.7-0.5s-0.1-1.4,0.5-1.7c0.2-0.1,0.4-0.1,0.6-0.1C54.1,65.3,54.6,65.5,54.8,65.9 M32.3,66.6
																	L32.3,66.6c0.6,0.2,1,1,0.7,1.6c-0.2,0.6-1,1-1.6,0.7c-0.6-0.2-1-1-0.7-1.6c0.2-0.5,0.7-0.8,1.2-0.8
																	C32,66.5,32.2,66.5,32.3,66.6 M50.7,67.8c0.2,0.7-0.2,1.4-0.8,1.6c-0.7,0.2-1.4-0.2-1.6-0.8
																	c-0.2-0.7,0.2-1.4,0.8-1.6c0.1,0,0.2-0.1,0.4-0.1C50,66.9,50.5,67.3,50.7,67.8 M36.4,67.7c0.7,0.1,1.1,0.8,1,1.5
																	s-0.8,1.1-1.5,1s-1.1-0.8-1-1.5c0.1-0.6,0.6-1,1.2-1C36.3,67.7,36.4,67.7,36.4,67.7 M46.4,69
																	c0.1,0.7-0.4,1.3-1.1,1.4c-0.7,0.1-1.3-0.4-1.4-1.1c-0.1-0.7,0.4-1.3,1.1-1.4c0.1,0,0.1,0,0.2,0
																	C45.7,67.9,46.3,68.4,46.4,69 M40.7,68.2c0.7,0,1.2,0.6,1.2,1.3c0,0.7-0.6,1.2-1.3,1.2s-1.2-0.6-1.2-1.3
																	C39.4,68.7,40,68.2,40.7,68.2L40.7,68.2z"/>
															</g>
														</g>
													</g>
													<g>
														<defs>
															<rect id="SVGID_25_" x="1" y="2" width="80.8" height="38.9"/>
														</defs>
														<clipPath id="SVGID_26_">
															<use xlink:href="#SVGID_25_"  style="overflow:visible;"/>
														</clipPath>
														<g class="st16">
															<g class="st17">
																<g class="st18">
																	<defs>
																		<rect id="SVGID_27_" x="16.7" y="17.6" class="st18" width="49.3" height="49.3"/>
																	</defs>
																	<clipPath id="SVGID_28_">
																		<use xlink:href="#SVGID_27_"  style="overflow:visible;"/>
																	</clipPath>
																	<g class="st19">
																		<g>
																			<defs>
																				<rect id="SVGID_29_" x="16.7" y="17.6" width="49.3" height="49.3"/>
																			</defs>
																			<clipPath id="SVGID_30_">
																				<use xlink:href="#SVGID_29_"  style="overflow:visible;"/>
																			</clipPath>
																			<path class="st20" d="M41.8,18.8c0,0.7-0.5,1.3-1.2,1.3s-1.3-0.5-1.3-1.2s0.5-1.3,1.2-1.3c0,0,0,0,0.1,0
																				C41.2,17.6,41.7,18.1,41.8,18.8 M44.5,17.8c0.7,0.1,1.2,0.7,1.1,1.4c-0.1,0.7-0.7,1.2-1.4,1.1l0,0
																				c-0.7-0.1-1.2-0.7-1.1-1.4c0.1-0.6,0.6-1.1,1.3-1.1C44.4,17.8,44.5,17.8,44.5,17.8 M37.9,19.1
																				c0.1,0.7-0.3,1.4-1,1.5l0,0c-0.7,0.1-1.4-0.3-1.5-1s0.3-1.4,1-1.5c0.1,0,0.2,0,0.3,0
																				C37.3,18.1,37.8,18.5,37.9,19.1 M48.5,18.6c0.7,0.2,1.1,0.9,0.8,1.6c-0.2,0.7-0.9,1.1-1.6,0.9
																				c-0.7-0.2-1.1-0.9-0.8-1.6c0.2-0.6,0.7-0.9,1.2-0.9C48.3,18.6,48.4,18.6,48.5,18.6 M34.1,20
																				c0.3,0.7-0.1,1.4-0.7,1.6c-0.7,0.3-1.4-0.1-1.6-0.7c-0.3-0.7,0.1-1.4,0.7-1.6c0.2-0.1,0.3-0.1,0.5-0.1
																				C33.5,19.2,33.9,19.5,34.1,20 M52.3,20.1c0.6,0.3,0.9,1.1,0.6,1.7c-0.3,0.6-1.1,0.9-1.7,0.6
																				c-0.6-0.3-0.9-1.1-0.6-1.7c0.2-0.5,0.7-0.7,1.1-0.7C51.9,20,52.1,20,52.3,20.1 M30.6,21.5
																				c0.4,0.6,0.2,1.4-0.5,1.7c-0.6,0.4-1.4,0.2-1.7-0.4c-0.4-0.6-0.2-1.4,0.5-1.7c0.2-0.1,0.4-0.2,0.6-0.2
																				C29.9,20.8,30.3,21.1,30.6,21.5 M55.8,22.2L55.8,22.2c0.6,0.4,0.7,1.2,0.3,1.8c-0.4,0.6-1.2,0.7-1.8,0.3
																				c-0.6-0.4-0.7-1.2-0.3-1.8c0.2-0.3,0.6-0.5,1-0.5C55.3,22,55.6,22.1,55.8,22.2 M27.3,23.5
																				c0.5,0.5,0.4,1.3-0.2,1.8c-0.5,0.5-1.3,0.4-1.8-0.2c-0.5-0.5-0.4-1.3,0.2-1.8c0.2-0.2,0.5-0.3,0.8-0.3
																				C26.7,23.1,27,23.2,27.3,23.5 M58.9,24.9c0.5,0.5,0.5,1.3,0,1.8s-1.3,0.5-1.8,0s-0.5-1.3,0-1.8
																				c0.2-0.2,0.6-0.4,0.9-0.4C58.3,24.5,58.6,24.6,58.9,24.9 M24.4,26.1c0.5,0.5,0.6,1.3,0.1,1.8s-1.3,0.6-1.8,0.1
																				s-0.6-1.3-0.1-1.8c0.3-0.3,0.6-0.4,1-0.4C23.9,25.8,24.2,25.9,24.4,26.1 M61.5,28c0.4,0.6,0.3,1.4-0.3,1.8
																				s-1.4,0.3-1.8-0.3c-0.4-0.6-0.3-1.4,0.3-1.8c0.2-0.2,0.5-0.2,0.7-0.2C60.9,27.4,61.3,27.6,61.5,28 M22,29.1
																				c0.6,0.4,0.8,1.1,0.4,1.7s-1.1,0.8-1.7,0.4s-0.8-1.1-0.4-1.7c0.2-0.4,0.7-0.6,1.1-0.6C21.5,28.9,21.8,29,22,29.1
																				 M63.6,31.5c0.3,0.6,0,1.4-0.6,1.7s-1.4,0-1.7-0.6c-0.3-0.6,0-1.4,0.6-1.7c0.2-0.1,0.4-0.1,0.6-0.1
																				C62.9,30.8,63.4,31,63.6,31.5 M20.1,32.5c0.7,0.3,1,1,0.7,1.7s-1,1-1.7,0.7s-1-1-0.7-1.7
																				c0.2-0.5,0.7-0.8,1.2-0.8C19.8,32.4,19.9,32.4,20.1,32.5 M65.1,35.3L65.1,35.3c0.2,0.7-0.2,1.4-0.9,1.6
																				c-0.7,0.2-1.4-0.2-1.6-0.9l0,0l0,0c-0.2-0.7,0.2-1.4,0.9-1.6c0.1,0,0.2-0.1,0.4-0.1
																				C64.4,34.4,64.9,34.7,65.1,35.3 M18.8,36.1c0.7,0.1,1.1,0.8,1,1.5s-0.8,1.1-1.5,1c-0.7-0.2-1.1-0.8-1-1.5
																				c0.1-0.6,0.7-1,1.2-1C18.6,36.1,18.7,36.1,18.8,36.1 M65.9,39.3L65.9,39.3c0.1,0.7-0.4,1.3-1.1,1.4
																				c-0.7,0.1-1.3-0.4-1.4-1.1c-0.1-0.7,0.4-1.3,1.1-1.4c0.1,0,0.1,0,0.2,0C65.3,38.2,65.8,38.7,65.9,39.3
																				 M18.1,39.9c0.7,0,1.2,0.6,1.2,1.3s-0.6,1.2-1.3,1.2c-0.7,0-1.2-0.6-1.2-1.3C16.8,40.5,17.3,39.9,18.1,39.9
																				L18.1,39.9z M64.8,42.1c0.7,0,1.2,0.6,1.2,1.3s-0.6,1.2-1.3,1.2c-0.7,0-1.2-0.6-1.2-1.3
																				C63.5,42.6,64.1,42.1,64.8,42.1L64.8,42.1z M19.4,44.9L19.4,44.9c0.1,0.7-0.4,1.3-1.1,1.4
																				c-0.7,0.1-1.3-0.4-1.4-1.1c-0.1-0.7,0.4-1.3,1.1-1.4c0.1,0,0.1,0,0.2,0C18.8,43.8,19.3,44.3,19.4,44.9
																				 M64.5,45.9c0.7,0.2,1.1,0.8,1,1.5s-0.8,1.1-1.5,1c-0.7-0.1-1.1-0.8-1-1.5c0.1-0.6,0.7-1,1.2-1
																				C64.4,45.9,64.4,45.9,64.5,45.9 M20.2,48.5c0.2,0.7-0.2,1.4-0.9,1.6c-0.7,0.2-1.4-0.2-1.6-0.9s0.2-1.4,0.9-1.6
																				c0.1,0,0.2-0.1,0.4-0.1C19.5,47.6,20,47.9,20.2,48.5 M63.6,49.7c0.7,0.3,1,1,0.7,1.7c-0.3,0.7-1,1-1.7,0.7
																				s-1-1-0.7-1.7c0.2-0.5,0.7-0.8,1.2-0.8C63.3,49.6,63.5,49.6,63.6,49.7 M21.5,51.9c0.3,0.6,0,1.4-0.6,1.7
																				s-1.4,0-1.7-0.6c-0.3-0.6,0-1.4,0.6-1.7c0.2-0.1,0.4-0.1,0.6-0.1C20.8,51.2,21.2,51.4,21.5,51.9 M62.1,53.2
																				c0.6,0.4,0.8,1.1,0.4,1.7c-0.4,0.6-1.1,0.8-1.7,0.4c-0.6-0.4-0.8-1.1-0.4-1.7c0.2-0.4,0.7-0.6,1.1-0.6
																				C61.7,53,61.9,53.1,62.1,53.2 M23.3,55c0.4,0.6,0.3,1.4-0.3,1.8c-0.6,0.4-1.4,0.3-1.8-0.3s-0.3-1.4,0.3-1.8
																				c0.2-0.2,0.5-0.2,0.7-0.2C22.7,54.5,23.1,54.7,23.3,55 M60,56.5c0.5,0.5,0.6,1.3,0.1,1.8s-1.3,0.6-1.8,0.1
																				s-0.6-1.3-0.1-1.8c0.3-0.3,0.6-0.4,1-0.4C59.5,56.2,59.8,56.3,60,56.5 M25.7,57.8c0.5,0.5,0.5,1.3,0,1.8
																				s-1.3,0.5-1.8,0s-0.5-1.3,0-1.8c0.2-0.2,0.6-0.4,0.9-0.4C25.1,57.5,25.4,57.6,25.7,57.8 M57.4,59.4
																				c0.5,0.5,0.4,1.3-0.2,1.8c-0.5,0.5-1.3,0.4-1.8-0.2c-0.5-0.5-0.4-1.3,0.2-1.8c0.2-0.2,0.5-0.3,0.8-0.3
																				C56.8,58.9,57.2,59.1,57.4,59.4 M28.5,60.2c0.6,0.4,0.7,1.2,0.3,1.8c-0.4,0.6-1.2,0.7-1.8,0.3
																				c-0.6-0.4-0.7-1.2-0.3-1.8c0.2-0.3,0.6-0.5,1-0.5C28,60,28.2,60,28.5,60.2 M54.4,61.8c0.4,0.6,0.2,1.4-0.5,1.7
																				c-0.6,0.4-1.4,0.2-1.7-0.5c-0.4-0.6-0.2-1.4,0.5-1.7c0.2-0.1,0.4-0.2,0.6-0.2C53.7,61.1,54.1,61.4,54.4,61.8
																				 M31.6,62.1c0.6,0.3,0.9,1.1,0.6,1.7c-0.3,0.6-1.1,0.9-1.7,0.6c-0.6-0.3-0.9-1.1-0.6-1.7
																				c0.2-0.5,0.7-0.7,1.1-0.7C31.2,62,31.4,62,31.6,62.1 M51,63.6c0.3,0.7-0.1,1.4-0.7,1.6c-0.7,0.3-1.4-0.1-1.6-0.7
																				c-0.3-0.7,0.1-1.4,0.7-1.6c0.2-0.1,0.3-0.1,0.5-0.1C50.3,62.8,50.8,63.1,51,63.6 M35,63.4
																				c0.7,0.2,1.1,0.9,0.9,1.6c-0.2,0.7-0.9,1.1-1.6,0.8c-0.7-0.2-1.1-0.9-0.8-1.6c0.2-0.6,0.7-0.9,1.2-0.9
																				C34.7,63.4,34.9,63.4,35,63.4 M47.3,64.9c0.1,0.7-0.3,1.4-1,1.5s-1.4-0.3-1.5-1c-0.1-0.7,0.3-1.4,1-1.5
																				c0.1,0,0.2,0,0.3,0C46.7,63.9,47.2,64.3,47.3,64.9 M38.6,64.2c0.7,0.1,1.2,0.7,1.1,1.4c-0.1,0.7-0.7,1.2-1.4,1.1
																				s-1.2-0.7-1.1-1.4c0.1-0.6,0.6-1.1,1.3-1.1C38.4,64.2,38.5,64.2,38.6,64.2 M43.5,65.6c0,0.7-0.5,1.3-1.2,1.3
																				S41,66.4,41,65.7s0.5-1.3,1.2-1.3l0,0C42.9,64.4,43.5,64.9,43.5,65.6"/>
																		</g>
																	</g>
																</g>
																<g>
																	<defs>
																		<rect id="SVGID_31_" x="1" y="2" width="80.8" height="38.9"/>
																	</defs>
																	<clipPath id="SVGID_32_">
																		<use xlink:href="#SVGID_31_"  style="overflow:visible;"/>
																	</clipPath>
																	<path class="st21" d="M42.6,21.5L42.6,21.5c0.7,0,1.2,0.6,1.2,1.3c0,0.7-0.6,1.2-1.3,1.2s-1.2-0.6-1.2-1.3
																		C41.3,22,41.8,21.5,42.6,21.5C42.5,21.5,42.6,21.5,42.6,21.5 M40.6,22.7c0.1,0.7-0.4,1.3-1.1,1.4
																		c-0.7,0.1-1.3-0.4-1.4-1.1c-0.1-0.7,0.4-1.3,1.1-1.4h0.1C39.9,21.6,40.5,22.1,40.6,22.7 M46,22
																		c0.7,0.2,1.1,0.8,1,1.5c-0.2,0.7-0.8,1.1-1.5,1c-0.7-0.2-1.1-0.8-1-1.5c0.1-0.6,0.7-1,1.2-1C45.8,22,45.9,22,46,22
																		 M37.4,23.1c0.2,0.7-0.2,1.4-0.9,1.6s-1.4-0.2-1.6-0.9c-0.2-0.7,0.2-1.4,0.9-1.6c0.1,0,0.2,0,0.3,0
																		C36.7,22.2,37.2,22.6,37.4,23.1 M49.3,23c0.7,0.3,1,1,0.7,1.7s-1,1-1.7,0.7s-1-1-0.7-1.7c0.2-0.5,0.7-0.8,1.2-0.8
																		C48.9,22.9,49.1,23,49.3,23 M34.3,24c0.3,0.6,0,1.4-0.6,1.7c-0.6,0.3-1.4,0-1.7-0.6s0-1.4,0.6-1.7
																		c0.2-0.1,0.4-0.1,0.5-0.1C33.6,23.3,34,23.6,34.3,24 M52.3,24.6c0.6,0.4,0.8,1.2,0.4,1.8c-0.4,0.6-1.2,0.8-1.8,0.4
																		s-0.8-1.2-0.4-1.8c0.2-0.4,0.7-0.6,1.1-0.6C51.9,24.4,52.1,24.4,52.3,24.6 M31.4,25.5c0.4,0.6,0.3,1.4-0.3,1.8l0,0
																		c-0.6,0.4-1.4,0.3-1.8-0.3c-0.4-0.6-0.3-1.4,0.3-1.8c0.2-0.2,0.5-0.2,0.7-0.2C30.7,24.9,31.1,25.1,31.4,25.5
																		 M55.1,26.6L55.1,26.6c0.5,0.5,0.6,1.3,0.1,1.8s-1.3,0.6-1.8,0.1l0,0c-0.5-0.5-0.6-1.3-0.1-1.8
																		c0.3-0.3,0.6-0.4,1-0.4C54.5,26.3,54.8,26.4,55.1,26.6 M28.7,27.3c0.5,0.5,0.5,1.3,0,1.8s-1.3,0.5-1.8,0
																		s-0.5-1.3,0-1.8c0.2-0.2,0.6-0.4,0.9-0.4C28.2,26.9,28.5,27.1,28.7,27.3 M57.5,29.1L57.5,29.1
																		c0.4,0.5,0.4,1.3-0.2,1.8c-0.5,0.4-1.3,0.4-1.8-0.2c-0.4-0.5-0.4-1.3,0.2-1.8c0.2-0.2,0.5-0.3,0.8-0.3
																		C56.9,28.6,57.2,28.8,57.5,29.1 M26.5,29.6c0.6,0.4,0.7,1.2,0.3,1.8c-0.4,0.6-1.2,0.7-1.8,0.3
																		c-0.6-0.4-0.7-1.2-0.3-1.8c0.3-0.3,0.6-0.5,1-0.5C26,29.4,26.2,29.5,26.5,29.6 M59.4,31.9c0.3,0.6,0.1,1.4-0.5,1.7
																		s-1.4,0.1-1.7-0.5s-0.1-1.4,0.5-1.7c0.2-0.1,0.4-0.2,0.6-0.2C58.8,31.3,59.2,31.5,59.4,31.9 M24.6,32.3
																		c0.6,0.3,0.9,1.1,0.6,1.7c-0.3,0.6-1.1,0.9-1.7,0.6c-0.6-0.3-0.9-1.1-0.6-1.7c0.2-0.4,0.7-0.7,1.1-0.7
																		C24.2,32.1,24.4,32.2,24.6,32.3 M60.9,35L60.9,35C60.9,35.1,60.9,35.1,60.9,35L60.9,35c0.3,0.7-0.1,1.4-0.7,1.7
																		c-0.7,0.2-1.4-0.1-1.6-0.8l0,0l0,0c-0.2-0.7,0.1-1.4,0.7-1.6c0.1-0.1,0.3-0.1,0.4-0.1C60.2,34.2,60.7,34.5,60.9,35
																		 M23.2,35.2c0.7,0.2,1,0.9,0.8,1.6c-0.2,0.7-0.9,1-1.6,0.8s-1-0.9-0.8-1.6c0.2-0.5,0.7-0.9,1.2-0.9
																		C22.9,35.1,23,35.1,23.2,35.2 M61.8,38.4c0.1,0.7-0.3,1.4-1,1.5s-1.4-0.3-1.5-1s0.3-1.4,1-1.5c0.1,0,0.2,0,0.2,0
																		C61.2,37.3,61.7,37.8,61.8,38.4 M22.2,38.2c0.7,0.1,1.2,0.7,1.1,1.4s-0.7,1.2-1.4,1.1c-0.7-0.1-1.2-0.7-1.1-1.4
																		c0.1-0.6,0.6-1.1,1.3-1.1H22.2 M62.2,41.8c0,0.7-0.5,1.3-1.2,1.3s-1.3-0.5-1.3-1.2s0.5-1.3,1.2-1.3l0,0
																		C61.6,40.5,62.2,41.1,62.2,41.8 M23.1,42.7L23.1,42.7c0,0.7-0.5,1.3-1.2,1.3s-1.3-0.5-1.3-1.2s0.5-1.3,1.2-1.3l0,0
																		C22.6,41.5,23.1,42,23.1,42.7 M60.9,43.8c0.7,0.1,1.2,0.7,1.1,1.4c-0.1,0.7-0.7,1.2-1.4,1.1
																		c-0.7-0.1-1.2-0.7-1.1-1.4c0.1-0.6,0.6-1.1,1.3-1.1C60.8,43.8,60.8,43.8,60.9,43.8 M23.5,45.7L23.5,45.7
																		c0.1,0.7-0.3,1.4-1,1.5s-1.4-0.3-1.5-1s0.3-1.4,1-1.5c0.1,0,0.2,0,0.2,0C22.8,44.7,23.3,45.1,23.5,45.7 M60.4,47
																		c0.7,0.2,1,0.9,0.8,1.6c-0.2,0.7-0.9,1-1.6,0.8c-0.7-0.2-1-0.9-0.8-1.6c0.2-0.5,0.7-0.9,1.2-0.9
																		C60.1,46.9,60.2,46.9,60.4,47 M24.3,48.6c0.2,0.7-0.1,1.4-0.8,1.6c-0.7,0.2-1.4-0.1-1.6-0.8s0.1-1.4,0.8-1.6
																		c0.1-0.1,0.3-0.1,0.4-0.1C23.6,47.8,24.1,48.1,24.3,48.6 M59.3,50c0.6,0.3,0.9,1.1,0.6,1.7
																		c-0.3,0.6-1.1,0.9-1.7,0.6c-0.6-0.3-0.9-1.1-0.6-1.7c0.2-0.4,0.7-0.7,1.1-0.7C59,49.9,59.1,49.9,59.3,50
																		 M25.6,51.3L25.6,51.3c0.3,0.6,0.1,1.4-0.5,1.7s-1.4,0.1-1.7-0.5c-0.3-0.6-0.1-1.4,0.5-1.7
																		c0.2-0.1,0.4-0.2,0.6-0.2C24.9,50.7,25.3,50.9,25.6,51.3 M57.8,52.9c0.6,0.4,0.7,1.2,0.3,1.8s-1.2,0.7-1.8,0.3
																		s-0.7-1.2-0.3-1.8c0.2-0.3,0.6-0.5,1-0.5C57.3,52.6,57.6,52.7,57.8,52.9 M27.3,53.8c0.4,0.5,0.4,1.3-0.2,1.8
																		c-0.5,0.4-1.3,0.4-1.8-0.2c-0.4-0.5-0.4-1.3,0.2-1.8c0.2-0.2,0.5-0.3,0.8-0.3C26.6,53.3,27,53.5,27.3,53.8
																		 M55.8,55.4c0.5,0.5,0.5,1.3,0,1.8s-1.3,0.5-1.8,0s-0.5-1.3,0-1.8c0.2-0.2,0.6-0.4,0.9-0.4
																		C55.3,55,55.6,55.2,55.8,55.4 M29.3,56L29.3,56c0.5,0.5,0.6,1.3,0.1,1.8s-1.3,0.6-1.8,0.1s-0.6-1.3-0.1-1.8
																		c0.3-0.3,0.6-0.4,1-0.4C28.8,55.7,29.1,55.8,29.3,56 M53.5,57.6c0.4,0.6,0.2,1.4-0.3,1.8c-0.6,0.4-1.4,0.3-1.8-0.3
																		c-0.4-0.6-0.3-1.4,0.3-1.8c0.2-0.2,0.5-0.2,0.7-0.2C52.8,57.1,53.2,57.3,53.5,57.6 M31.8,57.8
																		c0.6,0.4,0.8,1.2,0.4,1.8c-0.4,0.6-1.2,0.8-1.8,0.4c-0.6-0.4-0.8-1.2-0.4-1.8c0.2-0.4,0.7-0.6,1.1-0.6
																		C31.3,57.6,31.6,57.6,31.8,57.8 M50.8,59.4c0.3,0.6,0,1.4-0.6,1.7s-1.4,0-1.7-0.6s0-1.4,0.6-1.7
																		c0.2-0.1,0.4-0.1,0.5-0.1C50.1,58.7,50.6,58.9,50.8,59.4 M34.5,59.1c0.7,0.3,1,1,0.7,1.7s-1,1-1.7,0.7
																		s-1-1-0.7-1.7C33,59.3,33.5,59,34,59C34.1,59,34.3,59.1,34.5,59.1 M47.8,60.7c0.2,0.7-0.2,1.4-0.9,1.6
																		c-0.7,0.2-1.4-0.2-1.6-0.9c-0.2-0.7,0.2-1.4,0.9-1.6c0.1,0,0.2,0,0.3,0C47.2,59.8,47.7,60.2,47.8,60.7 M37.3,60
																		c0.7,0.2,1.1,0.8,1,1.5c-0.2,0.7-0.8,1.1-1.5,1c-0.7-0.2-1.1-0.8-1-1.5c0.1-0.6,0.7-1,1.2-1
																		C37.1,60,37.2,60,37.3,60 M44.7,61.5c0.1,0.7-0.4,1.3-1.1,1.4c-0.7,0.1-1.3-0.4-1.4-1.1c-0.1-0.7,0.4-1.3,1.1-1.4
																		h0.1C44.1,60.4,44.6,60.9,44.7,61.5 M40.3,60.5L40.3,60.5c0.7,0,1.2,0.6,1.2,1.3S40.9,63,40.2,63l0,0
																		c-0.7,0-1.2-0.6-1.2-1.3S39.6,60.5,40.3,60.5L40.3,60.5"/>
																</g>
																<g>
																	<defs>
																		<rect id="SVGID_33_" x="1" y="2" width="80.8" height="38.9"/>
																	</defs>
																	<clipPath id="SVGID_34_">
																		<use xlink:href="#SVGID_33_"  style="overflow:visible;"/>
																	</clipPath>
																	<path class="st22" d="M42.2,26.4c0,0.7-0.5,1.3-1.2,1.3s-1.3-0.5-1.3-1.2s0.5-1.3,1.2-1.3l0,0
																		C41.7,25.2,42.2,25.7,42.2,26.4 M44.7,25.5c0.7,0.1,1.1,0.8,1,1.5s-0.8,1.1-1.5,1s-1.1-0.8-1-1.5
																		c0.1-0.6,0.7-1,1.2-1C44.6,25.5,44.6,25.5,44.7,25.5 M38.7,26.6c0.2,0.7-0.2,1.4-0.9,1.6s-1.4-0.2-1.6-0.9
																		c-0.2-0.7,0.2-1.4,0.9-1.6c0.1,0,0.2,0,0.3,0C38,25.7,38.5,26.1,38.7,26.6 M48.4,26.7L48.4,26.7
																		c0.6,0.3,0.9,1,0.6,1.7c-0.3,0.6-1,0.9-1.7,0.6c-0.6-0.3-0.9-1-0.6-1.7c0.2-0.5,0.7-0.8,1.2-0.8
																		C48,26.6,48.2,26.6,48.4,26.7 M35.3,27.6c0.3,0.6,0.1,1.4-0.6,1.7c-0.6,0.3-1.4,0.1-1.7-0.6
																		c-0.3-0.6-0.1-1.4,0.5-1.7l0,0c0.2-0.1,0.4-0.1,0.6-0.1C34.6,26.9,35.1,27.2,35.3,27.6 M51.7,28.6
																		c0.6,0.4,0.7,1.2,0.3,1.8c-0.4,0.6-1.2,0.7-1.8,0.3c-0.6-0.4-0.7-1.2-0.3-1.8c0.3-0.3,0.6-0.5,1-0.5
																		C51.2,28.4,51.4,28.5,51.7,28.6 M32.2,29.4c0.5,0.5,0.4,1.3-0.2,1.8c-0.5,0.5-1.3,0.4-1.8-0.2
																		c-0.5-0.5-0.4-1.3,0.2-1.8c0.2-0.2,0.5-0.3,0.8-0.3C31.6,28.9,31.9,29.1,32.2,29.4 M54.4,31.3
																		c0.5,0.5,0.4,1.3-0.2,1.8c-0.5,0.5-1.3,0.4-1.8-0.2c-0.5-0.5-0.4-1.3,0.2-1.8c0.2-0.2,0.5-0.3,0.8-0.3
																		C53.8,30.8,54.2,31,54.4,31.3 M29.5,31.7c0.6,0.4,0.7,1.2,0.2,1.8c-0.4,0.6-1.2,0.7-1.8,0.3
																		c-0.6-0.4-0.7-1.2-0.3-1.8c0.3-0.3,0.6-0.5,1-0.5C29,31.5,29.3,31.5,29.5,31.7 M56.6,34.4
																		C56.6,34.4,56.6,34.5,56.6,34.4C56.6,34.5,56.6,34.5,56.6,34.4c0.3,0.7,0.1,1.4-0.5,1.8c-0.6,0.3-1.4,0.1-1.7-0.6
																		l0,0l0,0c-0.3-0.6-0.1-1.4,0.5-1.7c0.2-0.1,0.4-0.1,0.6-0.1C55.9,33.7,56.3,34,56.6,34.4 M27.5,34.6
																		c0.6,0.3,0.9,1,0.6,1.7c-0.3,0.6-1,0.9-1.7,0.6c-0.6-0.3-0.9-1-0.6-1.7l0,0c0.2-0.5,0.7-0.8,1.2-0.8
																		C27.2,34.5,27.3,34.5,27.5,34.6 M57.9,38L57.9,38c0.2,0.7-0.2,1.4-0.9,1.6c-0.7,0.2-1.4-0.2-1.6-0.9
																		c-0.2-0.7,0.2-1.4,0.9-1.6c0.1,0,0.2,0,0.3,0C57.3,37.1,57.8,37.5,57.9,38 M26.2,37.9c0.7,0.1,1.1,0.8,1,1.5
																		s-0.8,1.1-1.5,1s-1.1-0.8-1-1.5c0.1-0.6,0.7-1,1.2-1C26,37.9,26.1,37.9,26.2,37.9 M58.4,41.8L58.4,41.8
																		c0,0.7-0.5,1.3-1.2,1.3s-1.3-0.5-1.3-1.2s0.5-1.3,1.2-1.3l0,0C57.9,40.6,58.4,41.1,58.4,41.8 M26.9,42.6
																		c0,0.7-0.5,1.3-1.2,1.3s-1.3-0.5-1.3-1.2s0.5-1.3,1.2-1.3l0,0C26.3,41.4,26.9,41.9,26.9,42.6 M57.1,44.1
																		c0.7,0.1,1.1,0.8,1,1.5s-0.8,1.1-1.5,1s-1.1-0.8-1-1.5l0,0c0.1-0.6,0.7-1,1.2-1C56.9,44.1,57,44.1,57.1,44.1
																		 M27.3,45.9c0.2,0.7-0.2,1.4-0.9,1.6c-0.7,0.2-1.4-0.2-1.6-0.9s0.2-1.4,0.9-1.6c0.1,0,0.2,0,0.3,0
																		C26.7,44.9,27.2,45.3,27.3,45.9 M56.3,47.6c0.6,0.3,0.9,1,0.6,1.7c-0.3,0.6-1,0.9-1.7,0.6c-0.6-0.3-0.9-1-0.6-1.7
																		c0.2-0.5,0.7-0.8,1.2-0.8C56,47.5,56.1,47.5,56.3,47.6 M28.5,48.9c0.3,0.6,0.1,1.4-0.6,1.7
																		c-0.6,0.3-1.4,0.1-1.7-0.6c-0.3-0.6-0.1-1.4,0.6-1.7c0.2-0.1,0.4-0.1,0.6-0.1C27.8,48.2,28.2,48.5,28.5,48.9
																		 M54.7,50.8c0.6,0.4,0.7,1.2,0.2,1.8c-0.4,0.6-1.2,0.7-1.8,0.2c-0.6-0.4-0.7-1.2-0.2-1.8c0.2-0.3,0.6-0.5,1-0.5
																		C54.2,50.5,54.5,50.6,54.7,50.8 M30.3,51.6c0.5,0.5,0.4,1.3-0.2,1.8c-0.5,0.5-1.3,0.4-1.8-0.2
																		c-0.5-0.5-0.4-1.3,0.2-1.8c0.2-0.2,0.5-0.3,0.8-0.3C29.7,51.1,30,51.3,30.3,51.6 M52.5,53.5
																		c0.5,0.5,0.4,1.3-0.2,1.8c-0.5,0.5-1.3,0.4-1.8-0.2c-0.5-0.5-0.4-1.3,0.2-1.8c0.2-0.2,0.5-0.3,0.8-0.3
																		C51.9,53.1,52.3,53.2,52.5,53.5 M32.6,53.8c0.6,0.4,0.7,1.2,0.3,1.8s-1.2,0.7-1.8,0.2c-0.6-0.4-0.7-1.2-0.3-1.8
																		c0.3-0.3,0.6-0.5,1-0.5C32.1,53.6,32.4,53.7,32.6,53.8 M49.7,55.7c0.3,0.6,0.1,1.4-0.6,1.7
																		c-0.6,0.3-1.4,0.1-1.7-0.6c-0.3-0.6-0.1-1.4,0.6-1.7c0.2-0.1,0.4-0.1,0.6-0.1C49.1,55,49.5,55.3,49.7,55.7
																		 M35.4,55.5L35.4,55.5c0.6,0.3,0.9,1,0.6,1.7c-0.3,0.6-1,0.9-1.7,0.6l0,0c-0.6-0.3-0.9-1-0.6-1.7
																		c0.2-0.5,0.7-0.8,1.2-0.8C35.1,55.4,35.3,55.4,35.4,55.5 M46.5,57.2c0.2,0.7-0.2,1.4-0.9,1.6
																		c-0.7,0.2-1.4-0.2-1.6-0.9c-0.2-0.7,0.2-1.4,0.9-1.6c0.1,0,0.2,0,0.3,0C45.9,56.3,46.4,56.7,46.5,57.2 M38.5,56.5
																		c0.7,0.1,1.1,0.8,1,1.5s-0.8,1.1-1.5,1s-1.1-0.8-1-1.5c0.1-0.6,0.7-1,1.2-1C38.3,56.5,38.4,56.5,38.5,56.5
																		 M43.1,58c0,0.7-0.5,1.3-1.2,1.3s-1.3-0.5-1.3-1.2s0.5-1.3,1.2-1.3l0,0C42.5,56.8,43,57.3,43.1,58"/>
																</g>
																<g>
																	<defs>
																		<rect id="SVGID_35_" x="1" y="2" width="80.8" height="38.9"/>
																	</defs>
																	<clipPath id="SVGID_36_">
																		<use xlink:href="#SVGID_35_"  style="overflow:visible;"/>
																	</clipPath>
																	<path class="st23" d="M42,30.4c0,0.7-0.5,1.3-1.2,1.3s-1.3-0.5-1.3-1.2s0.5-1.3,1.2-1.3c0,0,0,0,0.1,0
																		C41.4,29.1,42,29.7,42,30.4 M44.6,29.5c0.7,0.2,1.1,0.9,0.9,1.5c-0.2,0.7-0.9,1.1-1.5,0.9
																		c-0.7-0.2-1.1-0.9-0.9-1.5c0.1-0.6,0.7-1,1.2-1C44.4,29.5,44.5,29.5,44.6,29.5 M38.5,30.7c0.2,0.7-0.1,1.4-0.8,1.6
																		c-0.7,0.2-1.4-0.1-1.6-0.8c-0.2-0.7,0.1-1.4,0.8-1.6c0.1-0.1,0.3-0.1,0.4-0.1C37.8,29.8,38.3,30.2,38.5,30.7
																		 M48.2,31c0.6,0.4,0.8,1.2,0.4,1.8c-0.4,0.6-1.1,0.8-1.7,0.4c-0.6-0.4-0.8-1.2-0.4-1.8c0.2-0.4,0.7-0.6,1.1-0.6
																		C47.8,30.8,48,30.9,48.2,31 M35.2,32c0.4,0.6,0.3,1.4-0.2,1.8c-0.6,0.4-1.4,0.3-1.8-0.2c-0.4-0.6-0.3-1.4,0.2-1.8
																		c0.2-0.2,0.5-0.3,0.8-0.3C34.6,31.5,35,31.7,35.2,32 M51,33.4c0.1,0.1,0.1,0.1,0.2,0.2c0.5,0.5,0.4,1.3-0.1,1.8
																		s-1.3,0.4-1.8-0.1l0,0c-0.5-0.5-0.4-1.3,0.1-1.8c0.2-0.2,0.5-0.3,0.8-0.3C50.5,33.1,50.8,33.2,51,33.4 M32.5,34.3
																		c0.6,0.4,0.7,1.2,0.3,1.8l0,0c-0.4,0.6-1.2,0.7-1.8,0.3c-0.6-0.4-0.7-1.2-0.3-1.8c0.2-0.3,0.6-0.5,1-0.5
																		C32,34.1,32.3,34.2,32.5,34.3 M53.3,36.8c0.3,0.6,0,1.4-0.6,1.7s-1.4,0-1.7-0.6s0-1.4,0.6-1.7
																		c0.2-0.1,0.4-0.1,0.5-0.1C52.7,36.1,53.1,36.4,53.3,36.8 M30.5,37.3c0.7,0.2,1,0.9,0.8,1.6c-0.2,0.7-0.9,1-1.6,0.8
																		s-1-0.9-0.8-1.6c0.2-0.5,0.7-0.9,1.2-0.9C30.3,37.2,30.4,37.3,30.5,37.3 M54.4,40.6c0.1,0.7-0.4,1.3-1.1,1.4
																		c-0.7,0.1-1.3-0.4-1.4-1.1c-0.1-0.7,0.4-1.3,1.1-1.4c0.1,0,0.1,0,0.2,0C53.8,39.5,54.3,40,54.4,40.6 M29.6,40.7
																		c0.7,0,1.3,0.6,1.2,1.3l0,0c0,0.7-0.6,1.3-1.3,1.2c-0.7,0-1.3-0.6-1.2-1.3C28.3,41.3,28.8,40.7,29.6,40.7
																		L29.6,40.7z M53.3,43c0.7,0.1,1.2,0.8,1,1.5c-0.1,0.7-0.8,1.2-1.5,1c-0.7-0.1-1.2-0.8-1-1.5
																		c0.1-0.6,0.6-1.1,1.3-1.1C53.1,43,53.2,43,53.3,43 M31.2,45.1c0.2,0.7-0.2,1.4-0.9,1.6c-0.7,0.2-1.4-0.2-1.6-0.9
																		s0.2-1.4,0.9-1.6c0.1,0,0.2,0,0.3,0C30.5,44.2,31,44.6,31.2,45.1 M52.5,46.5c0.6,0.3,0.9,1.1,0.6,1.7
																		c-0.3,0.6-1.1,0.9-1.7,0.6c-0.6-0.3-0.9-1.1-0.6-1.7c0.2-0.4,0.7-0.7,1.1-0.7C52.1,46.4,52.3,46.4,52.5,46.5
																		 M32.5,48L32.5,48c0.4,0.6,0.2,1.4-0.4,1.8c-0.6,0.4-1.4,0.2-1.8-0.4c-0.4-0.6-0.2-1.4,0.4-1.8
																		c0.2-0.1,0.5-0.2,0.7-0.2C31.9,47.4,32.3,47.6,32.5,48 M50.8,49.6c0.5,0.5,0.5,1.3,0,1.8s-1.3,0.5-1.8,0
																		s-0.5-1.3,0-1.8c0.2-0.3,0.6-0.4,0.9-0.4C50.2,49.2,50.5,49.4,50.8,49.6 M34.6,50.4c0.5,0.5,0.6,1.3,0.2,1.8
																		c-0.5,0.5-1.3,0.6-1.8,0.2c-0.5-0.5-0.6-1.3-0.2-1.8c0.3-0.3,0.6-0.5,1-0.5C34.1,50.1,34.4,50.2,34.6,50.4
																		 M48.2,52c0.3,0.6,0.1,1.4-0.5,1.7s-1.4,0.1-1.7-0.5s-0.1-1.4,0.5-1.7c0.2-0.1,0.4-0.2,0.6-0.2
																		C47.5,51.4,48,51.6,48.2,52 M37.3,52c0.6,0.3,1,1,0.7,1.7c-0.3,0.6-1,1-1.7,0.7s-1-1-0.7-1.7
																		c0.2-0.5,0.7-0.8,1.2-0.8C37,51.9,37.1,52,37.3,52 M45,53.6c0.1,0.7-0.3,1.4-1,1.5s-1.4-0.3-1.5-1s0.3-1.4,1-1.5
																		c0.1,0,0.2,0,0.3,0C44.4,52.6,44.9,53,45,53.6 M40.3,52.8c0.7,0.1,1.2,0.7,1.1,1.4c-0.1,0.7-0.7,1.2-1.4,1.1
																		c-0.7-0.1-1.2-0.7-1.1-1.4c0.1-0.7,0.6-1.2,1.3-1.2C40.3,52.8,40.3,52.8,40.3,52.8"/>
																</g>
																<g>
																	<defs>
																		<rect id="SVGID_37_" x="1" y="2" width="80.8" height="38.9"/>
																	</defs>
																	<clipPath id="SVGID_38_">
																		<use xlink:href="#SVGID_37_"  style="overflow:visible;"/>
																	</clipPath>
																	<path class="st24" d="M41.9,32.7L41.9,32.7c0.7,0,1.2,0.6,1.2,1.3s-0.6,1.2-1.3,1.2s-1.2-0.6-1.2-1.3
																		C40.6,33.3,41.1,32.7,41.9,32.7C41.8,32.7,41.8,32.7,41.9,32.7 M40,34c0.2,0.7-0.1,1.4-0.8,1.6
																		c-0.7,0.2-1.4-0.1-1.6-0.8c-0.2-0.7,0.1-1.4,0.8-1.6c0.1,0,0.3-0.1,0.4-0.1C39.3,33.1,39.8,33.5,40,34 M45.3,33.6
																		L45.3,33.6c0.6,0.3,0.9,1,0.6,1.7c-0.3,0.6-1,0.9-1.7,0.6c-0.6-0.3-0.9-1-0.6-1.7c0.2-0.5,0.7-0.8,1.2-0.8
																		C44.9,33.4,45.1,33.5,45.3,33.6 M37.1,35.1c0.4,0.5,0.4,1.3-0.2,1.8c-0.5,0.4-1.3,0.4-1.8-0.2
																		c-0.4-0.5-0.4-1.3,0.2-1.8c0.2-0.2,0.5-0.3,0.8-0.3C36.5,34.6,36.9,34.8,37.1,35.1 M48.1,35.5L48.1,35.5
																		C48.2,35.6,48.2,35.6,48.1,35.5c0.5,0.5,0.5,1.3,0,1.8s-1.3,0.5-1.8,0l0,0l0,0c-0.5-0.5-0.5-1.3,0-1.8
																		c0.2-0.2,0.6-0.4,0.9-0.4C47.6,35.2,47.9,35.3,48.1,35.5 M34.8,37.1c0.6,0.3,0.8,1.1,0.5,1.7
																		c-0.3,0.6-1.1,0.8-1.7,0.5c-0.6-0.3-0.8-1.1-0.5-1.7c0.2-0.4,0.7-0.6,1.1-0.6C34.4,36.9,34.6,37,34.8,37.1
																		 M50.1,38.5c0.3,0.6,0,1.4-0.7,1.7c-0.6,0.3-1.4,0-1.7-0.7l0,0c-0.3-0.6,0-1.4,0.7-1.7c0.2-0.1,0.3-0.1,0.5-0.1
																		C49.4,37.7,49.9,38,50.1,38.5 M33.4,39.8c0.7,0.1,1.2,0.7,1.1,1.4c-0.1,0.7-0.7,1.2-1.4,1.1
																		c-0.7-0.1-1.2-0.7-1.1-1.4c0.1-0.6,0.6-1.1,1.3-1.1C33.3,39.8,33.3,39.8,33.4,39.8 M50.9,41.9
																		c0,0.7-0.5,1.3-1.2,1.3s-1.3-0.5-1.3-1.2s0.5-1.3,1.2-1.3c0,0,0,0,0.1,0C50.3,40.7,50.9,41.2,50.9,41.9 M34.6,43.8
																		L34.6,43.8c0.2,0.7-0.3,1.4-1,1.5c-0.7,0.2-1.4-0.3-1.5-1c-0.2-0.7,0.3-1.4,1-1.5c0.1,0,0.2,0,0.3,0
																		C33.9,42.8,34.4,43.2,34.6,43.8 M49.6,43.7c0.7,0.2,1,1,0.8,1.6c-0.2,0.7-1,1-1.6,0.8c-0.7-0.2-1-1-0.8-1.6
																		c0.2-0.5,0.7-0.9,1.2-0.9C49.3,43.7,49.5,43.7,49.6,43.7 M35.6,46.2L35.6,46.2c0.4,0.6,0.2,1.4-0.3,1.8
																		c-0.6,0.4-1.4,0.2-1.8-0.3c-0.4-0.6-0.2-1.4,0.3-1.8c0.2-0.1,0.5-0.2,0.7-0.2C35,45.6,35.4,45.8,35.6,46.2
																		 M48.5,46.6c0.5,0.5,0.6,1.3,0.2,1.8c-0.5,0.5-1.3,0.6-1.8,0.2c-0.5-0.5-0.6-1.3-0.2-1.8c0.3-0.3,0.6-0.5,1-0.5
																		C48,46.3,48.3,46.4,48.5,46.6 M37.4,48L37.4,48c0.6,0.4,0.7,1.2,0.3,1.8s-1.2,0.7-1.8,0.3s-0.7-1.2-0.3-1.8
																		c0.2-0.4,0.6-0.5,1-0.5C36.9,47.8,37.2,47.8,37.4,48 M46.5,48.9c0.3,0.6,0.1,1.4-0.5,1.7s-1.4,0.1-1.7-0.5
																		s-0.1-1.4,0.5-1.7c0.2-0.1,0.4-0.2,0.6-0.2C45.8,48.2,46.2,48.5,46.5,48.9 M39.7,49L39.7,49
																		c0.7,0.2,1.1,0.9,0.9,1.5c-0.2,0.7-0.9,1.1-1.5,0.9c-0.7-0.2-1.1-0.9-0.9-1.5c0.1-0.6,0.7-1,1.2-1
																		C39.5,49,39.6,49,39.7,49 M43.7,50.3c0.1,0.7-0.4,1.3-1.1,1.4c-0.7,0.1-1.3-0.4-1.4-1.1c-0.1-0.7,0.4-1.3,1.1-1.4
																		c0.1,0,0.1,0,0.2,0C43.1,49.2,43.7,49.6,43.7,50.3"/>
																</g>
															</g>
														</g>
													</g>
												</g>
											</g>
										</g>
									</g>
								</g>
							</g>
						</g>
					</g>
				</g>
			</g>
		</g>
	</g>
</g>
</svg>
