<?xml version="1.0" encoding="utf-8"?>
<!-- Generator: Adobe Illustrator 21.0.2, SVG Export Plug-In . SVG Version: 6.00 Build 0)  -->
<svg version="1.1" id="圖層_1" xmlns="http://www.w3.org/2000/svg" xmlns:xlink="http://www.w3.org/1999/xlink" x="0px" y="0px"
	 viewBox="0 0 1040 173.5" style="enable-background:new 0 0 1040 173.5;" xml:space="preserve">
<style type="text/css">
	.st0{fill:#FFFC39;}
	.st1{fill:#353535;}
	.st2{fill:#3A3A3A;}
</style>
<rect class="st0" width="1040" height="173.5"/>
<g>
	<path class="st1" d="M105.4,88.9c-0.2,7.6-0.5,12.7-0.9,15.3c-0.4,2.6-1.2,4.3-2.4,5.2c-1.2,0.8-3,1.2-5.7,1.2
		c-1.2,0-2.3,0-3.2-0.1l-1.4-4.8c0.7,0.1,2.6,0.1,5.8,0.1c0.8,0,1.4-0.3,1.7-1c0.3-0.7,0.7-4.4,1-11.2H69.2
		c-2.8,3.8-5.6,6.6-8.3,8.2l-3.2-3.9c7.1-4.9,12.2-12.7,15.5-23.4H59.5v-4.7h8.4c-1.2-1.5-2.9-3.1-5.1-4.9l3.8-3
		c1.9,1.3,3.7,3,5.4,5.1l-3.3,2.8h5.8c0.6-2.7,1.2-5.3,1.6-7.9l4.9,0.9c-0.4,2.6-0.8,4.9-1.4,7h21c-0.6,3.3-1.2,6.5-2,9.5h4.6
		c-0.3,2.5-0.9,5.7-1.6,9.6H105.4z M73.6,96.9c-1.3,5.1-3.3,9.8-5.9,14l-4.1-2.5c2-3.4,3.9-7.7,5.5-12.8L73.6,96.9z M97.4,83.8H75.1
		c-0.7,1.6-1.6,3.3-2.6,5.1h23.9L97.4,83.8z M81.8,109.1l-4.7,0.9c0-4.6-0.5-8.9-1.5-13.1l4.6-0.5C81.3,101,81.8,105.2,81.8,109.1z
		 M94.3,74.5h-16c-0.6,2.4-1.2,4-1.5,4.8h16.4C93.7,77.8,94,76.2,94.3,74.5z M90.5,106.7l-4.8,1.5c-0.3-2.9-1.2-6.6-2.7-11.3
		l4.4-0.8C89,100,90,103.5,90.5,106.7z M97.9,103.4l-4.4,1.6c-0.9-3.7-1.8-6.6-2.9-8.6l4.4-1.3C96.3,97.8,97.3,100.6,97.9,103.4z"/>
	<path class="st1" d="M127.5,62.9c-0.4,1.7-1.1,3.8-2.1,6.4l-1.4,3.8v37.5h-4.9V83.1c-1.2,2-2.3,3.6-3.4,4.7l-2.8-5
		c4.1-5.6,7.4-12.6,9.8-21L127.5,62.9z M161.7,69h-3.5v36c0,1.3-0.3,2.5-1,3.4s-1.6,1.6-2.7,1.9c-1.1,0.3-3.3,0.5-6.6,0.5
		c-1.2,0-2.3,0-3.5-0.1l-1.6-4.8c5.5,0.1,8.7,0.1,9.4-0.2c0.7-0.3,1.1-0.9,1.1-1.8V69H128v-4.8h33.7V69z M147.4,98.1h-17.7V74.8
		h17.7V98.1z M142.7,93.3V79.5h-8.2v13.7H142.7z"/>
	<path class="st1" d="M183.8,63.3c-0.7,2-1.6,4.5-2.9,7.5l-2,4.3V111h-4.8V83.1c-0.6,0.8-1.7,2.2-3.4,4.2l-2.6-5
		c4.8-5.7,8.4-12.5,10.8-20.2L183.8,63.3z M216.2,68.8c-0.9,6.2-2.2,11.3-4,15.1l-4.5-1.9c1.2-2.8,2-5.7,2.6-8.7h-18.2
		c-2.2,4.1-4.9,8-8.2,11.7l-3.3-3.6c4.6-5.1,8.2-11.5,11-19.1l4.7,1.2c-0.8,2.4-1.5,4.1-2.1,5.3H216.2z M194.2,85.4
		c-2.5,8.4-5.7,15-9.4,19.8l-3.9-3c3.8-5.3,6.8-11.3,8.8-18L194.2,85.4z M201.9,105.5c0,3.4-1.7,5.1-5.1,5.1c-3,0-5.1,0-6.2-0.1
		l-1.6-4.9l5.3,0.2c1.8,0,2.7-0.6,2.7-1.8V76.8h4.9V105.5z M217.6,102.9l-4.5,2.3c-1.7-6-4.3-12.5-8.1-19.5l4.3-1.8
		C213.2,91.1,216,97.5,217.6,102.9z"/>
	<path class="st1" d="M273.3,105.8l-1.2,4.5c-2.9,0.1-6.7,0.1-11.2,0.1c-7.1,0-11.9-0.1-14.6-0.4c-2.6-0.2-5.2-0.8-7.6-1.8
		c-2.4-0.9-4.4-2.2-6-3.9c-1.5,2.6-3.2,5-5.3,7.2l-4-3.3c4.8-5,7.7-10.2,8.8-15.6h-7.5v-4.5c2.4-2.8,4.5-6.1,6.5-9.7h-7.1v-4.7H237
		v4.7c-1.8,3.4-3.8,6.6-6,9.6h6.3v4.6c-0.6,2.6-1.4,5.1-2.6,7.7c1.5,1.6,3.2,2.8,5.3,3.7c2.1,0.9,4.1,1.4,6.2,1.7s5.9,0.4,11.4,0.4
		C262.7,106.2,267.9,106.1,273.3,105.8z M236.9,69.1l-3.4,3.7c-1.8-2.4-4.5-4.9-8.1-7.4l3.4-3.6C231.8,63.9,234.5,66.4,236.9,69.1z
		 M268.7,92.1H254c-1.1,1.2-2.2,2.2-3.3,3.1v4.5c1.8-0.3,3.5-0.8,5.3-1.3l0.6,4.1c-3.8,1.1-7.3,2-10.3,2.5l-1.2-3.8
		c0.8-0.6,1.2-1.3,1.2-2.2c0-0.2,0-0.4-0.1-0.5c-2.2,1.2-4.4,2.2-6.9,2.9l-2.3-4.1c4.3-1.3,7.8-3,10.6-5.2h-6.1v-9.9h27.2V92.1z
		 M271.7,80h-33v-4h33V80z M270,73.9h-29.7V63.2H270V73.9z M248.5,70.2V67h-3.7v3.3H248.5z M263.7,88.4V86h-17.3v2.5H263.7z
		 M256.8,70.2V67h-3.9v3.3H256.8z M272.2,101.5l-3,3.6c-4.9-3.3-10-6.1-15.4-8.6l2.8-3.5c1.7,0.6,3.7,1.6,6.2,2.9
		c1.6-1.1,3-2.2,4.4-3.3l3.6,2.6c-0.9,0.9-2.2,1.9-3.9,2.8C269,99.4,270.8,100.5,272.2,101.5z M265.3,70.2V67h-4v3.3H265.3z"/>
	<path class="st1" d="M292.5,83.3l-3.2,3.8c-3-2.6-6.4-4.9-10.3-7.1l3.1-4C286,78.1,289.5,80.5,292.5,83.3z M293.4,92.7
		c-2.7,6.5-6,12.7-9.9,18.5l-4.3-2.9c3.9-5.8,7.1-12,9.8-18.4L293.4,92.7z M293.4,70.7l-3.4,3.7c-3.2-3.3-6.6-6.1-10.2-8.4l3.2-3.9
		C287.1,64.9,290.6,67.7,293.4,70.7z M328.4,107l-2.4,4.4c-6.5-1.8-11.6-4-15.4-6.5c-5.1,2.8-10.6,4.9-16.6,6.2l-2.7-4.2
		c5.1-1.1,10-2.8,14.8-5.2c-2.9-2.7-5.7-6.2-8.3-10.4h-1.9v-4.8h28.5v4.8c-2.7,3.8-5.8,7.3-9.4,10.6
		C318.7,104.2,323.2,105.9,328.4,107z M325.4,67.4c-0.1,4.1-0.3,7.4-0.6,9.8c-0.4,2.4-0.9,4-1.4,4.8c-0.6,0.8-1.4,1.4-2.6,1.8
		c-1.2,0.4-3.4,0.5-6.6,0.5c-0.9,0-1.9,0-2.9-0.1l-1.8-4.7c1.5,0,4.3-0.1,8.6-0.1c0.9,0,1.5-0.5,1.8-1.6c0.3-1.1,0.5-3,0.6-5.7
		h-14.7c-2.2,4.6-4.8,8.8-7.9,12.8l-4-2.8c5.2-6.7,8.6-13.4,10.1-20.1l4.8,1.1c-0.2,1.5-0.6,2.9-1.1,4.3H325.4z M317.8,91.3h-14.4
		c1.9,3,4.3,5.6,7.1,7.8C313.3,97.1,315.7,94.5,317.8,91.3z"/>
	<path class="st1" d="M381.4,81.6h-4.8v-7.4H341v7.5h-5V70h20.4v-7.5h4.9V70h20.2V81.6z M378.6,110.7h-4.7v-2.3h-30.2v2.3h-4.8V90.3
		h39.7V110.7z M351.1,67.4l-5,1.7c-1.4-1.6-3-3.2-4.8-4.6l4.9-1.9C348.3,64.3,350,65.9,351.1,67.4z M356.4,97.4v-3.2h-12.8v3.2
		H356.4z M356.4,104.4v-3.3h-12.8v3.3H356.4z M373.4,87.6H344V77h29.3V87.6z M368.5,83.8v-3h-19.6v3H368.5z M373.9,97.4v-3.2h-12.7
		v3.2H373.9z M373.9,104.4v-3.3h-12.7v3.3H373.9z M376,64.7c-1.6,1.7-3.3,3.2-5.1,4.5l-4.8-2.3c1.8-1.1,3.6-2.6,5.4-4.3L376,64.7z"
		/>
	<path class="st1" d="M438,109.4h-48.2v-5h19.8v-42h5.2v16.6h20.8v4.9h-20.8v20.5H438V109.4z"/>
	<path class="st1" d="M462,64.2c-4,5.4-9,9.8-14.8,13.1l-2.4-4.8c4.4-2.3,8.5-5.8,12.3-10.6L462,64.2z M463.2,74.5
		c-1.7,2.9-3.5,5.6-5.5,8.2v28.1h-5.1V88.6c-2,2-3.8,3.5-5.5,4.6l-2.2-4.9c4.7-3.1,9.2-8.3,13.6-15.7L463.2,74.5z M493.4,82.9h-7.5
		v22.4c0,3.7-2,5.5-6,5.5c-2.6,0-5.1-0.1-7.5-0.2l-1.8-5c1.5,0,4.4,0.1,8.6,0.1c0.4,0,0.7-0.1,1-0.4s0.5-0.7,0.5-1.1V82.9h-18v-4.9
		h30.7V82.9z M492,68.9h-27.8v-4.8H492V68.9z"/>
	<path class="st1" d="M521.2,72.3l-3.1,3.7c-2.2-2.6-4.6-5-7.2-7.2c-1.3,2.2-2.8,4.4-4.5,6.5h10.1v4.5h-3.9V84h6.9v4.5h-6.9v14.3
		c2.3-0.6,4.4-1.2,6.2-1.8l0.3,4.4c-6.5,2.2-12.3,3.8-17.6,5l-1.3-4.4c3.2-0.6,5.7-1.2,7.6-1.7V88.4h-6.6V84h6.6v-4.1h-3.4v-2.3
		c-0.6,0.5-1.2,1-1.8,1.4l-2.8-4.1c3.7-3,6.9-7.2,9.4-12.8l4.6,1.3c-0.1,0.6-0.4,1.1-0.7,1.5C516.4,67.5,519.1,70,521.2,72.3z
		 M506.5,101.4l-4.1,0.9c-0.3-3.6-0.9-7.3-1.7-11.2l4-1C505.7,94,506.3,97.8,506.5,101.4z M519.3,90.7c-0.1,2.9-0.6,6.1-1.5,9.6
		l-3.9-1c0.7-2.5,1.2-5.7,1.4-9.6L519.3,90.7z M547.5,106.2c0,1.1-0.4,2.1-1.1,3c-0.7,0.9-1.9,1.4-3.3,1.5c-1.5,0.1-2.6,0.1-3.5,0.1
		c-0.8,0-1.7,0-2.4-0.1l-1.4-4.7c0.7,0.1,1.4,0.1,2.2,0.1c2.2,0,3.6-0.1,4-0.4c0.4-0.2,0.7-0.7,0.7-1.2v-6.6
		c-4.6,1.9-9.4,3.5-14.2,4.9l-1.6-3.6c-0.4,4.5-1.9,8.6-4.4,12.4l-4-3.5c2.6-3.2,3.9-7.5,3.9-12.7V78.9h10V62.6h5v16.4h10.2V106.2z
		 M529.9,75.1l-4.2,2.2c-1.7-4.1-3.6-7.7-5.8-10.8l4.3-2.2C526.7,68.1,528.6,71.6,529.9,75.1z M542.7,93.4v-9.9h-15.6v2.8
		c5.5,0.7,9.8,1.5,12.7,2.4l-1.4,4.3c-3.8-1.3-7.6-2.1-11.2-2.6c-0.1,3.7-0.2,6.4-0.3,8.1C531.7,97.4,537,95.7,542.7,93.4z
		 M549,66.1c-1.1,3.4-2.9,7.1-5.2,11.3l-4.3-2.4c2-3.4,3.7-6.9,5-10.6L549,66.1z"/>
	<path class="st1" d="M604,90.6h-36.6v13.8c3.4-0.7,7.2-1.9,11.6-3.5l0.4,5c-5.9,2-11.5,3.6-16.8,4.8l-1.4-4.1
		c0.8-0.5,1.2-1.2,1.2-2v-14h-6.5V86h7.7V63.4h37.2v4.4h-32.1v3.2h29.2v4.3h-29.2v3.3h29.2v4.1h-29.2V86H604V90.6z M604.4,106.4
		L602,111c-6.6-1.6-11.8-3.6-15.5-6c-3.7-2.5-7.2-6.1-10.4-10.8l4.3-2.4c1.5,2.4,3.3,4.7,5.6,6.9c4-2.2,7.3-4.6,9.9-7l3.8,3.2
		c-3.4,2.9-6.6,5.1-9.4,6.7C593.5,103.7,598.3,105.3,604.4,106.4z"/>
	<path class="st1" d="M616.5,96.2c-0.4-1.3-0.6-2.7-0.6-4.1c0-1.4,0.3-2.8,1-4.1c0.7-1.3,1.9-2.8,3.7-4.4c2.1-2,3.5-3.5,4-4.5
		c0.5-1,0.8-2.1,0.8-3.1c0-1.6-0.6-2.9-1.7-3.8c-1.1-0.9-2.6-1.4-4.3-1.4c-3.3,0-6.3,1.3-8.9,3.9v-6.4c3-1.9,6.2-2.8,9.7-2.8
		c3.5,0,6.2,0.9,8.3,2.6c2.1,1.7,3.1,4.1,3.1,7.1c0,1.8-0.4,3.4-1.2,5s-2.3,3.3-4.5,5.2c-2.1,1.9-3.4,3.3-3.9,4.2
		c-0.5,1-0.7,1.9-0.7,2.9c0,1.2,0.3,2.4,0.9,3.7H616.5z M615.6,104.8c0-1,0.4-1.9,1.2-2.7c0.8-0.7,1.7-1.1,2.8-1.1
		c1,0,2,0.4,2.8,1.1s1.2,1.6,1.2,2.7c0,1-0.4,1.9-1.1,2.7s-1.7,1.1-2.7,1.1c-1.2,0-2.2-0.4-3-1.1C616,106.7,615.6,105.8,615.6,104.8
		z"/>
	<path class="st1" d="M699.4,82.5h-28.2l-2.1,3.1h24.4v25.2h-5v-2.5h-20.4v2.5h-5V93c-3.2,3.2-6,5.7-8.3,7.4l-3.4-3.8
		c5.5-3.8,10.3-8.5,14.3-14.1h-13.5v-3.8h15.8c0.6-1,1.1-2,1.6-3.2h-15.3v-3.7h17l1.1-3.1c-8,0.2-13.4,0.3-16,0.4l-1.9-4.3
		c2.3,0.1,4.6,0.1,6.8,0.1c12,0,22.8-0.9,32.5-2.8l3.1,3.8c-4.9,1-11.3,1.8-19.1,2.4c-0.1,0.5-0.5,1.6-1.3,3.4h21.1v3.7h-22.5
		c-0.6,1.2-1.1,2.2-1.7,3.2h26.2V82.5z M688.6,92.2v-2.6h-20.4v2.6H688.6z M688.6,98.1v-2.5h-20.4v2.5H688.6z M688.6,104.5v-2.9
		h-20.4v2.9H688.6z"/>
	<path class="st1" d="M754.9,68.7h-24v8.9c8.7,4.6,15.4,8.7,20,12.6l-3.1,4.2c-4.2-3.7-9.9-7.4-16.9-11.3v27.5h-5V68.7h-19v-4.9
		h48.1V68.7z"/>
	<path class="st1" d="M810.3,89.8h-24.8c-3.6,6.4-7.6,11.5-11.9,15.3c9.7-0.8,18.2-1.8,25.4-3c-2.5-3-4.9-5.5-7.2-7.6l3.9-3
		c5.8,5.5,10.6,11.1,14.3,16.9l-4.3,2.9c-1.3-2.1-2.4-3.8-3.4-5c-12,1.8-24.3,3.2-37,4.2l-0.9-4.3c5.5-2.8,10.4-8.2,15-16.3h-17.1
		v-4.9h21.4V76h-18.2v-4.8h18.2v-8.7h5.2v8.7h18.4V76h-18.4v8.9h21.5V89.8z"/>
	<path class="st1" d="M818.6,104.8c0-1.1,0.4-2,1.2-2.7c0.8-0.7,1.7-1.1,2.8-1.1c1.1,0,2,0.4,2.8,1.1c0.8,0.7,1.2,1.6,1.2,2.7
		c0,1-0.4,1.9-1.1,2.7c-0.8,0.7-1.7,1.1-2.7,1.1c-1.2,0-2.2-0.4-3-1.1C819,106.7,818.6,105.8,818.6,104.8z M825.9,66.1l-0.8,29.6
		H820l-0.7-29.6H825.9z"/>
</g>
<g>
	<path class="st2" d="M962.4,78.2c1.9,6.4,1.4,11.4-3.5,15.4c-0.8,0.6-0.7,2.8-0.5,4.1c0.9,5.5-0.7,9.8-5.2,13.3
		c-1.3,1-2.1,2.9-2.7,4.5c-2.5,7.1-7.1,10.3-14.7,10.7c-14.1,0.8-27.5-0.6-39.8-8.5c-1.9-1.2-4.7-1.1-6.8-1.5
		c-0.7,0.8-1,1.1-1.1,1.3c-0.9,7.8-0.9,7.8-9,7.8c-3.2,0-6.3,0-9.8,0c0-1.9,0-3.3,0-5.2c4.3,0,8.5,0,12.9,0c0-3.3,0-6.1,0-8.9
		c0.1-15,0.2-30,0.4-44.9c0-3-0.8-4.4-3.9-4.2c-3,0.2-6,0-9.2,0c-1.1-3.3-0.9-5.2,3-5c2.5,0.1,5.1,0.2,7.6,0
		c4.8-0.3,9.2-0.3,7.6,7.5c2.5-1.4,4.1-2.2,5.7-3.2c7.6-4.7,15.1-9.5,22.6-14.3c9.1-5.8,17.9-4.1,23.7,5.2c1.9,3,3.9,4,7.3,3.9
		c10.8-0.2,21.6-0.1,32.3,0c2.2,0,4.4,0.1,6.5,0.6c4.5,1,8.4,2.8,8.9,8.2c0.5,5.2-2.5,10-7.7,11.7c-3,1-6.2,1.3-9.4,1.4
		C973,78.4,968.1,78.2,962.4,78.2z M937.4,77.9c-1.6-4.2-0.3-5.4,3.4-5.4c13,0.1,25.9,0.1,38.9,0c2.4,0,5.2-0.5,7.1-1.7
		c1.5-1,2.5-3.6,2.4-5.4c0-1.1-2.3-2.8-3.8-3.2c-2.7-0.7-5.6-0.9-8.5-0.9c-15-0.1-30-0.1-45,0c-3.7,0-5.5-0.9-3.7-4.8
		c2.3-0.2,4.4-0.4,6.6-0.6c-2.2-6.4-8.6-8.7-14.2-5.3c-10.2,6.2-20.3,12.6-30.3,19.2c-1.4,0.9-2.4,3.5-2.4,5.4
		c-0.2,10.3-0.1,20.5-0.1,30.8c0,1.6,0.2,3.2,0.3,4.4c3.6,0.8,7,0.6,9.3,2.1c12,8.2,25.3,9.3,39.2,8.5c5.3-0.3,7.8-2.6,8.8-9.2
		c-3.2,0-6.4,0.2-9.4-0.1c-1.2-0.1-2.3-1.6-3.4-2.4c1.1-0.8,2.2-2.3,3.4-2.4c3.8-0.3,7.7-0.1,11.6-0.1c4.3-0.1,5.7-2.7,5.7-6.7
		c0-3.8-1.2-6.2-5.6-5.7c-2.5,0.3-5.1,0.3-7.6-0.1c-1.3-0.2-2.4-1.5-3.6-2.3c1.1-0.9,2.2-2.4,3.4-2.5c3.7-0.3,7.4-0.2,11.1-0.1
		c3.6,0.1,7-0.1,7.1-4.9c0.1-4.3-2.5-6.5-7.5-6.5C946.2,77.9,941.7,77.9,937.4,77.9z"/>
</g>
</svg>
