<svg id="圖層_1" data-name="圖層 1" xmlns="http://www.w3.org/2000/svg" viewBox="0 0 118.3 50">
  <defs>
    <style>
      .cls-1 {
        fill: #fff625;
      }

      .cls-2 {
        fill: #fff;
      }
    </style>
  </defs>
  <title>start-title</title>
  <g>
    <path class="cls-1" d="M52.9,14.1a.66.66,0,0,1,.1.6.55.55,0,0,1-.3.5.52.52,0,0,1-.4.2h0a.52.52,0,0,1-.4-.2l-.3-.6h0l-.7,4.1a.55.55,0,0,1-.3.5c-.2.1-.3.2-.5.2a.76.76,0,0,1-.5-.2.44.44,0,0,1-.1-.5l.6-3.7h0c-.4.7-.8,1.3-1.2,1.9-.1.1-.2.2-.3.2h-.1c-.2,0-.3-.1-.3-.2v-.1a.45.45,0,0,1,0-.5v-.1l.3-.6a18.48,18.48,0,0,0,1.9-2.7v-.1h-.9a.76.76,0,0,1-.5-.2.44.44,0,0,1-.1-.5.55.55,0,0,1,.3-.5c.2-.1.3-.2.5-.2h1c.1,0,.1,0,.1-.1l.1-1.5c0-.1,0-.1-.1-.1-.3.1-.6.1-.9.2h-.1a.6.6,0,0,1-.4-.1,1.38,1.38,0,0,1-.3-.4V9.2a.37.37,0,0,1,.1-.3,1.38,1.38,0,0,1,.4-.3,22.91,22.91,0,0,0,2.8-.7c.1,0,.3-.1.4-.1h.3c.2.1.3.2.5.3v.1a.37.37,0,0,1,.1.3v.1a.78.78,0,0,1-.4.4,2.35,2.35,0,0,1-.8.2c-.1,0-.1,0-.1.1l-.3,1.6c0,.1,0,.1.1.1h.6a.76.76,0,0,1,.5.2c.1.2.2.3.1.5a.55.55,0,0,1-.3.5.76.76,0,0,1-.5.2H52c-.1,0-.1,0-.1.1v.2c0,.1,0,.1.1.2Zm5.1.6a.66.66,0,0,1,.5-.4.6.6,0,0,1,.4-.1h.3a.78.78,0,0,1,.4.4c0,.1.1.2,0,.3s0,.2-.1.2a6.92,6.92,0,0,1-2.4,2.7,11.13,11.13,0,0,1-3.5,1.6h-.2a.6.6,0,0,1-.4-.1.78.78,0,0,1-.4-.4c0-.1,0-.1-.1-.2a.19.19,0,0,1,0-.3c.1-.1,0-.1.1-.2s.2-.3.4-.3a7.89,7.89,0,0,0,3-1.2,6.36,6.36,0,0,0,2-2Zm-3.5-4.1a1,1,0,0,1,.4-.5.6.6,0,0,1,.4-.1h.1c.2,0,.3.1.4.3a.6.6,0,0,1,.1.4v.2a14.65,14.65,0,0,1-1.4,2.8,1,1,0,0,1-.5.4h-.2a.6.6,0,0,1-.4-.1h0c-.2-.1-.3-.2-.3-.4v-.2c0-.1.1-.2.1-.4A14.14,14.14,0,0,0,54.5,10.6Zm3.3-2.9a.76.76,0,0,1,.5.2.44.44,0,0,1,.1.5l-.9,5.8-.3.9a1.21,1.21,0,0,1-.5.5l-1.1.3h-.1c-.2,0-.3-.1-.5-.2s-.2-.3-.3-.5v-.3c0-.1.1-.2.2-.3a.52.52,0,0,1,.4-.2h.4a.22.22,0,0,0,.2-.2l.9-5.8a.55.55,0,0,1,.3-.5A1.85,1.85,0,0,1,57.8,7.7Zm2.7,4.9v.2a.52.52,0,0,1-.2.4,1,1,0,0,1-.5.4h-.2a.37.37,0,0,1-.3-.1c-.2-.1-.2-.3-.3-.4a18.46,18.46,0,0,0-.4-2.3v-.3a.37.37,0,0,1,.1-.3.78.78,0,0,1,.4-.4c.1,0,.2-.1.3-.1a.37.37,0,0,1,.3.1.78.78,0,0,1,.4.4C60.3,11.1,60.4,11.9,60.5,12.6Z"/>
    <rect class="cls-1" x="63" y="8.2" width="46.4" height="11.2"/>
    <g>
      <path class="cls-1" d="M25.7,30.4a1.38,1.38,0,0,1-.3.4.37.37,0,0,1-.3.1H25a.52.52,0,0,1-.4-.2.37.37,0,0,1-.1-.3v-.2c.1-.3.2-.6.3-1,0-.1,0-.1-.1-.1h-.6c-.1,0-.1,0-.1.1v4.3a2.77,2.77,0,0,1-.1.9,1.21,1.21,0,0,1-.5.5l-1.2.3h0a.76.76,0,0,1-.5-.2,1,1,0,0,1-.4-.5v-.3a.37.37,0,0,1,.1-.3.52.52,0,0,1,.4-.2h.8V29.3c0-.1,0-.1-.1-.1H21.3a.76.76,0,0,1-.5-.2,1.42,1.42,0,0,1-.2-.6.68.68,0,0,1,.7-.7h2a8.64,8.64,0,0,0-1.6-1,1.38,1.38,0,0,1-.3-.4v-.1a.37.37,0,0,1,.1-.3c.1-.1.3-.2.4-.3h.2a.37.37,0,0,1,.3.1c.2.1.3.2.5.3H23a5.5,5.5,0,0,0,.7-.9V25H21.6a.76.76,0,0,1-.5-.2.52.52,0,0,1-.2-.4.68.68,0,0,1,.7-.7h3.6a.37.37,0,0,1,.3.1l.6.5h0a.71.71,0,0,1,.6-.6h5.4a.71.71,0,0,1,.6.6.65.65,0,0,1-.6.6H30.4c-.1,0-.1,0-.1.1s-.1.5-.2.7v.1h1.6a.68.68,0,0,1,.7.7h0v5.3a.68.68,0,0,1-.7.7H27.5a.68.68,0,0,1-.7-.7h0V26.4a.68.68,0,0,1,.7-.7h1.1c.1,0,.1,0,.1-.1a5.64,5.64,0,0,0,.1-.7c0-.1,0-.1-.1-.1H26.8a.71.71,0,0,1-.6-.6h0a9.24,9.24,0,0,1-1.7,2.2c-.1,0,0,.1,0,.1a1.44,1.44,0,0,1,.3.2.52.52,0,0,1,.2.4v.1a.37.37,0,0,1-.1.3h1l.3.1c.1,0,.2.1.3.2s.1.2.1.4C26.3,28.9,26,29.6,25.7,30.4ZM27.1,33a1.42,1.42,0,0,1,.6-.2h.1a.76.76,0,0,1,.5.2h0a.55.55,0,0,1,.3.5.52.52,0,0,1-.2.4,9.5,9.5,0,0,1-1.7,1c-.1.1-.2.1-.4.1h-.2a.55.55,0,0,1-.5-.3.37.37,0,0,1-.1-.3v-.1c0-.2.1-.3.3-.4a14.63,14.63,0,0,0,1.3-.9Zm3.5-5.3c.1,0,.1-.1,0,0l.1-.7c0-.1,0-.1-.1-.1H27.9c-.1,0-.1,0-.1.1v.6c0,.1,0,.1.1.1Zm0,1.9c.1,0,.1-.1,0,0l.1-.7c0-.1,0-.1-.1-.1H27.9c-.1,0-.1,0-.1.1v.6c0,.1,0,.1.1.1Zm0,1.8h0l.1-.7c0-.1,0-.1-.1-.1H27.9c-.1,0-.1,0-.1.1v.6c0,.1,0,.1.1.1Zm-.5,2.4a.49.49,0,0,1-.1-.7l.1-.1a.91.91,0,0,1,1.2,0,4.44,4.44,0,0,1,1.1.8.62.62,0,0,1,.1.8l-.1.1h0c-.2.1-.3.2-.5.2h-.1a.76.76,0,0,1-.5-.2Z"/>
      <path class="cls-1" d="M42.3,33.3h1.3c.2,0,.4-.1.4-.3s.1-.5.1-.7a.52.52,0,0,1,.2-.4c.1,0,.2-.1.3-.1s.1,0,.2.1h.1a1,1,0,0,1,.5.4.6.6,0,0,1,.1.4v.1a2.84,2.84,0,0,1-.4,1.3,1.3,1.3,0,0,1-1.3.5H42.1c-.8,0-1.3-.1-1.5-.4a2,2,0,0,1-.4-1.5v-2c0-.1,0-.1-.1-.1H38.7c-.1,0-.1,0-.1.1-.1.4-.2.9-.3,1.3a4.13,4.13,0,0,1-.7,1.1,2.73,2.73,0,0,1-1.2.9c-.4.2-.8.3-1.2.5H35a.6.6,0,0,1-.4-.1,1,1,0,0,1-.5-.4h0v-.1a.37.37,0,0,1-.1-.3v-.2q.15-.3.3-.3a5,5,0,0,0,1.3-.5,2.19,2.19,0,0,0,1-.9,3.58,3.58,0,0,0,.4-1.1c0-.1,0-.1-.1-.1h-.7a.68.68,0,0,1-.7-.7V23.6a.68.68,0,0,1,.7-.7h7a.68.68,0,0,1,.7.7v6.1a.68.68,0,0,1-.7.7H41.9c-.1,0-.1,0-.1.1v2.3c0,.2,0,.4.1.4S42,33.3,42.3,33.3ZM37,24.5c-.1,0-.1.1,0,0l-.1.7c0,.1,0,.1.1.1h5.2c.1,0,.1,0,.1-.1v-.6c0-.1,0-.1-.1-.1Zm0,2.1h0l-.1.7c0,.1,0,.1.1.1h5.2c.1,0,.1,0,.1-.1v-.6c0-.1,0-.1-.1-.1Zm0,2c-.1,0-.1.1,0,0l-.1.7c0,.1,0,.1.1.1h5.2c.1,0,.1,0,.1-.1v-.6c0-.1,0-.1-.1-.1Z"/>
      <path class="cls-1" d="M48.8,23.8c.1-.2.2-.4.4-.4s.2-.1.4-.1h.2a.78.78,0,0,1,.4.4.64.64,0,0,1,0,.6c-.3.7-.6,1.3-.9,1.9,0,.1-.1.1-.1.2v8a.68.68,0,0,1-.7.7c-.2,0-.3-.1-.5-.2s-.2-.3-.2-.5V28.7h0c-.1.1-.2.3-.3.4a.52.52,0,0,1-.4.2H47c-.2,0-.3-.1-.4-.3a.77.77,0,0,0-.2-.3.9.9,0,0,1-.1-.5v-.1a1.42,1.42,0,0,1,.2-.6A11,11,0,0,0,48.8,23.8Zm8,3.1h0l-1.6-.1c-.1,0-.1,0-.1.1v6.5a2.77,2.77,0,0,1-.1.9,1.21,1.21,0,0,1-.5.5,2,2,0,0,1-1.1.3h-.1a.76.76,0,0,1-.5-.2,1,1,0,0,1-.4-.5c0-.1,0-.1-.1-.2V34a.37.37,0,0,1,.1-.3.52.52,0,0,1,.4-.2h.7c.1-.1.1-.1.1-.2V26.9c0-.1,0-.1-.1-.1H52.2c-.1,0-.1,0-.1.1-.2.4-.5.9-.7,1.3a.55.55,0,0,1-.5.3h-.1a.52.52,0,0,1-.4-.2c-.1,0-.1,0-.1-.1-.2-.1-.2-.3-.3-.5v-.1c0-.2,0-.3.1-.4a10.39,10.39,0,0,0,1.5-3.4,1,1,0,0,1,.4-.5.6.6,0,0,1,.4-.1h.3c.2.1.4.2.4.3s.1.2.1.4v.2a3.58,3.58,0,0,1-.4,1.1v.1c0,.1,0,0,.1,0h4.8l.3.1a.52.52,0,0,1,.4.2.37.37,0,0,1,.1.3V26l-.3,1.8c0,.2-.1.3-.3.4a.6.6,0,0,1-.4.1h-.1c-.2,0-.3-.1-.4-.3a.6.6,0,0,1-.1-.4v-.1c-.1-.1-.1-.3-.1-.6Zm-5.5,2.7a1,1,0,0,1,.4-.5.6.6,0,0,1,.4-.1h.2a.55.55,0,0,1,.5.3c.1.1.1.2.1.4v.2a15.66,15.66,0,0,1-1.2,3c-.1.2-.2.3-.4.3h-.2a.6.6,0,0,1-.4-.1h-.1c-.2-.1-.3-.2-.3-.4v-.2a.6.6,0,0,1,.1-.4C50.7,31.3,51,30.5,51.3,29.6Zm4.6.2c0-.1-.1-.2-.1-.3a.37.37,0,0,1,.1-.3.78.78,0,0,1,.4-.4c.1,0,.2-.1.3-.1a.37.37,0,0,1,.3.1.78.78,0,0,1,.4.4c.4.9.7,1.9,1,2.8v.2a.6.6,0,0,1-.1.4,1,1,0,0,1-.5.4h-.3a.37.37,0,0,1-.3-.1c-.2-.1-.3-.2-.3-.4A14.26,14.26,0,0,0,55.9,29.8Z"/>
      <path class="cls-1" d="M67.5,25h0l2.9.1a.68.68,0,0,1,.7.7h0c0,2.1-.1,4.1-.3,6.3a5.45,5.45,0,0,1-.5,2.2l-.5.5a1.85,1.85,0,0,1-.7.2c-.3,0-.6.1-1,.1h-.3a.76.76,0,0,1-.5-.2,1,1,0,0,1-.4-.5v-.3a.37.37,0,0,1,.1-.3.52.52,0,0,1,.4-.2h1.2a1.42,1.42,0,0,0,.6-.2,4.06,4.06,0,0,0,.4-1.9c.1-1,.2-2.7.3-5,0-.1,0-.1-.1-.1H67.2c-.1,0-.1,0-.1.1a5.39,5.39,0,0,1-.7,1.3c-.1.2-.2.3-.4.3h-.1c-.2,0-.3,0-.4-.1s-.2-.1-.3-.2h-.1V33a.76.76,0,0,1-.2.5,1.61,1.61,0,0,1-.9.3H61.4c-.1,0-.1,0-.1.1v.2a.7.7,0,0,1-1.4,0V26a.68.68,0,0,1,.7-.7h.6c.1,0,.1,0,.1-.1l.3-1.2a.55.55,0,0,1,.3-.5.52.52,0,0,1,.4-.2h.3c.2,0,.4.1.4.3a.37.37,0,0,1,.1.3v.2c-.1.4-.3.7-.4,1.1v.1c0,.1,0,0,.1,0h1.1a.76.76,0,0,1,.5.2c.2.1.2.3.2.5v1.2h0a10.39,10.39,0,0,0,1.5-3.4,1,1,0,0,1,.4-.5.6.6,0,0,1,.4-.1h.2c.2.1.3.2.5.3s.1.2.1.4v.2C67.6,24.4,67.6,24.7,67.5,25Zm-4.3,3.6h0l.1-2c0-.1,0-.1-.1-.1H61.3c-.1,0-.1,0-.1.1v1.9c0,.1,0,.1.1.1Zm-1.9,3.8h0l1.9.1c.1,0,.1,0,.1-.1V30.1c0-.1,0-.1-.1-.1H61.3c-.1,0-.1,0-.1.1l.1,2.3Zm7.2-2.1a.6.6,0,0,1,.1.4v.2a1,1,0,0,1-.4.5h0c-.1.1-.2.1-.4.1h-.2a.78.78,0,0,1-.4-.4,9.91,9.91,0,0,0-1.1-1.7c-.1-.1-.1-.2-.1-.4v-.2c0-.2.1-.3.3-.4a.6.6,0,0,1,.4-.1h.2c.2,0,.4.1.4.3a6.57,6.57,0,0,1,1.2,1.7Z"/>
      <path class="cls-1" d="M75.2,26.2a1,1,0,0,1,.5-.4H76a.37.37,0,0,1,.3.1h.1a.78.78,0,0,1,.4.4v.2a.37.37,0,0,1-.1.3c-.3.4-.6.9-.9,1.3,0,.1-.1.1-.1.2v5.9a.68.68,0,0,1-.7.7h-.1a.68.68,0,0,1-.7-.7h0V30h0c-.2.1-.3.3-.4.4a.52.52,0,0,1-.4.2h-.1a.55.55,0,0,1-.5-.3c-.1-.1-.1-.1-.1-.2a.52.52,0,0,1-.2-.4v-.1a.55.55,0,0,1,.3-.5,8.64,8.64,0,0,0,1.4-1.3A8.64,8.64,0,0,1,75.2,26.2Zm-.6-2.8a1,1,0,0,1,.5-.4h.3a.6.6,0,0,1,.4.1l.1.1c.2.1.3.2.3.4v.2a.6.6,0,0,1-.1.4l-1.2,1.2a6.89,6.89,0,0,1-1.3,1.1.6.6,0,0,1-.4.1h-.1c-.2,0-.4-.1-.4-.3h0a.6.6,0,0,1-.1-.4v-.1a.55.55,0,0,1,.3-.5,2.84,2.84,0,0,0,1-.9A8.65,8.65,0,0,1,74.6,23.4Zm8.8,3.7a.7.7,0,0,1,0,1.4h-1c-.1,0-.1,0-.1.1V33a3.55,3.55,0,0,1-.2,1,1,1,0,0,1-.6.5,5.66,5.66,0,0,1-1.8.3h0a.76.76,0,0,1-.5-.2.55.55,0,0,1-.3-.5c0-.1,0-.1-.1-.1v-.2a.37.37,0,0,1,.1-.3.52.52,0,0,1,.4-.2h1.2c.1,0,.3-.1.3-.2V28.5c0-.1,0-.1-.1-.1h-3a.7.7,0,0,1,0-1.4h0l5.7.1Zm-.3-3.5a.7.7,0,1,1,0,1.4H78.3a.7.7,0,0,1,0-1.4h4.8Z"/>
      <path class="cls-1" d="M88.6,29.8h0l-.1,3.1c0,.1,0,.1.1.1a4.25,4.25,0,0,0,1.1-.2h.1a.6.6,0,0,1,.4.1c.2.1.2.3.2.5a.52.52,0,0,1-.2.4c-.1.1-.3.2-.4.3-.9.2-2,.4-3.5.6h-.1a.6.6,0,0,1-.4-.1c-.2-.1-.3-.2-.3-.4v-.1a.6.6,0,0,1,.1-.4c.1-.2.3-.2.4-.3a1.27,1.27,0,0,1,.6-.1.9.9,0,0,0,.5-.1c.1,0,.1,0,.1-.1V29.8c0-.1,0-.1-.1-.1h-1a.52.52,0,0,1-.4-.2.49.49,0,0,1-.1-.7l.1-.1a.52.52,0,0,1,.4-.2h1c.1,0,.1,0,.1-.1v-.8c0-.1,0-.1-.1-.1h-.7c-.2,0-.4-.1-.4-.3v-.1h0c-.1.1-.1,0-.2,0a.78.78,0,0,0-.4-.4.76.76,0,0,1-.2-.5c0-.2.1-.3.2-.5a6,6,0,0,0,1.4-2.1.78.78,0,0,1,.4-.4c.2-.1.3-.2.5-.2a1.5,1.5,0,0,1,1.1.4,8,8,0,0,1,1.3,1.3.73.73,0,0,1,.2.6,1.42,1.42,0,0,1-.2.6l-.3.4c0,.1-.1.1-.1.2v.3a.76.76,0,0,1-.2.5c-.1.2-.3.2-.5.2h-.4c-.1,0-.1,0-.1.1v.8c0,.1,0,.1.1.1h.9a.61.61,0,1,1,0,1.2C89.5,29.8,88.6,29.8,88.6,29.8Zm-3,1.3h0c0-.2,0-.3.1-.4s.2-.2.3-.2h.2a.37.37,0,0,1,.3.1l.3.3c.1.4.2.8.3,1.1v.1a.37.37,0,0,1-.1.3,1.38,1.38,0,0,1-.4.3.6.6,0,0,1-.4-.1.52.52,0,0,1-.2-.4A3.58,3.58,0,0,1,85.6,31.1Zm1.3-4.9h0l2.5.1h.1v-.1c-.4-.6-.9-1.1-1.3-1.6-.1-.1-.1,0-.1,0C87.6,25.2,87.3,25.7,86.9,26.2Zm2.8,6q0,.15-.3.3a.3.3,0,0,1-.4,0q-.15,0-.3-.3c0-.1,0-.1-.1-.2v-.1c.1-.4.2-.8.3-1.1s.1-.3.3-.4a.37.37,0,0,1,.3-.1h.1c.2,0,.3.1.4.3a.37.37,0,0,1,.1.3v.2A3.58,3.58,0,0,0,89.7,32.2Zm6.2-5a.76.76,0,0,1,.5.2c.1.2.2.3.2.5v5.6a2.77,2.77,0,0,1-.1.9,1.21,1.21,0,0,1-.5.5l-1.2.3h0a.76.76,0,0,1-.5-.2,1,1,0,0,1-.4-.5v-.3a.37.37,0,0,1,.1-.3.52.52,0,0,1,.4-.2h.7c.1-.1.1-.1.1-.2v-.7c0-.1,0-.1-.1-.1H92.4c-.1,0-.1,0-.1.1v1.6a.68.68,0,0,1-.7.7c-.2,0-.3-.1-.5-.2s-.2-.3-.2-.5V27.6c0-.2.1-.4.3-.4h.1c-.2-.1-.3-.2-.5-.3s-.3-.2-.3-.4v-.2a.6.6,0,0,1,.1-.4,3.51,3.51,0,0,0,.6-1.4c.1-.2.2-.4.4-.4A.6.6,0,0,1,92,24h.2c.2,0,.3.1.4.3a.37.37,0,0,1,.1.3v.2a9.73,9.73,0,0,1-1.1,2.3v.1H93c.1,0,.1,0,.1-.1V23.8a.76.76,0,0,1,.2-.5c.2-.1.3-.2.5-.2a.68.68,0,0,1,.7.7h0V27c0,.1,0,.1.1.1l1.3.1Zm-.7,1.4c0-.1-.1-.1,0,0l-2.8-.1c-.1,0-.1,0-.1.1v.6c0,.1,0,.1.1.1h2.7c.1,0,.1,0,.1-.1Zm-2.9,2.7h0l2.8.1c.1,0,.1,0,.1-.1v-.7c0-.1,0-.1-.1-.1H92.4c-.1,0-.1,0-.1.1Zm4.6-5.5a.64.64,0,0,1,0,.6c-.1.2-.2.4-.4.4s-.2.1-.3.1a.37.37,0,0,1-.3-.1.78.78,0,0,1-.4-.4c-.2-.5-.5-1-.8-1.6a.37.37,0,0,1-.1-.3v-.2a1.38,1.38,0,0,1,.3-.4c.1-.1.2-.1.4-.1h.2c.2.1.4.2.4.3A5.85,5.85,0,0,1,96.9,25.8Z"/>
      <path class="cls-1" d="M104.2,25.4h0l4.5.1a.68.68,0,0,1,.7.7h0a35.17,35.17,0,0,1-.4,5.6,5.68,5.68,0,0,1-.7,2.2,1.71,1.71,0,0,1-1.3.7c-.3,0-.6.1-1,.1h-.3a.76.76,0,0,1-.5-.2.55.55,0,0,1-.3-.5c0-.1,0-.1-.1-.2s0-.1,0-.2a.37.37,0,0,1,.1-.3.52.52,0,0,1,.4-.2h1.1a1.42,1.42,0,0,0,.6-.2c.4-.4.7-2.3.9-5.8,0-.1,0-.1-.1-.1h-3.4c-.1,0-.1,0-.1.1a8.75,8.75,0,0,1-.2,1.6,10.93,10.93,0,0,1-.5,1.7,5.56,5.56,0,0,1-.9,1.7,17.38,17.38,0,0,1-1.3,1.5,10.59,10.59,0,0,1-1.2,1,.6.6,0,0,1-.4.1h-.2a.55.55,0,0,1-.5-.3l-.2-.2a.52.52,0,0,1-.2-.4.55.55,0,0,1,.3-.5,7.61,7.61,0,0,0,3.6-6.1c0-.1,0-.1-.1-.1h-3a.68.68,0,0,1-.7-.7v-.1a.68.68,0,0,1,.7-.7h3.1c.1,0,.1,0,.1-.1V23.8a.68.68,0,0,1,.7-.7h.2a.68.68,0,0,1,.7.7l-.1,1.6Z"/>
    </g>
  </g>
  <path class="cls-1" d="M8.9,32.1l6-20.3c0-.1,0-.2-.2-.2l-3.7.3a1.09,1.09,0,0,1-.9-.4.92.92,0,0,1-.1-1,1.9,1.9,0,0,1,.7-1.1,2.28,2.28,0,0,1,1.2-.6A27.59,27.59,0,0,0,14.6,8a8.53,8.53,0,0,1,3.5-.8,1.61,1.61,0,0,1,1.1.5,1.64,1.64,0,0,1,.2,1.2L12.6,33a2.29,2.29,0,0,1-2.3,1.5C8,34.5,9.3,31.3,8.9,32.1Z"/>
  <path class="cls-1" d="M26,19.3a3.12,3.12,0,0,1-3-1.6c-.6-1-.6-2.5-.1-4.5a8.48,8.48,0,0,1,2.5-4.4,5.44,5.44,0,0,1,3.9-1.5,3.23,3.23,0,0,1,3,1.5c.6,1,.6,2.5.1,4.4a8.77,8.77,0,0,1-2.5,4.5A5.89,5.89,0,0,1,26,19.3Zm.5-1.8c1.4,0,2.5-1.4,3.2-4.3s.4-4.2-1-4.2a2.92,2.92,0,0,0-.9.2,2.7,2.7,0,0,0-.8.7,5.67,5.67,0,0,0-.8,1.3,11.76,11.76,0,0,0-.7,2c-.7,2.9-.4,4.3,1,4.3Z"/>
  <path class="cls-1" d="M38.6,19.3a3.12,3.12,0,0,1-3-1.6c-.6-1-.6-2.5-.1-4.5A8.48,8.48,0,0,1,38,8.8a5.37,5.37,0,0,1,3.8-1.5,3.23,3.23,0,0,1,3,1.5c.6,1,.6,2.5.1,4.4a8.77,8.77,0,0,1-2.5,4.5A5.46,5.46,0,0,1,38.6,19.3Zm.4-1.8c1.4,0,2.5-1.4,3.2-4.3s.4-4.2-1-4.2a2.92,2.92,0,0,0-.9.2,2.7,2.7,0,0,0-.8.7,5.67,5.67,0,0,0-.8,1.3,11.76,11.76,0,0,0-.7,2c-.7,2.9-.4,4.3,1,4.3Z"/>
  <g>
    <path d="M70.8,11.4a.4.4,0,0,1,.7.3c-.1,1.3-.1,2.2-.2,2.8,0,.1-.1.2-.2.3a.37.37,0,0,1-.3.1.35.35,0,0,1-.2-.1.37.37,0,0,1-.1-.3,24.62,24.62,0,0,0,.2-2.6A1.34,1.34,0,0,0,70.8,11.4Zm1.6,5.8a.4.4,0,1,1-.8,0V10.4c0-.2.1-.4.3-.4h0a.35.35,0,0,1,.4.4Zm1-4.2a.35.35,0,0,1-.4.4h-.3c-.1-.1-.1-.2-.2-.3l-.2-1.3a.43.43,0,0,1,.7-.3c.1.1.1.2.2.3Zm.8,3.8c-.6.6-1,.9-1.3.8-.1,0-.2-.1-.3-.2a.47.47,0,0,1,.1-.6h.1a3.59,3.59,0,0,0,1.7-2.6H73.1a.4.4,0,1,1,0-.8h1.6V11.7h-1a.4.4,0,1,1,0-.8h1v-.6a.35.35,0,0,1,.4-.4.43.43,0,0,1,.4.4V11h1.3a.68.68,0,0,1,.7.7v1.8h.2a.4.4,0,1,1,0,.8H75.8a5.46,5.46,0,0,0,2,2.5c.1.1.2.2.2.3a.37.37,0,0,1-.1.3c-.1.1-.2.2-.3.2a.6.6,0,0,1-.4-.1,7.55,7.55,0,0,1-2.1-2.6,3.07,3.07,0,0,1-.9,1.9Zm1.4-3.4h1.1V12c0-.1,0-.1-.1-.2s-.1-.1-.2-.1h-.9V13h0v.1a.37.37,0,0,1,.1.3Z"/>
    <path d="M82,10.5a.76.76,0,0,1,.2.5v1.7a.67.67,0,0,1-.6.7H79.8v3.9a.4.4,0,1,1-.8,0V11a.69.69,0,0,1,.6-.7h2C81.7,10.4,81.9,10.4,82,10.5Zm-.6,1h0c0-.2-.1-.4-.2-.4H80a.22.22,0,0,0-.2.2v.2Zm-1.7.7v.4h1.4a.22.22,0,0,0,.2-.2v-.2Zm1.2,4.4a.69.69,0,0,1-.6-.7V14.3a.47.47,0,0,1,.5-.5h2.9a.55.55,0,0,1,.5.2.52.52,0,0,1,.2.4V16a.52.52,0,0,1-.2.4.76.76,0,0,1-.4.2Zm.4-2h0a.1.1,0,0,0-.1.1v1.1h2.4V14.6H81.3Zm2-1.3c-.4,0-.6-.3-.7-.7V11a.52.52,0,0,1,.2-.4.76.76,0,0,1,.4-.2h2a.52.52,0,0,1,.4.2.76.76,0,0,1,.2.4v5.8a.9.9,0,0,1-.1.5.81.81,0,0,1-.9.4c-.6,0-1-.1-1.1-.3a.37.37,0,0,1-.1-.3.38.38,0,0,1,.5-.3h.7a.1.1,0,0,0,.1-.1c0-.1.1-.1.1-.2V13.4ZM85,11.4v-.1a.27.27,0,0,0-.3-.3H83.6c-.1,0-.2.1-.3.2v.2Zm-1.6.8v.1c0,.1.1.2.2.3H85v-.4Z"/>
    <path d="M86.8,11.4a.4.4,0,0,1,.7.3c-.1,1.3-.1,2.2-.2,2.8,0,.1-.1.2-.2.3a.37.37,0,0,1-.3.1.35.35,0,0,1-.2-.1.37.37,0,0,1-.1-.3,24.62,24.62,0,0,0,.2-2.6A1.34,1.34,0,0,0,86.8,11.4Zm1.6,5.8a.4.4,0,1,1-.8,0V10.4c0-.2.1-.4.3-.4h0a.35.35,0,0,1,.4.4Zm1-4.2a.35.35,0,0,1-.4.4h-.3c-.1-.1-.1-.2-.2-.3l-.2-1.3a.43.43,0,0,1,.7-.3c.1.1.1.2.2.3Zm.8,3.8c-.6.6-1,.9-1.3.8-.1,0-.2-.1-.3-.2a.47.47,0,0,1,.1-.6h.1a3.59,3.59,0,0,0,1.7-2.6H89.1a.4.4,0,1,1,0-.8h1.6V11.7h-1a.4.4,0,1,1,0-.8h1v-.6a.35.35,0,0,1,.4-.4.43.43,0,0,1,.4.4V11h1.3a.68.68,0,0,1,.7.7v1.8h.2a.4.4,0,1,1,0,.8H91.8a5.46,5.46,0,0,0,2,2.5c.1.1.2.2.2.3a.37.37,0,0,1-.1.3c-.1.1-.2.2-.3.2a.6.6,0,0,1-.4-.1,7.55,7.55,0,0,1-2.1-2.6,3.07,3.07,0,0,1-.9,1.9Zm1.4-3.4h1.1V12c0-.1,0-.1-.1-.2s-.1-.1-.2-.1h-.9V13h0v.1a.37.37,0,0,1,.1.3Z"/>
    <path d="M99.1,11.3c-.1.2-.3.4-.4.6l.1.1a8.76,8.76,0,0,0,3.2,1.6c.1,0,.2.1.3.2v.3a.55.55,0,0,1-.5.3h0c-.4-.2-.9-.3-1.3-.5h0a.35.35,0,0,1-.4.4H97a.35.35,0,0,1-.4-.4c-.5.2-.9.4-1.4.6h-.3a.22.22,0,0,1-.2-.2.37.37,0,0,1,.2-.5h0a11,11,0,0,0,3.2-1.7h0c0-.1-.1-.1-.1-.2s.1-.2.1-.3a2.4,2.4,0,0,0,.7-1.2c0-.1.1-.3.2-.3h.3a.22.22,0,0,1,.2.2v.4h2.3a.4.4,0,1,1,0,.8h-1.1v.1c.2.4.2.7.1.8s-.1.1-.2.2h-.3c-.1-.1-.1-.2-.2-.3s-.1-.5-.2-.7Zm-3.1,0c-.5.7-.8,1-1,1s-.2-.1-.3-.1a.37.37,0,0,1-.1-.3c0-.1.1-.3.2-.3l.6-.8c0-.1,0-.1.1-.2s.1-.3.2-.4a.35.35,0,0,1,.1-.2h.3a.22.22,0,0,1,.2.2v.4h1.6a.4.4,0,1,1,0,.8H97v.1c0,.2.1.3.1.5a.37.37,0,0,1-.1.3c-.1.1-.1.1-.2.1a.37.37,0,0,1-.3-.1l-.1-.1-.3-.9Zm.2,6.1a.69.69,0,0,1-.6-.7V15.2a.76.76,0,0,1,.2-.4.52.52,0,0,1,.4-.2h4.4a.55.55,0,0,1,.5.2.52.52,0,0,1,.2.4v1.5c0,.2-.1.3-.2.5a.76.76,0,0,1-.4.2Zm.4-1.9h-.1v1h3.9v-1H96.6Zm3.1-2a6.73,6.73,0,0,1-1.1-.7.31.31,0,0,0-.2-.1c-.1,0-.2,0-.2.1a3.59,3.59,0,0,1-1,.7Z"/>
  </g>
  <g>
    <path class="cls-2" d="M11,36.8q.21,0,.21.18v.69h.56l.16-.2a4.94,4.94,0,0,0,.3-.49.17.17,0,0,1,.16-.09.18.18,0,0,1,.13.06.17.17,0,0,1,.05.13.4.4,0,0,1,0,.15l-.27.34-.09.1H13a.41.41,0,0,1,.34.15.59.59,0,0,1,.1.36,3.29,3.29,0,0,1,0,.42.23.23,0,0,1-.23.17.19.19,0,0,1-.21-.21A2.47,2.47,0,0,0,13,38.2q0-.18-.15-.18H9.18a.12.12,0,0,0-.13.13v.43c0,.13-.07.19-.2.19a.17.17,0,0,1-.19-.19V38c0-.22.11-.33.34-.33h.91c-.13-.18-.27-.34-.42-.51a.2.2,0,0,1,0-.09.18.18,0,0,1,.21-.2s.06,0,.1.07a2.4,2.4,0,0,1,.39.48.24.24,0,0,1,0,.12c0,.06,0,.11,0,.13h.68V37A.17.17,0,0,1,11,36.8ZM9.34,39.59h3.38c.22,0,.33.09.33.29v1.39c0,.21-.11.31-.33.31H9.34c-.2,0-.3-.1-.3-.31V39.88C9,39.68,9.14,39.59,9.34,39.59Zm.34-1.31h2.63a.23.23,0,0,1,.26.26V39c0,.17-.09.25-.26.25H9.68c-.18,0-.27-.08-.27-.25v-.49A.24.24,0,0,1,9.68,38.28Zm-.25,2.11h1.4v-.45H9.55c-.08,0-.12.05-.12.14Zm1.4.84V40.7H9.43v.36c0,.11,0,.17.12.17Zm1.27-2.29c.07,0,.1,0,.1-.11v-.09c0-.08,0-.12-.1-.12H9.89c-.08,0-.11,0-.11.12v.09c0,.08,0,.11.11.11Zm-.89,1v.45h1.45v-.31a.13.13,0,0,0-.14-.14Zm1.31,1.29c.09,0,.14-.06.14-.17V40.7H11.21v.53Z"/>
    <path class="cls-2" d="M16,36.87a.19.19,0,0,1,.21.21v1.2h2c.12,0,.18.06.18.19s-.06.21-.18.21h-2v2.44h2.33c.13,0,.2.06.2.18s-.07.19-.2.19h-4.4a.17.17,0,0,1-.19-.19c0-.12.06-.18.19-.18h1.66v-4C15.79,36.94,15.85,36.87,16,36.87Z"/>
    <path class="cls-2" d="M20.44,38.22a.23.23,0,0,1,.14,0,.16.16,0,0,1,.07.13.44.44,0,0,1,0,.1,3.2,3.2,0,0,1-.39.65v2.35a.19.19,0,0,1-.38,0v-2a2.53,2.53,0,0,1-.26.22.31.31,0,0,1-.15.09c-.14,0-.21-.06-.21-.19a.17.17,0,0,1,0-.11,3.62,3.62,0,0,0,.59-.5,2.74,2.74,0,0,0,.45-.69C20.33,38.26,20.38,38.22,20.44,38.22Zm-.1-1.37a.33.33,0,0,1,.14,0,.18.18,0,0,1,.06.13.2.2,0,0,1,0,.1,2.41,2.41,0,0,1-.41.72,3.18,3.18,0,0,1-.51.53c-.06.05-.1.08-.13.08s-.21-.06-.21-.17a.19.19,0,0,1,0-.12,3.09,3.09,0,0,0,.52-.5,2.83,2.83,0,0,0,.4-.68C20.23,36.9,20.27,36.85,20.34,36.85Zm3.49,1.46c.13,0,.2.06.2.18a.18.18,0,0,1-.2.19h-.76V41c0,.42-.19.62-.58.62a4,4,0,0,1-1-.17.18.18,0,0,1-.14-.19c0-.13.06-.2.16-.2a.53.53,0,0,1,.16,0,4.87,4.87,0,0,0,.83.15c.1,0,.15-.1.15-.31V38.68H21a.17.17,0,0,1-.18-.19.16.16,0,0,1,.18-.18Zm-.22-1.24c.13,0,.19.06.19.18a.17.17,0,0,1-.19.19h-2.3c-.12,0-.18-.06-.18-.19a.16.16,0,0,1,.18-.18Z"/>
    <path class="cls-2" d="M25.58,36.84a.35.35,0,0,1,.22.13l.68.74a.17.17,0,0,1,.07.14.17.17,0,0,1-.19.18.16.16,0,0,1-.1,0l-.59-.67a.1.1,0,0,0-.07,0s0,0-.06,0a7.14,7.14,0,0,1-.61.81.18.18,0,0,1,.11,0h1.09c.11,0,.17,0,.17.16a.15.15,0,0,1-.17.17h-.41V39h.56a.15.15,0,0,1,.17.17c0,.12-.06.18-.17.18h-.56V41c.19-.05.36-.09.5-.14a.12.12,0,0,1,.08,0,.14.14,0,0,1,.15.14.18.18,0,0,1-.11.16,4.15,4.15,0,0,1-.73.24c-.23,0-.51.11-.84.16-.11,0-.16-.07-.17-.19a.17.17,0,0,1,.15-.19l.64-.09V39.38h-.6c-.11,0-.16-.06-.16-.18s.05-.17.16-.17h.6v-.6H25c-.11,0-.16-.06-.16-.17s0-.08,0-.1l-.07.08a.24.24,0,0,1-.16.09.18.18,0,0,1-.19-.19.25.25,0,0,1,.08-.17,4.61,4.61,0,0,0,.8-.94C25.43,36.9,25.5,36.84,25.58,36.84Zm-.7,2.75a.17.17,0,0,1,.16.11c0,.15.07.4.11.75a1.1,1.1,0,0,1,0,.16c0,.09-.06.14-.17.14a.14.14,0,0,1-.16-.14c0-.32-.06-.6-.09-.83v-.06C24.73,39.63,24.78,39.59,24.88,39.59Zm1.34.06a.28.28,0,0,1,.13,0,.09.09,0,0,1,.06.08.52.52,0,0,1,0,.11c-.06.27-.12.52-.19.73a.16.16,0,0,1-.11,0q-.18,0-.18-.12s0-.07,0-.08c.05-.19.11-.44.16-.73A.13.13,0,0,1,26.22,39.65ZM26.68,37a.14.14,0,0,1,.09.06,4.82,4.82,0,0,1,.61.66.46.46,0,0,1,0,.13c0,.11-.07.16-.19.16a.14.14,0,0,1-.1,0c-.19-.23-.4-.46-.62-.68a.22.22,0,0,1,0-.1C26.47,37.11,26.54,37,26.68,37Zm1.21-.2c.13,0,.19.06.19.18v1.24h.7c.24,0,.35.11.35.34v2.63a.4.4,0,0,1-.45.45,1.91,1.91,0,0,1-.64-.13.18.18,0,0,1-.13-.16c0-.14.05-.2.15-.2a.39.39,0,0,1,.14,0,1.61,1.61,0,0,0,.44.09c.08,0,.12-.06.12-.2v-.58H27v1c0,.13-.06.19-.18.19s-.18-.06-.18-.19V38.6c0-.23.12-.34.36-.34h.69V37A.16.16,0,0,1,27.89,36.84ZM27,39.22h1.74v-.48c0-.08,0-.13-.06-.13H27.09s-.07,0-.07.13Zm0,1h1.74v-.65H27ZM29.1,37a.25.25,0,0,1,.15,0,.14.14,0,0,1,.08.11.43.43,0,0,1,0,.11,4,4,0,0,1-.59.69.17.17,0,0,1-.14.07c-.16,0-.23-.05-.23-.16a.31.31,0,0,1,0-.11A3.54,3.54,0,0,0,29,37.1.15.15,0,0,1,29.1,37Z"/>
    <path class="cls-2" d="M34.21,37c.11,0,.17,0,.17.16s-.06.19-.17.19H31c-.11,0-.16.06-.16.17v.25h3.26c.11,0,.17.05.17.16s-.06.16-.17.16H30.82v.4h3.26a.15.15,0,0,1,.17.17c0,.11-.06.16-.17.16H30.82v.42h3.7a.14.14,0,0,1,.16.16c0,.13,0,.19-.16.19H32.18a2.89,2.89,0,0,0,.5.79.69.69,0,0,0,.13.11,7.2,7.2,0,0,0,1.09-.63c.06-.06.1-.08.14-.08a.17.17,0,0,1,.19.19.23.23,0,0,1-.08.16,7.65,7.65,0,0,1-1.08.57,4.08,4.08,0,0,0,.49.28,4.47,4.47,0,0,0,1,.31q.21,0,.21.21c0,.12-.07.19-.21.19a5.26,5.26,0,0,1-1.16-.4,2.93,2.93,0,0,1-1.06-.81,2.45,2.45,0,0,1-.49-.89h-1v1.54l.1,0A10.36,10.36,0,0,0,32,40.78a.2.2,0,0,1,.1,0c.1,0,.15.05.16.16a.19.19,0,0,1-.12.18,5.37,5.37,0,0,1-1,.32c-.32.08-.7.16-1.15.23a.19.19,0,0,1-.19-.21.19.19,0,0,1,.17-.21l.49-.07V39.55h-.56c-.11,0-.16-.06-.16-.19a.14.14,0,0,1,.16-.16h.56V37.27c0-.21.1-.31.3-.31Z"/>
    <path class="cls-2" d="M37.9,39a1.17,1.17,0,0,1-.31.68c-.1.12-.18.18-.25.18s-.1,0-.1-.1a.71.71,0,0,1,.11-.18c.07-.1.11-.16.11-.2s0-.08-.14-.14a.31.31,0,0,1-.14-.24.3.3,0,0,1,.1-.25.41.41,0,0,1,.27-.1.34.34,0,0,1,.24.11A.3.3,0,0,1,37.9,39Z"/>
    <path class="cls-2" d="M41.56,36.89a.24.24,0,0,1,.14,0,.2.2,0,0,1,.06.14.23.23,0,0,1,0,.11,5.84,5.84,0,0,1-.26.86v3.46a.19.19,0,1,1-.38,0V38.84a5,5,0,0,1-.35.54.26.26,0,0,1-.14.09c-.14,0-.21-.06-.21-.19a.13.13,0,0,1,0-.1,5.6,5.6,0,0,0,.55-.92A6.89,6.89,0,0,0,41.42,37,.13.13,0,0,1,41.56,36.89Zm1,0a.3.3,0,0,1,.15,0,.17.17,0,0,1,.07.14.32.32,0,0,1,0,.13,1,1,0,0,1-.06.23h2.13a.34.34,0,0,1,.38.39,1.48,1.48,0,0,1,0,.24c0,.16-.11.34-.19.53a.28.28,0,0,1-.19.1c-.15,0-.23-.06-.23-.19a.31.31,0,0,1,0-.08,2.2,2.2,0,0,0,.18-.39.33.33,0,0,0,0-.1c0-.09,0-.13-.13-.13H42.6a1.69,1.69,0,0,1-.13.27,3.59,3.59,0,0,1-.39.66c-.07.06-.11.09-.15.09a.18.18,0,0,1-.21-.2.18.18,0,0,1,0-.09,3.81,3.81,0,0,0,.38-.65,4.43,4.43,0,0,0,.29-.87A.15.15,0,0,1,42.58,36.89Zm.05,1.83c.14,0,.21.05.21.16a.69.69,0,0,1,0,.13,8.66,8.66,0,0,1-.64,1.88A.19.19,0,0,1,42,41c-.14,0-.21-.06-.21-.19a.27.27,0,0,1,0-.13,8.69,8.69,0,0,0,.64-1.86A.15.15,0,0,1,42.63,38.72Zm.93-.56c.14,0,.21.08.21.23v2.89c0,.26-.14.38-.41.38a3.37,3.37,0,0,1-.85-.15.18.18,0,0,1-.14-.18c0-.14.06-.2.17-.21l.12,0a3,3,0,0,0,.64.13c.05,0,.08,0,.08-.13V38.39C43.38,38.24,43.44,38.16,43.56,38.16Zm.78.58s.09,0,.14.1a12,12,0,0,1,.62,1.89.78.78,0,0,1,0,.14c0,.12-.08.19-.23.19s-.13-.05-.16-.15a10.94,10.94,0,0,0-.58-1.86.24.24,0,0,1,0-.13C44.11,38.8,44.18,38.74,44.34,38.74Z"/>
    <path class="cls-2" d="M46.05,39.26h.56c.19,0,.29.09.29.26v1.09a.45.45,0,0,0,.26.39,1.66,1.66,0,0,0,.84.19h2.38c.12,0,.18.06.18.2a.16.16,0,0,1-.18.18H48.14a3.36,3.36,0,0,1-.74-.08,1.51,1.51,0,0,1-.57-.27l-.07,0a.1.1,0,0,0-.08,0,2.06,2.06,0,0,1-.55.33.49.49,0,0,1-.22.08c-.13,0-.21-.07-.21-.18a.18.18,0,0,1,.15-.19,2.91,2.91,0,0,0,.49-.23.48.48,0,0,0,.17-.43v-.89a.08.08,0,0,0-.09-.09h-.37a.16.16,0,0,1-.18-.18C45.87,39.32,45.93,39.26,46.05,39.26ZM46,38l.13,0,.29.18a3.48,3.48,0,0,1,.39.28s.06.08.06.11-.06.18-.16.18a.29.29,0,0,1-.19-.06l-.37-.25-.27-.14a.24.24,0,0,1-.06-.15C45.83,38.05,45.89,38,46,38Zm.16-1.05a.24.24,0,0,1,.13,0l.29.17a3.47,3.47,0,0,1,.38.29.23.23,0,0,1,.05.1c0,.12-.05.19-.16.19a.33.33,0,0,1-.19-.06,3.5,3.5,0,0,0-.35-.25l-.27-.15a.24.24,0,0,1-.06-.15A.16.16,0,0,1,46.17,36.94Zm1.47,1.78H49.9c.18,0,.27.07.27.22v.53c0,.16-.09.25-.27.25H49a1.57,1.57,0,0,0,.27.44l.07.05a2.28,2.28,0,0,0,.62-.4l.11,0a.15.15,0,0,1,.17.17.18.18,0,0,1-.09.15,2,2,0,0,1-.53.33l.1.06a2.41,2.41,0,0,0,.56.22.22.22,0,0,1,.1.15.19.19,0,0,1-.21.21l-.13,0a3.16,3.16,0,0,1-.55-.26,1.81,1.81,0,0,1-.51-.41,1.89,1.89,0,0,1-.34-.64h-.29l0,.05a1.07,1.07,0,0,1-.19.18v.61a4.15,4.15,0,0,0,.52-.15l.09,0a.15.15,0,0,1,.14.15.19.19,0,0,1-.1.16,2.69,2.69,0,0,1-.59.2,6.16,6.16,0,0,1-.68.14.17.17,0,0,1-.16-.19.17.17,0,0,1,.14-.19l.31,0V40.2h0a4.12,4.12,0,0,1-.54.31.11.11,0,0,1-.07,0c-.13,0-.19-.07-.19-.2s0-.09.1-.13a4.75,4.75,0,0,0,.55-.28l.27-.21h-.27a.22.22,0,0,1-.25-.25v-.53C47.4,38.79,47.48,38.72,47.64,38.72Zm2.72-.54a.15.15,0,0,1,.17.17c0,.11-.06.16-.17.16H47.21c-.11,0-.17,0-.17-.16a.15.15,0,0,1,.17-.17ZM47.54,37H50c.18,0,.27.08.27.23v.5c0,.16-.09.25-.27.25H47.54a.22.22,0,0,1-.24-.25v-.5A.21.21,0,0,1,47.54,37Zm.64.67v-.36h-.43c-.07,0-.1,0-.1.13v.08c0,.1,0,.15.1.15Zm1.51,1.76c.08,0,.13,0,.13-.15v-.11c0-.08,0-.12-.13-.12H47.86c-.08,0-.11,0-.11.12v.11c0,.1,0,.15.11.15ZM49,37.65v-.36h-.49v.36Zm.8,0q.12,0,.12-.15v-.08c0-.09,0-.13-.12-.13h-.46v.36Z"/>
    <path class="cls-2" d="M55.24,37c.12,0,.17.06.17.16a.15.15,0,0,1-.17.17H53.61v.29h1.78a.37.37,0,0,1,.32.15.58.58,0,0,1,.1.35,1.89,1.89,0,0,1-.05.39.2.2,0,0,1-.22.14c-.13,0-.19-.06-.19-.18a2.35,2.35,0,0,0,.06-.33c0-.12,0-.18-.17-.18H53.61v1.09a.17.17,0,0,1-.19.19.17.17,0,0,1-.19-.19V38H51.58a.14.14,0,0,0-.16.16v.42a.17.17,0,0,1-.19.18c-.13,0-.19-.06-.19-.18V38a.37.37,0,0,1,.41-.41h1.78v-.29H51.58c-.11,0-.16-.06-.16-.17a.14.14,0,0,1,.16-.16Zm.32,2.32c.1,0,.16,0,.16.17s-.06.18-.16.18h-2l-.14.35h1.76a.33.33,0,0,1,.38.37v.72a.46.46,0,0,1-.53.51,2.08,2.08,0,0,1-.55-.09.17.17,0,0,1-.13-.17c0-.13,0-.2.15-.2h.12a1.34,1.34,0,0,0,.37.07c.13,0,.19-.07.19-.2v-.5c0-.11,0-.17-.15-.17h-.89v1.06a.18.18,0,1,1-.36,0V40.37H53v1c0,.12-.06.18-.19.18s-.19-.06-.19-.18v-1h-.76c-.1,0-.15.06-.15.17v.93a.17.17,0,0,1-.19.19.17.17,0,0,1-.18-.19V40.39c0-.25.13-.37.39-.37H53l.14-.35H51.29c-.11,0-.16-.06-.16-.18s0-.17.16-.17Zm-2.8-.54c.1,0,.15,0,.15.14s0,.17-.15.17h-.91c-.1,0-.15-.06-.15-.17s0-.14.15-.14Zm0-.56a.13.13,0,0,1,.15.15c0,.11,0,.17-.15.17h-.91c-.1,0-.15-.06-.15-.17a.13.13,0,0,1,.15-.15Zm2.18,0c.09,0,.14,0,.14.15s-.05.16-.14.16H54c-.09,0-.14,0-.14-.16s0-.15.14-.15Zm0,.58c.1,0,.15,0,.15.14s0,.17-.15.17H54c-.1,0-.15-.06-.15-.17s0-.14.15-.14Z"/>
    <path class="cls-2" d="M57.21,36.75a.3.3,0,0,1,.15,0,.11.11,0,0,1,.06.09.29.29,0,0,1,0,.09,5,5,0,0,1-.39.77,2.78,2.78,0,0,1,.38.25c.17-.28.33-.55.48-.84a.21.21,0,0,1,.17-.08.21.21,0,0,1,.12.05.17.17,0,0,1,.05.12.21.21,0,0,1-.05.12,9.93,9.93,0,0,1-.59.94,4.33,4.33,0,0,1-.4.47h0c.28,0,.52-.06.72-.09a.71.71,0,0,0,0-.17.24.24,0,0,1,0-.12c0-.1.06-.15.19-.15a.2.2,0,0,1,.15.09c.06.18.11.39.16.61a.69.69,0,0,1,0,.13c0,.11-.07.17-.21.17s-.11,0-.14-.13A.89.89,0,0,1,58,39a5.49,5.49,0,0,1-.63.12l-.8.1c-.11,0-.16-.08-.17-.19a.14.14,0,0,1,.15-.16l.21,0a7,7,0,0,0,.44-.54h0L56.74,38l-.34-.17a.22.22,0,0,1-.06-.12.15.15,0,0,1,.17-.17.3.3,0,0,1,.12,0l.09,0a7.25,7.25,0,0,0,.37-.74A.12.12,0,0,1,57.21,36.75Zm-.13,3.07h-.55c-.13,0-.19-.06-.19-.18s.06-.17.19-.17h2.23A7.93,7.93,0,0,1,58.53,38c0-.4,0-.71,0-.94a.16.16,0,0,1,.18-.18c.13,0,.19.06.19.18A12.72,12.72,0,0,0,59,38.84a4.87,4.87,0,0,0,.15.63h1.08a1.54,1.54,0,0,0-.16-.36.09.09,0,0,1,0-.06c-.21,0-.47.06-.78.08a.17.17,0,0,1-.16-.19.15.15,0,0,1,.14-.16h.22a4.52,4.52,0,0,0,.4-.49l0,0L59.41,38l-.33-.17a.19.19,0,0,1-.07-.12c0-.12.05-.17.17-.17a.3.3,0,0,1,.12,0l.05,0a5.17,5.17,0,0,0,.36-.71.13.13,0,0,1,.13-.07.28.28,0,0,1,.15,0,.11.11,0,0,1,.06.1A.31.31,0,0,1,60,37a4,4,0,0,1-.39.72h0l.43.28a7.36,7.36,0,0,0,.48-.8.2.2,0,0,1,.17-.09.17.17,0,0,1,.17.17.33.33,0,0,1,0,.13,10.38,10.38,0,0,1-.59.88,5.34,5.34,0,0,1-.39.44h.06c.28,0,.53-.05.73-.09,0-.07-.07-.14-.11-.2a.45.45,0,0,1,0-.08c0-.1.06-.15.17-.15a.17.17,0,0,1,.13.09,4.59,4.59,0,0,1,.27.63.52.52,0,0,1,0,.11c0,.1-.07.15-.19.15s-.1,0-.13-.11,0-.11-.05-.16L60.4,39a1.82,1.82,0,0,1,.18.37.29.29,0,0,1,0,.09h.34a.15.15,0,0,1,.17.17c0,.12-.06.18-.17.18H59.29l.11.24a3.48,3.48,0,0,0,.35.53,3.15,3.15,0,0,0,.42-.5.21.21,0,0,1,.14-.08c.13,0,.19.05.19.16a.28.28,0,0,1,0,.15,3,3,0,0,1-.46.54l.18.16a.94.94,0,0,0,.4.23c.07,0,.12-.06.14-.2l.07-.34a.15.15,0,0,1,.17-.14.17.17,0,0,1,.19.19,2.13,2.13,0,0,1-.19.76.34.34,0,0,1-.29.15,1,1,0,0,1-.5-.17,3.14,3.14,0,0,1-.48-.39,4,4,0,0,1-.93.48.24.24,0,0,1-.12,0,.17.17,0,0,1-.18-.19.21.21,0,0,1,.09-.17,4.08,4.08,0,0,0,.89-.44l-.09-.11a3.53,3.53,0,0,1-.47-.9H57.45c0,.12,0,.24,0,.34h.06l.42.23a3.29,3.29,0,0,1,.54.38s.06.07.06.1-.06.18-.17.18a.33.33,0,0,1-.19-.06c-.2-.14-.36-.26-.5-.34l-.27-.15a.36.36,0,0,1,0,.1,1.7,1.7,0,0,1-.27.65,1.36,1.36,0,0,1-.49.42h0c-.14,0-.21-.08-.21-.23a.17.17,0,0,1,.13-.17,1,1,0,0,0,.35-.36,1.54,1.54,0,0,0,.17-.49A5.73,5.73,0,0,0,57.08,39.82Z"/>
    <path class="cls-2" d="M62.72,36.84a.25.25,0,0,1,.14,0,.2.2,0,0,1,.06.14.38.38,0,0,1,0,.1l-.06.15h3.2a.17.17,0,0,1,.19.19.17.17,0,0,1-.19.19H64.38v.91h1.38c.11,0,.17.06.17.18s-.06.18-.17.18H64.38v1.23h1.86a.17.17,0,0,1,.19.19.18.18,0,0,1-.19.2H64.38v1c0,.13-.07.19-.21.19a.17.17,0,0,1-.19-.19v-1H61.83c-.13,0-.19-.07-.19-.2a.17.17,0,0,1,.19-.19h.49V38.88c0-.21.11-.32.34-.32H64v-.91H62.67a2.13,2.13,0,0,1-.16.25,3.35,3.35,0,0,1-.49.57.31.31,0,0,1-.15.09c-.14,0-.21-.07-.21-.19a.17.17,0,0,1,0-.11,2.84,2.84,0,0,0,.49-.55,2.94,2.94,0,0,0,.38-.75A.14.14,0,0,1,62.72,36.84ZM64,38.92H62.87c-.1,0-.15.06-.15.17v1.06H64Z"/>
    <path class="cls-2" d="M69.18,38.14a.83.83,0,0,1-.24.56l-.49.43a1,1,0,0,0-.21.7c0,.14-.07.22-.19.22s-.18-.08-.18-.22a1.5,1.5,0,0,1,.08-.61,2.3,2.3,0,0,1,.48-.52c.24-.21.36-.39.36-.56a.46.46,0,0,0-.25-.4.86.86,0,0,0-.49-.14.93.93,0,0,0-.57.19.72.72,0,0,0-.28.49c0,.14-.06.2-.14.2s-.2-.07-.2-.22a1,1,0,0,1,.35-.73,1.18,1.18,0,0,1,.84-.29,1.29,1.29,0,0,1,.78.24A.77.77,0,0,1,69.18,38.14Zm-.77,2.7a.37.37,0,0,1-.1.25.36.36,0,0,1-.25.11.34.34,0,0,1-.25-.11.33.33,0,0,1-.1-.25.33.33,0,0,1,.1-.24.34.34,0,0,1,.25-.11.36.36,0,0,1,.25.11A.37.37,0,0,1,68.41,40.84Z"/>
    <path class="cls-2" d="M70.93,41q0,.21-.18.21c-.13,0-.19-.07-.19-.21V37.86a1.15,1.15,0,0,1-.46.23c-.14,0-.21-.06-.21-.19s0-.12.15-.15a1,1,0,0,0,.57-.41.21.21,0,0,1,.18-.1c.1,0,.14,0,.14.12Z"/>
    <path class="cls-2" d="M74.31,39.21a4.33,4.33,0,0,1-.14,1.33.86.86,0,0,1-.87.65.85.85,0,0,1-.86-.64,4.27,4.27,0,0,1-.15-1.33,4.39,4.39,0,0,1,.15-1.34.9.9,0,0,1,1.73,0A4.29,4.29,0,0,1,74.31,39.21Zm-.4,0a3.19,3.19,0,0,0-.18-1.34.45.45,0,0,0-.43-.29.46.46,0,0,0-.43.29,3.24,3.24,0,0,0-.18,1.35,3.19,3.19,0,0,0,.18,1.33.46.46,0,0,0,.43.29.45.45,0,0,0,.43-.29A3.25,3.25,0,0,0,73.91,39.21Z"/>
    <path class="cls-2" d="M75.78,36.84a.23.23,0,0,1,.14,0A.21.21,0,0,1,76,37a.44.44,0,0,1,0,.1,5.88,5.88,0,0,1-.27,1v3.4a.17.17,0,0,1-.19.19.17.17,0,0,1-.19-.19V39a4,4,0,0,1-.2.35q-.08.09-.12.09c-.14,0-.21-.06-.21-.17a.2.2,0,0,1,0-.13,5.62,5.62,0,0,0,.45-.92A6,6,0,0,0,75.64,37,.13.13,0,0,1,75.78,36.84Zm.81.18h2.59c.23,0,.35.11.35.33v3.86a.31.31,0,0,1-.35.35H76.59a.32.32,0,0,1-.36-.35V37.35Q76.23,37,76.59,37ZM79,41.21c.13,0,.19-.07.19-.21V37.56c0-.12-.06-.18-.19-.18H76.8c-.13,0-.19.06-.19.18V41c0,.14.06.21.19.21ZM78.82,38a.15.15,0,0,1,.17.17c0,.12,0,.19-.17.19h-.76V39h.5a.26.26,0,0,1,.3.29v1.17a.27.27,0,0,1-.3.3H77.22a.27.27,0,0,1-.3-.3V39.26a.26.26,0,0,1,.3-.29h.47v-.6h-.75c-.11,0-.16-.07-.16-.19s0-.17.16-.17h.75v-.36a.17.17,0,0,1,.19-.19c.12,0,.18.06.18.19V38Zm-.44,2.38c.09,0,.13,0,.13-.12v-.84c0-.09,0-.13-.13-.13h-1c-.06,0-.09,0-.09.13v.84q0,.12.09.12Z"/>
    <path class="cls-2" d="M82.4,39.09c.12,0,.18.06.18.17s-.06.17-.18.17h-.8V40h.69a.17.17,0,0,1,0,.34H81.6V41a2.74,2.74,0,0,0,.53.13,19.07,19.07,0,0,0,2.7.11c.11,0,.17.08.17.21s-.08.17-.21.18a17.29,17.29,0,0,1-2.88-.16,3.25,3.25,0,0,1-.87-.31,1.1,1.1,0,0,1-.35-.26,2.58,2.58,0,0,1-.25.64.17.17,0,0,1-.14.09c-.13,0-.19-.06-.19-.18a.24.24,0,0,1,0-.11,2.45,2.45,0,0,0,.26-.79,5.9,5.9,0,0,0,0-.75c0-.09.05-.14.16-.14a.15.15,0,0,1,.17.17c0,.23,0,.46,0,.67a1.47,1.47,0,0,0,.47.35h0V39.43h-1a.17.17,0,1,1,0-.34ZM80.73,37H82c.21,0,.32.1.32.29v1.16a.28.28,0,0,1-.32.31H80.73a.27.27,0,0,1-.31-.31V37.33C80.42,37.14,80.52,37,80.73,37Zm0,.72H82V37.5c0-.1,0-.15-.14-.15h-1c-.09,0-.14,0-.14.15Zm1.1.73c.09,0,.14-.05.14-.16v-.25H80.75v.25c0,.11,0,.16.14.16ZM84.73,37a.15.15,0,0,1,.16.17.14.14,0,0,1-.16.16H83.9l-.12.37h.59c.21,0,.32.1.32.29V40c0,.19-.11.29-.32.29h-.12a2.84,2.84,0,0,0,.58.46c.08,0,.13.08.13.14a.19.19,0,0,1-.21.21,1.46,1.46,0,0,1-.38-.24,2,2,0,0,1-.33-.32.23.23,0,0,1-.08-.14c0-.05,0-.09,0-.11h-.55a.2.2,0,0,1,0,.11.19.19,0,0,1-.08.14,2.18,2.18,0,0,1-.67.53l-.06,0q-.18,0-.18-.21a.12.12,0,0,1,.08-.12,2.29,2.29,0,0,0,.62-.48H83a.26.26,0,0,1-.29-.29V38a.26.26,0,0,1,.29-.29h.45l.12-.37h-.88a.14.14,0,0,1-.16-.16c0-.11,0-.17.16-.17Zm-1.68,1.45h1.28V38.2a.11.11,0,0,0-.12-.12H83.15c-.07,0-.1,0-.1.12Zm0,.73h1.28V38.8H83.05Zm1.16.72c.08,0,.12,0,.12-.13v-.29H83.05v.29c0,.09,0,.13.1.13Z"/>
    <path class="cls-2" d="M86.34,37h3.12a.37.37,0,0,1,.42.4v3.72q0,.39-.42.39H86.34a.35.35,0,0,1-.4-.39V37.42A.36.36,0,0,1,86.34,37Zm0,1.29h3.14v-.77c0-.1,0-.15-.14-.15H86.47c-.09,0-.13,0-.13.15Zm0,1.36h3.14v-1H86.34Zm3,1.5c.1,0,.14-.05.14-.15V40H86.34v1c0,.1,0,.15.13.15Z"/>
    <path class="cls-2" d="M91,38.37a.24.24,0,0,1,.13.06,3.48,3.48,0,0,1,.47.47.3.3,0,0,1,0,.13c0,.13-.07.19-.21.19a.16.16,0,0,1-.1,0,4.72,4.72,0,0,0-.5-.5.27.27,0,0,1,0-.1A.19.19,0,0,1,91,38.37Zm.49,1.3c.13,0,.19.07.19.21a4.41,4.41,0,0,1-.16.82,4,4,0,0,1-.3.81.19.19,0,0,1-.18.13c-.13,0-.19,0-.19-.16a.23.23,0,0,1,0-.09,5,5,0,0,0,.29-.74,6.39,6.39,0,0,0,.18-.86A.13.13,0,0,1,91.49,39.67Zm-.24-2.6a.17.17,0,0,1,.12,0,3.84,3.84,0,0,1,.44.46.24.24,0,0,1,0,.13q0,.18-.21.18a.14.14,0,0,1-.1,0l-.46-.48a.22.22,0,0,1,0-.1C91,37.13,91.11,37.07,91.25,37.07Zm1.16,0h1c.24,0,.36.11.36.34v2.77q0,.33-.36.33h0l0,.06a3.52,3.52,0,0,0,.27.77.17.17,0,0,1,.07.14.17.17,0,0,1,0,.12.16.16,0,0,1-.15.07.26.26,0,0,1-.19-.11,4.49,4.49,0,0,1-.22-.65,2.07,2.07,0,0,1,0-.31s0-.07,0-.09h-.45a.15.15,0,0,1,.07.12.52.52,0,0,1,0,.11,2.17,2.17,0,0,1-.16.49,1.71,1.71,0,0,1-.21.35.26.26,0,0,1-.14.09c-.14,0-.21-.06-.21-.19a.14.14,0,0,1,0-.1,1.94,1.94,0,0,0,.21-.34,3.12,3.12,0,0,0,.17-.44.12.12,0,0,1,0-.09h-.1a.29.29,0,0,1-.33-.33V37.42C92.08,37.19,92.19,37.08,92.41,37.08Zm0,1h1v-.52a.14.14,0,0,0-.16-.16h-.71c-.09,0-.14,0-.14.16Zm0,1h1v-.68h-1Zm.85,1.1c.11,0,.16-.06.16-.17v-.61h-1V40c0,.11,0,.17.14.17Zm1.16-2.86a.17.17,0,0,1,.19.19v2.82a.17.17,0,0,1-.19.18c-.13,0-.19-.06-.19-.18V37.52A.17.17,0,0,1,94.44,37.33Zm.85-.33a.17.17,0,0,1,.18.19v4c0,.33-.18.49-.53.49a1.29,1.29,0,0,1-.48-.11.18.18,0,0,1-.15-.18q0-.18.15-.18h.07a1.47,1.47,0,0,0,.38.08c.13,0,.19-.08.19-.24V37.19A.17.17,0,0,1,95.29,37Z"/>
    <path class="cls-2" d="M96.3,38.37a.24.24,0,0,1,.13.06,3.48,3.48,0,0,1,.47.47.3.3,0,0,1,0,.13c0,.13-.07.19-.21.19a.16.16,0,0,1-.1,0,4.72,4.72,0,0,0-.5-.5.27.27,0,0,1,0-.1A.19.19,0,0,1,96.3,38.37Zm.49,1.3c.13,0,.19.07.19.21a4.41,4.41,0,0,1-.16.82,4,4,0,0,1-.3.81.19.19,0,0,1-.18.13c-.13,0-.19,0-.19-.16a.23.23,0,0,1,0-.09,5,5,0,0,0,.29-.74,6.39,6.39,0,0,0,.18-.86A.13.13,0,0,1,96.79,39.67Zm-.25-2.6a.18.18,0,0,1,.13,0,3.84,3.84,0,0,1,.44.46.24.24,0,0,1,0,.13q0,.18-.21.18a.14.14,0,0,1-.1,0l-.46-.48a.22.22,0,0,1,0-.1A.18.18,0,0,1,96.54,37.07Zm1.17,0h1c.24,0,.36.11.36.34v2.77q0,.33-.36.33h0l0,.06a3.52,3.52,0,0,0,.27.77.17.17,0,0,1,.07.14.17.17,0,0,1,0,.12.16.16,0,0,1-.15.07.26.26,0,0,1-.19-.11,4.49,4.49,0,0,1-.22-.65,2.07,2.07,0,0,1,0-.31s0-.07,0-.09H98a.15.15,0,0,1,.07.12.52.52,0,0,1,0,.11,2.17,2.17,0,0,1-.16.49,1.71,1.71,0,0,1-.21.35.26.26,0,0,1-.14.09c-.14,0-.21-.06-.21-.19a.14.14,0,0,1,0-.1,1.94,1.94,0,0,0,.21-.34,3.12,3.12,0,0,0,.17-.44.12.12,0,0,1,0-.09h-.1a.29.29,0,0,1-.33-.33V37.42C97.38,37.19,97.49,37.08,97.71,37.08Zm0,1h1v-.52a.14.14,0,0,0-.16-.16h-.71c-.09,0-.14,0-.14.16Zm0,1h1v-.68h-1Zm.85,1.1c.11,0,.16-.06.16-.17v-.61h-1V40c0,.11,0,.17.14.17Zm1.16-2.86c.12,0,.18.06.18.19v2.82a.16.16,0,0,1-.18.18c-.13,0-.19-.06-.19-.18V37.52A.17.17,0,0,1,99.74,37.33Zm.85-.33a.17.17,0,0,1,.18.19v4c0,.33-.18.49-.53.49a1.29,1.29,0,0,1-.48-.11.18.18,0,0,1-.15-.18q0-.18.15-.18h.07a1.47,1.47,0,0,0,.38.08c.13,0,.19-.08.19-.24V37.19A.17.17,0,0,1,100.59,37Z"/>
    <path class="cls-2" d="M105.61,36.89c.13,0,.19.07.19.21s0,.11-.12.15c-.53,0-1.1.09-1.73.12h-.27a.13.13,0,0,1,0,.06l-.09.3h2.24a.13.13,0,0,1,.15.15c0,.11,0,.16-.15.16h-2.36a1.92,1.92,0,0,1-.14.32l0,0H106a.13.13,0,0,1,.15.15.14.14,0,0,1-.15.16H103.1a3.17,3.17,0,0,1-.21.27l-.1.1h2.53c.24,0,.36.11.36.34v1.8c0,.21-.12.32-.36.32h-2.79c-.23,0-.35-.11-.35-.32V39.57a4.47,4.47,0,0,1-.58.29.41.41,0,0,1-.15,0,.18.18,0,0,1-.13-.06.21.21,0,0,1,0-.12.17.17,0,0,1,.1-.18,3.57,3.57,0,0,0,.76-.39,5.19,5.19,0,0,0,.49-.43h-1.1a.14.14,0,0,1-.15-.16.13.13,0,0,1,.15-.15h1.34c.06-.09.11-.18.16-.27a.41.41,0,0,0,0-.09h-1.41c-.09,0-.14,0-.14-.16s0-.15.14-.15h1.54a2,2,0,0,0,.12-.34l-1.52,0a.18.18,0,0,1-.2-.21c0-.1.06-.15.17-.15.53,0,1.09,0,1.65,0S104.86,37,105.61,36.89Zm-3.06,2.92h2.76v-.22c0-.11,0-.16-.15-.16h-2.47c-.09,0-.14,0-.14.16Zm0,.67h2.76v-.35h-2.76Zm2.61.75c.1,0,.15-.06.15-.17v-.27h-2.76v.27c0,.11,0,.17.14.17Z"/>
    <path class="cls-2" d="M108.1,40.84a.31.31,0,0,1-.11.25.32.32,0,0,1-.48,0,.31.31,0,0,1-.11-.25.35.35,0,0,1,.7,0ZM108,37.53c0,.24,0,1-.14,2.27,0,.14-.06.22-.15.22s-.14-.08-.15-.22c-.09-1.26-.14-2-.14-2.27a.26.26,0,0,1,.29-.29A.25.25,0,0,1,108,37.53Z"/>
  </g>
</svg>
