<?xml version="1.0" encoding="utf-8"?>
<!-- Generator: Adobe Illustrator 21.0.2, SVG Export Plug-In . SVG Version: 6.00 Build 0)  -->
<svg version="1.1" id="圖層_1" xmlns="http://www.w3.org/2000/svg" xmlns:xlink="http://www.w3.org/1999/xlink" x="0px" y="0px"
	 viewBox="0 0 800 250" style="enable-background:new 0 0 800 250;" xml:space="preserve">
<style type="text/css">
	.st0{fill:#FFF625;}
	.st1{fill:#062720;}
</style>
<g>
	<g>
		<path class="st0" d="M349,68.2c1,1.3,1.3,2.8,1.1,4.5c-0.2,1.5-0.9,2.8-1.9,4l-1.7,1.9c-0.8,0.9-1.8,1.3-2.8,1.3
			c-0.1,0-0.2,0-0.4,0c-1.2-0.1-2-0.7-2.4-1.8c-0.2-0.8-0.5-1.6-0.8-2.3c-0.1-0.1-0.1-0.1-0.2,0c-0.1,0-0.2,0.1-0.2,0.1l-4.5,28.1
			c-0.2,1.5-1,2.8-2.2,3.9c-1.2,1-2.6,1.6-4.2,1.6h-2.4c-1.5,0-2.7-0.5-3.6-1.6c-0.9-1-1.3-2.3-1-3.9l3.6-23c0-0.1,0-0.1-0.1-0.1
			c-0.1,0-0.1,0-0.2,0.1c-2.3,3.7-4.5,7-6.6,9.8c-0.7,0.9-1.5,1.3-2.4,1.3c-0.1,0-0.2,0-0.4-0.1c-1.2-0.1-1.9-0.7-2.2-1.8
			c-0.3-1.1-0.7-2.2-1-3.4c-0.4-1.2-0.5-2.5-0.3-4c0-0.2,0.1-0.4,0.1-0.6c0.4-1.7,1.2-3.2,2.3-4.5c4.2-5,8.3-11,12.2-18
			c0.1-0.1,0.1-0.3,0-0.4c-0.1-0.2-0.2-0.2-0.4-0.2h-4.7c-1.6,0-2.8-0.5-3.7-1.6c-0.9-1-1.2-2.3-1-3.9l0.3-1.8
			c0.2-1.5,1-2.8,2.2-3.8c1.2-1.1,2.6-1.6,4.2-1.6h6.5c0.4,0,0.7-0.2,0.8-0.6l1.2-7.7c0.1-0.4-0.1-0.6-0.6-0.6
			c-2,0.3-3.4,0.5-4.3,0.6c-0.3,0.1-0.6,0.1-0.9,0.1c-1.2,0-2.2-0.3-3.1-1c-1.2-0.9-1.9-2-2.2-3.5c0-0.1,0-0.2,0-0.3
			c-0.1-0.6-0.1-1.1,0-1.7c0.1-0.7,0.4-1.4,0.9-2.1c0.8-1.2,1.9-2,3.2-2.2c7.4-1.4,14-3,19.7-4.9c0.9-0.3,1.8-0.5,2.8-0.5
			c0.7,0,1.3,0.1,1.9,0.3c1.6,0.4,2.8,1.1,3.6,2.3l1.7,2.4c0.5,0.7,0.7,1.4,0.6,2.3c-0.1,0.4-0.2,0.7-0.3,1
			c-0.5,1.3-1.5,2.1-2.8,2.5c-1.4,0.4-3.1,0.9-5.3,1.5c-0.5,0.1-0.8,0.4-0.9,0.9l-1.6,10.4c-0.1,0.4,0.1,0.6,0.6,0.6h3
			c1.5,0,2.7,0.5,3.6,1.6c0.9,1.1,1.3,2.4,1,3.8l-0.9,5.8c0,0.1,0,0.1,0.1,0.1c0.1,0,0.1,0,0.2,0c2.7-4.4,5.2-9.7,7.4-15.9
			c0.5-1.5,1.4-2.6,2.8-3.5c1-0.7,2.1-1,3.2-1c0.3,0,0.6,0,0.9,0l2.3,0.5c1.5,0.2,2.6,1,3.3,2.2c0.5,0.9,0.6,1.8,0.5,2.9
			c-0.1,0.4-0.1,0.7-0.3,1.1c-3,8.4-6.4,15.5-10.3,21.4c-0.9,1.3-2.1,2.1-3.7,2.5c-0.5,0.1-0.9,0.2-1.4,0.2c-0.9,0-1.8-0.3-2.6-0.8
			c-0.9-0.5-1.8-1-2.8-1.5c-1-0.6-1.5-1.4-1.7-2.7c0-0.4,0-0.8,0.1-1.2c0.1-0.7,0.4-1.4,0.9-2.1c0.1-0.1,0.1-0.2,0-0.4
			c-0.1-0.1-0.2-0.2-0.3-0.2h-7.5c-0.4,0-0.7,0.2-0.7,0.6c-0.1,0.4,0,0.7,0.3,1C343.9,62,346.1,64.5,349,68.2z M385.4,72.1
			c0.8-1.4,2-2.5,3.5-3.2c1-0.6,2-0.8,2.9-0.8c0.5,0,1,0.1,1.5,0.2l2.7,0.7c1.4,0.3,2.4,1.1,3,2.4c0.3,0.7,0.3,1.5,0.2,2.3
			c-0.1,0.6-0.3,1.1-0.5,1.7c-4.8,8.9-10.7,15.9-17.7,20.9c-7,5-15.8,9-26.5,12c-0.6,0.2-1.1,0.3-1.6,0.3c-0.9,0-1.8-0.2-2.6-0.7
			c-1.3-0.7-2.2-1.7-2.7-3.1c-0.4-1.2-0.9-2.3-1.5-3.5c-0.3-0.6-0.4-1.2-0.3-1.8c0.1-0.5,0.2-1,0.5-1.4c0.6-1.2,1.5-1.9,2.8-2.1
			c8.7-1.7,15.9-4.4,21.8-8.1C376.6,84,381.5,78.8,385.4,72.1z M386.3,20c1.6,0,2.8,0.5,3.7,1.6c0.9,1,1.2,2.3,1,3.9l-6.8,42.7
			c-0.5,3.1-1.2,5.6-2.2,7.5s-2.4,3.3-4.3,4.4c-2.3,1.3-5.1,2.1-8.5,2.4c-0.2,0-0.5,0-0.7,0c-1.3,0-2.4-0.4-3.3-1.3
			c-1.1-1-1.7-2.2-1.9-3.8c-0.1-1-0.3-2.1-0.5-3.2c-0.1-0.4-0.1-0.9-0.1-1.3c0.1-0.7,0.4-1.4,1-2c0.8-1,1.9-1.6,3.1-1.6h1.8
			c0.6,0,1-0.1,1.2-0.3c0.2-0.2,0.4-0.5,0.5-1l6.7-42.5c0.2-1.5,1-2.8,2.2-3.9c1.2-1,2.6-1.6,4.2-1.6H386.3z M406.3,56.8
			c0,0.5,0,1,0,1.5c-0.2,1-0.6,1.9-1.3,2.9c-1,1.4-2.3,2.3-3.9,2.8l-2.7,0.8c-0.5,0.2-1,0.3-1.5,0.3c-0.8,0-1.6-0.2-2.2-0.6
			c-1.1-0.7-1.6-1.8-1.7-3.2c-0.3-5.6-1.1-11.3-2.4-17.1c-0.1-0.7-0.2-1.3-0.1-1.9c0.1-0.7,0.4-1.4,0.8-2.1c0.8-1.4,2-2.2,3.5-2.7
			l1.6-0.5c0.7-0.2,1.4-0.4,2-0.4c0.9,0,1.7,0.2,2.4,0.6c1.3,0.6,2.2,1.6,2.6,3C404.8,45.7,405.8,51.2,406.3,56.8z"/>
	</g>
</g>
<g>
	<g>
		<path class="st0" d="M190.7,101.4c-9.4,8.4-20.2,12.6-32.3,12.6c-12.1,0-20.6-4.2-25.4-12.6c-4.9-8.4-5.2-20.5-1-36.1
			c4.2-15.6,10.9-27.5,20.2-35.6c9.3-8.1,20-12.2,32.1-12.2c12.1,0,20.7,4.1,25.7,12.3c5,8.2,5.4,20,1.3,35.5
			C206.9,80.9,200.1,93,190.7,101.4z M157.7,95.4c1.4,0.9,3.1,1.4,5.3,1.4c2.2,0,4.2-0.5,6-1.4c1.9-0.9,3.8-2.5,5.8-4.8
			c2-2.2,4-5.5,5.8-9.7c1.9-4.2,3.6-9.4,5.3-15.6c1.6-6.1,2.7-11.3,3-15.5c0.4-4.2,0.2-7.3-0.7-9.5c-0.9-2.1-2-3.6-3.4-4.5
			c-1.4-0.9-3.2-1.3-5.3-1.3c-2.2,0-4.1,0.4-5.9,1.3c-1.8,0.9-3.7,2.3-5.6,4.5c-1.9,2.1-3.8,5.3-5.7,9.5c-1.9,4.2-3.6,9.3-5.2,15.5
			c-1.7,6.2-2.7,11.4-3.1,15.6c-0.4,4.2-0.2,7.5,0.5,9.7C155.3,92.9,156.3,94.5,157.7,95.4z"/>
		<path class="st0" d="M282.1,101.4c-9.4,8.4-20.2,12.6-32.3,12.6c-12.1,0-20.6-4.2-25.4-12.6c-4.9-8.4-5.2-20.5-1-36.1
			c4.2-15.6,10.9-27.5,20.2-35.6c9.3-8.1,20-12.2,32.1-12.2c12.1,0,20.7,4.1,25.7,12.3c5,8.2,5.4,20,1.3,35.5
			C298.3,80.9,291.5,93,282.1,101.4z M249.1,95.4c1.4,0.9,3.1,1.4,5.3,1.4c2.2,0,4.2-0.5,6-1.4c1.9-0.9,3.8-2.5,5.8-4.8
			c2-2.2,4-5.5,5.8-9.7c1.9-4.2,3.6-9.4,5.3-15.6c1.6-6.1,2.7-11.3,3-15.5c0.4-4.2,0.2-7.3-0.7-9.5c-0.9-2.1-2-3.6-3.4-4.5
			c-1.4-0.9-3.2-1.3-5.3-1.3c-2.2,0-4.1,0.4-5.9,1.3c-1.8,0.9-3.7,2.3-5.6,4.5c-1.9,2.1-3.8,5.3-5.7,9.5c-1.9,4.2-3.6,9.3-5.2,15.5
			c-1.7,6.2-2.7,11.4-3.1,15.6c-0.4,4.2-0.2,7.5,0.5,9.7C246.7,92.9,247.7,94.5,249.1,95.4z"/>
	</g>
</g>
<g>
	<g>
		<g>
			<path class="st0" d="M34.2,232.4c-4.7,0-8.2-1.4-10.4-4.2c-4.3-5.3-2.6-13.8-2-16.8l-0.3-0.1l48-162.8l-30.1,2.4h-0.1
				c-3.6,0-6.5-1.3-8.4-3.8c-2-2.5-2.4-5.7-1.5-9.4c0.9-3.5,2.9-6.6,5.8-9.3c2.9-2.6,6.3-4.4,10.1-5.3c7.9-1.9,15.2-4.1,21.8-6.7
				c11-4.2,20.7-6.4,28.6-6.4c4.3,0,7.6,1.5,9.9,4.6c2.2,3,2.8,6.7,1.7,10.8L53.9,219.2C53.9,219.4,49.8,232.4,34.2,232.4z"/>
			<path class="st0" d="M95.7,11.6c3.8,0,6.7,1.3,8.7,4c1.9,2.6,2.4,5.8,1.4,9.5L52.5,218.8c0,0-3.6,12.1-18.3,12.1
				c-17.1,0-10.4-20.2-10.7-20.2c0,0-0.2,0.3-0.5,1l48-163c0.3-1.1-0.2-1.7-1.5-1.7l-30.1,2.4c-3.2,0-5.6-1.1-7.2-3.2
				c-1.7-2.2-2.1-4.8-1.2-8.1c0.9-3.2,2.7-6.1,5.4-8.5c2.7-2.5,5.9-4.1,9.4-4.9c8-1.9,15.3-4.2,22-6.7
				C78.6,13.7,87.9,11.6,95.7,11.6 M95.7,8.6c-8.1,0-17.9,2.2-29.2,6.5C60,17.6,52.8,19.8,45,21.7c-4,0.9-7.6,2.8-10.7,5.6
				c-3.2,2.9-5.3,6.2-6.3,10c-1.1,4.1-0.5,7.7,1.7,10.7c2.2,2.9,5.5,4.4,9.6,4.4h0.1l0.1,0l27.9-2.2L20,210.9l0.3,0.1
				c-0.7,3.1-2.6,12.3,2.2,18.2c2.6,3.2,6.5,4.8,11.6,4.8c13.4,0,19.8-9.3,21.2-14.2l0,0l0,0l53.3-193.7c1.2-4.6,0.6-8.7-1.9-12.1
				C104.3,10.4,100.5,8.6,95.7,8.6L95.7,8.6z"/>
		</g>
	</g>
</g>
<rect x="426.3" y="22" class="st0" width="353.1" height="83.1"/>
<g>
	<g>
		<path class="st1" d="M489.3,60c-0.2,0.8-0.6,1.3-1.3,1.7c-0.4,0.2-0.8,0.3-1.2,0.3c-0.3,0-0.6,0-0.9-0.1c-0.7-0.3-1.3-0.8-1.6-1.5
			c-0.2-0.4-0.3-0.9-0.3-1.4c0-0.3,0-0.6,0.1-0.8c0.8-3.1,1.5-6.6,1.9-10.6c0.1-0.7,0.4-1.3,0.9-1.7c0.5-0.4,1-0.5,1.5-0.5
			c0.1,0,0.2,0,0.4,0c0.7,0.1,1.3,0.4,1.8,1c0.4,0.5,0.6,1,0.6,1.7C491.1,50.8,490.5,54.8,489.3,60z M505.5,51.8
			c0.1,0.4,0.2,0.7,0.2,1.1c0,0.4-0.1,0.9-0.3,1.3c-0.3,0.8-0.9,1.3-1.6,1.7c-0.3,0.2-0.6,0.2-1,0.2c-0.4,0-0.7-0.1-1-0.2
			c-0.7-0.3-1.2-0.8-1.4-1.5c-0.5-1.6-1.1-3.3-1.8-5c0,0,0-0.1-0.1-0.1c0,0-0.1,0-0.1,0.1v37.1c0,1-0.3,1.8-1,2.5
			c-0.7,0.7-1.5,1-2.4,1h-0.2c-1,0-1.8-0.3-2.5-1c-0.7-0.7-1-1.5-1-2.5V36.5c0-1,0.3-1.8,1-2.5c0.7-0.7,1.5-1,2.5-1h0.2
			c0.9,0,1.8,0.3,2.4,1c0.7,0.7,1,1.5,1,2.5V44c0,0.1,0,0.2,0.1,0.2c0.1,0,0.2,0.1,0.2,0.1c0.4-0.2,0.9-0.3,1.3-0.3
			c0.4,0,0.8,0.1,1.2,0.2c0.8,0.3,1.4,0.9,1.8,1.7C504,48,504.8,49.9,505.5,51.8z M538.9,65.9c-0.7,0.7-1.5,1-2.4,1h-10.4
			c-0.1,0-0.2,0.1-0.3,0.1c-0.1,0.1-0.1,0.2,0,0.3c2.7,6.7,6.8,11.5,12.1,14.5c0.7,0.4,1.2,1,1.4,1.8c0,0.2,0.1,0.4,0.1,0.6
			c0,0.6-0.2,1.1-0.6,1.6c-0.3,0.4-0.6,0.8-0.9,1.3c-0.6,0.8-1.3,1.4-2.2,1.7c-0.4,0.1-0.7,0.1-0.9,0.1c-0.6,0-1.2-0.2-1.7-0.5
			c-5.3-3.4-9.5-8.7-12.5-15.8c0-0.1-0.1-0.1-0.2-0.1c-0.1,0-0.1,0-0.1,0.1c-2.4,6.5-6.5,11.7-12.2,15.8c-0.6,0.4-1.3,0.6-1.9,0.6
			c-0.2,0-0.5,0-0.7-0.1c-0.9-0.2-1.8-0.7-2.5-1.4c-0.1-0.1-0.2-0.3-0.4-0.4c-0.5-0.5-0.8-1.1-0.8-1.8c0-0.1,0-0.3,0.1-0.4
			c0.1-0.8,0.5-1.5,1.2-1.9c5.9-3.7,9.7-8.9,11.5-15.6c0-0.1,0-0.2-0.1-0.3c-0.1-0.1-0.2-0.1-0.3-0.1H506c-0.9,0-1.7-0.3-2.4-1
			c-0.7-0.7-1-1.5-1-2.4s0.3-1.8,1-2.4c0.7-0.7,1.5-1,2.4-1h9.1c0.3,0,0.4-0.1,0.5-0.4c0.1-1.2,0.1-2.9,0.1-5.2v-5.1
			c0-0.3-0.1-0.4-0.4-0.4h-6.6c-0.9,0-1.7-0.3-2.4-1s-1-1.4-1-2.4c0-0.9,0.3-1.7,1-2.4s1.4-1,2.4-1h6.6c0.3,0,0.4-0.1,0.4-0.4v-5.2
			c0-1,0.3-1.8,1-2.5c0.7-0.7,1.5-1,2.4-1h0.3c1,0,1.8,0.3,2.5,1c0.7,0.7,1,1.5,1,2.5v5.2c0,0.3,0.2,0.4,0.5,0.4h9.2
			c0.9,0,1.8,0.3,2.4,1c0.7,0.7,1,1.5,1,2.5v13.9c0,0.3,0.1,0.4,0.4,0.4c0.9,0,1.7,0.3,2.4,1c0.6,0.7,1,1.5,1,2.4
			S539.5,65.3,538.9,65.9z M523.5,48.9c-0.3,0-0.5,0.1-0.5,0.4v5.2c0,1.7,0,3.4-0.1,5.1c0,0.3,0.1,0.4,0.4,0.4h5.4
			c0.3,0,0.5-0.1,0.5-0.4V49.3c0-0.3-0.2-0.4-0.5-0.4H523.5z"/>
		<path class="st1" d="M573.5,54.5c0,1-0.3,1.8-1,2.5c-0.7,0.7-1.5,1-2.5,1h-12c-0.3,0-0.4,0.1-0.4,0.4v28c0,1-0.3,1.8-1,2.5
			c-0.7,0.7-1.5,1-2.4,1H554c-0.9,0-1.8-0.3-2.4-1c-0.7-0.7-1-1.5-1-2.5V38.8c0-1,0.3-1.8,1-2.5c0.7-0.7,1.5-1,2.4-1H570
			c1,0,1.8,0.3,2.5,1c0.7,0.7,1,1.5,1,2.5V54.5z M566.8,41.3c0-0.3-0.1-0.4-0.4-0.4H558c-0.3,0-0.4,0.1-0.4,0.4v2.4
			c0,0.3,0.1,0.4,0.4,0.4h8.4c0.3,0,0.4-0.1,0.4-0.4V41.3z M557.6,52.1c0,0.3,0.1,0.4,0.4,0.4h8.4c0.3,0,0.4-0.1,0.4-0.4v-2.6
			c0-0.3-0.1-0.4-0.4-0.4H558c-0.3,0-0.4,0.1-0.4,0.4V52.1z M587.1,77.9c0,1-0.3,1.8-1,2.5c-0.7,0.7-1.5,1-2.4,1h-12.8
			c-0.2,0-0.4,0.1-0.4,0.4c0,0.8-0.3,1.5-0.9,2.1c-0.6,0.6-1.3,0.9-2.1,0.9h-0.4c-0.9,0-1.7-0.3-2.4-1s-1-1.5-1-2.4V65.7
			c0-1,0.3-1.8,1-2.5c0.7-0.7,1.5-1,2.4-1h16.4c0.9,0,1.8,0.3,2.4,1c0.7,0.7,1,1.5,1,2.5V77.9z M580.4,68.6c0-0.3-0.2-0.4-0.5-0.4
			h-9.1c-0.3,0-0.4,0.1-0.4,0.4v6.3c0,0.3,0.1,0.4,0.4,0.4h9.1c0.3,0,0.5-0.1,0.5-0.4V68.6z M597.8,35.3c1,0,1.8,0.3,2.5,1
			c0.7,0.7,1,1.5,1,2.5v42.5c0,2-0.2,3.6-0.7,4.7c-0.5,1.1-1.4,2-2.6,2.6c-1.6,0.8-4.4,1.2-8.4,1.3c0,0-0.1,0-0.1,0
			c-0.9,0-1.7-0.3-2.5-0.9c-0.7-0.6-1.3-1.5-1.6-2.4c-0.1-0.3-0.2-0.6-0.3-0.8c-0.1-0.3-0.1-0.5-0.1-0.8c0-0.5,0.1-0.9,0.4-1.3
			c0.4-0.6,1-1,1.8-1h0.1c0.9,0,1.8,0,2.5,0c1.1,0,2,0,2.8-0.1c0.5,0,0.9-0.1,1.2-0.3c0.2-0.2,0.4-0.6,0.4-1.1V58.5
			c0-0.3-0.1-0.4-0.4-0.4h-12.4c-1,0-1.8-0.3-2.5-1c-0.7-0.7-1-1.5-1-2.5V38.8c0-1,0.3-1.8,1-2.5c0.7-0.7,1.5-1,2.5-1H597.8z
			 M594,41.2c0-0.3-0.1-0.4-0.4-0.4h-8.6c-0.3,0-0.4,0.1-0.4,0.4v2.5c0,0.3,0.1,0.4,0.4,0.4h8.6c0.3,0,0.4-0.1,0.4-0.4V41.2z
			 M584.5,52.1c0,0.3,0.1,0.4,0.4,0.4h8.6c0.3,0,0.4-0.1,0.4-0.4v-2.7c0-0.3-0.1-0.4-0.4-0.4h-8.6c-0.3,0-0.4,0.1-0.4,0.4V52.1z"/>
		<path class="st1" d="M616.3,60c-0.2,0.8-0.6,1.3-1.3,1.7c-0.4,0.2-0.8,0.3-1.2,0.3c-0.3,0-0.6,0-0.9-0.1c-0.7-0.3-1.3-0.8-1.6-1.5
			c-0.2-0.4-0.3-0.9-0.3-1.4c0-0.3,0-0.6,0.1-0.8c0.8-3.1,1.5-6.6,1.9-10.6c0.1-0.7,0.4-1.3,0.9-1.7c0.5-0.4,1-0.5,1.5-0.5
			c0.1,0,0.2,0,0.4,0c0.7,0.1,1.3,0.4,1.8,1c0.4,0.5,0.6,1,0.6,1.7C618.1,50.8,617.5,54.8,616.3,60z M632.5,51.8
			c0.1,0.4,0.2,0.7,0.2,1.1c0,0.4-0.1,0.9-0.3,1.3c-0.3,0.8-0.9,1.3-1.6,1.7c-0.3,0.2-0.6,0.2-1,0.2c-0.4,0-0.7-0.1-1-0.2
			c-0.7-0.3-1.2-0.8-1.4-1.5c-0.5-1.6-1.1-3.3-1.8-5c0,0,0-0.1-0.1-0.1c0,0-0.1,0-0.1,0.1v37.1c0,1-0.3,1.8-1,2.5
			c-0.7,0.7-1.5,1-2.4,1h-0.2c-1,0-1.8-0.3-2.5-1c-0.7-0.7-1-1.5-1-2.5V36.5c0-1,0.3-1.8,1-2.5c0.7-0.7,1.5-1,2.5-1h0.2
			c0.9,0,1.8,0.3,2.4,1c0.7,0.7,1,1.5,1,2.5V44c0,0.1,0,0.2,0.1,0.2c0.1,0,0.2,0.1,0.2,0.1c0.4-0.2,0.9-0.3,1.3-0.3
			c0.4,0,0.8,0.1,1.2,0.2c0.8,0.3,1.4,0.9,1.8,1.7C631,48,631.8,49.9,632.5,51.8z M665.9,65.9c-0.7,0.7-1.5,1-2.4,1h-10.4
			c-0.1,0-0.2,0.1-0.3,0.1c-0.1,0.1-0.1,0.2,0,0.3c2.7,6.7,6.8,11.5,12.1,14.5c0.7,0.4,1.2,1,1.4,1.8c0,0.2,0.1,0.4,0.1,0.6
			c0,0.6-0.2,1.1-0.6,1.6c-0.3,0.4-0.6,0.8-0.9,1.3c-0.6,0.8-1.3,1.4-2.2,1.7c-0.4,0.1-0.7,0.1-0.9,0.1c-0.6,0-1.2-0.2-1.7-0.5
			c-5.3-3.4-9.5-8.7-12.5-15.8c0-0.1-0.1-0.1-0.2-0.1c-0.1,0-0.1,0-0.1,0.1c-2.4,6.5-6.5,11.7-12.2,15.8c-0.6,0.4-1.3,0.6-1.9,0.6
			c-0.2,0-0.5,0-0.7-0.1c-0.9-0.2-1.8-0.7-2.5-1.4c-0.1-0.1-0.2-0.3-0.4-0.4c-0.5-0.5-0.8-1.1-0.8-1.8c0-0.1,0-0.3,0.1-0.4
			c0.1-0.8,0.5-1.5,1.2-1.9c5.9-3.7,9.7-8.9,11.5-15.6c0-0.1,0-0.2-0.1-0.3c-0.1-0.1-0.2-0.1-0.3-0.1H633c-0.9,0-1.7-0.3-2.4-1
			c-0.7-0.7-1-1.5-1-2.4s0.3-1.8,1-2.4c0.7-0.7,1.5-1,2.4-1h9.1c0.3,0,0.4-0.1,0.5-0.4c0.1-1.2,0.1-2.9,0.1-5.2v-5.1
			c0-0.3-0.1-0.4-0.4-0.4h-6.6c-0.9,0-1.7-0.3-2.4-1s-1-1.4-1-2.4c0-0.9,0.3-1.7,1-2.4s1.4-1,2.4-1h6.6c0.3,0,0.4-0.1,0.4-0.4v-5.2
			c0-1,0.3-1.8,1-2.5c0.7-0.7,1.5-1,2.4-1h0.3c1,0,1.8,0.3,2.5,1c0.7,0.7,1,1.5,1,2.5v5.2c0,0.3,0.2,0.4,0.5,0.4h9.2
			c0.9,0,1.8,0.3,2.4,1c0.7,0.7,1,1.5,1,2.5v13.9c0,0.3,0.1,0.4,0.4,0.4c0.9,0,1.7,0.3,2.4,1c0.6,0.7,1,1.5,1,2.4
			S666.5,65.3,665.9,65.9z M650.5,48.9c-0.3,0-0.5,0.1-0.5,0.4v5.2c0,1.7,0,3.4-0.1,5.1c0,0.3,0.1,0.4,0.4,0.4h5.4
			c0.3,0,0.5-0.1,0.5-0.4V49.3c0-0.3-0.2-0.4-0.5-0.4H650.5z"/>
		<path class="st1" d="M712.5,44.3c-0.2-0.2-0.4-0.4-0.7-0.4H710c-0.3,0-0.5,0.1-0.7,0.4c-0.9,1.4-1.8,2.5-2.5,3.4
			c-0.2,0.2-0.2,0.5,0,0.7c2.8,3.1,6,5.9,9.8,8.3c3.7,2.5,7.6,4.4,11.6,6c0.7,0.3,1.2,0.8,1.5,1.6c0.1,0.3,0.1,0.5,0.1,0.8
			c0,0.5-0.2,1-0.5,1.5c-0.1,0.1-0.2,0.2-0.2,0.3c-0.5,0.9-1.3,1.5-2.2,1.7c-0.4,0.2-0.8,0.2-1.2,0.2c-0.5,0-1-0.1-1.6-0.4
			c-3-1.4-5.9-3-8.9-4.9c-0.2-0.1-0.2,0-0.2,0.2c0,0.6-0.2,1.2-0.7,1.7s-1,0.7-1.6,0.7h-19.2c-0.7,0-1.3-0.3-1.8-0.8
			c-0.5-0.5-0.8-1.1-0.8-1.8c0,0,0-0.1-0.1-0.1c-0.1,0-0.1,0-0.1,0c-3,1.9-6.1,3.7-9.4,5.2c-0.5,0.2-1,0.4-1.5,0.4
			c-0.4,0-0.8-0.1-1.2-0.2c-0.9-0.3-1.6-0.8-2.2-1.7c-0.3-0.5-0.5-1-0.5-1.5c0-0.2,0-0.5,0.1-0.8c0.2-0.8,0.7-1.4,1.5-1.7
			c3.8-1.7,7.4-3.7,10.8-6.1c3.4-2.4,6.3-4.9,8.7-7.4c1.5-1.6,3.2-2.4,5.1-2.4c0,0,0.1,0,0.1-0.1s0-0.1,0-0.1
			c-0.5-0.4-0.9-0.7-1.4-1c-0.4-0.2-0.5-0.5-0.6-0.9c0-0.4,0.1-0.7,0.4-1c0,0,0.1,0,0.1-0.1c0,0,0-0.1-0.1-0.1h-6.7
			c-0.1,0-0.2,0-0.2,0.1c0,0.1,0,0.2,0,0.2c0.3,0.6,0.6,1.1,0.9,1.6c0.2,0.4,0.4,0.9,0.4,1.3c0,0.4-0.1,0.8-0.3,1.2
			c-0.4,0.8-1,1.4-1.9,1.7c-0.4,0.1-0.7,0.2-1.1,0.2c-0.5,0-1-0.1-1.5-0.4c-0.8-0.4-1.4-1-1.8-1.9c-0.6-1.3-1.2-2.5-1.9-3.8
			c-0.1-0.2-0.3-0.2-0.5-0.2c-0.2,0-0.4,0.1-0.5,0.2c-1,1.6-2,3.1-3,4.5c-0.6,0.8-1.4,1.2-2.4,1.3c-0.2,0-0.4,0.1-0.5,0.1
			c-0.8,0-1.5-0.2-2.2-0.7c-0.1,0-0.1-0.1-0.2-0.1c-0.7-0.5-1.2-1.2-1.2-2c0-0.2-0.1-0.3-0.1-0.5c0-0.7,0.2-1.3,0.7-1.9
			c2.2-2.7,4.1-5.7,5.6-9.2c0.4-0.9,1.1-1.6,1.9-2.1c0.6-0.3,1.2-0.4,1.8-0.4c0.3,0,0.6,0,0.9,0.1l0.2,0.1c0.9,0.2,1.6,0.7,2,1.5
			c0.2,0.4,0.3,0.9,0.3,1.3c0,0.4-0.1,0.8-0.3,1.3v0.1c0,0.1,0,0.2,0,0.3c0,0.1,0.1,0.1,0.2,0.1h9.2c0.9,0,1.8,0.3,2.4,1
			c0.7,0.7,1,1.5,1,2.5v0.9c0,0.1,0,0.1,0.1,0.1c0.1,0,0.1,0,0.1,0c1.7-2,3.1-4.3,4.4-6.8c0.4-0.9,1.1-1.6,1.9-2.1
			c0.6-0.3,1.2-0.5,1.8-0.5c0.3,0,0.6,0,0.9,0.1l0.3,0.1c0.9,0.2,1.6,0.7,2,1.5c0.2,0.4,0.4,0.9,0.4,1.3c0,0.4-0.1,0.8-0.3,1.2
			c0,0.1-0.1,0.1-0.1,0.2c0,0.1,0,0.2,0,0.3c0.1,0.1,0.1,0.1,0.3,0.1h13.4c0.8,0,1.5,0.3,2.1,0.9c0.6,0.6,0.9,1.3,0.9,2.1
			s-0.3,1.5-0.9,2.1c-0.6,0.6-1.3,0.9-2.1,0.9h-6.4c-0.1,0-0.1,0-0.2,0.1c0,0.1,0,0.2,0,0.2c0.4,0.5,0.7,1,0.9,1.4
			c0.3,0.4,0.5,0.9,0.5,1.4c0,0.3-0.1,0.7-0.2,1c-0.3,0.9-0.9,1.5-1.8,1.8h-0.1c-0.4,0.2-0.8,0.2-1.2,0.2c-0.5,0-1-0.1-1.5-0.3
			c-0.9-0.4-1.6-1-2.1-1.9C714.2,46.9,713.4,45.6,712.5,44.3z M688.2,89.9c-0.9,0-1.7-0.3-2.4-1c-0.7-0.7-1-1.5-1-2.4V73.6
			c0-1,0.3-1.8,1-2.5c0.7-0.7,1.5-1,2.5-1h28.9c1,0,1.8,0.3,2.5,1c0.7,0.7,1,1.5,1,2.5v12.7c0,1-0.3,1.8-1,2.5c-0.7,0.7-1.5,1-2.5,1
			h-2.4c-0.4,0-0.7-0.1-0.9-0.4c-0.3-0.3-0.4-0.6-0.4-0.9c0-0.1,0-0.2-0.1-0.2h-21.5c-0.1,0-0.2,0.1-0.2,0.2c0,0.4-0.1,0.7-0.4,1
			c-0.3,0.3-0.6,0.4-1,0.4H688.2z M713.5,76.7c0-0.3-0.1-0.4-0.4-0.4h-21c-0.3,0-0.4,0.1-0.4,0.4v4.8c0,0.3,0.1,0.5,0.4,0.5h21
			c0.3,0,0.4-0.2,0.4-0.5V76.7z M695.3,59.9c-0.1,0-0.1,0.1-0.1,0.1s0.1,0.1,0.1,0.1h14.3c0.1,0,0.1,0,0.1-0.1c0-0.1,0-0.1,0-0.1
			c-2.8-2.1-5.1-4.2-7.1-6.4c-0.2-0.2-0.4-0.2-0.6,0C700.4,55.6,698.1,57.7,695.3,59.9z"/>
	</g>
</g>
<g>
	<g>
		<path class="st0" d="M200.3,206.9c0,1.6-0.5,2.9-1.6,3.9c-1.1,1.1-2.4,1.6-3.9,1.6h-4.4c-0.1,0-0.1,0.1-0.2,0.2
			c-0.1,0.1,0,0.2,0.1,0.3c4.5,3.1,8.2,5.9,11.1,8.3c1.1,0.8,1.6,1.9,1.6,3.2c0,1.5-0.6,2.7-1.9,3.6l-2,1.3
			c-1.1,0.8-2.3,1.2-3.6,1.2c-0.2,0-0.5,0-0.7-0.1c-1.6-0.1-2.9-0.7-4.1-1.8c-2-1.8-4.3-3.8-7-6c-1.1-0.8-1.6-1.8-1.6-3.1
			c0-1.4,0.6-2.6,1.8-3.4l5-3.4c0.1-0.1,0.1-0.2,0-0.3c0-0.1-0.1-0.2-0.2-0.2h-20.9c-0.1,0-0.2,0.1-0.2,0.2c0,0.1,0,0.2,0,0.2
			l4.9,3.3c1.2,0.9,1.9,2.1,1.9,3.5c0,1.2-0.5,2.3-1.6,3.1c-3.9,2.9-8,5.4-12.5,7.6c-1,0.5-2,0.7-3.1,0.7c-0.5,0-1-0.1-1.6-0.2
			c-1.6-0.4-2.9-1.2-4.1-2.3c-0.4-0.4-0.9-0.9-1.3-1.3c-0.7-0.7-1.1-1.5-1.1-2.4c0-0.2,0-0.5,0.1-0.7c0.2-1.2,0.8-2.1,2-2.7
			c5.2-2.5,9.6-5.3,13.3-8.5c0.1-0.1,0.1-0.2,0-0.3c0-0.1-0.1-0.2-0.2-0.2h-2.1c-1.6,0-2.9-0.5-3.9-1.6c-1.1-1.1-1.6-2.4-1.6-3.9
			v-27.8c-0.1-0.1-0.2-0.1-0.2,0c-1.4,6.1-2.8,11.8-4.3,17.2c-0.4,1.4-1.3,2.5-2.5,3.3c-0.9,0.6-1.9,0.8-2.9,0.8
			c-0.4,0-0.8-0.1-1.2-0.2c-1.4-0.2-2.4-1-3.2-2.2c-0.6-0.8-0.8-1.7-0.8-2.7c0-0.4,0.1-0.7,0.2-1.1c0.3-1.5,0.7-3.2,1.1-5.1
			c0.1-0.5-0.1-0.7-0.6-0.7h-2.1c-0.5,0-0.7,0.2-0.7,0.7v28.8c0,3.2-0.4,5.8-1.1,7.6c-0.7,1.8-2,3.3-4,4.2c-2.4,1.2-5.7,2-9.9,2.2
			c-0.1,0-0.2,0-0.4,0c-1.4,0-2.6-0.5-3.7-1.4c-1.2-1-2.1-2.3-2.5-3.8c-0.2-1-0.6-2-0.9-2.9c-0.1-0.4-0.2-0.9-0.2-1.3
			c0-0.7,0.2-1.4,0.7-2.1c0.7-1.1,1.7-1.6,3-1.6h3.9c0.7,0,1.2-0.1,1.4-0.3c0.2-0.2,0.4-0.5,0.4-1V189c0-0.5-0.2-0.7-0.7-0.7h-7.2
			c-1.5,0-2.8-0.5-3.9-1.6c-1.1-1.1-1.6-2.4-1.6-3.9v-1.1c0-1.5,0.5-2.8,1.6-3.9c1.1-1.1,2.4-1.6,3.9-1.6H130c0.1,0,0.2,0,0.2-0.1
			c0-0.1,0-0.2,0-0.2c-3-1.9-6-3.6-8.9-5.1c-1.2-0.7-2.1-1.7-2.4-3.1c-0.1-0.4-0.1-0.8-0.1-1.2c0-0.9,0.3-1.8,0.9-2.6l0.2-0.3
			c0.9-1.3,2.2-2.1,3.7-2.5c0.6-0.2,1.2-0.3,1.8-0.3c0.9,0,1.9,0.2,2.8,0.7c0.7,0.4,1.6,0.8,2.5,1.2c0.4,0.2,0.8,0.2,1.1-0.2
			c1.1-1.4,2.3-2.9,3.5-4.6c0.1-0.1,0.1-0.3,0-0.4c-0.1-0.2-0.2-0.2-0.3-0.2h-14.4c-1.5,0-2.8-0.5-3.9-1.6c-1.1-1.1-1.6-2.4-1.6-3.9
			v-0.9c0-1.5,0.5-2.8,1.6-3.9c1.1-1.1,2.4-1.6,3.9-1.6h23.1c0.2,0,0.4,0,0.6-0.1c0.5-0.1,1-0.2,1.5-0.2c0.9,0,1.8,0.3,2.6,0.9
			l4.9,3.5c0.1,0.1,0.2,0.1,0.3,0c0.1,0,0.1-0.1,0.1-0.2c0-1.2,0.4-2.2,1.2-3c0.8-0.8,1.8-1.3,3-1.3h39.4c1.6,0,2.9,0.5,3.9,1.6
			c1.1,1.1,1.6,2.4,1.6,3.9v0.6c0,1.6-0.5,2.9-1.6,3.9c-1.1,1.1-2.4,1.6-3.9,1.6h-10.5c-0.4,0-0.7,0.2-0.8,0.7
			c-0.7,2.1-1.2,3.3-1.2,3.5c-0.1,0.2,0,0.3,0,0.5c0.1,0.1,0.2,0.2,0.4,0.2h9.5c1.6,0,2.9,0.5,3.9,1.6c1.1,1.1,1.6,2.4,1.6,3.9
			V206.9z M146.9,176.1c0.6-0.1,1.1-0.2,1.6-0.2c0.6,0,1.1,0.1,1.7,0.2l6,1.3c0.5,0.1,0.7-0.1,0.7-0.6v-10.2c0-1.5,0.5-2.8,1.6-3.9
			c1.1-1.1,2.4-1.6,3.9-1.6h7.3c0.5,0,0.8-0.2,0.8-0.7l0.4-3.5c0.1-0.5-0.1-0.7-0.6-0.7h-12.9c-1,0-1.9-0.4-2.6-1.1
			c-0.7-0.7-1.1-1.6-1.1-2.6c0-0.1-0.1-0.1-0.3-0.1c-3.9,6-7.7,11.2-11.7,15.6c-0.3,0.3-0.3,0.6,0.1,0.8c0.3,0.2,0.6,0.5,0.9,0.7
			c1,0.7,1.6,1.6,1.7,2.7c0.1,0.2,0.1,0.5,0.1,0.7c0,0.9-0.3,1.8-0.8,2.6c-0.1,0.1-0.1,0.1,0,0.2c0,0.1,0.1,0.1,0.2,0.1h2.5
			C146.7,176.1,146.8,176.1,146.9,176.1z M186.4,175.5c0.4,0,0.7-0.2,0.7-0.7v-3c0-0.4-0.2-0.7-0.7-0.7h-16.2
			c-0.4,0-0.7,0.2-0.7,0.7v3c0,0.4,0.2,0.7,0.7,0.7H186.4z M186.4,188.9c0.4,0,0.7-0.2,0.7-0.7v-2.9c0-0.5-0.2-0.7-0.7-0.7h-16.2
			c-0.4,0-0.7,0.2-0.7,0.7v2.9c0,0.4,0.2,0.7,0.7,0.7H186.4z M186.4,202.6c0.4,0,0.7-0.2,0.7-0.7v-2.9c0-0.4-0.2-0.7-0.7-0.7h-16.2
			c-0.4,0-0.7,0.2-0.7,0.7v2.9c0,0.5,0.2,0.7,0.7,0.7H186.4z"/>
		<path class="st0" d="M275.6,216.3h7.7c1.5,0,2.5-0.7,3-2.2c0.2-0.9,0.5-2.5,0.7-4.8c0.1-1.2,0.7-2.1,1.8-2.6
			c0.6-0.2,1.1-0.4,1.7-0.4s1.1,0.1,1.6,0.3c0.9,0.4,1.8,0.8,2.7,1.1c1.6,0.6,2.8,1.5,3.6,2.8c0.7,1.1,1.1,2.1,1.1,3.3
			c0,0.3,0,0.7-0.1,1c-0.8,4.9-2,8.3-3.5,10.5c-2.2,2.7-5.9,4.1-11.1,4.1h-11.1c-6.2,0-10.4-1.2-12.6-3.5c-2.1-2.4-3.2-6.8-3.2-13.2
			v-12.2c0-0.5-0.2-0.7-0.7-0.7h-7.8c-0.4,0-0.7,0.2-0.7,0.7c-0.5,3.9-1.2,7.2-2.2,9.9c-1.1,2.9-2.7,5.7-5,8.4
			c-2.3,2.7-5.5,5.1-9.6,7c-2.8,1.3-6.1,2.5-9.8,3.5c-0.6,0.2-1.1,0.3-1.6,0.3c-0.9,0-1.8-0.2-2.7-0.7c-1.4-0.7-2.6-1.7-3.4-3.2
			c-0.3-0.5-0.6-1-0.8-1.5c-0.4-0.6-0.7-1.2-1.1-1.7c-0.4-0.6-0.7-1.3-0.7-2c0-0.4,0.1-0.9,0.2-1.3c0.4-1.1,1.2-1.8,2.4-2.1
			c3.9-0.9,7-2,9.5-3.3c3.5-1.8,5.9-3.7,7.2-5.8c1.2-2,2.1-4.6,2.6-7.7c0.1-0.4-0.1-0.7-0.6-0.7h-4.9c-1.5,0-2.8-0.5-3.9-1.6
			c-1.1-1.1-1.6-2.4-1.6-3.9v-46.6c0-1.5,0.5-2.8,1.6-3.9c1.1-1.1,2.4-1.6,3.9-1.6h53.1c1.5,0,2.8,0.5,3.9,1.6
			c1.1,1.1,1.6,2.4,1.6,3.9v46.6c0,1.5-0.5,2.8-1.6,3.9c-1.1,1.1-2.4,1.6-3.9,1.6h-8.7c-0.4,0-0.7,0.2-0.7,0.7v12.1
			c0,1.7,0.2,2.7,0.6,3.1C273,216.1,274,216.3,275.6,216.3z M236.8,154.1c-0.5,0-0.7,0.2-0.7,0.7v2.2c0,0.5,0.2,0.7,0.7,0.7h35.3
			c0.4,0,0.7-0.2,0.7-0.7v-2.2c0-0.5-0.2-0.7-0.7-0.7H236.8z M236.8,169c-0.5,0-0.7,0.2-0.7,0.7v2.4c0,0.4,0.2,0.7,0.7,0.7h35.3
			c0.4,0,0.7-0.2,0.7-0.7v-2.4c0-0.4-0.2-0.7-0.7-0.7H236.8z M236.8,183.9c-0.5,0-0.7,0.2-0.7,0.7v2.4c0,0.4,0.2,0.7,0.7,0.7h35.3
			c0.4,0,0.7-0.2,0.7-0.7v-2.4c0-0.4-0.2-0.7-0.7-0.7H236.8z"/>
		<path class="st0" d="M321.4,147c0.6-1.4,1.6-2.5,3-3.2c0.8-0.4,1.6-0.7,2.5-0.7c0.6,0,1.2,0.1,1.8,0.3l2.5,0.8
			c1.4,0.4,2.5,1.3,3.2,2.7c0.3,0.7,0.5,1.4,0.5,2.1c0,0.6-0.1,1.2-0.4,1.9c-1.9,4.6-4,9.1-6.3,13.5c-0.2,0.4-0.4,0.8-0.4,1.3v60.8
			c0,1.6-0.5,2.9-1.6,3.9c-1.1,1.1-2.4,1.6-3.9,1.6h-2.1c-1.5,0-2.8-0.5-3.9-1.6c-1.1-1.1-1.6-2.4-1.6-3.9v-40.2
			c0-0.1,0-0.2-0.1-0.2c-0.1,0-0.2,0-0.3,0c-0.2,0.2-0.4,0.5-0.6,0.8c-0.7,0.7-1.5,1.1-2.5,1.1c-0.2,0-0.4,0-0.6,0
			c-1.2-0.2-2.1-0.9-2.7-2.1c-0.8-1.7-1.6-3.3-2.4-4.9c-0.6-1.1-0.8-2.3-0.8-3.6c0-0.3,0-0.6,0-0.9c0.2-1.6,0.8-3,1.9-4.3
			C312.4,165.2,317.4,156.7,321.4,147z M380.7,171.4c0.1-0.4-0.2-0.7-0.7-0.7h-8.5c-0.5,0-0.7,0.2-0.7,0.7v45.7c0,3.4-0.3,6-1,7.9
			c-0.7,1.9-2,3.5-3.8,4.6c-2.4,1.4-5.6,2.2-9.5,2.5c-0.2,0-0.3,0-0.5,0c-1.4,0-2.6-0.4-3.7-1.3c-1.2-1-2.1-2.3-2.5-3.8
			c-0.4-1.2-0.8-2.4-1.2-3.5c-0.2-0.5-0.3-1-0.3-1.4c0-0.7,0.2-1.3,0.7-2c0.7-1.1,1.6-1.6,2.9-1.6h3.5c0.7,0,1.2-0.1,1.4-0.3
			c0.2-0.2,0.4-0.6,0.4-1.3v-45.5c0-0.4-0.2-0.7-0.7-0.7h-7.7c-0.4,0-0.8,0.2-1,0.6c-1.7,3.1-3.4,6-5.2,8.7c-0.9,1.2-2.1,1.8-3.5,2
			c-0.1,0.1-0.3,0.1-0.5,0.1c-1.3,0-2.4-0.4-3.4-1.3c-0.9-0.7-1.8-1.5-2.7-2.2c-1.2-0.9-1.8-2.1-2-3.5c-0.1-0.2-0.1-0.5-0.1-0.7
			c0-1.2,0.4-2.3,1.1-3.3c4.8-6.5,8.7-14.5,11.7-24c0.4-1.4,1.3-2.6,2.6-3.4c0.9-0.6,1.9-0.8,2.9-0.8c0.4,0,0.9,0.1,1.3,0.2l3,0.7
			c1.4,0.4,2.5,1.2,3.3,2.4c0.5,0.8,0.7,1.6,0.7,2.5c0,0.5-0.1,1-0.3,1.6c-0.8,2.5-1.6,4.9-2.5,7.1c-0.1,0.1,0,0.3,0,0.4
			c0.1,0.2,0.2,0.2,0.3,0.2h28.9c0.1,0,0.3,0,0.5-0.1c0.6-0.1,1.2-0.2,1.9-0.2c0.6,0,1.2,0.1,1.9,0.2l3.1,0.6
			c1.4,0.2,2.5,0.9,3.3,2.1c0.7,0.9,1,1.8,1,2.9c0,0.3,0,0.6-0.1,0.8c-0.6,4.4-1.4,8.7-2.3,13.2c-0.2,1.5-1,2.7-2.3,3.5
			c-0.9,0.7-2,1-3.1,1c-0.4,0-0.7,0-1.1-0.1l-0.9-0.2c-1.6-0.3-2.8-1.1-3.6-2.3c-0.7-1-1.1-2.1-1.1-3.4c0-0.2,0-0.5,0-0.7
			C380.5,173.9,380.6,172.6,380.7,171.4z M340,190.7c0.4-1.5,1.2-2.6,2.5-3.5c0.9-0.6,1.8-0.9,2.9-0.9c0.4,0,0.8,0,1.2,0.1l2.6,0.6
			c1.5,0.3,2.6,1.1,3.5,2.4c0.6,0.9,0.8,1.8,0.8,2.7c0,0.4-0.1,0.9-0.2,1.4c-2.2,8.2-5,15.5-8.4,21.7c-0.7,1.2-1.7,2-3.2,2.3
			c-0.4,0.1-0.7,0.1-1.1,0.1c-1.1,0-2.1-0.3-3-0.9c-0.8-0.5-1.6-1-2.5-1.6c-1.2-0.7-2-1.8-2.3-3.3c-0.1-0.4-0.1-0.9-0.1-1.3
			c0-0.9,0.2-1.8,0.7-2.7C336.2,203.1,338.4,197.4,340,190.7z M374.4,193.5c-0.2-0.7-0.4-1.3-0.4-2c0-0.7,0.2-1.5,0.5-2.1
			c0.6-1.4,1.6-2.3,3.1-2.8l2-0.7c0.7-0.2,1.3-0.4,2-0.4c0.8,0,1.6,0.2,2.4,0.6c1.4,0.6,2.5,1.6,3.1,3.1c2.7,6.7,4.9,13.5,6.3,20.3
			c0.1,0.4,0.2,0.9,0.2,1.3c0,1.1-0.3,2.1-0.8,3.1c-0.8,1.4-2,2.3-3.5,2.8l-3,1.1c-0.5,0.1-1,0.2-1.5,0.2c-0.7,0-1.5-0.2-2.2-0.7
			c-1.2-0.7-1.9-1.8-2.1-3.2C379,207.5,377.1,200.6,374.4,193.5z"/>
		<path class="st0" d="M463,155.4c-0.1,0.2,0,0.3,0,0.5c0.1,0.1,0.2,0.2,0.4,0.2h19.9c1.5,0,2.8,0.5,3.9,1.6c1,1.1,1.5,2.3,1.5,3.7
			c0,0.1,0,0.4,0,0.7c-0.4,15.3-0.9,26.8-1.3,34.6c-0.4,7.8-1,14.1-1.7,18.9c-0.7,4.8-1.8,8.1-3.2,9.8c-1.4,1.9-2.8,3.3-4.3,4.2
			c-1.5,0.8-3.4,1.5-5.7,1.9c-2,0.4-4.9,0.6-8.6,0.6c-0.4,0-0.9,0-1.4,0c-1.6-0.1-2.9-0.6-4.1-1.6c-1.2-1-2-2.3-2.4-4
			c-0.3-1.1-0.7-2.1-1.1-3.2c-0.2-0.4-0.3-0.9-0.3-1.3c0-0.6,0.2-1.2,0.6-1.8c0.6-0.9,1.5-1.4,2.6-1.4c0.1,0,0.1,0,0.2,0
			c2.5,0.1,5.5,0.2,8.9,0.2c1.7,0,3.1-0.6,4.2-1.7c1.4-1.5,2.4-5.9,3.1-13.2c0.7-7.3,1.2-18.9,1.6-34.7c0.1-0.5-0.2-0.7-0.7-0.7
			h-16.7c-0.5,0-0.8,0.2-1,0.7c-1.6,3.2-3.2,6.2-4.9,9c-0.7,1.2-1.9,2-3.4,2.2c-0.2,0.1-0.5,0.1-0.8,0.1c-1.1,0-2.1-0.4-3.1-1.1
			c-1-0.7-2-1.4-3-2.1c-0.1-0.1-0.2-0.1-0.4,0c-0.1,0.1-0.2,0.2-0.2,0.3V217c0,1.5-0.5,2.8-1.6,3.9c-1.1,1.1-2.4,1.6-3.9,1.6h-18.9
			c-0.4,0-0.7,0.2-0.7,0.7v0.7c0,1.5-0.5,2.8-1.6,3.9c-1.1,1.1-2.4,1.6-3.9,1.6h-1.5c-1.6,0-2.9-0.5-3.9-1.6
			c-1.1-1.1-1.6-2.4-1.6-3.9v-61.3c0-1.5,0.5-2.8,1.6-3.9c1.1-1.1,2.4-1.6,3.9-1.6h4.7c0.4,0,0.7-0.2,0.8-0.7c0.6-3.1,1-6.3,1.4-9.4
			c0.2-1.5,0.9-2.7,2.1-3.6c0.9-0.7,2-1.1,3.2-1.1c0.2,0,0.5,0,0.7,0.1l4.3,0.6c1.4,0.2,2.5,0.9,3.3,2.1c0.4,0.7,0.7,1.5,0.7,2.2
			c0,0.5-0.1,1-0.3,1.6c-1.1,3.2-2,5.7-2.7,7.6c-0.1,0.2,0,0.3,0,0.5c0.1,0.1,0.2,0.2,0.4,0.2h7.9c1.5,0,2.8,0.5,3.9,1.6
			c1.1,1.1,1.6,2.4,1.6,3.9v6.5c0,0.1,0,0.2,0.1,0.2c0.1,0,0.2,0,0.2-0.1c3.8-6.3,7-13.7,9.5-22.1c0.4-1.4,1.3-2.6,2.6-3.4
			c0.9-0.6,1.9-0.8,2.9-0.8c0.4,0,0.9,0.1,1.3,0.2l2.7,0.7c1.4,0.3,2.5,1.1,3.3,2.4c0.5,0.8,0.7,1.6,0.7,2.5c0,0.5-0.1,1-0.3,1.6
			C464.2,151.8,463.6,153.6,463,155.4z M428.3,182c0.5,0,0.7-0.2,0.7-0.7v-11.5c0-0.5-0.2-0.7-0.7-0.7h-11.1c-0.4,0-0.7,0.2-0.7,0.7
			v11.5c0,0.5,0.2,0.7,0.7,0.7H428.3z M416.6,209.6c0,0.5,0.2,0.7,0.7,0.7h11.1c0.5,0,0.7-0.2,0.7-0.7v-15c0-0.4-0.2-0.7-0.7-0.7
			h-11.1c-0.4,0-0.7,0.2-0.7,0.7V209.6z M469.7,195.6c0.5,0.9,0.7,1.8,0.7,2.7c0,0.5-0.1,1-0.2,1.5c-0.4,1.5-1.2,2.6-2.6,3.5
			l-2.3,1.4c-0.8,0.5-1.7,0.7-2.5,0.7c-0.4,0-0.9-0.1-1.4-0.2c-1.4-0.4-2.5-1.3-3.2-2.6c-1.6-3.1-4-7.3-7.3-12.6
			c-0.5-0.9-0.7-1.8-0.7-2.7c0-0.4,0.1-0.9,0.2-1.4c0.4-1.5,1.2-2.6,2.5-3.3l1.3-0.7c0.9-0.5,1.9-0.7,2.9-0.7c0.4,0,0.9,0,1.4,0.1
			c1.5,0.4,2.7,1.2,3.5,2.5C465.4,188.9,468,192.8,469.7,195.6z"/>
		<path class="st0" d="M517.6,165c0.9-1.3,2.1-2.2,3.5-2.7c0.7-0.2,1.5-0.4,2.1-0.4c0.8,0,1.6,0.1,2.3,0.4l2.9,1.1
			c1.4,0.5,2.3,1.4,2.7,2.8c0.2,0.5,0.3,1,0.3,1.5c0,0.8-0.2,1.6-0.7,2.3c-2.1,3.2-4.3,6.3-6.5,9.3c-0.3,0.4-0.5,0.8-0.5,1.2v44
			c0,1.5-0.5,2.8-1.6,3.9c-1.1,1.1-2.4,1.6-3.9,1.6h-3c-1.5,0-2.8-0.5-3.9-1.6c-1.1-1.1-1.6-2.4-1.6-3.9v-28.3
			c0-0.1-0.1-0.2-0.2-0.2c-0.1,0-0.2,0-0.4,0c-0.3,0.3-0.8,0.7-1.4,1.3c-0.9,0.8-1.9,1.2-3.1,1.2c-0.2,0-0.4,0-0.7-0.1
			c-1.4-0.2-2.6-0.9-3.5-2.1c-0.9-1.2-1.8-2.3-2.7-3.5c-0.8-1-1.2-2.1-1.2-3.3c0-0.2,0-0.4,0.1-0.6c0.1-1.5,0.7-2.7,1.9-3.5
			c3.4-2.8,6.8-6,10.2-9.6C512.1,172.4,515.1,168.8,517.6,165z M513.5,143.7c1.1-1.2,2.4-2.1,3.9-2.5c0.6-0.2,1.2-0.3,1.9-0.3
			c0.9,0,1.7,0.2,2.6,0.6l3.3,1.3c1.2,0.6,2.1,1.5,2.4,2.8c0.1,0.4,0.1,0.7,0.1,1.1c0,0.9-0.3,1.7-0.9,2.5c-2.9,3.3-6,6.6-9.4,9.9
			c-3.4,3.2-6.7,6.1-10,8.7c-0.9,0.7-1.8,1-2.8,1c-0.4,0-0.7-0.1-1.1-0.2c-1.4-0.3-2.6-1.1-3.4-2.3c-0.4-0.8-0.9-1.6-1.4-2.2
			c-0.7-0.9-1-2-1-3.1c0-0.3,0-0.6,0.1-0.9c0.2-1.4,1-2.6,2.1-3.5c2.4-1.9,4.9-4,7.4-6.3C509.7,147.9,511.8,145.7,513.5,143.7z
			 M580,171.1c1.5,0,2.8,0.5,3.9,1.6c1.1,1.1,1.6,2.4,1.6,3.9v2.2c0,1.5-0.5,2.8-1.6,3.9c-1.1,1.1-2.4,1.6-3.9,1.6h-6.3
			c-0.5,0-0.7,0.2-0.7,0.7v29.4c0,3.7-0.4,6.6-1.3,8.5c-0.8,2-2.4,3.5-4.7,4.5c-2.6,1.2-7.1,1.9-13.6,2.1c-0.1,0-0.2,0-0.3,0
			c-1.4,0-2.7-0.5-3.8-1.4c-1.2-1.1-2-2.4-2.4-3.9c-0.3-1.2-0.7-2.4-1-3.6c-0.2-0.4-0.3-0.9-0.3-1.3c0-0.7,0.2-1.4,0.7-2.1
			c0.7-1.1,1.6-1.6,2.9-1.6h0.1c2.1,0.1,4.5,0.1,7.2,0.1c1.5,0,2.2-0.6,2.2-1.8v-29c0-0.5-0.2-0.7-0.7-0.7h-20
			c-1.5,0-2.8-0.5-3.9-1.6c-1.1-1.1-1.6-2.4-1.6-3.9v-2.2c0-1.5,0.5-2.8,1.6-3.9c1.1-1.1,2.4-1.6,3.9-1.6H580z M577.7,144.6
			c1.5,0,2.8,0.5,3.9,1.6c1.1,1.1,1.6,2.4,1.6,3.9v2.1c0,1.5-0.5,2.8-1.6,3.9c-1.1,1.1-2.4,1.6-3.9,1.6h-35.6
			c-1.5,0-2.8-0.5-3.9-1.6c-1.1-1.1-1.6-2.4-1.6-3.9v-2.1c0-1.5,0.5-2.8,1.6-3.9c1.1-1.1,2.4-1.6,3.9-1.6H577.7z"/>
		<path class="st0" d="M618,211.1c-0.1-0.1-0.3,0-0.4,0.1c-0.2,0.1-0.2,0.2-0.2,0.4v2.6c0,0.5,0.2,0.7,0.7,0.7
			c2.9-0.4,5.1-0.7,6.7-0.9c0.2-0.1,0.5-0.1,0.7-0.1c1.2,0,2.2,0.4,3.2,1.2c1.1,0.9,1.7,2.1,1.9,3.5v0.7c0.1,1.6-0.3,2.9-1.3,4.2
			c-1,1.2-2.2,2-3.7,2.3c-6.3,1.1-14.7,2.4-25.1,4.1c-0.4,0-0.7,0-1,0c-1.1,0-2.2-0.3-3.2-0.9c-1.3-0.9-2.1-2.1-2.4-3.6l-0.4-1.7
			c-0.1-0.4-0.1-0.7-0.1-1.1c0-1,0.3-1.9,0.9-2.8c0.9-1.2,2-2,3.5-2.1c2.5-0.3,4.8-0.6,7-0.8c0.4-0.1,0.7-0.3,0.7-0.7v-3.3
			c0-0.2-0.1-0.3-0.2-0.5c-0.1-0.1-0.3-0.2-0.5-0.1l-3,0.9c-0.5,0.1-1,0.2-1.4,0.2c-0.9,0-1.7-0.3-2.4-0.8c-1.2-0.8-2-1.9-2.1-3.4
			c-0.4-1.9-0.8-4-1.2-6.2c-0.1-0.4-0.2-0.7-0.2-1.1c0-0.8,0.2-1.6,0.7-2.3c0.6-1.1,1.5-1.7,2.7-2.1c0.4-0.1,0.8-0.2,1.2-0.2
			c0.8,0,1.6,0.2,2.3,0.6c1.1,0.6,1.7,1.6,2.1,2.8c0.8,3,1.4,5.7,1.9,8.2c0,0.1,0,0.1,0,0.1c0,0,0,0,0-0.1v-14.5
			c0-0.4-0.2-0.7-0.7-0.7H599c-1.5,0-2.8-0.5-3.9-1.6c-1.1-1.1-1.6-2.4-1.6-3.9v-0.7c0-1.6,0.5-2.9,1.6-3.9c1.1-1.1,2.4-1.6,3.9-1.6
			h5.7c0.4,0,0.7-0.2,0.7-0.7v-3.8c0-0.5-0.2-0.7-0.7-0.7h-3.3c-1.1,0-2.1-0.4-2.8-1.2c-0.8-0.8-1.2-1.7-1.2-2.8
			c0-0.4-0.1-0.7-0.3-0.9c-1-1.4-2.1-2.7-3.4-4.1c-1-1.1-1.5-2.3-1.5-3.8c0-1.4,0.5-2.7,1.5-3.7c3.9-4,7.1-8.6,9.7-13.8
			c0.7-1.4,1.8-2.6,3.1-3.5c1.3-0.9,2.8-1.4,4.4-1.4c3.7,0,6.9,1.2,9.5,3.5c3.4,3,6.3,5.8,8.7,8.3c1.1,1.2,1.7,2.6,1.7,4.4
			c0,1.6-0.5,3-1.4,4.3l-2.8,3.9c-0.3,0.4-0.5,0.8-0.5,1.2v4.1c0,1.6-0.5,2.9-1.6,3.9c-1.1,1.1-2.4,1.6-3.9,1.6h-2.7
			c-0.5,0-0.7,0.2-0.7,0.7v3.8c0,0.5,0.2,0.7,0.7,0.7h5.3c1.5,0,2.8,0.5,3.9,1.6c1.1,1.1,1.6,2.4,1.6,3.9v0.7c0,1.5-0.5,2.8-1.6,3.9
			c-1.1,1.1-2.4,1.6-3.9,1.6h-5.3c-0.5,0-0.7,0.2-0.7,0.7v15c0,0.1,0,0.1,0.1,0.1c0.1,0,0.1,0,0.1-0.1c0.7-2.6,1.3-5.4,1.9-8.7
			c0.2-1.4,0.9-2.5,2.1-3.3c0.8-0.6,1.7-0.9,2.6-0.9c0.4,0,0.8,0.1,1.2,0.2c1.4,0.3,2.4,1.1,3.1,2.3c0.4,0.7,0.6,1.5,0.6,2.3
			c0,0.5-0.1,1-0.2,1.5c-0.2,0.6-0.5,1.4-0.8,2.6c-0.4,1.2-0.7,2-0.8,2.6c-0.4,1.4-1.4,2.5-2.8,3.3c-0.9,0.4-1.7,0.7-2.6,0.7
			c-0.6,0-1.1-0.1-1.7-0.2L618,211.1z M606.3,164.8c-0.1,0.1-0.1,0.2,0,0.3c0.1,0.1,0.2,0.2,0.3,0.2h14.8c0.1,0,0.2-0.1,0.3-0.2
			c0.1-0.1,0.1-0.2,0-0.4c-2.4-3.4-5-6.5-8-9.5c-0.3-0.3-0.6-0.3-0.8,0.1C610.7,158.8,608.6,162,606.3,164.8z M672.1,171.5
			c-0.1,0-0.1,0,0,0.1c0,0.1,0.1,0.1,0.1,0.1h0.6c1.6,0,2.9,0.5,3.9,1.6c1.1,1.1,1.6,2.4,1.6,3.9v40.7c0,3.2-0.3,5.7-1,7.6
			c-0.7,1.9-2,3.3-3.8,4.3c-2.3,1.3-5.5,2.1-9.7,2.3c-0.1,0-0.2,0-0.4,0c-1.4,0-2.6-0.5-3.7-1.4c-1.2-1-2-2.3-2.4-3.8
			c-0.3-1-0.6-2-0.9-3c-0.1-0.4-0.2-0.8-0.2-1.2c0-0.7,0.2-1.4,0.7-2.1c0.7-1.1,1.6-1.6,2.9-1.6c1.2,0,2,0,2.3,0c0.9,0,1.3,0,1.4,0
			c0.6,0,1.1-0.1,1.3-0.3c0.2-0.2,0.4-0.6,0.4-1.2v-2.6c0-0.4-0.2-0.7-0.7-0.7h-16.8c-0.4,0-0.7,0.2-0.7,0.7v11.6
			c0,1.6-0.5,2.9-1.6,3.9c-1.1,1.1-2.4,1.6-3.9,1.6h-2.3c-1.5,0-2.8-0.5-3.9-1.6c-1.1-1.1-1.6-2.4-1.6-3.9v-50.3
			c0-1.2,0.5-2.3,1.4-3.2c0.9-0.9,2-1.4,3.2-1.4c0.1,0,0.1,0,0.1-0.1c0-0.1,0-0.2,0-0.2c-1.3-0.9-2.9-1.9-4.7-3
			c-1.2-0.7-2-1.8-2.3-3.3c-0.1-0.5-0.2-1-0.2-1.4c0-0.9,0.2-1.8,0.7-2.7c1.6-2.8,2.9-6,3.9-9.6c0.5-1.5,1.4-2.6,2.6-3.5
			c0.9-0.6,1.9-0.8,2.9-0.8c0.4,0,0.9,0.1,1.3,0.2l5.8,1.3c0.4,0.1,0.7-0.1,0.7-0.6v-1.1c0-1.5,0.5-2.8,1.6-3.9
			c1.1-1.1,2.4-1.6,3.9-1.6h2.5c1.5,0,2.8,0.5,3.9,1.6c1.1,1.1,1.6,2.4,1.6,3.9v1.9c0,0.2,0.1,0.3,0.2,0.4c0.1,0.1,0.2,0.1,0.4,0
			l3.5-1.7c0.9-0.4,1.8-0.6,2.7-0.6c0.6,0,1.2,0.1,1.8,0.3c1.5,0.4,2.6,1.3,3.5,2.7c2.5,4.1,4.5,7.8,6,11.2c0.3,0.7,0.5,1.5,0.5,2.2
			c0,0.7-0.1,1.4-0.4,2.1c-0.6,1.5-1.6,2.6-3,3.3L672.1,171.5z M648.4,171.8c0.4,0,0.7-0.2,0.7-0.7v-18.2c0-0.1,0-0.1-0.1-0.1
			c-0.1,0-0.1,0-0.1,0c-2.1,7.3-4.8,13.4-8,18.4c-0.1,0.1-0.1,0.2,0,0.4c0.1,0.1,0.2,0.2,0.3,0.2H648.4z M665,184.5
			c0-0.5-0.2-0.7-0.7-0.7h-16.8c-0.4,0-0.7,0.2-0.7,0.7v2.2c0,0.4,0.2,0.7,0.7,0.7h16.8c0.4,0,0.7-0.2,0.7-0.7V184.5z M646.9,202.4
			c0,0.5,0.2,0.7,0.7,0.7h16.8c0.4,0,0.7-0.2,0.7-0.7v-3c0-0.4-0.2-0.7-0.7-0.7h-16.8c-0.4,0-0.7,0.2-0.7,0.7V202.4z M662.6,171.1
			c0,0.4,0.2,0.7,0.7,0.7h6.5c0.2,0,0.3-0.1,0.4-0.2c0.1-0.1,0.1-0.3,0-0.5c-1.4-4.3-3.8-9.8-7.4-16.5c-0.1-0.1-0.1-0.1-0.2,0
			c-0.1,0-0.1,0.1-0.1,0.1V171.1z"/>
		<path class="st0" d="M734.4,158c0,0.4,0.2,0.7,0.7,0.7h32.1c1.6,0,2.9,0.5,3.9,1.6c0.9,1,1.4,2.2,1.4,3.5c0,0.3,0,0.7-0.1,1.3
			c-0.9,19-1.9,32.6-3,41c-1.2,8.3-2.8,13.8-4.9,16.4c-1.5,1.9-3.1,3.3-4.7,4.2c-1.6,0.9-3.7,1.5-6,1.9c-2.2,0.4-5.3,0.6-9.3,0.6
			c-0.1,0-0.3,0-0.5,0c-1.5,0-2.8-0.5-4-1.6c-1.2-1.1-2-2.4-2.5-3.9c-0.1-0.6-0.3-1.3-0.6-2c-0.2-0.7-0.5-1.5-0.8-2.2
			c-0.2-0.4-0.3-0.9-0.3-1.3c0-0.6,0.2-1.2,0.6-1.8c0.6-0.9,1.5-1.4,2.5-1.4c0.1,0,0.1,0,0.2,0c2.8,0.1,5.6,0.2,8.4,0.2
			c1.7,0,3.2-0.6,4.4-1.7c2.7-2.7,4.6-16,5.9-39.9c0-0.4-0.2-0.7-0.7-0.7h-22.4c-0.4,0-0.7,0.2-0.7,0.7c-2,24.5-11.9,42.6-29.9,54.2
			c-1,0.6-2,0.8-3.1,0.8c-0.4,0-0.8,0-1.2-0.1c-1.6-0.3-2.9-1.1-3.9-2.2c-0.5-0.6-1.1-1.1-1.7-1.7c-0.6-0.6-1.1-1.2-1.7-1.8
			c-0.8-0.8-1.2-1.7-1.2-2.8c0-1.6,0.6-2.7,1.8-3.5c15.2-9.3,23.9-23.7,26-43c0.1-0.4-0.2-0.7-0.7-0.7h-21.5c-1.5,0-2.8-0.5-3.9-1.6
			c-1.1-1.1-1.6-2.4-1.6-3.9v-3.3c0-1.5,0.5-2.8,1.6-3.9c1.1-1.1,2.4-1.6,3.9-1.6h22c0.5,0,0.7-0.2,0.7-0.7v-13
			c0-1.5,0.5-2.8,1.6-3.9c1.1-1.1,2.4-1.6,3.9-1.6h3.8c1.5,0,2.8,0.5,3.9,1.6c1.1,1.1,1.6,2.4,1.6,3.9V158z"/>
	</g>
</g>
</svg>
